<svg width="80" height="80" viewBox="0 0 80 80" fill="none" xmlns="http://www.w3.org/2000/svg">
<path d="M64 36.401C64 21.1579 51.6431 8.80098 36.4 8.80098C21.1569 8.80098 8.8 21.1579 8.8 36.401C8.8 51.644 21.1569 64.001 36.4 64.001C51.6431 64.001 64 51.644 64 36.401ZM68.8 36.401C68.8 54.295 54.294 68.801 36.4 68.801C18.506 68.801 4 54.295 4 36.401C4 18.507 18.506 4.00098 36.4 4.00098C54.294 4.00098 68.8 18.5069 68.8 36.401Z" fill="#D1D6DD"/>
<path d="M26.7462 40.4835C26.1296 39.8506 25.1166 39.8373 24.4837 40.4538C23.8508 41.0704 23.8375 42.0834 24.454 42.7163C27.635 45.9811 31.613 47.9999 36.0001 47.9999C40.3872 47.9999 44.3652 45.9811 47.5462 42.7163C48.1627 42.0834 48.1494 41.0704 47.5165 40.4538C46.8836 39.8373 45.8706 39.8506 45.254 40.4835C42.5391 43.2698 39.3466 44.7999 36.0001 44.7999C32.6536 44.7999 29.4611 43.2698 26.7462 40.4835Z" fill="#9AA3AF"/>
<path d="M49.6002 29.5999C49.6002 31.3672 48.1675 32.7999 46.4002 32.7999C44.6329 32.7999 43.2002 31.3672 43.2002 29.5999C43.2002 27.8326 44.6329 26.3999 46.4002 26.3999C48.1675 26.3999 49.6002 27.8326 49.6002 29.5999Z" fill="#9AA3AF"/>
<path d="M29.6002 29.5999C29.6002 31.3672 28.1675 32.7999 26.4002 32.7999C24.6329 32.7999 23.2002 31.3672 23.2002 29.5999C23.2002 27.8326 24.6329 26.3999 26.4002 26.3999C28.1675 26.3999 29.6002 27.8326 29.6002 29.5999Z" fill="#9AA3AF"/>
<path d="M56.6365 56.6343C57.5738 55.6971 59.093 55.6971 60.0303 56.6343L67.5303 64.1343L75.0303 71.6343C75.9675 72.5716 75.9675 74.0908 75.0303 75.0281C74.093 75.9653 72.5738 75.9653 71.6365 75.0281L56.6365 60.0281C55.6993 59.0908 55.6993 57.5716 56.6365 56.6343Z" fill="#D1D6DD"/>
</svg>
