<svg width="80" height="80" viewBox="0 0 80 80" fill="none" xmlns="http://www.w3.org/2000/svg">
<path d="M68.8 39.9999C68.8 24.0941 55.9058 11.1999 40 11.1999C24.0942 11.1999 11.2 24.0941 11.2 39.9999C11.2 55.9057 24.0942 68.7999 40 68.7999C55.9058 68.7999 68.8 55.9057 68.8 39.9999ZM73.6 39.9999C73.6 58.5567 58.5568 73.5999 40 73.5999C21.4433 73.5999 6.40003 58.5567 6.40002 39.9999C6.40002 21.4431 21.4433 6.3999 40 6.3999C58.5568 6.3999 73.6 21.4431 73.6 39.9999Z" fill="#D1D6DD"/>
<path d="M31.0328 44.6044C30.2621 43.8133 28.9959 43.7967 28.2047 44.5673C27.4136 45.3381 27.3968 46.6043 28.1676 47.3954C31.4068 50.7198 35.4826 52.7996 39.9996 52.7997C44.5168 52.7997 48.5934 50.7199 51.8326 47.3954C52.6033 46.6042 52.5866 45.338 51.7955 44.5673C51.0044 43.7966 49.7382 43.8133 48.9674 44.6044C46.3108 47.3308 43.2161 48.7997 39.9996 48.7997C36.7834 48.7996 33.6893 47.3307 31.0328 44.6044Z" fill="#9AA3AF"/>
<path d="M26 36C26 34.9391 26.4214 33.9217 27.1716 33.1716C27.9217 32.4214 28.9391 32 30 32C31.0609 32 32.0783 32.4214 32.8284 33.1716C33.5786 33.9217 34 34.9391 34 36" stroke="#9AA3AF" stroke-width="4" stroke-linecap="round"/>
<path d="M46 36C46 34.9391 46.4214 33.9217 47.1716 33.1716C47.9217 32.4214 48.9391 32 50 32C51.0609 32 52.0783 32.4214 52.8284 33.1716C53.5786 33.9217 54 34.9391 54 36" stroke="#9AA3AF" stroke-width="4" stroke-linecap="round"/>
<path d="M71 4V16" stroke="#D1D6DD" stroke-width="4.2" stroke-linecap="round"/>
<path d="M77 10L65 10" stroke="#D1D6DD" stroke-width="4.2" stroke-linecap="round"/>
</svg>
