<svg width="80" height="80" viewBox="0 0 80 80" fill="none" xmlns="http://www.w3.org/2000/svg">
<g clip-path="url(#clip0_4616_10658)">
<path d="M48.6328 10.718C53.2563 9.00839 59.4233 6.56913 65.4863 11.053C66.1237 11.5244 66.4999 12.27 66.5 13.0628V30.9358C66.4999 31.8795 65.9686 32.7433 65.126 33.1682C64.2832 33.5932 63.2726 33.5067 62.5137 32.9456C58.9101 30.2806 55.4103 31.4157 50.3672 33.2805C45.7437 34.9902 39.5767 37.4294 33.5137 32.9456C32.8763 32.4742 32.5001 31.7285 32.5 30.9358V13.0628C32.5001 12.119 33.0314 11.2553 33.874 10.8303C34.7168 10.4054 35.7274 10.4918 36.4863 11.053C40.0899 13.718 43.5897 12.5829 48.6328 10.718ZM61.5 14.4202C58.2393 12.6274 54.9368 13.7178 50.3672 15.4075C46.7576 16.7422 42.2073 18.5212 37.5 17.1038V29.5774C40.7608 31.3705 44.063 30.2809 48.6328 28.5911C52.2424 27.2564 56.7928 25.4765 61.5 26.8938V14.4202Z" fill="#D1D6DD"/>
<path d="M32.5 59L32.5 13C32.5 11.6193 33.6193 10.5 35 10.5C36.3807 10.5 37.5 11.6193 37.5 13L37.5 59C37.5 60.3807 36.3807 61.5 35 61.5C33.6193 61.5 32.5 60.3807 32.5 59Z" fill="#D1D6DD"/>
<path d="M34.0353 56.5C44.2609 56.5 53.4902 60.6419 59.8409 67.2705C60.7959 68.2675 60.7617 69.8506 59.7648 70.8057C58.7678 71.7606 57.1847 71.7264 56.2296 70.7295C50.8269 65.0905 42.9046 61.5 34.0353 61.5C25.1659 61.5 17.2437 65.0905 11.8409 70.7295C10.8858 71.7264 9.30277 71.7606 8.30577 70.8057C7.30887 69.8506 7.27465 68.2675 8.2296 67.2705C14.5803 60.6419 23.8096 56.5 34.0353 56.5Z" fill="#D1D6DD"/>
<path d="M60.3322 61.5C65.3818 61.5 70.0618 63.8955 72.1945 67.8018C72.856 69.0136 72.4101 70.5327 71.1984 71.1943C69.9866 71.8559 68.4675 71.4099 67.8058 70.1982C66.7287 68.2253 63.9597 66.5 60.3322 66.5C58.7369 66.5001 57.2732 66.8402 56.049 67.4062C54.7958 67.9854 53.31 67.4386 52.7306 66.1855C52.1515 64.9324 52.6983 63.4466 53.9513 62.8672C55.8521 61.9884 58.0335 61.5001 60.3322 61.5Z" fill="#D1D6DD"/>
<path d="M23.1108 12.5176C23.9393 12.5176 24.6108 13.1892 24.6108 14.0176C24.6108 14.846 23.9393 15.5176 23.1108 15.5176H17.1108C16.2824 15.5176 15.6108 14.846 15.6108 14.0176C15.6108 13.1892 16.2824 12.5176 17.1108 12.5176H23.1108Z" fill="#9AA3AF"/>
<path d="M18.6108 17.0176V11.0176C18.6108 10.1892 19.2824 9.51758 20.1108 9.51758C20.9393 9.51758 21.6108 10.1892 21.6108 11.0176V17.0176C21.6108 17.846 20.9393 18.5176 20.1108 18.5176C19.2824 18.5176 18.6108 17.846 18.6108 17.0176Z" fill="#9AA3AF"/>
<path d="M62.0425 42.7598C62.8709 42.7598 63.5425 43.4313 63.5425 44.2598C63.5425 45.0882 62.8709 45.7598 62.0425 45.7598H56.0425C55.2141 45.7598 54.5425 45.0882 54.5425 44.2598C54.5425 43.4313 55.2141 42.7598 56.0425 42.7598H62.0425Z" fill="#9AA3AF"/>
<path d="M57.5425 47.2598V41.2598C57.5425 40.4313 58.2141 39.7598 59.0425 39.7598C59.8709 39.7598 60.5425 40.4313 60.5425 41.2598V47.2598C60.5425 48.0882 59.8709 48.7598 59.0425 48.7598C58.2141 48.7598 57.5425 48.0882 57.5425 47.2598Z" fill="#9AA3AF"/>
</g>
<defs>
<clipPath id="clip0_4616_10658">
<rect width="66" height="64" fill="white" transform="translate(7 8)"/>
</clipPath>
</defs>
</svg>
