<svg width="100" height="100" viewBox="0 0 100 100" fill="none" xmlns="http://www.w3.org/2000/svg">
<rect x="14" y="14" width="71" height="51"/>
<path d="M50 66.6667V82.5M50 82.5H75M50 82.5H25M25.8333 66.6667H74.1667C78.8338 66.6667 81.1673 66.6667 82.9499 65.7584C84.5179 64.9594 85.7928 63.6846 86.5917 62.1166C87.5 60.334 87.5 58.0004 87.5 53.3333V25.8333C87.5 21.1662 87.5 18.8327 86.5917 17.0501C85.7928 15.4821 84.5179 14.2072 82.9499 13.4083C81.1673 12.5 78.8338 12.5 74.1667 12.5H25.8333C21.1662 12.5 18.8327 12.5 17.0501 13.4083C15.4821 14.2072 14.2072 15.4821 13.4083 17.0501C12.5 18.8327 12.5 21.1662 12.5 25.8333V53.3333C12.5 58.0004 12.5 60.334 13.4083 62.1166C14.2072 63.6846 15.4821 64.9594 17.0501 65.7584C18.8327 66.6667 21.1662 66.6667 25.8333 66.6667Z" stroke="var(--path-color-1)" stroke-width="6" stroke-linecap="round"/>
<path d="M60 45.2002C57.052 48.2258 53.4668 50.0002 49.6 50.0002C45.7332 50.0002 42.148 48.2258 39.2 45.2002" stroke="var(--path-color-2)" stroke-width="4" stroke-linecap="round"/>
<circle cx="59.9998" cy="33.2" r="3.2" fill="var(--path-color-2)"/>
<circle cx="39.2" cy="33.2" r="3.2" fill="var(--path-color-2)"/>
</svg>
