<svg width="100%" height="100%" viewBox="0 0 80 80" fill="none" xmlns="http://www.w3.org/2000/svg">
<path d="M68.8004 39.9999C68.8004 24.0941 55.9062 11.1999 40.0004 11.1999C24.0946 11.1999 11.2004 24.0941 11.2004 39.9999C11.2004 55.9057 24.0946 68.7999 40.0004 68.7999C55.9062 68.7999 68.8004 55.9057 68.8004 39.9999ZM73.6004 39.9999C73.6004 58.5567 58.5572 73.5999 40.0004 73.5999C21.4436 73.5999 6.40039 58.5567 6.40039 39.9999C6.40039 21.4431 21.4436 6.3999 40.0004 6.3999C58.5572 6.3999 73.6004 21.4431 73.6004 39.9999Z" fill="var(--path-color-1)"/>
<path d="M50.4004 45.6001C47.4524 48.6257 43.8672 50.4001 40.0004 50.4001C36.1335 50.4001 32.5484 48.6257 29.6004 45.6001" stroke="var(--path-color-2)" stroke-width="4" stroke-linecap="round"/>
<circle cx="50.4002" cy="33.5999" r="3.2" fill="var(--path-color-2)"/>
<circle cx="29.6004" cy="33.5999" r="3.2" fill="var(--path-color-2)"/>
</svg>
