<svg width="16" height="16" viewBox="0 0 16 16" fill="none" xmlns="http://www.w3.org/2000/svg">
<g clip-path="url(#clip0_3208_1203)">
<path d="M6.08156 6.08156V5.33156C5.66735 5.33156 5.33156 5.66735 5.33156 6.08156H6.08156ZM6.14531 6.08156H6.89531C6.89531 5.66735 6.55953 5.33156 6.14531 5.33156V6.08156ZM9.92156 6.08156V5.33156C9.50735 5.33156 9.17156 5.66735 9.17156 6.08156H9.92156ZM9.97823 6.08156H10.7282C10.7282 5.66735 10.3924 5.33156 9.97823 5.33156V6.08156ZM6.14531 6.13281V6.88281C6.55953 6.88281 6.89531 6.54703 6.89531 6.13281H6.14531ZM6.08156 6.13281H5.33156C5.33156 6.54703 5.66735 6.88281 6.08156 6.88281V6.13281ZM9.97823 6.13281V6.88281C10.3924 6.88281 10.7282 6.54703 10.7282 6.13281H9.97823ZM9.92156 6.13281H9.17156C9.17156 6.54703 9.50735 6.88281 9.92156 6.88281V6.13281ZM6.42057 9.55292C6.20256 9.20072 5.74032 9.09194 5.38812 9.30996C5.03592 9.52797 4.92714 9.99021 5.14515 10.3424L5.78286 9.94767L6.42057 9.55292ZM10.858 10.3424C11.076 9.99021 10.9672 9.52797 10.615 9.30996C10.2628 9.09194 9.80056 9.20072 9.58255 9.55292L10.2203 9.94767L10.858 10.3424ZM14.4016 8.00156H13.6516C13.6516 11.122 11.122 13.6516 8.00156 13.6516V14.4016V15.1516C11.9504 15.1516 15.1516 11.9504 15.1516 8.00156H14.4016ZM8.00156 14.4016V13.6516C4.88115 13.6516 2.35156 11.122 2.35156 8.00156H1.60156H0.851562C0.851562 11.9504 4.05273 15.1516 8.00156 15.1516V14.4016ZM1.60156 8.00156H2.35156C2.35156 4.88115 4.88115 2.35156 8.00156 2.35156V1.60156V0.851562C4.05273 0.851562 0.851562 4.05273 0.851562 8.00156H1.60156ZM8.00156 1.60156V2.35156C11.122 2.35156 13.6516 4.88115 13.6516 8.00156H14.4016H15.1516C15.1516 4.05273 11.9504 0.851562 8.00156 0.851562V1.60156ZM6.08156 6.08156V6.83156H6.14531V6.08156V5.33156H6.08156V6.08156ZM9.92156 6.08156V6.83156H9.97823V6.08156V5.33156H9.92156V6.08156ZM6.14531 6.08156H5.39531V6.13281H6.14531H6.89531V6.08156H6.14531ZM6.14531 6.13281V5.38281H6.08156V6.13281V6.88281H6.14531V6.13281ZM6.08156 6.13281H6.83156V6.08156H6.08156H5.33156V6.13281H6.08156ZM9.97823 6.08156H9.22823V6.13281H9.97823H10.7282V6.08156H9.97823ZM9.97823 6.13281V5.38281H9.92156V6.13281V6.88281H9.97823V6.13281ZM9.92156 6.13281H10.6716V6.08156H9.92156H9.17156V6.13281H9.92156ZM8.00156 11.2015V10.4515C7.34583 10.4515 6.75984 10.101 6.42057 9.55292L5.78286 9.94767L5.14515 10.3424C5.73914 11.302 6.79176 11.9515 8.00156 11.9515V11.2015ZM10.2203 9.94767L9.58255 9.55292C9.24328 10.101 8.6573 10.4515 8.00156 10.4515V11.2015V11.9515C9.21136 11.9515 10.264 11.302 10.858 10.3424L10.2203 9.94767Z" fill="currentColor"/>
</g>
<defs>
<clipPath id="clip0_3208_1203">
<rect width="16" height="16" fill="white"/>
</clipPath>
</defs>
</svg>
