<svg width="100%" height="100%" viewBox="0 0 16 16" fill="none" xmlns="http://www.w3.org/2000/svg">
<path d="M7.66242 1.80827C7.80013 1.52924 8.19802 1.52924 8.33573 1.80827L10.1184 5.42035C10.1731 5.53116 10.2788 5.60796 10.4011 5.62573L14.3872 6.20495C14.6952 6.24969 14.8181 6.62811 14.5953 6.8453L11.7109 9.65692C11.6224 9.74317 11.582 9.86743 11.6029 9.98922L12.2838 13.9593C12.3364 14.266 12.0145 14.4998 11.7391 14.355L8.17377 12.4806C8.0644 12.4231 7.93374 12.4231 7.82437 12.4806L4.25903 14.355C3.98361 14.4998 3.66172 14.266 3.71432 13.9593L4.39524 9.98922C4.41612 9.86743 4.37575 9.74317 4.28727 9.65692L1.40285 6.8453C1.18003 6.62811 1.30298 6.24969 1.61091 6.20495L5.59708 5.62573C5.71936 5.60796 5.82506 5.53116 5.87975 5.42035L7.66242 1.80827Z" fill="currentColor" stroke="currentColor" stroke-linejoin="round"/>
</svg>
