<svg width="32" height="32" viewBox="0 0 32 32" fill="none" xmlns="http://www.w3.org/2000/svg">
<path d="M15.3248 3.61654C15.6003 3.05848 16.396 3.05848 16.6715 3.61654L20.2368 10.8407C20.3462 11.0623 20.5576 11.2159 20.8021 11.2515L28.7745 12.4099C29.3903 12.4994 29.6362 13.2562 29.1906 13.6906L23.4218 19.3138C23.2448 19.4863 23.164 19.7349 23.2058 19.9784L24.5677 27.9186C24.6729 28.5319 24.0291 28.9997 23.4782 28.7101L16.3475 24.9613C16.1288 24.8463 15.8675 24.8463 15.6487 24.9613L8.51807 28.7101C7.96723 28.9997 7.32343 28.5319 7.42863 27.9186L8.79047 19.9784C8.83225 19.7349 8.75149 19.4863 8.57453 19.3138L2.80569 13.6906C2.36005 13.2562 2.60596 12.4994 3.22182 12.4099L11.1942 11.2515C11.4387 11.2159 11.6501 11.0623 11.7595 10.8407L15.3248 3.61654Z" fill="#FFCF52" stroke="#FFCF52" stroke-width="2" stroke-linejoin="round"/>
</svg>
