<svg width="24" height="24" viewBox="0 0 24 24" fill="none" xmlns="http://www.w3.org/2000/svg">
<path d="M11.4936 2.71235C11.7002 2.2938 12.297 2.2938 12.5036 2.71235L15.1776 8.13047C15.2596 8.29668 15.4182 8.41188 15.6016 8.43853L21.5809 9.30736C22.0427 9.37448 22.2272 9.9421 21.8929 10.2679L17.5663 14.4853C17.4336 14.6147 17.373 14.8011 17.4044 14.9838L18.4257 20.9389C18.5046 21.3989 18.0218 21.7497 17.6087 21.5325L12.2607 18.7209C12.0966 18.6346 11.9006 18.6346 11.7366 18.7209L6.38855 21.5325C5.97542 21.7497 5.49257 21.3989 5.57147 20.9389L6.59285 14.9838C6.62418 14.8011 6.56362 14.6147 6.4309 14.4853L2.10427 10.2679C1.77004 9.9421 1.95447 9.37448 2.41636 9.30736L8.39562 8.43853C8.57904 8.41188 8.7376 8.29668 8.81962 8.13047L11.4936 2.71235Z" fill="currentColor"/>
</svg>
