<svg width="97" height="93" viewBox="0 0 97 93" fill="none" xmlns="http://www.w3.org/2000/svg">
<g filter="url(#filter0_f_3280_6302)">
<mask id="mask0_3280_6302" style="mask-type:alpha" maskUnits="userSpaceOnUse" x="25" y="25" width="47" height="43">
<rect x="25" y="25" width="46.5" height="42.5399" rx="21.27" fill="#54B0F8"/>
</mask>
<g mask="url(#mask0_3280_6302)">
<g filter="url(#filter1_f_3280_6302)">
<path d="M28.0354 36.8981C28.322 32.9804 31.0545 29.6724 34.8476 28.6513C36.4867 28.21 38.2157 28.2289 39.8448 28.7058L41.4809 29.1847C44.1014 29.9519 46.8793 30.0041 49.5267 29.336L54.3566 28.117C54.7263 28.0237 55.1061 27.9766 55.4874 27.9766H55.6973C59.3435 27.9766 61.4835 32.0778 59.3979 35.0686C58.7127 36.0513 57.6648 36.7211 56.4852 36.9303L50.1504 38.0539C45.6634 38.8497 42.394 42.7501 42.394 47.3071C42.394 48.2964 42.2378 49.2794 41.9312 50.22L40.5966 54.3137C39.9886 56.1788 38.533 57.6455 36.6727 58.2678L34.3577 59.0422C31.4842 60.0035 28.514 57.8651 28.514 54.835C28.514 54.5805 28.4921 54.3264 28.4485 54.0756L27.7037 49.7889C27.4179 48.1444 27.335 46.4711 27.4568 44.8065L28.0354 36.8981Z" fill="#1A6369"/>
</g>
<g filter="url(#filter2_f_3280_6302)">
<path d="M70.7381 62.4848C70.4514 66.4024 67.7189 69.7104 63.9259 70.7315C62.2867 71.1728 60.5577 71.1539 58.9286 70.677L57.2925 70.1981C54.6721 69.4309 51.8941 69.3787 49.2467 70.0469L44.4168 71.2658C44.0471 71.3591 43.6673 71.4062 43.286 71.4062H43.0762C39.4299 71.4062 37.2899 67.305 39.3755 64.3142C40.0607 63.3315 41.1087 62.6617 42.2883 62.4525L48.623 61.3289C53.11 60.5331 56.3794 56.6327 56.3794 52.0757C56.3794 51.0864 56.5356 50.1034 56.8422 49.1629L58.1769 45.0691C58.7849 43.2041 60.2404 41.7373 62.1007 41.115L64.4157 40.3406C67.2893 39.3793 70.2595 41.5177 70.2595 44.5478C70.2595 44.8024 70.2814 45.0564 70.325 45.3073L71.0698 49.5939C71.3555 51.2384 71.4384 52.9117 71.3166 54.5763L70.7381 62.4848Z" fill="#23858C"/>
</g>
<g filter="url(#filter3_f_3280_6302)">
<path d="M43.6774 85.0222C40.7861 87.3407 36.622 87.7648 33.245 86.0849C31.6323 85.2826 30.3198 84.0562 29.4772 82.5641L28.7813 81.3317C27.5228 79.1031 25.5819 77.2582 23.1957 76.0225L18.9065 73.8013C18.5303 73.6065 18.1845 73.3662 17.8784 73.0868C15.1885 70.6316 16.5248 66.4262 20.2347 65.6719L20.502 65.6175C21.8306 65.3474 23.2221 65.5883 24.3508 66.2837L28.8278 69.0424C33.0182 71.6245 38.6221 71.1258 42.1912 67.8532C42.9126 67.1916 43.7352 66.6295 44.6332 66.1842L49.0778 63.9803C50.7791 63.1367 52.8157 63.0779 54.5713 63.8217L56.3708 64.5841C59.3581 65.8497 60.0588 69.448 57.7332 71.5805C57.5572 71.7419 57.3953 71.9157 57.2492 72.1004L54.3508 75.763C53.3434 77.0361 52.1827 78.2017 50.8907 79.2377L43.6774 85.0222Z" fill="#34C7D2"/>
</g>
<g filter="url(#filter4_f_3280_6302)">
<path d="M4.301 30.9449C4.58761 27.0273 7.32017 23.7193 11.1132 22.6982C12.7523 22.2569 14.4813 22.2757 16.1105 22.7527L17.7465 23.2316C20.367 23.9988 23.1449 24.051 25.7924 23.3828L30.6223 22.1639C30.992 22.0706 31.3718 22.0234 31.753 22.0234H31.9629C35.6091 22.0234 37.7492 26.1246 35.6636 29.1155C34.9783 30.0982 33.9304 30.768 32.7508 30.9772L26.4161 32.1008C21.9291 32.8966 18.6596 36.7969 18.6596 41.354C18.6596 42.3432 18.5034 43.3263 18.1968 44.2668L16.8622 48.3606C16.2542 50.2256 14.7986 51.6924 12.9383 52.3147L10.6233 53.0891C7.74979 54.0504 4.77959 51.912 4.77959 48.8819C4.77959 48.6273 4.75768 48.3732 4.7141 48.1224L3.96928 43.8358C3.68355 42.1913 3.60065 40.518 3.72243 38.8533L4.301 30.9449Z" fill="#9AA3AF"/>
</g>
<g filter="url(#filter5_f_3280_6302)">
<path d="M76.2199 12.5023C79.6261 12.945 82.3845 15.4308 83.1684 18.7643C83.5825 20.5251 83.408 22.3802 82.6714 24.048L82.1832 25.1534C81.1601 27.4699 80.8945 30.0408 81.4245 32.497L82.362 36.842C82.4558 37.2766 82.4851 37.7235 82.4489 38.1684C82.1629 41.6834 78.167 43.6126 75.2731 41.6327L74.6607 41.2138C73.505 40.4231 72.7437 39.1778 72.5644 37.7846L72.0664 33.9156C71.4143 28.8499 67.2927 24.9772 62.1833 24.6293C61.2208 24.5638 60.273 24.3702 59.3651 24.0536L54.2977 22.2868C52.6594 21.7156 51.3947 20.4066 50.8817 18.7513L50.4764 17.4436C49.514 14.3384 52.0101 11.2036 55.2683 11.4254C55.4904 11.4406 55.7135 11.4396 55.9359 11.4226L61.0422 11.0323C62.6608 10.9086 64.2858 10.9514 65.8912 11.16L76.2199 12.5023Z" fill="#FCEDB5"/>
</g>
</g>
</g>
<g filter="url(#filter6_ii_3280_6302)">
<rect x="22.0625" y="7.53906" width="60" height="54.8902" rx="27.4451" fill="#00B1BD"/>
</g>
<mask id="mask1_3280_6302" style="mask-type:alpha" maskUnits="userSpaceOnUse" x="22" y="7" width="61" height="56">
<rect x="22.0625" y="7.53906" width="60" height="54.8902" rx="27.4451" fill="#54B0F8"/>
</mask>
<g mask="url(#mask1_3280_6302)">
<g filter="url(#filter7_f_3280_6302)" style="mix-blend-mode:darken">
<path d="M25.9832 22.8866C26.353 17.8316 29.8789 13.5632 34.7731 12.2456C36.8881 11.6762 39.1191 11.7006 41.2211 12.3159L43.3322 12.934C46.7135 13.9238 50.2979 13.9912 53.7139 13.1291L59.9461 11.5563C60.4231 11.4359 60.9132 11.375 61.4051 11.375H61.6759C66.3808 11.375 69.1421 16.6669 66.451 20.5261C65.5668 21.794 64.2146 22.6583 62.6926 22.9282L54.5187 24.378C48.729 25.4049 44.5104 30.4376 44.5104 36.3176C44.5104 37.5941 44.3089 38.8626 43.9132 40.0761L42.1912 45.3584C41.4066 47.7649 39.5285 49.6575 37.1281 50.4605L34.141 51.4597C30.4332 52.7 26.6007 49.9408 26.6007 46.0311C26.6007 45.7026 26.5724 45.3747 26.5162 45.0511L25.5551 39.52C25.1864 37.3981 25.0795 35.239 25.2366 33.091L25.9832 22.8866Z" fill="#2CA6AF"/>
</g>
<g filter="url(#filter8_f_3280_6302)" style="mix-blend-mode:color-dodge">
<path d="M81.0793 55.9025C80.7095 60.9574 77.1836 65.2258 72.2894 66.5434C70.1744 67.1128 67.9434 67.0885 65.8414 66.4731L63.7303 65.8551C60.349 64.8653 56.7646 64.7979 53.3486 65.66L47.1164 67.2328C46.6394 67.3532 46.1493 67.4141 45.6574 67.4141H45.3866C40.6817 67.4141 37.9204 62.1222 40.6115 58.263C41.4957 56.995 42.8479 56.1308 44.3699 55.8608L52.5438 54.4111C58.3335 53.3842 62.5521 48.3515 62.5521 42.4714C62.5521 41.195 62.7536 39.9265 63.1493 38.7129L64.8713 33.4306C65.6559 31.0241 67.534 29.1316 69.9344 28.3286L72.9215 27.3293C76.6293 26.089 80.4618 28.8482 80.4618 32.758C80.4618 33.0865 80.4901 33.4143 80.5463 33.7379L81.5074 39.2691C81.8761 41.391 81.983 43.5501 81.8259 45.6981L81.0793 55.9025Z" fill="#00B1BD"/>
</g>
<g filter="url(#filter9_f_3280_6302)" style="mix-blend-mode:plus-lighter">
<path d="M39.8763 93.8129C36.1457 96.8045 30.7726 97.3518 26.4151 95.1841C24.3342 94.1489 22.6407 92.5664 21.5535 90.6412L20.6556 89.051C19.0317 86.1753 16.5273 83.7949 13.4484 82.2004L7.9139 79.3344C7.42844 79.083 6.98223 78.7729 6.58733 78.4124C3.11645 75.2444 4.84078 69.8181 9.62765 68.8448L9.97263 68.7746C11.687 68.4261 13.4824 68.7369 14.9388 69.6343L20.7156 73.1939C26.1226 76.5256 33.3533 75.8821 37.9587 71.6593C38.8896 70.8058 39.951 70.0804 41.1097 69.5058L46.8446 66.6621C49.0397 65.5736 51.6677 65.4977 53.933 66.4575L56.2549 67.4412C60.1096 69.0743 61.0136 73.7172 58.0128 76.4687C57.7857 76.677 57.5769 76.9013 57.3883 77.1396L53.6485 81.8655C52.3485 83.5083 50.8509 85.0122 49.1838 86.3491L39.8763 93.8129Z" fill="#E1FAFC"/>
</g>
<g filter="url(#filter10_f_3280_6302)" style="mix-blend-mode:color-dodge">
<path d="M-4.64966 15.2069C-4.27984 10.1519 -0.75396 5.88355 4.14027 4.56594C6.25527 3.99654 8.48626 4.02087 10.5883 4.63625L12.6994 5.25426C16.0806 6.24411 19.6651 6.31148 23.0811 5.44938L29.3133 3.87658C29.7903 3.7562 30.2803 3.69531 30.7723 3.69531H31.0431C35.7479 3.69531 38.5092 8.98719 35.8182 12.8464C34.934 14.1144 33.5818 14.9786 32.0597 15.2486L23.8859 16.6983C18.0962 17.7252 13.8776 22.7579 13.8776 28.638C13.8776 29.9144 13.6761 31.1829 13.2804 32.3965L11.5583 37.6787C10.7738 40.0852 8.89567 41.9778 6.49528 42.7808L3.5082 43.78C-0.199608 45.0204 -4.03214 42.2611 -4.03214 38.3514C-4.03214 38.0229 -4.06041 37.695 -4.11664 37.3714L-5.07769 31.8403C-5.44638 29.7184 -5.55335 27.5593 -5.39621 25.4113L-4.64966 15.2069Z" fill="#F6F7F8"/>
</g>
<g filter="url(#filter11_f_3280_6302)" style="mix-blend-mode:color-dodge">
<path d="M88.1516 -8.58975C92.5468 -8.01858 96.106 -4.81106 97.1175 -0.509836C97.6519 1.76219 97.4267 4.15585 96.4762 6.30794L95.8463 7.73428C94.5262 10.7233 94.1835 14.0405 94.8673 17.2099L96.077 22.8162C96.198 23.3771 96.2358 23.9537 96.1891 24.5277C95.8201 29.0633 90.664 31.5526 86.93 28.9979L86.1399 28.4573C84.6486 27.437 83.6663 25.8302 83.4349 24.0326L82.7923 19.0403C81.9509 12.5039 76.6327 7.50681 70.04 7.05797C68.798 6.97342 67.5751 6.72361 66.4036 6.31515L59.865 4.03538C57.7511 3.29832 56.1191 1.60935 55.4572 -0.526506L54.9342 -2.21391C53.6925 -6.22062 56.9132 -10.2655 61.1174 -9.97928C61.4039 -9.95977 61.6918 -9.96098 61.9787 -9.98292L68.5676 -10.4865C70.6561 -10.6462 72.7528 -10.5909 74.8244 -10.3217L88.1516 -8.58975Z" fill="#FCEDB5"/>
</g>
</g>
<g filter="url(#filter12_f_3280_6302)">
<rect x="59.0625" y="31.5391" width="4" height="7" rx="2" fill="white"/>
</g>
<g filter="url(#filter13_f_3280_6302)">
<rect x="59.0625" y="31.5391" width="4" height="7" rx="2" fill="white"/>
</g>
<g filter="url(#filter14_f_3280_6302)">
<rect x="59.0625" y="31.5391" width="4" height="7" rx="2" fill="white"/>
</g>
<rect x="59.0625" y="31.5391" width="4" height="7" rx="2" fill="white"/>
<g filter="url(#filter15_f_3280_6302)">
<rect x="39.8125" y="31.6484" width="4" height="7" rx="2" fill="white"/>
</g>
<g filter="url(#filter16_f_3280_6302)">
<rect x="39.8125" y="31.6484" width="4" height="7" rx="2" fill="white"/>
</g>
<g filter="url(#filter17_f_3280_6302)">
<rect x="39.8125" y="31.6484" width="4" height="7" rx="2" fill="white"/>
</g>
<rect x="40.0625" y="31.5391" width="4" height="7" rx="2" fill="white"/>
<defs>
<filter id="filter0_f_3280_6302" x="0" y="0" width="96.5" height="92.5391" filterUnits="userSpaceOnUse" color-interpolation-filters="sRGB">
<feFlood flood-opacity="0" result="BackgroundImageFix"/>
<feBlend mode="normal" in="SourceGraphic" in2="BackgroundImageFix" result="shape"/>
<feGaussianBlur stdDeviation="12.5" result="effect1_foregroundBlur_3280_6302"/>
</filter>
<filter id="filter1_f_3280_6302" x="12.9095" y="13.4798" width="61.806" height="60.2903" filterUnits="userSpaceOnUse" color-interpolation-filters="sRGB">
<feFlood flood-opacity="0" result="BackgroundImageFix"/>
<feBlend mode="normal" in="SourceGraphic" in2="BackgroundImageFix" result="shape"/>
<feGaussianBlur stdDeviation="7.24837" result="effect1_foregroundBlur_3280_6302"/>
</filter>
<filter id="filter2_f_3280_6302" x="24.058" y="25.6126" width="61.806" height="60.2903" filterUnits="userSpaceOnUse" color-interpolation-filters="sRGB">
<feFlood flood-opacity="0" result="BackgroundImageFix"/>
<feBlend mode="normal" in="SourceGraphic" in2="BackgroundImageFix" result="shape"/>
<feGaussianBlur stdDeviation="7.24837" result="effect1_foregroundBlur_3280_6302"/>
</filter>
<filter id="filter3_f_3280_6302" x="3.4502" y="50.294" width="68.6777" height="49.8183" filterUnits="userSpaceOnUse" color-interpolation-filters="sRGB">
<feFlood flood-opacity="0" result="BackgroundImageFix"/>
<feBlend mode="normal" in="SourceGraphic" in2="BackgroundImageFix" result="shape"/>
<feGaussianBlur stdDeviation="6.50537" result="effect1_foregroundBlur_3280_6302"/>
</filter>
<filter id="filter4_f_3280_6302" x="-9.33886" y="9.0127" width="58.834" height="57.3183" filterUnits="userSpaceOnUse" color-interpolation-filters="sRGB">
<feFlood flood-opacity="0" result="BackgroundImageFix"/>
<feBlend mode="normal" in="SourceGraphic" in2="BackgroundImageFix" result="shape"/>
<feGaussianBlur stdDeviation="6.50537" result="effect1_foregroundBlur_3280_6302"/>
</filter>
<filter id="filter5_f_3280_6302" x="37.2549" y="-2.0498" width="59.1465" height="57.4902" filterUnits="userSpaceOnUse" color-interpolation-filters="sRGB">
<feFlood flood-opacity="0" result="BackgroundImageFix"/>
<feBlend mode="normal" in="SourceGraphic" in2="BackgroundImageFix" result="shape"/>
<feGaussianBlur stdDeviation="6.50537" result="effect1_foregroundBlur_3280_6302"/>
</filter>
<filter id="filter6_ii_3280_6302" x="22.0625" y="5.00933" width="60" height="57.4204" filterUnits="userSpaceOnUse" color-interpolation-filters="sRGB">
<feFlood flood-opacity="0" result="BackgroundImageFix"/>
<feBlend mode="normal" in="SourceGraphic" in2="BackgroundImageFix" result="shape"/>
<feColorMatrix in="SourceAlpha" type="matrix" values="0 0 0 0 0 0 0 0 0 0 0 0 0 0 0 0 0 0 127 0" result="hardAlpha"/>
<feOffset dy="-2.52973"/>
<feGaussianBlur stdDeviation="1.4546"/>
<feComposite in2="hardAlpha" operator="arithmetic" k2="-1" k3="1"/>
<feColorMatrix type="matrix" values="0 0 0 0 0.106659 0 0 0 0 0.341393 0 0 0 0 0.986914 0 0 0 0.25 0"/>
<feBlend mode="normal" in2="shape" result="effect1_innerShadow_3280_6302"/>
<feColorMatrix in="SourceAlpha" type="matrix" values="0 0 0 0 0 0 0 0 0 0 0 0 0 0 0 0 0 0 127 0" result="hardAlpha"/>
<feOffset/>
<feGaussianBlur stdDeviation="1.8973"/>
<feComposite in2="hardAlpha" operator="arithmetic" k2="-1" k3="1"/>
<feColorMatrix type="matrix" values="0 0 0 0 1 0 0 0 0 1 0 0 0 0 1 0 0 0 1 0"/>
<feBlend mode="normal" in2="effect1_innerShadow_3280_6302" result="effect2_innerShadow_3280_6302"/>
</filter>
<filter id="filter7_f_3280_6302" x="6.65484" y="-7.13422" width="79.3622" height="77.4013" filterUnits="userSpaceOnUse" color-interpolation-filters="sRGB">
<feFlood flood-opacity="0" result="BackgroundImageFix"/>
<feBlend mode="normal" in="SourceGraphic" in2="BackgroundImageFix" result="shape"/>
<feGaussianBlur stdDeviation="9.25461" result="effect1_foregroundBlur_3280_6302"/>
</filter>
<filter id="filter8_f_3280_6302" x="21.0455" y="8.52203" width="79.3622" height="77.4013" filterUnits="userSpaceOnUse" color-interpolation-filters="sRGB">
<feFlood flood-opacity="0" result="BackgroundImageFix"/>
<feBlend mode="normal" in="SourceGraphic" in2="BackgroundImageFix" result="shape"/>
<feGaussianBlur stdDeviation="9.25461" result="effect1_foregroundBlur_3280_6302"/>
</filter>
<filter id="filter9_f_3280_6302" x="-11.8541" y="49.1771" width="88.2629" height="63.9348" filterUnits="userSpaceOnUse" color-interpolation-filters="sRGB">
<feFlood flood-opacity="0" result="BackgroundImageFix"/>
<feBlend mode="normal" in="SourceGraphic" in2="BackgroundImageFix" result="shape"/>
<feGaussianBlur stdDeviation="8.30596" result="effect1_foregroundBlur_3280_6302"/>
</filter>
<filter id="filter10_f_3280_6302" x="-22.0807" y="-12.9166" width="75.5676" height="73.6067" filterUnits="userSpaceOnUse" color-interpolation-filters="sRGB">
<feFlood flood-opacity="0" result="BackgroundImageFix"/>
<feBlend mode="normal" in="SourceGraphic" in2="BackgroundImageFix" result="shape"/>
<feGaussianBlur stdDeviation="8.30596" result="effect1_foregroundBlur_3280_6302"/>
</filter>
<filter id="filter11_f_3280_6302" x="38.0521" y="-27.19" width="75.9582" height="73.8254" filterUnits="userSpaceOnUse" color-interpolation-filters="sRGB">
<feFlood flood-opacity="0" result="BackgroundImageFix"/>
<feBlend mode="normal" in="SourceGraphic" in2="BackgroundImageFix" result="shape"/>
<feGaussianBlur stdDeviation="8.30596" result="effect1_foregroundBlur_3280_6302"/>
</filter>
<filter id="filter12_f_3280_6302" x="58.2193" y="30.6958" width="5.68649" height="8.68649" filterUnits="userSpaceOnUse" color-interpolation-filters="sRGB">
<feFlood flood-opacity="0" result="BackgroundImageFix"/>
<feBlend mode="normal" in="SourceGraphic" in2="BackgroundImageFix" result="shape"/>
<feGaussianBlur stdDeviation="0.421622" result="effect1_foregroundBlur_3280_6302"/>
</filter>
<filter id="filter13_f_3280_6302" x="55.816" y="28.2926" width="10.493" height="13.493" filterUnits="userSpaceOnUse" color-interpolation-filters="sRGB">
<feFlood flood-opacity="0" result="BackgroundImageFix"/>
<feBlend mode="normal" in="SourceGraphic" in2="BackgroundImageFix" result="shape"/>
<feGaussianBlur stdDeviation="1.62325" result="effect1_foregroundBlur_3280_6302"/>
</filter>
<filter id="filter14_f_3280_6302" x="52.9068" y="25.3834" width="16.3114" height="19.3114" filterUnits="userSpaceOnUse" color-interpolation-filters="sRGB">
<feFlood flood-opacity="0" result="BackgroundImageFix"/>
<feBlend mode="normal" in="SourceGraphic" in2="BackgroundImageFix" result="shape"/>
<feGaussianBlur stdDeviation="3.07784" result="effect1_foregroundBlur_3280_6302"/>
</filter>
<filter id="filter15_f_3280_6302" x="38.9693" y="30.8052" width="5.68649" height="8.68649" filterUnits="userSpaceOnUse" color-interpolation-filters="sRGB">
<feFlood flood-opacity="0" result="BackgroundImageFix"/>
<feBlend mode="normal" in="SourceGraphic" in2="BackgroundImageFix" result="shape"/>
<feGaussianBlur stdDeviation="0.421622" result="effect1_foregroundBlur_3280_6302"/>
</filter>
<filter id="filter16_f_3280_6302" x="36.566" y="28.4019" width="10.493" height="13.493" filterUnits="userSpaceOnUse" color-interpolation-filters="sRGB">
<feFlood flood-opacity="0" result="BackgroundImageFix"/>
<feBlend mode="normal" in="SourceGraphic" in2="BackgroundImageFix" result="shape"/>
<feGaussianBlur stdDeviation="1.62325" result="effect1_foregroundBlur_3280_6302"/>
</filter>
<filter id="filter17_f_3280_6302" x="33.6568" y="25.4928" width="16.3114" height="19.3114" filterUnits="userSpaceOnUse" color-interpolation-filters="sRGB">
<feFlood flood-opacity="0" result="BackgroundImageFix"/>
<feBlend mode="normal" in="SourceGraphic" in2="BackgroundImageFix" result="shape"/>
<feGaussianBlur stdDeviation="3.07784" result="effect1_foregroundBlur_3280_6302"/>
</filter>
</defs>
</svg>
