<svg width="16" height="16" viewBox="0 0 16 16" fill="none" xmlns="http://www.w3.org/2000/svg">
<path d="M7.99984 14.6667C9.33317 14.6667 13.3332 9.61223 13.3332 6.66671C13.3332 3.72119 10.9454 1.33337 7.99984 1.33337C5.05432 1.33337 2.6665 3.72119 2.6665 6.66671C2.6665 9.61223 6.6665 14.6667 7.99984 14.6667Z" fill="#00B1BD"/>
<path d="M9.5268 4.86389C9.7861 4.6026 10.2082 4.60078 10.4695 4.85998C10.7308 5.11929 10.7326 5.54134 10.4734 5.80269L7.89984 8.39579C7.54149 8.75675 6.95872 8.75675 6.60036 8.39579L5.52679 7.31441C5.26747 7.05307 5.26937 6.63105 5.5307 6.3717C5.79203 6.11239 6.21406 6.11367 6.47341 6.37496L7.2501 7.15751L9.5268 4.86389Z" fill="white"/>
</svg>
