<svg width="100%" height="100%" viewBox="0 0 1919 890" fill="none" xmlns="http://www.w3.org/2000/svg">
<g clip-path="url(#clip0_4609_10871)">
<path d="M-55.3006 210.97L-49.601 218.843C436.937 -10.6937 640.619 155.617 837.591 316.457C916.446 380.852 990.935 441.675 1082.42 478.56C1131.78 498.463 1181.29 509.364 1233.74 511.891C1292.31 514.702 1353.1 507.076 1419.61 488.581C1472.07 473.986 1540.56 439.84 1612.42 392.439C1687.31 343.033 1761.47 282.63 1826.89 217.752C1899.15 146.09 1958.17 71.0309 1997.57 0.69631C2043.1 -80.5755 2063.42 -155.838 2057.99 -223.006" stroke="#FFA579" stroke-width="3"/>
<path opacity="0.5" d="M-419.277 462.126C-483.366 438.584 -551.743 410.733 -625 378.077L-624.253 376.424C87.2694 693.561 338.46 558.884 656.465 388.4C790.311 316.64 942.038 235.294 1145.03 181.89C1290.16 143.697 1407.36 209.005 1531.45 278.149C1732.06 389.92 1959.42 516.635 2360.66 212.005L2361.86 213.458C2182.14 349.891 2021.93 412.159 1872.05 403.816C1740 396.453 1633.52 337.128 1530.55 279.731C1406.82 210.789 1289.96 145.669 1145.59 183.662C942.817 237.011 791.211 318.298 657.44 390.017C371.721 543.19 139.849 667.491 -419.253 462.156L-419.277 462.126Z" fill="#D1D6DD"/>
<path opacity="0.61" d="M-685.489 161.313L-684.916 163.108C144.253 -98.5909 360.016 102.973 588.449 316.368C703.021 423.394 821.478 534.057 1023.03 586.509C1089.31 603.764 1153.85 593.529 1226.15 554.304C1290.66 519.322 1353.77 465.345 1420.6 408.216C1650.62 211.574 1911.34 -11.319 2413.2 322.25L2414.34 320.687C2190.25 171.747 1993.36 121.265 1812.39 166.359C1654.58 205.68 1529.58 312.536 1419.32 406.807C1284.18 522.337 1167.46 622.105 1023.59 584.659C822.512 532.324 704.217 421.827 589.833 314.976C474.207 206.968 365.009 104.963 178.267 60.3035C77.9956 36.3242 -35.2841 31.2999 -168.037 44.9394C-316.488 60.2027 -485.745 98.263 -685.479 161.29L-685.489 161.313Z" fill="#D1D6DD"/>
<path opacity="0.68" d="M2807 523.519L2806.69 521.899C2349.68 643.679 2020.61 678.319 1800.68 627.809C1606.2 583.141 1517.56 479.036 1431.84 378.362C1341.42 272.16 1256 171.841 1056.17 143.255C903.705 121.443 760.963 237.793 595.68 372.512C454.162 487.866 293.741 618.629 97.1664 684.947C-129.302 761.321 -365.495 738.835 -625.1 616.186L-626.481 617.706C-41.455 894.088 312.618 605.478 597.13 373.566C761.873 239.277 904.167 123.307 1055.39 144.938C1254.52 173.433 1339.74 273.521 1429.95 379.486C1515.82 480.353 1604.62 584.651 1799.7 629.467C1905.02 653.667 2031.03 658.526 2184.9 644.356C2358.34 628.375 2561.84 588.855 2807 523.519Z" fill="#D1D6DD"/>
</g>
<defs>
<clipPath id="clip0_4609_10871">
<rect width="1920" height="890" fill="white"/>
</clipPath>
</defs>
</svg>
