<svg width="374" height="352" viewBox="0 0 374 352" fill="none" xmlns="http://www.w3.org/2000/svg">
<g clip-path="url(#clip0_4609_11017)">
<g filter="url(#filter0_d_4609_11017)">
<circle cx="291" cy="176.199" r="71" fill="url(#paint0_linear_4609_11017)"/>
<circle cx="291" cy="176.199" r="70.25" stroke="url(#paint1_linear_4609_11017)" stroke-width="1.5"/>
</g>
<g filter="url(#filter1_d_4609_11017)">
<circle cx="77" cy="176.199" r="71" fill="url(#paint2_linear_4609_11017)"/>
<circle cx="77" cy="176.199" r="70.25" stroke="url(#paint3_linear_4609_11017)" stroke-width="1.5"/>
</g>
<g filter="url(#filter2_df_4609_11017)">
<ellipse cx="154.333" cy="176.2" rx="29.6667" ry="71.2" fill="url(#paint4_linear_4609_11017)" fill-opacity="0.3" shape-rendering="crispEdges"/>
<path d="M154.333 105.5C158.255 105.5 162.037 107.406 165.524 110.946C169.014 114.489 172.179 119.64 174.849 126.046C180.186 138.856 183.499 156.588 183.499 176.2C183.499 195.812 180.186 213.543 174.849 226.354C172.179 232.76 169.014 237.912 165.524 241.454C162.037 244.995 158.255 246.9 154.333 246.9C150.411 246.9 146.629 244.995 143.142 241.454C139.652 237.912 136.486 232.76 133.816 226.354C128.479 213.543 125.166 195.812 125.166 176.2C125.166 156.588 128.479 138.856 133.816 126.046C136.486 119.64 139.652 114.489 143.142 110.946C146.63 107.406 150.411 105.5 154.333 105.5Z" stroke="url(#paint5_linear_4609_11017)" shape-rendering="crispEdges"/>
</g>
<g filter="url(#filter3_df_4609_11017)">
<ellipse cx="172.134" cy="176.2" rx="11.8667" ry="71.2" fill="url(#paint6_linear_4609_11017)" fill-opacity="0.3" shape-rendering="crispEdges"/>
<path d="M172.134 105.5C172.735 105.5 173.407 105.865 174.138 106.763C174.864 107.654 175.587 108.998 176.288 110.778C177.689 114.333 178.961 119.507 180.032 125.937C182.174 138.787 183.501 156.558 183.501 176.2C183.501 195.843 182.174 213.614 180.032 226.464C178.961 232.893 177.689 238.066 176.288 241.621C175.587 243.401 174.864 244.746 174.138 245.638C173.407 246.535 172.735 246.9 172.134 246.9C171.533 246.9 170.862 246.535 170.131 245.638C169.405 244.746 168.682 243.401 167.98 241.621C166.58 238.066 165.308 232.893 164.236 226.464C162.095 213.614 160.768 195.843 160.768 176.2C160.768 156.558 162.095 138.787 164.236 125.937C165.308 119.507 166.58 114.333 167.98 110.778C168.682 108.998 169.405 107.654 170.131 106.763C170.862 105.865 171.533 105.5 172.134 105.5Z" stroke="url(#paint7_linear_4609_11017)" shape-rendering="crispEdges"/>
</g>
<g filter="url(#filter4_df_4609_11017)">
<ellipse cx="136.533" cy="176.2" rx="47.4667" ry="71.2" fill="url(#paint8_linear_4609_11017)" fill-opacity="0.3" shape-rendering="crispEdges"/>
<path d="M136.533 105.5C149.421 105.5 161.151 113.336 169.681 126.131C178.209 138.923 183.5 156.624 183.5 176.2C183.5 195.777 178.208 213.477 169.681 226.269C161.151 239.064 149.421 246.9 136.533 246.9C123.645 246.9 111.915 239.064 103.385 226.269C94.857 213.477 89.5664 195.776 89.5664 176.2C89.5664 156.624 94.8569 138.923 103.385 126.131C111.915 113.336 123.645 105.5 136.533 105.5Z" stroke="url(#paint9_linear_4609_11017)" shape-rendering="crispEdges"/>
</g>
<g filter="url(#filter5_df_4609_11017)">
<circle cx="112.8" cy="176.2" r="71.2" fill="url(#paint10_linear_4609_11017)" fill-opacity="0.3" shape-rendering="crispEdges"/>
<circle cx="112.8" cy="176.2" r="70.7" stroke="url(#paint11_linear_4609_11017)" shape-rendering="crispEdges"/>
</g>
<g filter="url(#filter6_df_4609_11017)">
<ellipse cx="213.667" cy="176.2" rx="29.6667" ry="71.2" fill="url(#paint12_linear_4609_11017)" fill-opacity="0.3" shape-rendering="crispEdges"/>
<path d="M213.667 105.5C217.589 105.5 221.371 107.406 224.858 110.946C228.348 114.489 231.513 119.64 234.183 126.046C239.52 138.856 242.833 156.588 242.833 176.2C242.833 195.812 239.52 213.543 234.183 226.354C231.513 232.76 228.348 237.912 224.858 241.454C221.371 244.995 217.589 246.9 213.667 246.9C209.745 246.9 205.963 244.995 202.476 241.454C198.986 237.912 195.82 232.76 193.15 226.354C187.813 213.543 184.5 195.812 184.5 176.2C184.5 156.588 187.813 138.856 193.15 126.046C195.82 119.64 198.986 114.489 202.476 110.946C205.963 107.406 209.745 105.5 213.667 105.5Z" stroke="url(#paint13_linear_4609_11017)" shape-rendering="crispEdges"/>
</g>
<g filter="url(#filter7_df_4609_11017)">
<ellipse cx="195.867" cy="176.2" rx="11.8667" ry="71.2" fill="url(#paint14_linear_4609_11017)" fill-opacity="0.3" shape-rendering="crispEdges"/>
<path d="M195.866 105.5C196.467 105.5 197.139 105.865 197.87 106.763C198.596 107.654 199.319 108.998 200.021 110.778C201.421 114.333 202.693 119.507 203.765 125.937C205.906 138.787 207.233 156.558 207.233 176.2C207.233 195.843 205.906 213.614 203.765 226.464C202.693 232.893 201.421 238.066 200.021 241.621C199.319 243.401 198.596 244.746 197.87 245.638C197.139 246.535 196.467 246.9 195.866 246.9C195.266 246.9 194.594 246.535 193.863 245.638C193.137 244.746 192.414 243.401 191.713 241.621C190.312 238.066 189.04 232.893 187.969 226.464C185.827 213.614 184.5 195.843 184.5 176.2C184.5 156.558 185.827 138.787 187.969 125.937C189.04 119.507 190.312 114.333 191.713 110.778C192.414 108.998 193.137 107.654 193.863 106.763C194.594 105.865 195.265 105.5 195.866 105.5Z" stroke="url(#paint15_linear_4609_11017)" shape-rendering="crispEdges"/>
</g>
<g filter="url(#filter8_df_4609_11017)">
<ellipse cx="231.467" cy="176.2" rx="47.4667" ry="71.2" fill="url(#paint16_linear_4609_11017)" fill-opacity="0.3" shape-rendering="crispEdges"/>
<path d="M231.467 105.5C244.355 105.5 256.084 113.336 264.614 126.131C273.142 138.923 278.434 156.624 278.434 176.2C278.434 195.777 273.142 213.477 264.614 226.269C256.084 239.064 244.355 246.9 231.467 246.9C218.578 246.9 206.849 239.064 198.318 226.269C189.791 213.477 184.5 195.776 184.5 176.2C184.5 156.624 189.791 138.923 198.318 126.131C206.849 113.336 218.578 105.5 231.467 105.5Z" stroke="url(#paint17_linear_4609_11017)" shape-rendering="crispEdges"/>
</g>
<g filter="url(#filter9_df_4609_11017)">
<circle cx="255.2" cy="176.2" r="71.2" fill="url(#paint18_linear_4609_11017)" fill-opacity="0.3" shape-rendering="crispEdges"/>
<circle cx="255.2" cy="176.2" r="70.7" stroke="url(#paint19_linear_4609_11017)" shape-rendering="crispEdges"/>
</g>
<path d="M154.333 105.5C158.255 105.5 162.037 107.406 165.524 110.946C169.014 114.489 172.179 119.64 174.849 126.046C180.186 138.856 183.499 156.588 183.499 176.2C183.499 195.812 180.186 213.543 174.849 226.354C172.179 232.76 169.014 237.912 165.524 241.454C162.037 244.995 158.255 246.9 154.333 246.9C150.411 246.9 146.629 244.995 143.142 241.454C139.652 237.912 136.486 232.76 133.816 226.354C128.479 213.543 125.166 195.812 125.166 176.2C125.166 156.588 128.479 138.856 133.816 126.046C136.486 119.64 139.652 114.489 143.142 110.946C146.63 107.406 150.411 105.5 154.333 105.5Z" stroke="url(#paint20_linear_4609_11017)"/>
<path d="M172.134 105.5C172.735 105.5 173.407 105.865 174.138 106.763C174.864 107.654 175.587 108.998 176.288 110.778C177.689 114.333 178.961 119.507 180.032 125.937C182.174 138.787 183.501 156.558 183.501 176.2C183.501 195.843 182.174 213.614 180.032 226.464C178.961 232.893 177.689 238.066 176.288 241.621C175.587 243.401 174.864 244.746 174.138 245.638C173.407 246.535 172.735 246.9 172.134 246.9C171.533 246.9 170.862 246.535 170.131 245.638C169.405 244.746 168.682 243.401 167.98 241.621C166.58 238.066 165.308 232.893 164.236 226.464C162.095 213.614 160.768 195.843 160.768 176.2C160.768 156.558 162.095 138.787 164.236 125.937C165.308 119.507 166.58 114.333 167.98 110.778C168.682 108.998 169.405 107.654 170.131 106.763C170.862 105.865 171.533 105.5 172.134 105.5Z" stroke="url(#paint21_linear_4609_11017)"/>
<path d="M136.533 105.5C149.421 105.5 161.151 113.336 169.681 126.131C178.209 138.923 183.5 156.624 183.5 176.2C183.5 195.777 178.208 213.477 169.681 226.269C161.151 239.064 149.421 246.9 136.533 246.9C123.645 246.9 111.915 239.064 103.385 226.269C94.857 213.477 89.5664 195.776 89.5664 176.2C89.5664 156.624 94.8569 138.923 103.385 126.131C111.915 113.336 123.645 105.5 136.533 105.5Z" stroke="url(#paint22_linear_4609_11017)"/>
<circle cx="112.8" cy="176.2" r="70.7" stroke="url(#paint23_linear_4609_11017)"/>
<path d="M213.667 105.5C217.589 105.5 221.371 107.406 224.858 110.946C228.348 114.489 231.513 119.64 234.183 126.046C239.52 138.856 242.833 156.588 242.833 176.2C242.833 195.812 239.52 213.543 234.183 226.354C231.513 232.76 228.348 237.912 224.858 241.454C221.371 244.995 217.589 246.9 213.667 246.9C209.745 246.9 205.963 244.995 202.476 241.454C198.986 237.912 195.82 232.76 193.15 226.354C187.813 213.543 184.5 195.812 184.5 176.2C184.5 156.588 187.813 138.856 193.15 126.046C195.82 119.64 198.986 114.489 202.476 110.946C205.963 107.406 209.745 105.5 213.667 105.5Z" stroke="url(#paint24_linear_4609_11017)"/>
<path d="M195.866 105.5C196.467 105.5 197.139 105.865 197.87 106.763C198.596 107.654 199.319 108.998 200.021 110.778C201.421 114.333 202.693 119.507 203.765 125.937C205.906 138.787 207.233 156.558 207.233 176.2C207.233 195.843 205.906 213.614 203.765 226.464C202.693 232.893 201.421 238.066 200.021 241.621C199.319 243.401 198.596 244.746 197.87 245.638C197.139 246.535 196.467 246.9 195.866 246.9C195.266 246.9 194.594 246.535 193.863 245.638C193.137 244.746 192.414 243.401 191.713 241.621C190.312 238.066 189.04 232.893 187.969 226.464C185.827 213.614 184.5 195.843 184.5 176.2C184.5 156.558 185.827 138.787 187.969 125.937C189.04 119.507 190.312 114.333 191.713 110.778C192.414 108.998 193.137 107.654 193.863 106.763C194.594 105.865 195.265 105.5 195.866 105.5Z" stroke="url(#paint25_linear_4609_11017)"/>
<path d="M231.467 105.5C244.355 105.5 256.084 113.336 264.614 126.131C273.142 138.923 278.434 156.624 278.434 176.2C278.434 195.777 273.142 213.477 264.614 226.269C256.084 239.064 244.355 246.9 231.467 246.9C218.578 246.9 206.849 239.064 198.318 226.269C189.791 213.477 184.5 195.776 184.5 176.2C184.5 156.624 189.791 138.923 198.318 126.131C206.849 113.336 218.578 105.5 231.467 105.5Z" stroke="url(#paint26_linear_4609_11017)"/>
<circle cx="255.2" cy="176.2" r="70.7" stroke="url(#paint27_linear_4609_11017)"/>
</g>
<defs>
<filter id="filter0_d_4609_11017" x="190" y="85.1992" width="202" height="202" filterUnits="userSpaceOnUse" color-interpolation-filters="sRGB">
<feFlood flood-opacity="0" result="BackgroundImageFix"/>
<feColorMatrix in="SourceAlpha" type="matrix" values="0 0 0 0 0 0 0 0 0 0 0 0 0 0 0 0 0 0 127 0" result="hardAlpha"/>
<feOffset dy="10"/>
<feGaussianBlur stdDeviation="15"/>
<feComposite in2="hardAlpha" operator="out"/>
<feColorMatrix type="matrix" values="0 0 0 0 0 0 0 0 0 0 0 0 0 0 0 0 0 0 0.1 0"/>
<feBlend mode="normal" in2="BackgroundImageFix" result="effect1_dropShadow_4609_11017"/>
<feBlend mode="normal" in="SourceGraphic" in2="effect1_dropShadow_4609_11017" result="shape"/>
</filter>
<filter id="filter1_d_4609_11017" x="-24" y="85.1992" width="202" height="202" filterUnits="userSpaceOnUse" color-interpolation-filters="sRGB">
<feFlood flood-opacity="0" result="BackgroundImageFix"/>
<feColorMatrix in="SourceAlpha" type="matrix" values="0 0 0 0 0 0 0 0 0 0 0 0 0 0 0 0 0 0 127 0" result="hardAlpha"/>
<feOffset dy="10"/>
<feGaussianBlur stdDeviation="15"/>
<feComposite in2="hardAlpha" operator="out"/>
<feColorMatrix type="matrix" values="0 0 0 0 0 0 0 0 0 0 0 0 0 0 0 0 0 0 0.1 0"/>
<feBlend mode="normal" in2="BackgroundImageFix" result="effect1_dropShadow_4609_11017"/>
<feBlend mode="normal" in="SourceGraphic" in2="effect1_dropShadow_4609_11017" result="shape"/>
</filter>
<filter id="filter2_df_4609_11017" x="114.666" y="97" width="79.334" height="164.4" filterUnits="userSpaceOnUse" color-interpolation-filters="sRGB">
<feFlood flood-opacity="0" result="BackgroundImageFix"/>
<feColorMatrix in="SourceAlpha" type="matrix" values="0 0 0 0 0 0 0 0 0 0 0 0 0 0 0 0 0 0 127 0" result="hardAlpha"/>
<feOffset dy="4"/>
<feGaussianBlur stdDeviation="5"/>
<feComposite in2="hardAlpha" operator="out"/>
<feColorMatrix type="matrix" values="0 0 0 0 0 0 0 0 0 0.694118 0 0 0 0 0.741176 0 0 0 0.1 0"/>
<feBlend mode="normal" in2="BackgroundImageFix" result="effect1_dropShadow_4609_11017"/>
<feBlend mode="normal" in="SourceGraphic" in2="effect1_dropShadow_4609_11017" result="shape"/>
<feGaussianBlur stdDeviation="4" result="effect2_foregroundBlur_4609_11017"/>
</filter>
<filter id="filter3_df_4609_11017" x="150.268" y="97" width="43.7324" height="164.4" filterUnits="userSpaceOnUse" color-interpolation-filters="sRGB">
<feFlood flood-opacity="0" result="BackgroundImageFix"/>
<feColorMatrix in="SourceAlpha" type="matrix" values="0 0 0 0 0 0 0 0 0 0 0 0 0 0 0 0 0 0 127 0" result="hardAlpha"/>
<feOffset dy="4"/>
<feGaussianBlur stdDeviation="5"/>
<feComposite in2="hardAlpha" operator="out"/>
<feColorMatrix type="matrix" values="0 0 0 0 0 0 0 0 0 0.694118 0 0 0 0 0.741176 0 0 0 0.1 0"/>
<feBlend mode="normal" in2="BackgroundImageFix" result="effect1_dropShadow_4609_11017"/>
<feBlend mode="normal" in="SourceGraphic" in2="effect1_dropShadow_4609_11017" result="shape"/>
<feGaussianBlur stdDeviation="4" result="effect2_foregroundBlur_4609_11017"/>
</filter>
<filter id="filter4_df_4609_11017" x="79.0664" y="97" width="114.934" height="164.4" filterUnits="userSpaceOnUse" color-interpolation-filters="sRGB">
<feFlood flood-opacity="0" result="BackgroundImageFix"/>
<feColorMatrix in="SourceAlpha" type="matrix" values="0 0 0 0 0 0 0 0 0 0 0 0 0 0 0 0 0 0 127 0" result="hardAlpha"/>
<feOffset dy="4"/>
<feGaussianBlur stdDeviation="5"/>
<feComposite in2="hardAlpha" operator="out"/>
<feColorMatrix type="matrix" values="0 0 0 0 0 0 0 0 0 0.694118 0 0 0 0 0.741176 0 0 0 0.1 0"/>
<feBlend mode="normal" in2="BackgroundImageFix" result="effect1_dropShadow_4609_11017"/>
<feBlend mode="normal" in="SourceGraphic" in2="effect1_dropShadow_4609_11017" result="shape"/>
<feGaussianBlur stdDeviation="4" result="effect2_foregroundBlur_4609_11017"/>
</filter>
<filter id="filter5_df_4609_11017" x="31.5996" y="97" width="162.4" height="164.4" filterUnits="userSpaceOnUse" color-interpolation-filters="sRGB">
<feFlood flood-opacity="0" result="BackgroundImageFix"/>
<feColorMatrix in="SourceAlpha" type="matrix" values="0 0 0 0 0 0 0 0 0 0 0 0 0 0 0 0 0 0 127 0" result="hardAlpha"/>
<feOffset dy="4"/>
<feGaussianBlur stdDeviation="5"/>
<feComposite in2="hardAlpha" operator="out"/>
<feColorMatrix type="matrix" values="0 0 0 0 0 0 0 0 0 0.694118 0 0 0 0 0.741176 0 0 0 0.1 0"/>
<feBlend mode="normal" in2="BackgroundImageFix" result="effect1_dropShadow_4609_11017"/>
<feBlend mode="normal" in="SourceGraphic" in2="effect1_dropShadow_4609_11017" result="shape"/>
<feGaussianBlur stdDeviation="4" result="effect2_foregroundBlur_4609_11017"/>
</filter>
<filter id="filter6_df_4609_11017" x="174" y="97" width="79.334" height="164.4" filterUnits="userSpaceOnUse" color-interpolation-filters="sRGB">
<feFlood flood-opacity="0" result="BackgroundImageFix"/>
<feColorMatrix in="SourceAlpha" type="matrix" values="0 0 0 0 0 0 0 0 0 0 0 0 0 0 0 0 0 0 127 0" result="hardAlpha"/>
<feOffset dy="4"/>
<feGaussianBlur stdDeviation="5"/>
<feComposite in2="hardAlpha" operator="out"/>
<feColorMatrix type="matrix" values="0 0 0 0 0 0 0 0 0 0.694118 0 0 0 0 0.741176 0 0 0 0.1 0"/>
<feBlend mode="normal" in2="BackgroundImageFix" result="effect1_dropShadow_4609_11017"/>
<feBlend mode="normal" in="SourceGraphic" in2="effect1_dropShadow_4609_11017" result="shape"/>
<feGaussianBlur stdDeviation="4" result="effect2_foregroundBlur_4609_11017"/>
</filter>
<filter id="filter7_df_4609_11017" x="174" y="97" width="43.7324" height="164.4" filterUnits="userSpaceOnUse" color-interpolation-filters="sRGB">
<feFlood flood-opacity="0" result="BackgroundImageFix"/>
<feColorMatrix in="SourceAlpha" type="matrix" values="0 0 0 0 0 0 0 0 0 0 0 0 0 0 0 0 0 0 127 0" result="hardAlpha"/>
<feOffset dy="4"/>
<feGaussianBlur stdDeviation="5"/>
<feComposite in2="hardAlpha" operator="out"/>
<feColorMatrix type="matrix" values="0 0 0 0 0 0 0 0 0 0.694118 0 0 0 0 0.741176 0 0 0 0.1 0"/>
<feBlend mode="normal" in2="BackgroundImageFix" result="effect1_dropShadow_4609_11017"/>
<feBlend mode="normal" in="SourceGraphic" in2="effect1_dropShadow_4609_11017" result="shape"/>
<feGaussianBlur stdDeviation="4" result="effect2_foregroundBlur_4609_11017"/>
</filter>
<filter id="filter8_df_4609_11017" x="174" y="97" width="114.934" height="164.4" filterUnits="userSpaceOnUse" color-interpolation-filters="sRGB">
<feFlood flood-opacity="0" result="BackgroundImageFix"/>
<feColorMatrix in="SourceAlpha" type="matrix" values="0 0 0 0 0 0 0 0 0 0 0 0 0 0 0 0 0 0 127 0" result="hardAlpha"/>
<feOffset dy="4"/>
<feGaussianBlur stdDeviation="5"/>
<feComposite in2="hardAlpha" operator="out"/>
<feColorMatrix type="matrix" values="0 0 0 0 0 0 0 0 0 0.694118 0 0 0 0 0.741176 0 0 0 0.1 0"/>
<feBlend mode="normal" in2="BackgroundImageFix" result="effect1_dropShadow_4609_11017"/>
<feBlend mode="normal" in="SourceGraphic" in2="effect1_dropShadow_4609_11017" result="shape"/>
<feGaussianBlur stdDeviation="4" result="effect2_foregroundBlur_4609_11017"/>
</filter>
<filter id="filter9_df_4609_11017" x="174" y="97" width="162.4" height="164.4" filterUnits="userSpaceOnUse" color-interpolation-filters="sRGB">
<feFlood flood-opacity="0" result="BackgroundImageFix"/>
<feColorMatrix in="SourceAlpha" type="matrix" values="0 0 0 0 0 0 0 0 0 0 0 0 0 0 0 0 0 0 127 0" result="hardAlpha"/>
<feOffset dy="4"/>
<feGaussianBlur stdDeviation="5"/>
<feComposite in2="hardAlpha" operator="out"/>
<feColorMatrix type="matrix" values="0 0 0 0 0 0 0 0 0 0.694118 0 0 0 0 0.741176 0 0 0 0.1 0"/>
<feBlend mode="normal" in2="BackgroundImageFix" result="effect1_dropShadow_4609_11017"/>
<feBlend mode="normal" in="SourceGraphic" in2="effect1_dropShadow_4609_11017" result="shape"/>
<feGaussianBlur stdDeviation="4" result="effect2_foregroundBlur_4609_11017"/>
</filter>
<linearGradient id="paint0_linear_4609_11017" x1="291" y1="105.199" x2="291" y2="247.199" gradientUnits="userSpaceOnUse">
<stop offset="0.245192" stop-color="#FF6114"/>
<stop offset="1" stop-color="#FFECBB"/>
</linearGradient>
<linearGradient id="paint1_linear_4609_11017" x1="291" y1="105.199" x2="291" y2="247.199" gradientUnits="userSpaceOnUse">
<stop stop-color="#FF7F4D"/>
<stop offset="1" stop-color="#FFF9DD"/>
</linearGradient>
<linearGradient id="paint2_linear_4609_11017" x1="77" y1="105.199" x2="77" y2="247.199" gradientUnits="userSpaceOnUse">
<stop offset="0.245192" stop-color="#FF6114"/>
<stop offset="1" stop-color="#FFECBB"/>
</linearGradient>
<linearGradient id="paint3_linear_4609_11017" x1="77" y1="105.199" x2="77" y2="247.199" gradientUnits="userSpaceOnUse">
<stop stop-color="#FF7F4D"/>
<stop offset="1" stop-color="#FFF9DD"/>
</linearGradient>
<linearGradient id="paint4_linear_4609_11017" x1="154.333" y1="105" x2="154.333" y2="247.4" gradientUnits="userSpaceOnUse">
<stop stop-color="#EBEBEB"/>
<stop offset="1" stop-color="#D1D1D1"/>
</linearGradient>
<linearGradient id="paint5_linear_4609_11017" x1="154.333" y1="105" x2="154.333" y2="247.4" gradientUnits="userSpaceOnUse">
<stop offset="0.278846" stop-color="white"/>
<stop offset="1" stop-color="#EDEDED"/>
</linearGradient>
<linearGradient id="paint6_linear_4609_11017" x1="172.134" y1="105" x2="172.134" y2="247.4" gradientUnits="userSpaceOnUse">
<stop stop-color="#EBEBEB"/>
<stop offset="1" stop-color="#D1D1D1"/>
</linearGradient>
<linearGradient id="paint7_linear_4609_11017" x1="172.134" y1="105" x2="172.134" y2="247.4" gradientUnits="userSpaceOnUse">
<stop offset="0.278846" stop-color="white"/>
<stop offset="1" stop-color="#EDEDED"/>
</linearGradient>
<linearGradient id="paint8_linear_4609_11017" x1="136.533" y1="105" x2="136.533" y2="247.4" gradientUnits="userSpaceOnUse">
<stop stop-color="#EBEBEB"/>
<stop offset="1" stop-color="#D1D1D1"/>
</linearGradient>
<linearGradient id="paint9_linear_4609_11017" x1="136.533" y1="105" x2="136.533" y2="247.4" gradientUnits="userSpaceOnUse">
<stop offset="0.278846" stop-color="white"/>
<stop offset="1" stop-color="#EDEDED"/>
</linearGradient>
<linearGradient id="paint10_linear_4609_11017" x1="112.8" y1="105" x2="112.8" y2="247.4" gradientUnits="userSpaceOnUse">
<stop stop-color="#EBEBEB"/>
<stop offset="1" stop-color="#D1D1D1"/>
</linearGradient>
<linearGradient id="paint11_linear_4609_11017" x1="112.8" y1="105" x2="112.8" y2="247.4" gradientUnits="userSpaceOnUse">
<stop offset="0.278846" stop-color="white"/>
<stop offset="1" stop-color="#EDEDED"/>
</linearGradient>
<linearGradient id="paint12_linear_4609_11017" x1="213.667" y1="105" x2="213.667" y2="247.4" gradientUnits="userSpaceOnUse">
<stop stop-color="#EBEBEB"/>
<stop offset="1" stop-color="#D1D1D1"/>
</linearGradient>
<linearGradient id="paint13_linear_4609_11017" x1="213.667" y1="105" x2="213.667" y2="247.4" gradientUnits="userSpaceOnUse">
<stop offset="0.278846" stop-color="white"/>
<stop offset="1" stop-color="#EDEDED"/>
</linearGradient>
<linearGradient id="paint14_linear_4609_11017" x1="195.867" y1="105" x2="195.867" y2="247.4" gradientUnits="userSpaceOnUse">
<stop stop-color="#EBEBEB"/>
<stop offset="1" stop-color="#D1D1D1"/>
</linearGradient>
<linearGradient id="paint15_linear_4609_11017" x1="195.867" y1="105" x2="195.867" y2="247.4" gradientUnits="userSpaceOnUse">
<stop offset="0.278846" stop-color="white"/>
<stop offset="1" stop-color="#EDEDED"/>
</linearGradient>
<linearGradient id="paint16_linear_4609_11017" x1="231.467" y1="105" x2="231.467" y2="247.4" gradientUnits="userSpaceOnUse">
<stop stop-color="#EBEBEB"/>
<stop offset="1" stop-color="#D1D1D1"/>
</linearGradient>
<linearGradient id="paint17_linear_4609_11017" x1="231.467" y1="105" x2="231.467" y2="247.4" gradientUnits="userSpaceOnUse">
<stop offset="0.278846" stop-color="white"/>
<stop offset="1" stop-color="#EDEDED"/>
</linearGradient>
<linearGradient id="paint18_linear_4609_11017" x1="255.2" y1="105" x2="255.2" y2="247.4" gradientUnits="userSpaceOnUse">
<stop stop-color="#EBEBEB"/>
<stop offset="1" stop-color="#D1D1D1"/>
</linearGradient>
<linearGradient id="paint19_linear_4609_11017" x1="255.2" y1="105" x2="255.2" y2="247.4" gradientUnits="userSpaceOnUse">
<stop offset="0.278846" stop-color="white"/>
<stop offset="1" stop-color="#EDEDED"/>
</linearGradient>
<linearGradient id="paint20_linear_4609_11017" x1="154.333" y1="105" x2="154.333" y2="247.4" gradientUnits="userSpaceOnUse">
<stop stop-color="white"/>
<stop offset="1" stop-color="#DEDEDE"/>
</linearGradient>
<linearGradient id="paint21_linear_4609_11017" x1="172.134" y1="105" x2="172.134" y2="247.4" gradientUnits="userSpaceOnUse">
<stop stop-color="white"/>
<stop offset="1" stop-color="#DEDEDE"/>
</linearGradient>
<linearGradient id="paint22_linear_4609_11017" x1="136.533" y1="105" x2="136.533" y2="247.4" gradientUnits="userSpaceOnUse">
<stop stop-color="white"/>
<stop offset="1" stop-color="#DEDEDE"/>
</linearGradient>
<linearGradient id="paint23_linear_4609_11017" x1="112.8" y1="105" x2="112.8" y2="247.4" gradientUnits="userSpaceOnUse">
<stop stop-color="white"/>
<stop offset="1" stop-color="#DEDEDE"/>
</linearGradient>
<linearGradient id="paint24_linear_4609_11017" x1="213.667" y1="105" x2="213.667" y2="247.4" gradientUnits="userSpaceOnUse">
<stop stop-color="white"/>
<stop offset="1" stop-color="#DEDEDE"/>
</linearGradient>
<linearGradient id="paint25_linear_4609_11017" x1="195.867" y1="105" x2="195.867" y2="247.4" gradientUnits="userSpaceOnUse">
<stop stop-color="white"/>
<stop offset="1" stop-color="#DEDEDE"/>
</linearGradient>
<linearGradient id="paint26_linear_4609_11017" x1="231.467" y1="105" x2="231.467" y2="247.4" gradientUnits="userSpaceOnUse">
<stop stop-color="white"/>
<stop offset="1" stop-color="#DEDEDE"/>
</linearGradient>
<linearGradient id="paint27_linear_4609_11017" x1="255.2" y1="105" x2="255.2" y2="247.4" gradientUnits="userSpaceOnUse">
<stop stop-color="white"/>
<stop offset="1" stop-color="#DEDEDE"/>
</linearGradient>
<clipPath id="clip0_4609_11017">
<rect width="374" height="352" fill="white"/>
</clipPath>
</defs>
</svg>
