<svg width="1514" height="450" viewBox="0 0 1514 450" fill="none" xmlns="http://www.w3.org/2000/svg">
<path d="M230 0.5C356.76 0.5 459.5 101.022 459.5 225C459.5 348.978 356.76 449.5 230 449.5C103.24 449.5 0.5 348.978 0.5 225C0.5 101.022 103.24 0.5 230 0.5Z" stroke="#F4F5F7"/>
<path d="M330 0.5C456.76 0.5 559.5 101.022 559.5 225C559.5 348.978 456.76 449.5 330 449.5C203.24 449.5 100.5 348.978 100.5 225C100.5 101.022 203.24 0.5 330 0.5Z" stroke="#EAECF1"/>
<path d="M416 0.5C542.76 0.5 645.5 101.022 645.5 225C645.5 348.978 542.76 449.5 416 449.5C289.24 449.5 186.5 348.978 186.5 225C186.5 101.022 289.24 0.5 416 0.5Z" stroke="#D1D6DD"/>
<path d="M480 0.5C589.018 0.5 677.5 100.95 677.5 225C677.5 349.05 589.018 449.5 480 449.5C370.982 449.5 282.5 349.05 282.5 225C282.5 100.95 370.982 0.5 480 0.5Z" stroke="#9AA3AF"/>
<path d="M516 0.5C613.928 0.5 693.5 100.897 693.5 225C693.5 349.103 613.928 449.5 516 449.5C418.072 449.5 338.5 349.103 338.5 225C338.5 100.897 418.072 0.5 516 0.5Z" stroke="#D2A691"/>
<path d="M630 0.5C639.713 0.5 649.054 6.65218 657.627 17.9834C666.194 29.3065 673.93 45.7232 680.436 66.0537C693.445 106.709 701.5 162.905 701.5 225C701.5 287.095 693.445 343.291 680.436 383.946C673.93 404.277 666.194 420.694 657.627 432.017C649.054 443.348 639.713 449.5 630 449.5C620.287 449.5 610.946 443.348 602.373 432.017C593.806 420.694 586.07 404.277 579.564 383.946C566.555 343.291 558.5 287.095 558.5 225C558.5 162.905 566.555 106.709 579.564 66.0537C586.07 45.7232 593.806 29.3065 602.373 17.9834C610.946 6.65218 620.287 0.5 630 0.5Z" stroke="#FF8245"/>
<path d="M687 0.5C684.075 0.5 681.163 1.9799 678.288 4.9209C675.413 7.86273 672.615 12.2284 669.936 17.8955C664.577 29.2275 659.739 45.6571 655.671 65.999C647.536 106.675 642.5 162.891 642.5 225C642.5 287.109 647.536 343.325 655.671 384.001C659.739 404.343 664.577 420.773 669.936 432.104C672.615 437.772 675.413 442.137 678.288 445.079C681.163 448.02 684.075 449.5 687 449.5C689.925 449.5 692.837 448.02 695.712 445.079C698.587 442.137 701.385 437.772 704.064 432.104C709.423 420.773 714.261 404.343 718.329 384.001C726.464 343.325 731.5 287.109 731.5 225C731.5 162.891 726.464 106.675 718.329 65.999C714.261 45.6571 709.423 29.2275 704.064 17.8955C701.385 12.2284 698.587 7.86273 695.712 4.9209C692.837 1.9799 689.925 0.5 687 0.5Z" stroke="#FF6114"/>
<path d="M569 0.5C605.479 0.5 638.593 25.5167 662.615 66.1553C686.631 106.783 701.5 162.942 701.5 225C701.5 287.058 686.631 343.217 662.615 383.845C638.593 424.483 605.479 449.5 569 449.5C532.521 449.5 499.407 424.483 475.385 383.845C451.369 343.217 436.5 287.058 436.5 225C436.5 162.942 451.369 106.783 475.385 66.1553C499.407 25.5167 532.521 0.5 569 0.5Z" stroke="#FF9F71"/>
<path d="M1284 0.5C1157.24 0.5 1054.5 101.022 1054.5 225C1054.5 348.978 1157.24 449.5 1284 449.5C1410.76 449.5 1513.5 348.978 1513.5 225C1513.5 101.022 1410.76 0.5 1284 0.5Z" stroke="#F4F5F7"/>
<path d="M1184 0.5C1057.24 0.5 954.5 101.022 954.5 225C954.5 348.978 1057.24 449.5 1184 449.5C1310.76 449.5 1413.5 348.978 1413.5 225C1413.5 101.022 1310.76 0.5 1184 0.5Z" stroke="#EAECF1"/>
<path d="M1098 0.5C971.24 0.5 868.5 101.022 868.5 225C868.5 348.978 971.24 449.5 1098 449.5C1224.76 449.5 1327.5 348.978 1327.5 225C1327.5 101.022 1224.76 0.5 1098 0.5Z" stroke="#D1D6DD"/>
<path d="M1034 0.5C924.982 0.5 836.5 100.95 836.5 225C836.5 349.05 924.982 449.5 1034 449.5C1143.02 449.5 1231.5 349.05 1231.5 225C1231.5 100.95 1143.02 0.5 1034 0.5Z" stroke="#9AA3AF"/>
<path d="M998 0.5C900.072 0.5 820.5 100.897 820.5 225C820.5 349.103 900.072 449.5 998 449.5C1095.93 449.5 1175.5 349.103 1175.5 225C1175.5 100.897 1095.93 0.5 998 0.5Z" stroke="#D2A691"/>
<path d="M884 0.5C874.287 0.5 864.946 6.65218 856.373 17.9834C847.806 29.3065 840.07 45.7232 833.564 66.0537C820.555 106.709 812.5 162.905 812.5 225C812.5 287.095 820.555 343.291 833.564 383.946C840.07 404.277 847.806 420.694 856.373 432.017C864.946 443.348 874.287 449.5 884 449.5C893.713 449.5 903.054 443.348 911.627 432.017C920.194 420.694 927.93 404.277 934.436 383.946C947.445 343.291 955.5 287.095 955.5 225C955.5 162.905 947.445 106.709 934.436 66.0537C927.93 45.7232 920.194 29.3065 911.627 17.9834C903.054 6.65218 893.713 0.5 884 0.5Z" stroke="#FF8245"/>
<path d="M842 0.5C839.075 0.5 836.163 1.9799 833.288 4.9209C830.413 7.86273 827.615 12.2284 824.936 17.8955C819.577 29.2275 814.739 45.6571 810.671 65.999C802.536 106.675 797.5 162.891 797.5 225C797.5 287.109 802.536 343.325 810.671 384.001C814.739 404.343 819.577 420.773 824.936 432.104C827.615 437.772 830.413 442.137 833.288 445.079C836.163 448.02 839.075 449.5 842 449.5C844.925 449.5 847.837 448.02 850.712 445.079C853.587 442.137 856.385 437.772 859.064 432.104C864.423 420.773 869.261 404.343 873.329 384.001C881.464 343.325 886.5 287.109 886.5 225C886.5 162.891 881.464 106.675 873.329 65.999C869.261 45.6571 864.423 29.2275 859.064 17.8955C856.385 12.2284 853.587 7.86273 850.712 4.9209C847.837 1.9799 844.925 0.5 842 0.5Z" stroke="#FF6114"/>
<path d="M945 0.5C908.521 0.5 875.407 25.5167 851.385 66.1553C827.369 106.783 812.5 162.942 812.5 225C812.5 287.058 827.369 343.217 851.385 383.845C875.407 424.483 908.521 449.5 945 449.5C981.479 449.5 1014.59 424.483 1038.62 383.845C1062.63 343.217 1077.5 287.058 1077.5 225C1077.5 162.942 1062.63 106.783 1038.62 66.1553C1014.59 25.5167 981.479 0.5 945 0.5Z" stroke="#FF9F71"/>
<path d="M762 0.5C762.486 0.5 763.043 0.775552 763.669 1.49121C764.293 2.20377 764.931 3.29347 765.572 4.77051C766.854 7.72091 768.102 12.102 769.296 17.7842C771.683 29.1409 773.835 45.5935 775.645 65.9453C779.262 106.643 781.5 162.878 781.5 225C781.5 287.122 779.262 343.357 775.645 384.055C773.835 404.407 771.683 420.859 769.296 432.216C768.102 437.898 766.854 442.279 765.572 445.229C764.931 446.707 764.293 447.796 763.669 448.509C763.043 449.224 762.486 449.5 762 449.5C761.514 449.5 760.957 449.224 760.331 448.509C759.707 447.796 759.069 446.707 758.428 445.229C757.146 442.279 755.898 437.898 754.704 432.216C752.317 420.859 750.165 404.407 748.355 384.055C744.738 343.357 742.5 287.122 742.5 225C742.5 162.878 744.738 106.643 748.355 65.9453C750.165 45.5935 752.317 29.1409 754.704 17.7842C755.898 12.102 757.146 7.72091 758.428 4.77051C759.069 3.29347 759.707 2.20377 760.331 1.49121C760.957 0.775552 761.514 0.5 762 0.5Z" stroke="#FF6114"/>
</svg>
