<svg width="100%" height="100%" viewBox="0 0 1075 209" fill="none" xmlns="http://www.w3.org/2000/svg">
<path d="M581.898 14.0547C537.669 14.0547 501.821 49.0351 501.821 92.1707C501.821 135.306 537.669 170.287 581.898 170.287C626.126 170.287 661.974 135.306 661.974 92.1707C661.974 49.0351 626.126 14.0547 581.898 14.0547ZM581.898 120.586C567.413 120.586 555.671 107.866 555.671 92.1707C555.671 76.4755 567.413 63.7556 581.898 63.7556C596.381 63.7556 608.175 76.4755 608.175 92.1707C608.175 107.866 596.433 120.586 581.898 120.586Z" fill="#FF6114"/>
<path d="M91.9736 84.1687L52.9186 84.3735V7.2832H0V205.933H52.9186V124.021H91.9736V205.933H144.84V7.2832H91.9736V84.1687Z" fill="#FF6114"/>
<path d="M223.052 52.8789C183.428 52.8789 154.253 82.9865 154.253 129.969C154.253 145.972 158.288 167.514 167.237 180.491C174.582 191.108 186.687 202.238 207.068 206.751C224.19 210.548 248.968 210.342 277.316 199.058L277.574 156.846C261.9 169.002 232.312 175.31 217.31 165.719C210.741 161.513 207.482 153.461 205.827 145.51H279.282C290.145 86.2692 261.745 52.8789 223 52.8789H223.052ZM220.155 86.9359C231.691 86.9359 233.812 102.785 233.502 114.121L204.223 114.274C204.585 101.554 207.482 86.9359 220.155 86.9359Z" fill="#FF6114"/>
<path d="M368.565 166.902C351.908 164.696 341.149 151.207 341.459 130.998C341.563 122.535 343.528 110.123 354.133 101.557C362.41 94.8896 379.428 92.222 395.93 98.6335V57.293C378.549 50.2661 344.874 50.7791 325.113 63.1402C310.112 72.475 288.696 92.376 288.696 131.357C288.696 170.339 306.284 190.547 323.406 200.139C348.546 214.243 382.894 209.165 397.792 201.062V160.747C392.671 164.645 380.618 168.492 368.617 166.902H368.565Z" fill="#FF6114"/>
<path d="M581.895 182.955C562.497 182.955 541.857 191.11 532.546 205.934H631.245C621.933 191.11 601.294 182.955 581.895 182.955Z" fill="#FF6114"/>
<path d="M469.904 166.439C462.61 163.567 457.851 158.54 457.851 142.537V100.325H493.544V54.83H458.368V0L405.76 25.5429V53.599C405.76 72.4227 425.003 79.5524 425.003 79.5524C411.191 89.3489 405.76 100.12 405.76 122.021V151.36C405.76 171.671 411.398 185.827 424.537 197.111C437.677 208.395 467.886 213.165 497.268 203.625V162.13C491.475 166.388 478.542 169.824 469.904 166.439Z" fill="#FF6114"/>
<path d="M707.238 205.935V54.832H747.899C787.421 54.832 809.146 87.2479 809.146 130.486C809.146 173.724 787.421 205.935 747.899 205.935H707.238ZM725.499 189.83H747.899C775.989 189.83 790.365 164.441 790.365 130.486C790.365 96.5317 776.193 70.6811 747.899 70.6811H725.499V189.83Z" fill="#FF6114"/>
<path d="M865.369 93.8125C854.401 93.8125 842.091 96.9412 832.156 103.558V121.1C840.594 111.662 852.595 107.866 862.832 107.866C877.215 107.866 888.597 116.227 888.597 131.204V150.233C881.768 140.487 870.8 136.179 859.579 136.179C841.522 136.179 826.212 149.31 826.212 172.185C826.212 195.061 841.733 208.653 859.579 208.653C870.751 208.653 881.508 204.139 888.597 194.137V205.935H905.045V129.357C905.045 104.43 887.248 93.8125 865.319 93.8125H865.369ZM888.646 183.059C883.63 192.137 874.474 196.856 864.905 196.856C851.197 196.856 842.969 185.982 842.969 172.39C842.969 158.798 851.197 148.13 864.905 148.13C874.474 148.13 883.63 152.9 888.646 162.183V183.007V183.059Z" fill="#FF6114"/>
<path d="M1029.04 93.8125C1018.07 93.8125 1005.76 96.9412 995.829 103.558V121.1C1004.26 111.662 1016.27 107.866 1026.51 107.866C1040.89 107.866 1052.27 116.227 1052.27 131.204V150.233C1045.44 140.487 1034.47 136.179 1023.24 136.179C1005.19 136.179 989.885 149.31 989.885 172.185C989.885 195.061 1005.4 208.653 1023.24 208.653C1034.42 208.653 1045.18 204.139 1052.27 194.137V205.935H1068.72V129.357C1068.72 104.43 1050.92 93.8125 1028.99 93.8125H1029.04ZM1052.32 183.059C1047.3 192.137 1038.15 196.856 1028.58 196.856C1014.87 196.856 1006.64 185.982 1006.64 172.39C1006.64 158.798 1014.87 148.13 1028.58 148.13C1038.15 148.13 1047.3 152.9 1052.32 162.183V183.007V183.059Z" fill="#FF6114"/>
<path d="M972.503 190.238C969.397 192.034 964.69 193.675 960.193 193.675C953.778 193.675 946.534 189.418 946.534 181.006V110.788H974.73V96.5296H946.534V66.627H930.086V183.981C930.086 200.291 941.883 208.652 956.982 208.652C962.933 208.652 968.006 207.677 972.503 205.574V190.238Z" fill="#FF6114"/>
</svg>
