<svg width="210" height="60" viewBox="0 0 210 60" fill="none" xmlns="http://www.w3.org/2000/svg">
<path d="M29.6457 16.5122C31.6568 18.526 31.654 21.7872 29.6401 23.7983L22.5818 30.8455C20.5679 32.8566 17.3068 32.8538 15.2957 30.8399C13.2846 28.826 13.2873 25.5649 15.3012 23.5538L22.3596 16.5066C24.3734 14.4955 27.6346 14.4983 29.6457 16.5122Z" fill="#3ADDE9"/>
<path d="M31.2221 29.399C33.2332 31.4101 33.2332 34.674 31.2221 36.6851L24.2554 43.6517C22.2443 45.6628 18.9804 45.6628 16.9693 43.6517C14.9582 41.6406 14.9582 38.3767 16.9693 36.3656L23.9359 29.399C25.947 27.3878 29.2109 27.3878 31.2221 29.399Z" fill="#00B1BD"/>
<path d="M14.493 37.2456C15.7391 34.9668 14.9019 32.1093 12.623 30.8632C10.3442 29.6171 7.48668 30.4543 6.2406 32.7332C4.99452 35.012 5.83174 37.8695 8.11058 39.1156C10.3894 40.3617 13.2469 39.5245 14.493 37.2456Z" fill="#6466FA"/>
<path d="M208.168 25.8633C207.935 25.7633 207.685 25.6883 207.418 25.6383C207.152 25.5883 206.818 25.5633 206.418 25.5633C205.985 25.5633 205.577 25.6383 205.193 25.7883C204.827 25.9383 204.502 26.1549 204.218 26.4383C203.952 26.7049 203.735 27.0299 203.568 27.4133C203.418 27.7799 203.343 28.1883 203.343 28.6383V36.8133H200.193V23.0383H203.218V25.0383H203.268C203.635 24.3383 204.118 23.7799 204.718 23.3633C205.335 22.9466 206.135 22.7383 207.118 22.7383C207.468 22.7383 207.818 22.7633 208.168 22.8133C208.518 22.8633 208.818 22.9299 209.068 23.0133L208.168 25.8633ZM198.118 35.5383C197.452 35.9883 196.668 36.3466 195.768 36.6133C194.868 36.8799 193.768 37.0133 192.468 37.0133C191.668 37.0133 190.893 36.9049 190.143 36.6883C189.393 36.4883 188.718 36.1466 188.118 35.6633C187.535 35.1633 187.06 34.5049 186.693 33.6883C186.343 32.8549 186.168 31.8216 186.168 30.5883V29.1633C186.168 28.0466 186.327 27.0883 186.643 26.2883C186.977 25.4716 187.427 24.8049 187.993 24.2883C188.56 23.7549 189.218 23.3633 189.968 23.1133C190.735 22.8633 191.56 22.7383 192.443 22.7383C193.327 22.7383 194.11 22.8633 194.843 23.1133C195.593 23.3633 196.235 23.7466 196.768 24.2633C197.302 24.7633 197.718 25.3966 198.018 26.1633C198.318 26.9133 198.468 27.7883 198.468 28.7883V31.0633H189.243C189.243 32.1633 189.535 32.9966 190.118 33.5633C190.702 34.1133 191.543 34.3883 192.643 34.3883C193.46 34.3883 194.185 34.3049 194.818 34.1383C195.452 33.9549 196.118 33.6633 196.818 33.2633L198.118 35.5383ZM195.443 28.6883V28.0883C195.443 27.7216 195.385 27.3716 195.268 27.0383C195.168 26.7049 194.993 26.4133 194.743 26.1633C194.493 25.9133 194.177 25.7133 193.793 25.5633C193.41 25.4133 192.943 25.3383 192.393 25.3383C191.343 25.3383 190.552 25.6133 190.018 26.1633C189.502 26.7133 189.243 27.3799 189.243 28.1633V28.6883H195.443ZM178.691 25.6383H176.491V23.0383H178.691V19.5133H181.841V23.0383H185.316V25.6383H181.841V32.8883C181.841 33.4716 181.957 33.8549 182.191 34.0383C182.441 34.2216 182.774 34.3133 183.191 34.3133C183.507 34.3133 183.816 34.2883 184.116 34.2383C184.432 34.1716 184.774 34.0633 185.141 33.9133L185.641 36.4383C185.357 36.5716 184.966 36.6966 184.466 36.8133C183.982 36.9466 183.432 37.0133 182.816 37.0133C182.032 37.0133 181.374 36.9216 180.841 36.7383C180.307 36.555 179.882 36.2883 179.566 35.9383C179.249 35.5883 179.024 35.1633 178.891 34.6633C178.757 34.1466 178.691 33.5633 178.691 32.9133V25.6383ZM170.799 34.3383C171.516 34.3383 172.082 34.2466 172.499 34.0633C172.932 33.8633 173.149 33.4966 173.149 32.9633V32.8133C173.149 32.5799 173.116 32.3883 173.049 32.2383C172.999 32.0716 172.874 31.9299 172.674 31.8133C172.474 31.6966 172.182 31.5883 171.799 31.4883C171.432 31.3883 170.924 31.2716 170.274 31.1383C169.441 30.9716 168.724 30.7799 168.124 30.5633C167.541 30.3299 167.057 30.0466 166.674 29.7133C166.307 29.3799 166.032 28.9799 165.849 28.5133C165.682 28.0466 165.599 27.4883 165.599 26.8383V26.5883C165.599 26.1216 165.691 25.6633 165.874 25.2133C166.074 24.7466 166.382 24.3299 166.799 23.9633C167.232 23.5966 167.782 23.3049 168.449 23.0883C169.132 22.8549 169.957 22.7383 170.924 22.7383C171.724 22.7383 172.566 22.8133 173.449 22.9633C174.349 23.1133 175.199 23.4549 175.999 23.9883L174.649 26.2633C174.182 25.9466 173.657 25.7216 173.074 25.5883C172.507 25.4549 171.924 25.3883 171.324 25.3883C170.341 25.3883 169.666 25.5049 169.299 25.7383C168.932 25.9549 168.749 26.2466 168.749 26.6133V26.7633C168.749 27.0133 168.782 27.2133 168.849 27.3633C168.916 27.5133 169.041 27.6466 169.224 27.7633C169.407 27.8633 169.666 27.9549 169.999 28.0383C170.332 28.1216 170.766 28.2133 171.299 28.3133C172.166 28.4966 172.916 28.6883 173.549 28.8883C174.199 29.0883 174.724 29.3549 175.124 29.6883C175.541 30.0049 175.849 30.4133 176.049 30.9133C176.249 31.3966 176.349 32.0049 176.349 32.7383V33.0133C176.349 33.5466 176.224 34.0549 175.974 34.5383C175.741 35.0216 175.391 35.4466 174.924 35.8133C174.457 36.18 173.882 36.4716 173.199 36.6883C172.516 36.9049 171.741 37.0133 170.874 37.0133C169.724 37.0133 168.632 36.8633 167.599 36.5633C166.582 36.2633 165.741 35.8466 165.074 35.3133L166.474 32.9133C167.091 33.3299 167.749 33.6716 168.449 33.9383C169.149 34.2049 169.932 34.3383 170.799 34.3383ZM158.013 37.0133C157.03 37.0133 156.138 36.8716 155.338 36.5883C154.555 36.3049 153.88 35.8966 153.313 35.3633C152.763 34.8299 152.33 34.1716 152.013 33.3883C151.713 32.5883 151.563 31.6883 151.563 30.6883V29.0633C151.563 28.0466 151.713 27.1466 152.013 26.3633C152.33 25.5799 152.763 24.9216 153.313 24.3883C153.88 23.8549 154.555 23.4466 155.338 23.1633C156.138 22.8799 157.03 22.7383 158.013 22.7383C158.996 22.7383 159.863 22.8799 160.663 23.1633C161.463 23.4466 162.138 23.8549 162.688 24.3883C163.255 24.9216 163.688 25.5799 163.988 26.3633C164.305 27.1466 164.463 28.0466 164.463 29.0633V30.6883C164.463 31.6883 164.305 32.5883 163.988 33.3883C163.688 34.1716 163.255 34.8299 162.688 35.3633C162.138 35.8966 161.463 36.3049 160.663 36.5883C159.863 36.8716 158.98 37.0133 158.013 37.0133ZM158.013 34.2633C158.48 34.2633 158.913 34.1966 159.313 34.0633C159.713 33.9299 160.055 33.7216 160.338 33.4383C160.638 33.1549 160.871 32.7799 161.038 32.3133C161.205 31.8466 161.288 31.2883 161.288 30.6383V29.1133C161.288 27.7966 160.988 26.8633 160.388 26.3133C159.805 25.7633 159.013 25.4883 158.013 25.4883C157.013 25.4883 156.213 25.7633 155.613 26.3133C155.03 26.8633 154.738 27.7966 154.738 29.1133V30.6383C154.738 31.2883 154.821 31.8466 154.988 32.3133C155.155 32.7799 155.38 33.1549 155.663 33.4383C155.963 33.7216 156.313 33.9299 156.713 34.0633C157.113 34.1966 157.546 34.2633 158.013 34.2633ZM144.055 37.0133C143.071 37.0133 142.18 36.8716 141.38 36.5883C140.596 36.3049 139.921 35.8966 139.355 35.3633C138.805 34.8299 138.371 34.1716 138.055 33.3883C137.755 32.5883 137.605 31.6883 137.605 30.6883V29.0633C137.605 28.0466 137.755 27.1466 138.055 26.3633C138.371 25.5799 138.805 24.9216 139.355 24.3883C139.921 23.8549 140.596 23.4466 141.38 23.1633C142.18 22.8799 143.071 22.7383 144.055 22.7383C145.038 22.7383 145.905 22.8799 146.705 23.1633C147.505 23.4466 148.18 23.8549 148.73 24.3883C149.296 24.9216 149.73 25.5799 150.03 26.3633C150.346 27.1466 150.505 28.0466 150.505 29.0633V30.6883C150.505 31.6883 150.346 32.5883 150.03 33.3883C149.73 34.1716 149.296 34.8299 148.73 35.3633C148.18 35.8966 147.505 36.3049 146.705 36.5883C145.905 36.8716 145.021 37.0133 144.055 37.0133ZM144.055 34.2633C144.521 34.2633 144.955 34.1966 145.355 34.0633C145.755 33.9299 146.096 33.7216 146.38 33.4383C146.68 33.1549 146.913 32.7799 147.08 32.3133C147.246 31.8466 147.33 31.2883 147.33 30.6383V29.1133C147.33 27.7966 147.03 26.8633 146.43 26.3133C145.846 25.7633 145.055 25.4883 144.055 25.4883C143.055 25.4883 142.255 25.7633 141.655 26.3133C141.071 26.8633 140.78 27.7966 140.78 29.1133V30.6383C140.78 31.2883 140.863 31.8466 141.03 32.3133C141.196 32.7799 141.421 33.1549 141.705 33.4383C142.005 33.7216 142.355 33.9299 142.755 34.0633C143.155 34.1966 143.588 34.2633 144.055 34.2633ZM126.377 21.4383V26.1383H128.727C129.343 26.1383 129.893 26.1216 130.377 26.0883C130.877 26.0549 131.285 25.9633 131.602 25.8133C131.935 25.6633 132.185 25.4383 132.352 25.1383C132.535 24.8216 132.627 24.3799 132.627 23.8133V23.3633C132.627 22.5966 132.327 22.0883 131.727 21.8383C131.143 21.5716 130.177 21.4383 128.827 21.4383H126.377ZM126.377 34.1633H129.277C129.977 34.1633 130.585 34.1383 131.102 34.0883C131.635 34.0216 132.068 33.9049 132.402 33.7383C132.752 33.5549 133.01 33.3049 133.177 32.9883C133.343 32.6716 133.427 32.2466 133.427 31.7133V31.1633C133.427 30.6966 133.343 30.3133 133.177 30.0133C133.027 29.6966 132.768 29.4466 132.402 29.2633C132.035 29.0633 131.552 28.9299 130.952 28.8633C130.368 28.7799 129.652 28.7383 128.802 28.7383H126.377V34.1633ZM123.202 18.7883H130.202C133.985 18.7883 135.877 20.2549 135.877 23.1883V23.7133C135.877 24.1133 135.827 24.5049 135.727 24.8883C135.643 25.2549 135.485 25.6049 135.252 25.9383C135.035 26.2549 134.743 26.5383 134.377 26.7883C134.01 27.0216 133.56 27.2049 133.027 27.3383C134.127 27.5049 135.01 27.9216 135.677 28.5883C136.36 29.2383 136.702 30.1883 136.702 31.4383V32.0633C136.702 33.5466 136.235 34.7133 135.302 35.5633C134.368 36.3966 132.927 36.8133 130.977 36.8133H123.202V18.7883ZM106.368 30.4133C106.368 31.5799 106.602 32.4883 107.068 33.1383C107.552 33.7716 108.252 34.0883 109.168 34.0883C109.685 34.0883 110.143 34.0049 110.543 33.8383C110.96 33.6549 111.302 33.4133 111.568 33.1133C111.852 32.7966 112.068 32.4383 112.218 32.0383C112.368 31.6216 112.443 31.1799 112.443 30.7133V28.1633C112.443 27.8466 112.377 27.5299 112.243 27.2133C112.127 26.8799 111.935 26.5883 111.668 26.3383C111.418 26.0716 111.093 25.8549 110.693 25.6883C110.31 25.5216 109.843 25.4383 109.293 25.4383C108.293 25.4383 107.552 25.7633 107.068 26.4133C106.602 27.0633 106.368 27.9633 106.368 29.1133V30.4133ZM112.443 34.9633H112.393C112.027 35.6299 111.502 36.0966 110.818 36.3633C110.135 36.6299 109.377 36.7633 108.543 36.7633C106.777 36.7633 105.452 36.2549 104.568 35.2383C103.702 34.2049 103.268 32.7549 103.268 30.8883V28.7133C103.268 27.7966 103.393 26.9716 103.643 26.2383C103.91 25.4883 104.285 24.8549 104.768 24.3383C105.252 23.8216 105.827 23.4299 106.493 23.1633C107.177 22.8799 107.935 22.7383 108.768 22.7383C109.302 22.7383 109.777 22.7883 110.193 22.8883C110.61 22.9883 110.968 23.1133 111.268 23.2633C111.585 23.4133 111.843 23.5799 112.043 23.7633C112.243 23.9299 112.393 24.0883 112.493 24.2383H112.518V23.0383H115.543V36.6883C115.543 38.6049 115.018 40.0299 113.968 40.9633C112.918 41.9133 111.26 42.3883 108.993 42.3883C108.127 42.3883 107.26 42.2466 106.393 41.9633C105.543 41.68 104.835 41.3216 104.268 40.8883L105.693 38.4383C105.827 38.5549 106.018 38.6799 106.268 38.8133C106.518 38.9633 106.793 39.0966 107.093 39.2133C107.393 39.3299 107.71 39.4216 108.043 39.4883C108.377 39.5716 108.71 39.6133 109.043 39.6133C110.16 39.6133 111.002 39.3716 111.568 38.8883C112.152 38.4216 112.443 37.6799 112.443 36.6633V34.9633ZM96.8156 22.7383C97.4323 22.7383 98.024 22.8299 98.5906 23.0133C99.174 23.1966 99.6906 23.4966 100.141 23.9133C100.591 24.3133 100.949 24.8383 101.216 25.4883C101.482 26.1383 101.616 26.9216 101.616 27.8383V36.8133H98.4656V28.5133C98.4656 26.4966 97.5906 25.4883 95.8406 25.4883C95.5906 25.4883 95.2906 25.5299 94.9406 25.6133C94.6073 25.6799 94.2823 25.8299 93.9656 26.0633C93.6656 26.2799 93.4073 26.5966 93.1906 27.0133C92.974 27.4299 92.8656 27.9799 92.8656 28.6633V36.8133H89.7156V23.0383H92.6906V24.6133H92.7406C93.224 23.9133 93.8156 23.4299 94.5156 23.1633C95.2323 22.8799 95.999 22.7383 96.8156 22.7383ZM83.9101 17.6133H87.2101V21.0133H83.9101V17.6133ZM83.9851 23.0383H87.1351V36.8133H83.9851V23.0383ZM78.2517 17.9133H81.4017V36.8133H78.2517V17.9133ZM72.5906 17.9133H75.7406V36.8133H72.5906V17.9133ZM70.5156 35.5383C69.849 35.9883 69.0656 36.3466 68.1656 36.6133C67.2656 36.8799 66.1656 37.0133 64.8656 37.0133C64.0656 37.0133 63.2906 36.9049 62.5406 36.6883C61.7906 36.4883 61.1156 36.1466 60.5156 35.6633C59.9323 35.1633 59.4573 34.5049 59.0906 33.6883C58.7406 32.8549 58.5656 31.8216 58.5656 30.5883V29.1633C58.5656 28.0466 58.724 27.0883 59.0406 26.2883C59.374 25.4716 59.824 24.8049 60.3906 24.2883C60.9573 23.7549 61.6156 23.3633 62.3656 23.1133C63.1323 22.8633 63.9573 22.7383 64.8406 22.7383C65.724 22.7383 66.5073 22.8633 67.2406 23.1133C67.9906 23.3633 68.6323 23.7466 69.1656 24.2633C69.699 24.7633 70.1156 25.3966 70.4156 26.1633C70.7156 26.9133 70.8656 27.7883 70.8656 28.7883V31.0633H61.6406C61.6406 32.1633 61.9323 32.9966 62.5156 33.5633C63.099 34.1133 63.9406 34.3883 65.0406 34.3883C65.8573 34.3883 66.5823 34.3049 67.2156 34.1383C67.849 33.9549 68.5156 33.6633 69.2156 33.2633L70.5156 35.5383ZM67.8406 28.6883V28.0883C67.8406 27.7216 67.7823 27.3716 67.6656 27.0383C67.5656 26.7049 67.3906 26.4133 67.1406 26.1633C66.8906 25.9133 66.574 25.7133 66.1906 25.5633C65.8073 25.4133 65.3406 25.3383 64.7906 25.3383C63.7406 25.3383 62.949 25.6133 62.4156 26.1633C61.899 26.7133 61.6406 27.3799 61.6406 28.1633V28.6883H67.8406ZM50.8656 34.2133C52.0156 34.2133 52.849 34.0133 53.3656 33.6133C53.8823 33.1966 54.1406 32.6799 54.1406 32.0633V31.7883C54.1406 31.0549 53.8656 30.5133 53.3156 30.1633C52.7823 29.7966 51.999 29.4966 50.9656 29.2633C50.2156 29.0966 49.4573 28.9216 48.6906 28.7383C47.9406 28.5549 47.2573 28.2799 46.6406 27.9133C46.0406 27.5466 45.549 27.0549 45.1656 26.4383C44.7823 25.8049 44.5906 24.9633 44.5906 23.9133V23.5883C44.5906 23.0383 44.699 22.4716 44.9156 21.8883C45.1323 21.2883 45.4906 20.7383 45.9906 20.2383C46.4906 19.7383 47.149 19.3299 47.9656 19.0133C48.799 18.6799 49.824 18.5133 51.0406 18.5133C52.0406 18.5133 52.999 18.6216 53.9156 18.8383C54.8323 19.0383 55.749 19.4299 56.6656 20.0133L55.1656 22.4883C54.4323 22.0216 53.749 21.7216 53.1156 21.5883C52.4823 21.4383 51.8073 21.3633 51.0906 21.3633C50.524 21.3633 50.0323 21.4299 49.6156 21.5633C49.199 21.6966 48.849 21.8716 48.5656 22.0883C48.299 22.3049 48.099 22.5383 47.9656 22.7883C47.8323 23.0383 47.7656 23.2883 47.7656 23.5383V23.8383C47.7656 24.2716 47.8656 24.6216 48.0656 24.8883C48.2823 25.1549 48.5656 25.3799 48.9156 25.5633C49.2656 25.7299 49.674 25.8716 50.1406 25.9883C50.624 26.0883 51.1323 26.1966 51.6656 26.3133C52.7323 26.5466 53.624 26.8383 54.3406 27.1883C55.074 27.5216 55.6573 27.9049 56.0906 28.3383C56.5406 28.7716 56.8573 29.2549 57.0406 29.7883C57.2406 30.3049 57.3406 30.8716 57.3406 31.4883V31.8133C57.3406 32.8133 57.1573 33.6549 56.7906 34.3383C56.4406 35.0049 55.9573 35.5466 55.3406 35.9633C54.724 36.3633 54.0156 36.6466 53.2156 36.8133C52.4156 36.9966 51.5823 37.0883 50.7156 37.0883C50.0656 37.0883 49.424 37.0299 48.7906 36.9133C48.174 36.8133 47.5906 36.6716 47.0406 36.4883C46.4906 36.3049 45.974 36.0883 45.4906 35.8383C45.024 35.5716 44.6156 35.2966 44.2656 35.0133L45.8156 32.4633C46.3656 32.9299 47.074 33.3383 47.9406 33.6883C48.8073 34.0383 49.7823 34.2133 50.8656 34.2133Z" fill="white"/>
</svg>
