<svg width="209" height="35" viewBox="0 0 209 35" fill="none" xmlns="http://www.w3.org/2000/svg">
<path d="M28.7157 4.01215C30.7268 6.02604 30.7241 9.28715 28.7102 11.2983L21.6518 18.3455C19.638 20.3566 16.3768 20.3538 14.3657 18.3399C12.3546 16.326 12.3574 13.0649 14.3713 11.0538L21.4296 4.0066C23.4435 1.99549 26.7046 1.99827 28.7157 4.01215Z" fill="#3ADDE9"/>
<path d="M30.2933 16.8984C32.3044 18.9095 32.3044 22.1734 30.2933 24.1845L23.3266 31.1512C21.3155 33.1623 18.0516 33.1623 16.0405 31.1512C14.0294 29.1401 14.0294 25.8762 16.0405 23.8651L23.0072 16.8984C25.0183 14.8873 28.2822 14.8873 30.2933 16.8984Z" fill="#00B1BD"/>
<path d="M13.5645 24.7453C14.8106 22.4665 13.9733 19.609 11.6945 18.3629C9.41566 17.1168 6.55815 17.954 5.31207 20.2329C4.06599 22.5117 4.90321 25.3692 7.18205 26.6153C9.46089 27.8614 12.3184 27.0242 13.5645 24.7453Z" fill="#6466FA"/>
<path d="M207.236 13.3624C207.003 13.2624 206.753 13.1874 206.486 13.1374C206.219 13.0874 205.886 13.0624 205.486 13.0624C205.053 13.0624 204.644 13.1374 204.261 13.2874C203.894 13.4374 203.569 13.6541 203.286 13.9374C203.019 14.2041 202.803 14.5291 202.636 14.9124C202.486 15.2791 202.411 15.6874 202.411 16.1374V24.3124H199.261V10.5374H202.286V12.5374H202.336C202.703 11.8374 203.186 11.2791 203.786 10.8624C204.403 10.4458 205.203 10.2374 206.186 10.2374C206.536 10.2374 206.886 10.2624 207.236 10.3124C207.586 10.3624 207.886 10.4291 208.136 10.5124L207.236 13.3624ZM197.186 23.0374C196.519 23.4874 195.736 23.8458 194.836 24.1124C193.936 24.3791 192.836 24.5124 191.536 24.5124C190.736 24.5124 189.961 24.4041 189.211 24.1874C188.461 23.9874 187.786 23.6458 187.186 23.1624C186.603 22.6624 186.128 22.0041 185.761 21.1874C185.411 20.3541 185.236 19.3208 185.236 18.0874V16.6624C185.236 15.5458 185.394 14.5874 185.711 13.7874C186.044 12.9708 186.494 12.3041 187.061 11.7874C187.628 11.2541 188.286 10.8624 189.036 10.6124C189.803 10.3624 190.628 10.2374 191.511 10.2374C192.394 10.2374 193.178 10.3624 193.911 10.6124C194.661 10.8624 195.303 11.2458 195.836 11.7624C196.369 12.2624 196.786 12.8958 197.086 13.6624C197.386 14.4124 197.536 15.2874 197.536 16.2874V18.5624H188.311C188.311 19.6624 188.603 20.4958 189.186 21.0624C189.769 21.6124 190.611 21.8874 191.711 21.8874C192.528 21.8874 193.253 21.8041 193.886 21.6374C194.519 21.4541 195.186 21.1624 195.886 20.7624L197.186 23.0374ZM194.511 16.1874V15.5874C194.511 15.2208 194.453 14.8708 194.336 14.5374C194.236 14.2041 194.061 13.9124 193.811 13.6624C193.561 13.4124 193.244 13.2124 192.861 13.0624C192.478 12.9124 192.011 12.8374 191.461 12.8374C190.411 12.8374 189.619 13.1124 189.086 13.6624C188.569 14.2124 188.311 14.8791 188.311 15.6624V16.1874H194.511ZM177.758 13.1374H175.558V10.5374H177.758V7.01243H180.908V10.5374H184.383V13.1374H180.908V20.3874C180.908 20.9708 181.025 21.3541 181.258 21.5374C181.508 21.7208 181.841 21.8124 182.258 21.8124C182.575 21.8124 182.883 21.7874 183.183 21.7374C183.5 21.6708 183.841 21.5624 184.208 21.4124L184.708 23.9374C184.425 24.0708 184.033 24.1958 183.533 24.3124C183.05 24.4458 182.5 24.5124 181.883 24.5124C181.1 24.5124 180.441 24.4208 179.908 24.2374C179.375 24.0541 178.95 23.7874 178.633 23.4374C178.316 23.0874 178.091 22.6624 177.958 22.1624C177.825 21.6458 177.758 21.0624 177.758 20.4124V13.1374ZM169.866 21.8374C170.583 21.8374 171.15 21.7458 171.566 21.5624C172 21.3624 172.216 20.9958 172.216 20.4624V20.3124C172.216 20.0791 172.183 19.8874 172.116 19.7374C172.066 19.5708 171.941 19.4291 171.741 19.3124C171.541 19.1958 171.25 19.0874 170.866 18.9874C170.5 18.8874 169.991 18.7708 169.341 18.6374C168.508 18.4708 167.791 18.2791 167.191 18.0624C166.608 17.8291 166.125 17.5458 165.741 17.2124C165.375 16.8791 165.1 16.4791 164.916 16.0124C164.75 15.5458 164.666 14.9874 164.666 14.3374V14.0874C164.666 13.6208 164.758 13.1624 164.941 12.7124C165.141 12.2458 165.45 11.8291 165.866 11.4624C166.3 11.0958 166.85 10.8041 167.516 10.5874C168.2 10.3541 169.025 10.2374 169.991 10.2374C170.791 10.2374 171.633 10.3124 172.516 10.4624C173.416 10.6124 174.266 10.9541 175.066 11.4874L173.716 13.7624C173.25 13.4458 172.725 13.2208 172.141 13.0874C171.575 12.9541 170.991 12.8874 170.391 12.8874C169.408 12.8874 168.733 13.0041 168.366 13.2374C168 13.4541 167.816 13.7458 167.816 14.1124V14.2624C167.816 14.5124 167.85 14.7124 167.916 14.8624C167.983 15.0124 168.108 15.1458 168.291 15.2624C168.475 15.3624 168.733 15.4541 169.066 15.5374C169.4 15.6208 169.833 15.7124 170.366 15.8124C171.233 15.9958 171.983 16.1874 172.616 16.3874C173.266 16.5874 173.791 16.8541 174.191 17.1874C174.608 17.5041 174.916 17.9124 175.116 18.4124C175.316 18.8958 175.416 19.5041 175.416 20.2374V20.5124C175.416 21.0458 175.291 21.5541 175.041 22.0374C174.808 22.5208 174.458 22.9458 173.991 23.3124C173.525 23.6791 172.95 23.9708 172.266 24.1874C171.583 24.4041 170.808 24.5124 169.941 24.5124C168.791 24.5124 167.7 24.3624 166.666 24.0624C165.65 23.7624 164.808 23.3458 164.141 22.8124L165.541 20.4124C166.158 20.8291 166.816 21.1708 167.516 21.4374C168.216 21.7041 169 21.8374 169.866 21.8374ZM157.08 24.5124C156.097 24.5124 155.205 24.3708 154.405 24.0874C153.622 23.8041 152.947 23.3958 152.38 22.8624C151.83 22.3291 151.397 21.6708 151.08 20.8874C150.78 20.0874 150.63 19.1874 150.63 18.1874V16.5624C150.63 15.5458 150.78 14.6458 151.08 13.8624C151.397 13.0791 151.83 12.4208 152.38 11.8874C152.947 11.3541 153.622 10.9458 154.405 10.6624C155.205 10.3791 156.097 10.2374 157.08 10.2374C158.064 10.2374 158.93 10.3791 159.73 10.6624C160.53 10.9458 161.205 11.3541 161.755 11.8874C162.322 12.4208 162.755 13.0791 163.055 13.8624C163.372 14.6458 163.53 15.5458 163.53 16.5624V18.1874C163.53 19.1874 163.372 20.0874 163.055 20.8874C162.755 21.6708 162.322 22.3291 161.755 22.8624C161.205 23.3958 160.53 23.8041 159.73 24.0874C158.93 24.3708 158.047 24.5124 157.08 24.5124ZM157.08 21.7624C157.547 21.7624 157.98 21.6958 158.38 21.5624C158.78 21.4291 159.122 21.2208 159.405 20.9374C159.705 20.6541 159.939 20.2791 160.105 19.8124C160.272 19.3458 160.355 18.7874 160.355 18.1374V16.6124C160.355 15.2958 160.055 14.3624 159.455 13.8124C158.872 13.2624 158.08 12.9874 157.08 12.9874C156.08 12.9874 155.28 13.2624 154.68 13.8124C154.097 14.3624 153.805 15.2958 153.805 16.6124V18.1374C153.805 18.7874 153.889 19.3458 154.055 19.8124C154.222 20.2791 154.447 20.6541 154.73 20.9374C155.03 21.2208 155.38 21.4291 155.78 21.5624C156.18 21.6958 156.614 21.7624 157.08 21.7624ZM143.122 24.5124C142.139 24.5124 141.247 24.3708 140.447 24.0874C139.664 23.8041 138.989 23.3958 138.422 22.8624C137.872 22.3291 137.439 21.6708 137.122 20.8874C136.822 20.0874 136.672 19.1874 136.672 18.1874V16.5624C136.672 15.5458 136.822 14.6458 137.122 13.8624C137.439 13.0791 137.872 12.4208 138.422 11.8874C138.989 11.3541 139.664 10.9458 140.447 10.6624C141.247 10.3791 142.139 10.2374 143.122 10.2374C144.105 10.2374 144.972 10.3791 145.772 10.6624C146.572 10.9458 147.247 11.3541 147.797 11.8874C148.364 12.4208 148.797 13.0791 149.097 13.8624C149.414 14.6458 149.572 15.5458 149.572 16.5624V18.1874C149.572 19.1874 149.414 20.0874 149.097 20.8874C148.797 21.6708 148.364 22.3291 147.797 22.8624C147.247 23.3958 146.572 23.8041 145.772 24.0874C144.972 24.3708 144.089 24.5124 143.122 24.5124ZM143.122 21.7624C143.589 21.7624 144.022 21.6958 144.422 21.5624C144.822 21.4291 145.164 21.2208 145.447 20.9374C145.747 20.6541 145.98 20.2791 146.147 19.8124C146.314 19.3458 146.397 18.7874 146.397 18.1374V16.6124C146.397 15.2958 146.097 14.3624 145.497 13.8124C144.914 13.2624 144.122 12.9874 143.122 12.9874C142.122 12.9874 141.322 13.2624 140.722 13.8124C140.139 14.3624 139.847 15.2958 139.847 16.6124V18.1374C139.847 18.7874 139.93 19.3458 140.097 19.8124C140.264 20.2791 140.489 20.6541 140.772 20.9374C141.072 21.2208 141.422 21.4291 141.822 21.5624C142.222 21.6958 142.655 21.7624 143.122 21.7624ZM125.444 8.93743V13.6374H127.794C128.411 13.6374 128.961 13.6208 129.444 13.5874C129.944 13.5541 130.353 13.4624 130.669 13.3124C131.003 13.1624 131.253 12.9374 131.419 12.6374C131.603 12.3208 131.694 11.8791 131.694 11.3124V10.8624C131.694 10.0958 131.394 9.58743 130.794 9.33743C130.211 9.07076 129.244 8.93743 127.894 8.93743H125.444ZM125.444 21.6624H128.344C129.044 21.6624 129.653 21.6374 130.169 21.5874C130.703 21.5208 131.136 21.4041 131.469 21.2374C131.819 21.0541 132.078 20.8041 132.244 20.4874C132.411 20.1708 132.494 19.7458 132.494 19.2124V18.6624C132.494 18.1958 132.411 17.8124 132.244 17.5124C132.094 17.1958 131.836 16.9458 131.469 16.7624C131.103 16.5624 130.619 16.4291 130.019 16.3624C129.436 16.2791 128.719 16.2374 127.869 16.2374H125.444V21.6624ZM122.269 6.28743H129.269C133.053 6.28743 134.944 7.75409 134.944 10.6874V11.2124C134.944 11.6124 134.894 12.0041 134.794 12.3874C134.711 12.7541 134.553 13.1041 134.319 13.4374C134.103 13.7541 133.811 14.0374 133.444 14.2874C133.078 14.5208 132.628 14.7041 132.094 14.8374C133.194 15.0041 134.078 15.4208 134.744 16.0874C135.428 16.7374 135.769 17.6874 135.769 18.9374V19.5624C135.769 21.0458 135.303 22.2124 134.369 23.0624C133.436 23.8958 131.994 24.3124 130.044 24.3124H122.269V6.28743ZM105.436 17.9124C105.436 19.0791 105.669 19.9874 106.136 20.6374C106.619 21.2708 107.319 21.5874 108.236 21.5874C108.753 21.5874 109.211 21.5041 109.611 21.3374C110.028 21.1541 110.369 20.9124 110.636 20.6124C110.919 20.2958 111.136 19.9374 111.286 19.5374C111.436 19.1208 111.511 18.6791 111.511 18.2124V15.6624C111.511 15.3458 111.444 15.0291 111.311 14.7124C111.194 14.3791 111.003 14.0874 110.736 13.8374C110.486 13.5708 110.161 13.3541 109.761 13.1874C109.378 13.0208 108.911 12.9374 108.361 12.9374C107.361 12.9374 106.619 13.2624 106.136 13.9124C105.669 14.5624 105.436 15.4624 105.436 16.6124V17.9124ZM111.511 22.4624H111.461C111.094 23.1291 110.569 23.5958 109.886 23.8624C109.203 24.1291 108.444 24.2624 107.611 24.2624C105.844 24.2624 104.519 23.7541 103.636 22.7374C102.769 21.7041 102.336 20.2541 102.336 18.3874V16.2124C102.336 15.2958 102.461 14.4708 102.711 13.7374C102.978 12.9874 103.353 12.3541 103.836 11.8374C104.319 11.3208 104.894 10.9291 105.561 10.6624C106.244 10.3791 107.003 10.2374 107.836 10.2374C108.369 10.2374 108.844 10.2874 109.261 10.3874C109.678 10.4874 110.036 10.6124 110.336 10.7624C110.653 10.9124 110.911 11.0791 111.111 11.2624C111.311 11.4291 111.461 11.5874 111.561 11.7374H111.586V10.5374H114.611V24.1874C114.611 26.1041 114.086 27.5291 113.036 28.4624C111.986 29.4124 110.328 29.8874 108.061 29.8874C107.194 29.8874 106.328 29.7458 105.461 29.4624C104.611 29.1791 103.903 28.8208 103.336 28.3874L104.761 25.9374C104.894 26.0541 105.086 26.1791 105.336 26.3124C105.586 26.4624 105.861 26.5958 106.161 26.7124C106.461 26.8291 106.778 26.9208 107.111 26.9874C107.444 27.0708 107.778 27.1124 108.111 27.1124C109.228 27.1124 110.069 26.8708 110.636 26.3874C111.219 25.9208 111.511 25.1791 111.511 24.1624V22.4624ZM95.8831 10.2374C96.4998 10.2374 97.0915 10.3291 97.6581 10.5124C98.2415 10.6958 98.7581 10.9958 99.2081 11.4124C99.6581 11.8124 100.016 12.3374 100.283 12.9874C100.55 13.6374 100.683 14.4208 100.683 15.3374V24.3124H97.5331V16.0124C97.5331 13.9958 96.6581 12.9874 94.9081 12.9874C94.6581 12.9874 94.3581 13.0291 94.0081 13.1124C93.6748 13.1791 93.3498 13.3291 93.0331 13.5624C92.7331 13.7791 92.4748 14.0958 92.2581 14.5124C92.0415 14.9291 91.9331 15.4791 91.9331 16.1624V24.3124H88.7831V10.5374H91.7581V12.1124H91.8081C92.2915 11.4124 92.8831 10.9291 93.5831 10.6624C94.2998 10.3791 95.0665 10.2374 95.8831 10.2374ZM82.9776 5.11243H86.2776V8.51243H82.9776V5.11243ZM83.0526 10.5374H86.2026V24.3124H83.0526V10.5374ZM77.3192 5.41243H80.4692V24.3124H77.3192V5.41243ZM71.6581 5.41243H74.8081V24.3124H71.6581V5.41243ZM69.5831 23.0374C68.9165 23.4874 68.1331 23.8458 67.2331 24.1124C66.3331 24.3791 65.2331 24.5124 63.9331 24.5124C63.1331 24.5124 62.3581 24.4041 61.6081 24.1874C60.8581 23.9874 60.1831 23.6458 59.5831 23.1624C58.9998 22.6624 58.5248 22.0041 58.1581 21.1874C57.8081 20.3541 57.6331 19.3208 57.6331 18.0874V16.6624C57.6331 15.5458 57.7915 14.5874 58.1081 13.7874C58.4415 12.9708 58.8915 12.3041 59.4581 11.7874C60.0248 11.2541 60.6831 10.8624 61.4331 10.6124C62.1998 10.3624 63.0248 10.2374 63.9081 10.2374C64.7915 10.2374 65.5748 10.3624 66.3081 10.6124C67.0581 10.8624 67.6998 11.2458 68.2331 11.7624C68.7665 12.2624 69.1831 12.8958 69.4831 13.6624C69.7831 14.4124 69.9331 15.2874 69.9331 16.2874V18.5624H60.7081C60.7081 19.6624 60.9998 20.4958 61.5831 21.0624C62.1665 21.6124 63.0081 21.8874 64.1081 21.8874C64.9248 21.8874 65.6498 21.8041 66.2831 21.6374C66.9165 21.4541 67.5831 21.1624 68.2831 20.7624L69.5831 23.0374ZM66.9081 16.1874V15.5874C66.9081 15.2208 66.8498 14.8708 66.7331 14.5374C66.6331 14.2041 66.4581 13.9124 66.2081 13.6624C65.9581 13.4124 65.6415 13.2124 65.2581 13.0624C64.8748 12.9124 64.4081 12.8374 63.8581 12.8374C62.8081 12.8374 62.0165 13.1124 61.4831 13.6624C60.9665 14.2124 60.7081 14.8791 60.7081 15.6624V16.1874H66.9081ZM49.9331 21.7124C51.0831 21.7124 51.9165 21.5124 52.4331 21.1124C52.9498 20.6958 53.2081 20.1791 53.2081 19.5624V19.2874C53.2081 18.5541 52.9331 18.0124 52.3831 17.6624C51.8498 17.2958 51.0665 16.9958 50.0331 16.7624C49.2831 16.5958 48.5248 16.4208 47.7581 16.2374C47.0081 16.0541 46.3248 15.7791 45.7081 15.4124C45.1081 15.0458 44.6165 14.5541 44.2331 13.9374C43.8498 13.3041 43.6581 12.4624 43.6581 11.4124V11.0874C43.6581 10.5374 43.7665 9.97076 43.9831 9.38743C44.1998 8.78743 44.5581 8.23743 45.0581 7.73743C45.5581 7.23743 46.2165 6.82909 47.0331 6.51243C47.8665 6.17909 48.8915 6.01243 50.1081 6.01243C51.1081 6.01243 52.0665 6.12076 52.9831 6.33743C53.8998 6.53743 54.8165 6.92909 55.7331 7.51243L54.2331 9.98743C53.4998 9.52076 52.8165 9.22076 52.1831 9.08743C51.5498 8.93743 50.8748 8.86243 50.1581 8.86243C49.5915 8.86243 49.0998 8.92909 48.6831 9.06243C48.2665 9.19576 47.9165 9.37076 47.6331 9.58743C47.3665 9.80409 47.1665 10.0374 47.0331 10.2874C46.8998 10.5374 46.8331 10.7874 46.8331 11.0374V11.3374C46.8331 11.7708 46.9331 12.1208 47.1331 12.3874C47.3498 12.6541 47.6331 12.8791 47.9831 13.0624C48.3331 13.2291 48.7415 13.3708 49.2081 13.4874C49.6915 13.5874 50.1998 13.6958 50.7331 13.8124C51.7998 14.0458 52.6915 14.3374 53.4081 14.6874C54.1415 15.0208 54.7248 15.4041 55.1581 15.8374C55.6081 16.2708 55.9248 16.7541 56.1081 17.2874C56.3081 17.8041 56.4081 18.3708 56.4081 18.9874V19.3124C56.4081 20.3124 56.2248 21.1541 55.8581 21.8374C55.5081 22.5041 55.0248 23.0458 54.4081 23.4624C53.7915 23.8624 53.0831 24.1458 52.2831 24.3124C51.4831 24.4958 50.6498 24.5874 49.7831 24.5874C49.1331 24.5874 48.4915 24.5291 47.8581 24.4124C47.2415 24.3124 46.6581 24.1708 46.1081 23.9874C45.5581 23.8041 45.0415 23.5874 44.5581 23.3374C44.0915 23.0708 43.6831 22.7958 43.3331 22.5124L44.8831 19.9624C45.4331 20.4291 46.1415 20.8374 47.0081 21.1874C47.8748 21.5374 48.8498 21.7124 49.9331 21.7124Z" fill="white"/>
</svg>
