<svg width="209" height="35" viewBox="0 0 209 35" fill="none" xmlns="http://www.w3.org/2000/svg">
<path d="M28.716 4.01215C30.7271 6.02604 30.7243 9.28715 28.7104 11.2983L21.6521 18.3455C19.6382 20.3566 16.3771 20.3538 14.366 18.3399C12.3549 16.326 12.3576 13.0649 14.3715 11.0538L21.4299 4.0066C23.4438 1.99549 26.7049 1.99827 28.716 4.01215Z" fill="#3ADDE9"/>
<path d="M30.2924 16.899C32.3035 18.9101 32.3035 22.174 30.2924 24.1851L23.3257 31.1517C21.3146 33.1628 18.0507 33.1628 16.0396 31.1517C14.0285 29.1406 14.0285 25.8767 16.0396 23.8656L23.0063 16.899C25.0174 14.8878 28.2813 14.8878 30.2924 16.899Z" fill="#00B1BD"/>
<path d="M13.5633 24.7456C14.8094 22.4668 13.9722 19.6093 11.6933 18.3632C9.4145 17.1171 6.55699 17.9543 5.31091 20.2332C4.06483 22.512 4.90205 25.3695 7.18089 26.6156C9.45973 27.8617 12.3172 27.0245 13.5633 24.7456Z" fill="#6366F1"/>
<path d="M207.239 13.3594C207.005 13.2594 206.755 13.1844 206.489 13.1344C206.222 13.0844 205.889 13.0594 205.489 13.0594C205.055 13.0594 204.647 13.1344 204.264 13.2844C203.897 13.4344 203.572 13.651 203.289 13.9344C203.022 14.201 202.805 14.526 202.639 14.9094C202.489 15.276 202.414 15.6844 202.414 16.1344V24.3094H199.264V10.5344H202.289V12.5344H202.339C202.705 11.8344 203.189 11.276 203.789 10.8594C204.405 10.4427 205.205 10.2344 206.189 10.2344C206.539 10.2344 206.889 10.2594 207.239 10.3094C207.589 10.3594 207.889 10.426 208.139 10.5094L207.239 13.3594ZM197.189 23.0344C196.522 23.4844 195.739 23.8427 194.839 24.1094C193.939 24.376 192.839 24.5094 191.539 24.5094C190.739 24.5094 189.964 24.401 189.214 24.1844C188.464 23.9844 187.789 23.6427 187.189 23.1594C186.605 22.6594 186.13 22.001 185.764 21.1844C185.414 20.351 185.239 19.3177 185.239 18.0844V16.6594C185.239 15.5427 185.397 14.5844 185.714 13.7844C186.047 12.9677 186.497 12.301 187.064 11.7844C187.63 11.251 188.289 10.8594 189.039 10.6094C189.805 10.3594 190.63 10.2344 191.514 10.2344C192.397 10.2344 193.18 10.3594 193.914 10.6094C194.664 10.8594 195.305 11.2427 195.839 11.7594C196.372 12.2594 196.789 12.8927 197.089 13.6594C197.389 14.4094 197.539 15.2844 197.539 16.2844V18.5594H188.314C188.314 19.6594 188.605 20.4927 189.189 21.0594C189.772 21.6094 190.614 21.8844 191.714 21.8844C192.53 21.8844 193.255 21.801 193.889 21.6344C194.522 21.451 195.189 21.1594 195.889 20.7594L197.189 23.0344ZM194.514 16.1844V15.5844C194.514 15.2177 194.455 14.8677 194.339 14.5344C194.239 14.201 194.064 13.9094 193.814 13.6594C193.564 13.4094 193.247 13.2094 192.864 13.0594C192.48 12.9094 192.014 12.8344 191.464 12.8344C190.414 12.8344 189.622 13.1094 189.089 13.6594C188.572 14.2094 188.314 14.876 188.314 15.6594V16.1844H194.514ZM177.761 13.1344H175.561V10.5344H177.761V7.00938H180.911V10.5344H184.386V13.1344H180.911V20.3844C180.911 20.9677 181.028 21.351 181.261 21.5344C181.511 21.7177 181.844 21.8094 182.261 21.8094C182.578 21.8094 182.886 21.7844 183.186 21.7344C183.503 21.6677 183.844 21.5594 184.211 21.4094L184.711 23.9344C184.428 24.0677 184.036 24.1927 183.536 24.3094C183.053 24.4427 182.503 24.5094 181.886 24.5094C181.103 24.5094 180.444 24.4177 179.911 24.2344C179.378 24.051 178.953 23.7844 178.636 23.4344C178.319 23.0844 178.094 22.6594 177.961 22.1594C177.828 21.6427 177.761 21.0594 177.761 20.4094V13.1344ZM169.869 21.8344C170.586 21.8344 171.153 21.7427 171.569 21.5594C172.003 21.3594 172.219 20.9927 172.219 20.4594V20.3094C172.219 20.076 172.186 19.8844 172.119 19.7344C172.069 19.5677 171.944 19.426 171.744 19.3094C171.544 19.1927 171.253 19.0844 170.869 18.9844C170.503 18.8844 169.994 18.7677 169.344 18.6344C168.511 18.4677 167.794 18.276 167.194 18.0594C166.611 17.826 166.128 17.5427 165.744 17.2094C165.378 16.876 165.103 16.476 164.919 16.0094C164.753 15.5427 164.669 14.9844 164.669 14.3344V14.0844C164.669 13.6177 164.761 13.1594 164.944 12.7094C165.144 12.2427 165.453 11.826 165.869 11.4594C166.303 11.0927 166.853 10.801 167.519 10.5844C168.203 10.351 169.028 10.2344 169.994 10.2344C170.794 10.2344 171.636 10.3094 172.519 10.4594C173.419 10.6094 174.269 10.951 175.069 11.4844L173.719 13.7594C173.253 13.4427 172.728 13.2177 172.144 13.0844C171.578 12.951 170.994 12.8844 170.394 12.8844C169.411 12.8844 168.736 13.001 168.369 13.2344C168.003 13.451 167.819 13.7427 167.819 14.1094V14.2594C167.819 14.5094 167.853 14.7094 167.919 14.8594C167.986 15.0094 168.111 15.1427 168.294 15.2594C168.478 15.3594 168.736 15.451 169.069 15.5344C169.403 15.6177 169.836 15.7094 170.369 15.8094C171.236 15.9927 171.986 16.1844 172.619 16.3844C173.269 16.5844 173.794 16.851 174.194 17.1844C174.611 17.501 174.919 17.9094 175.119 18.4094C175.319 18.8927 175.419 19.501 175.419 20.2344V20.5094C175.419 21.0427 175.294 21.551 175.044 22.0344C174.811 22.5177 174.461 22.9427 173.994 23.3094C173.528 23.676 172.953 23.9677 172.269 24.1844C171.586 24.401 170.811 24.5094 169.944 24.5094C168.794 24.5094 167.703 24.3594 166.669 24.0594C165.653 23.7594 164.811 23.3427 164.144 22.8094L165.544 20.4094C166.161 20.826 166.819 21.1677 167.519 21.4344C168.219 21.701 169.003 21.8344 169.869 21.8344ZM157.083 24.5094C156.1 24.5094 155.208 24.3677 154.408 24.0844C153.625 23.801 152.95 23.3927 152.383 22.8594C151.833 22.326 151.4 21.6677 151.083 20.8844C150.783 20.0844 150.633 19.1844 150.633 18.1844V16.5594C150.633 15.5427 150.783 14.6427 151.083 13.8594C151.4 13.076 151.833 12.4177 152.383 11.8844C152.95 11.351 153.625 10.9427 154.408 10.6594C155.208 10.376 156.1 10.2344 157.083 10.2344C158.066 10.2344 158.933 10.376 159.733 10.6594C160.533 10.9427 161.208 11.351 161.758 11.8844C162.325 12.4177 162.758 13.076 163.058 13.8594C163.375 14.6427 163.533 15.5427 163.533 16.5594V18.1844C163.533 19.1844 163.375 20.0844 163.058 20.8844C162.758 21.6677 162.325 22.326 161.758 22.8594C161.208 23.3927 160.533 23.801 159.733 24.0844C158.933 24.3677 158.05 24.5094 157.083 24.5094ZM157.083 21.7594C157.55 21.7594 157.983 21.6927 158.383 21.5594C158.783 21.426 159.125 21.2177 159.408 20.9344C159.708 20.651 159.941 20.276 160.108 19.8094C160.275 19.3427 160.358 18.7844 160.358 18.1344V16.6094C160.358 15.2927 160.058 14.3594 159.458 13.8094C158.875 13.2594 158.083 12.9844 157.083 12.9844C156.083 12.9844 155.283 13.2594 154.683 13.8094C154.1 14.3594 153.808 15.2927 153.808 16.6094V18.1344C153.808 18.7844 153.891 19.3427 154.058 19.8094C154.225 20.276 154.45 20.651 154.733 20.9344C155.033 21.2177 155.383 21.426 155.783 21.5594C156.183 21.6927 156.616 21.7594 157.083 21.7594ZM143.125 24.5094C142.141 24.5094 141.25 24.3677 140.45 24.0844C139.666 23.801 138.991 23.3927 138.425 22.8594C137.875 22.326 137.442 21.6677 137.125 20.8844C136.825 20.0844 136.675 19.1844 136.675 18.1844V16.5594C136.675 15.5427 136.825 14.6427 137.125 13.8594C137.442 13.076 137.875 12.4177 138.425 11.8844C138.991 11.351 139.666 10.9427 140.45 10.6594C141.25 10.376 142.141 10.2344 143.125 10.2344C144.108 10.2344 144.975 10.376 145.775 10.6594C146.575 10.9427 147.25 11.351 147.8 11.8844C148.367 12.4177 148.8 13.076 149.1 13.8594C149.416 14.6427 149.575 15.5427 149.575 16.5594V18.1844C149.575 19.1844 149.416 20.0844 149.1 20.8844C148.8 21.6677 148.367 22.326 147.8 22.8594C147.25 23.3927 146.575 23.801 145.775 24.0844C144.975 24.3677 144.091 24.5094 143.125 24.5094ZM143.125 21.7594C143.591 21.7594 144.025 21.6927 144.425 21.5594C144.825 21.426 145.166 21.2177 145.45 20.9344C145.75 20.651 145.983 20.276 146.15 19.8094C146.316 19.3427 146.4 18.7844 146.4 18.1344V16.6094C146.4 15.2927 146.1 14.3594 145.5 13.8094C144.916 13.2594 144.125 12.9844 143.125 12.9844C142.125 12.9844 141.325 13.2594 140.725 13.8094C140.141 14.3594 139.85 15.2927 139.85 16.6094V18.1344C139.85 18.7844 139.933 19.3427 140.1 19.8094C140.266 20.276 140.492 20.651 140.775 20.9344C141.075 21.2177 141.425 21.426 141.825 21.5594C142.225 21.6927 142.658 21.7594 143.125 21.7594ZM125.447 8.93438V13.6344H127.797C128.414 13.6344 128.964 13.6177 129.447 13.5844C129.947 13.551 130.355 13.4594 130.672 13.3094C131.005 13.1594 131.255 12.9344 131.422 12.6344C131.605 12.3177 131.697 11.876 131.697 11.3094V10.8594C131.697 10.0927 131.397 9.58437 130.797 9.33437C130.214 9.06771 129.247 8.93438 127.897 8.93438H125.447ZM125.447 21.6594H128.347C129.047 21.6594 129.655 21.6344 130.172 21.5844C130.705 21.5177 131.139 21.401 131.472 21.2344C131.822 21.051 132.08 20.801 132.247 20.4844C132.414 20.1677 132.497 19.7427 132.497 19.2094V18.6594C132.497 18.1927 132.414 17.8094 132.247 17.5094C132.097 17.1927 131.839 16.9427 131.472 16.7594C131.105 16.5594 130.622 16.426 130.022 16.3594C129.439 16.276 128.722 16.2344 127.872 16.2344H125.447V21.6594ZM122.272 6.28437H129.272C133.055 6.28437 134.947 7.75104 134.947 10.6844V11.2094C134.947 11.6094 134.897 12.001 134.797 12.3844C134.714 12.751 134.555 13.101 134.322 13.4344C134.105 13.751 133.814 14.0344 133.447 14.2844C133.08 14.5177 132.63 14.701 132.097 14.8344C133.197 15.001 134.08 15.4177 134.747 16.0844C135.43 16.7344 135.772 17.6844 135.772 18.9344V19.5594C135.772 21.0427 135.305 22.2094 134.372 23.0594C133.439 23.8927 131.997 24.3094 130.047 24.3094H122.272V6.28437ZM105.439 17.9094C105.439 19.076 105.672 19.9844 106.139 20.6344C106.622 21.2677 107.322 21.5844 108.239 21.5844C108.755 21.5844 109.214 21.501 109.614 21.3344C110.03 21.151 110.372 20.9094 110.639 20.6094C110.922 20.2927 111.139 19.9344 111.289 19.5344C111.439 19.1177 111.514 18.676 111.514 18.2094V15.6594C111.514 15.3427 111.447 15.026 111.314 14.7094C111.197 14.376 111.005 14.0844 110.739 13.8344C110.489 13.5677 110.164 13.351 109.764 13.1844C109.38 13.0177 108.914 12.9344 108.364 12.9344C107.364 12.9344 106.622 13.2594 106.139 13.9094C105.672 14.5594 105.439 15.4594 105.439 16.6094V17.9094ZM111.514 22.4594H111.464C111.097 23.126 110.572 23.5927 109.889 23.8594C109.205 24.126 108.447 24.2594 107.614 24.2594C105.847 24.2594 104.522 23.751 103.639 22.7344C102.772 21.701 102.339 20.251 102.339 18.3844V16.2094C102.339 15.2927 102.464 14.4677 102.714 13.7344C102.98 12.9844 103.355 12.351 103.839 11.8344C104.322 11.3177 104.897 10.926 105.564 10.6594C106.247 10.376 107.005 10.2344 107.839 10.2344C108.372 10.2344 108.847 10.2844 109.264 10.3844C109.68 10.4844 110.039 10.6094 110.339 10.7594C110.655 10.9094 110.914 11.076 111.114 11.2594C111.314 11.426 111.464 11.5844 111.564 11.7344H111.589V10.5344H114.614V24.1844C114.614 26.101 114.089 27.526 113.039 28.4594C111.989 29.4094 110.33 29.8844 108.064 29.8844C107.197 29.8844 106.33 29.7427 105.464 29.4594C104.614 29.176 103.905 28.8177 103.339 28.3844L104.764 25.9344C104.897 26.051 105.089 26.176 105.339 26.3094C105.589 26.4594 105.864 26.5927 106.164 26.7094C106.464 26.826 106.78 26.9177 107.114 26.9844C107.447 27.0677 107.78 27.1094 108.114 27.1094C109.23 27.1094 110.072 26.8677 110.639 26.3844C111.222 25.9177 111.514 25.176 111.514 24.1594V22.4594ZM95.8859 10.2344C96.5026 10.2344 97.0943 10.326 97.6609 10.5094C98.2443 10.6927 98.7609 10.9927 99.2109 11.4094C99.6609 11.8094 100.019 12.3344 100.286 12.9844C100.553 13.6344 100.686 14.4177 100.686 15.3344V24.3094H97.5359V16.0094C97.5359 13.9927 96.6609 12.9844 94.9109 12.9844C94.6609 12.9844 94.3609 13.026 94.0109 13.1094C93.6776 13.176 93.3526 13.326 93.0359 13.5594C92.7359 13.776 92.4776 14.0927 92.2609 14.5094C92.0443 14.926 91.9359 15.476 91.9359 16.1594V24.3094H88.7859V10.5344H91.7609V12.1094H91.8109C92.2943 11.4094 92.8859 10.926 93.5859 10.6594C94.3026 10.376 95.0693 10.2344 95.8859 10.2344ZM82.9804 5.10938H86.2804V8.50937H82.9804V5.10938ZM83.0554 10.5344H86.2054V24.3094H83.0554V10.5344ZM77.322 5.40937H80.472V24.3094H77.322V5.40937ZM71.6609 5.40937H74.8109V24.3094H71.6609V5.40937ZM69.5859 23.0344C68.9193 23.4844 68.1359 23.8427 67.2359 24.1094C66.3359 24.376 65.2359 24.5094 63.9359 24.5094C63.1359 24.5094 62.3609 24.401 61.6109 24.1844C60.8609 23.9844 60.1859 23.6427 59.5859 23.1594C59.0026 22.6594 58.5276 22.001 58.1609 21.1844C57.8109 20.351 57.6359 19.3177 57.6359 18.0844V16.6594C57.6359 15.5427 57.7943 14.5844 58.1109 13.7844C58.4443 12.9677 58.8943 12.301 59.4609 11.7844C60.0276 11.251 60.6859 10.8594 61.4359 10.6094C62.2026 10.3594 63.0276 10.2344 63.9109 10.2344C64.7943 10.2344 65.5776 10.3594 66.3109 10.6094C67.0609 10.8594 67.7026 11.2427 68.2359 11.7594C68.7693 12.2594 69.1859 12.8927 69.4859 13.6594C69.7859 14.4094 69.9359 15.2844 69.9359 16.2844V18.5594H60.7109C60.7109 19.6594 61.0026 20.4927 61.5859 21.0594C62.1693 21.6094 63.0109 21.8844 64.1109 21.8844C64.9276 21.8844 65.6526 21.801 66.2859 21.6344C66.9193 21.451 67.5859 21.1594 68.2859 20.7594L69.5859 23.0344ZM66.9109 16.1844V15.5844C66.9109 15.2177 66.8526 14.8677 66.7359 14.5344C66.6359 14.201 66.4609 13.9094 66.2109 13.6594C65.9609 13.4094 65.6443 13.2094 65.2609 13.0594C64.8776 12.9094 64.4109 12.8344 63.8609 12.8344C62.8109 12.8344 62.0193 13.1094 61.4859 13.6594C60.9693 14.2094 60.7109 14.876 60.7109 15.6594V16.1844H66.9109ZM49.9359 21.7094C51.0859 21.7094 51.9193 21.5094 52.4359 21.1094C52.9526 20.6927 53.2109 20.176 53.2109 19.5594V19.2844C53.2109 18.551 52.9359 18.0094 52.3859 17.6594C51.8526 17.2927 51.0693 16.9927 50.0359 16.7594C49.2859 16.5927 48.5276 16.4177 47.7609 16.2344C47.0109 16.051 46.3276 15.776 45.7109 15.4094C45.1109 15.0427 44.6193 14.551 44.2359 13.9344C43.8526 13.301 43.6609 12.4594 43.6609 11.4094V11.0844C43.6609 10.5344 43.7693 9.96771 43.9859 9.38438C44.2026 8.78437 44.5609 8.23437 45.0609 7.73437C45.5609 7.23437 46.2193 6.82604 47.0359 6.50937C47.8693 6.17604 48.8943 6.00937 50.1109 6.00937C51.1109 6.00937 52.0693 6.11771 52.9859 6.33438C53.9026 6.53438 54.8193 6.92604 55.7359 7.50937L54.2359 9.98438C53.5026 9.51771 52.8193 9.21771 52.1859 9.08437C51.5526 8.93437 50.8776 8.85938 50.1609 8.85938C49.5943 8.85938 49.1026 8.92604 48.6859 9.05937C48.2693 9.19271 47.9193 9.36771 47.6359 9.58438C47.3693 9.80104 47.1693 10.0344 47.0359 10.2844C46.9026 10.5344 46.8359 10.7844 46.8359 11.0344V11.3344C46.8359 11.7677 46.9359 12.1177 47.1359 12.3844C47.3526 12.651 47.6359 12.876 47.9859 13.0594C48.3359 13.226 48.7443 13.3677 49.2109 13.4844C49.6943 13.5844 50.2026 13.6927 50.7359 13.8094C51.8026 14.0427 52.6943 14.3344 53.4109 14.6844C54.1443 15.0177 54.7276 15.401 55.1609 15.8344C55.6109 16.2677 55.9276 16.751 56.1109 17.2844C56.3109 17.801 56.4109 18.3677 56.4109 18.9844V19.3094C56.4109 20.3094 56.2276 21.151 55.8609 21.8344C55.5109 22.501 55.0276 23.0427 54.4109 23.4594C53.7943 23.8594 53.0859 24.1427 52.2859 24.3094C51.4859 24.4927 50.6526 24.5844 49.7859 24.5844C49.1359 24.5844 48.4943 24.526 47.8609 24.4094C47.2443 24.3094 46.6609 24.1677 46.1109 23.9844C45.5609 23.801 45.0443 23.5844 44.5609 23.3344C44.0943 23.0677 43.6859 22.7927 43.3359 22.5094L44.8859 19.9594C45.4359 20.426 46.1443 20.8344 47.0109 21.1844C47.8776 21.5344 48.8526 21.7094 49.9359 21.7094Z" fill="#27272A"/>
</svg>
