<svg width="210" height="60" viewBox="0 0 210 60" fill="none" xmlns="http://www.w3.org/2000/svg">
<path d="M29.6476 16.5122C31.6587 18.526 31.6559 21.7872 29.6421 23.7983L22.5837 30.8455C20.5698 32.8566 17.3087 32.8538 15.2976 30.8399C13.2865 28.826 13.2893 25.5649 15.3032 23.5538L22.3615 16.5066C24.3754 14.4955 27.6365 14.4983 29.6476 16.5122Z" fill="#3ADDE9"/>
<path d="M31.225 29.3983C33.2361 31.4095 33.2361 34.6733 31.225 36.6845L24.2583 43.6511C22.2472 45.6622 18.9833 45.6622 16.9722 43.6511C14.9611 41.64 14.9611 38.3761 16.9722 36.365L23.9389 29.3983C25.95 27.3872 29.2139 27.3872 31.225 29.3983Z" fill="#00B1BD"/>
<path d="M14.4959 37.2453C15.742 34.9664 14.9048 32.1089 12.626 30.8628C10.3471 29.6167 7.48961 30.454 6.24353 32.7328C4.99745 35.0116 5.83467 37.8692 8.11351 39.1152C10.3924 40.3613 13.2499 39.5241 14.4959 37.2453Z" fill="#6466FA"/>
<path d="M208.167 25.8624C207.934 25.7624 207.684 25.6874 207.417 25.6374C207.151 25.5874 206.817 25.5624 206.417 25.5624C205.984 25.5624 205.576 25.6374 205.192 25.7874C204.826 25.9374 204.501 26.1541 204.217 26.4374C203.951 26.7041 203.734 27.0291 203.567 27.4124C203.417 27.7791 203.342 28.1874 203.342 28.6374V36.8124H200.192V23.0374H203.217V25.0374H203.267C203.634 24.3374 204.117 23.7791 204.717 23.3624C205.334 22.9458 206.134 22.7374 207.117 22.7374C207.467 22.7374 207.817 22.7624 208.167 22.8124C208.517 22.8624 208.817 22.9291 209.067 23.0124L208.167 25.8624ZM198.117 35.5374C197.451 35.9874 196.667 36.3458 195.767 36.6124C194.867 36.8791 193.767 37.0124 192.467 37.0124C191.667 37.0124 190.892 36.9041 190.142 36.6874C189.392 36.4874 188.717 36.1458 188.117 35.6624C187.534 35.1624 187.059 34.5041 186.692 33.6874C186.342 32.8541 186.167 31.8208 186.167 30.5874V29.1624C186.167 28.0458 186.326 27.0874 186.642 26.2874C186.976 25.4708 187.426 24.8041 187.992 24.2874C188.559 23.7541 189.217 23.3624 189.967 23.1124C190.734 22.8624 191.559 22.7374 192.442 22.7374C193.326 22.7374 194.109 22.8624 194.842 23.1124C195.592 23.3624 196.234 23.7458 196.767 24.2624C197.301 24.7624 197.717 25.3958 198.017 26.1624C198.317 26.9124 198.467 27.7874 198.467 28.7874V31.0624H189.242C189.242 32.1624 189.534 32.9958 190.117 33.5624C190.701 34.1124 191.542 34.3874 192.642 34.3874C193.459 34.3874 194.184 34.3041 194.817 34.1374C195.451 33.9541 196.117 33.6624 196.817 33.2624L198.117 35.5374ZM195.442 28.6874V28.0874C195.442 27.7208 195.384 27.3708 195.267 27.0374C195.167 26.7041 194.992 26.4124 194.742 26.1624C194.492 25.9124 194.176 25.7124 193.792 25.5624C193.409 25.4124 192.942 25.3374 192.392 25.3374C191.342 25.3374 190.551 25.6124 190.017 26.1624C189.501 26.7124 189.242 27.3791 189.242 28.1624V28.6874H195.442ZM178.69 25.6374H176.49V23.0374H178.69V19.5124H181.84V23.0374H185.315V25.6374H181.84V32.8874C181.84 33.4708 181.956 33.8541 182.19 34.0374C182.44 34.2208 182.773 34.3124 183.19 34.3124C183.506 34.3124 183.815 34.2874 184.115 34.2374C184.431 34.1708 184.773 34.0624 185.14 33.9124L185.64 36.4374C185.356 36.5708 184.965 36.6958 184.465 36.8124C183.981 36.9458 183.431 37.0124 182.815 37.0124C182.031 37.0124 181.373 36.9208 180.84 36.7374C180.306 36.5541 179.881 36.2874 179.565 35.9374C179.248 35.5874 179.023 35.1624 178.89 34.6624C178.756 34.1458 178.69 33.5624 178.69 32.9124V25.6374ZM170.798 34.3374C171.515 34.3374 172.081 34.2458 172.498 34.0624C172.931 33.8624 173.148 33.4958 173.148 32.9624V32.8124C173.148 32.5791 173.115 32.3874 173.048 32.2374C172.998 32.0708 172.873 31.9291 172.673 31.8124C172.473 31.6958 172.181 31.5874 171.798 31.4874C171.431 31.3874 170.923 31.2708 170.273 31.1374C169.44 30.9708 168.723 30.7791 168.123 30.5624C167.54 30.3291 167.056 30.0458 166.673 29.7124C166.306 29.3791 166.031 28.9791 165.848 28.5124C165.681 28.0458 165.598 27.4874 165.598 26.8374V26.5874C165.598 26.1208 165.69 25.6624 165.873 25.2124C166.073 24.7458 166.381 24.3291 166.798 23.9624C167.231 23.5958 167.781 23.3041 168.448 23.0874C169.131 22.8541 169.956 22.7374 170.923 22.7374C171.723 22.7374 172.565 22.8124 173.448 22.9624C174.348 23.1124 175.198 23.4541 175.998 23.9874L174.648 26.2624C174.181 25.9458 173.656 25.7208 173.073 25.5874C172.506 25.4541 171.923 25.3874 171.323 25.3874C170.34 25.3874 169.665 25.5041 169.298 25.7374C168.931 25.9541 168.748 26.2458 168.748 26.6124V26.7624C168.748 27.0124 168.781 27.2124 168.848 27.3624C168.915 27.5124 169.04 27.6458 169.223 27.7624C169.406 27.8624 169.665 27.9541 169.998 28.0374C170.331 28.1208 170.765 28.2124 171.298 28.3124C172.165 28.4958 172.915 28.6874 173.548 28.8874C174.198 29.0874 174.723 29.3541 175.123 29.6874C175.54 30.0041 175.848 30.4124 176.048 30.9124C176.248 31.3958 176.348 32.0041 176.348 32.7374V33.0124C176.348 33.5458 176.223 34.0541 175.973 34.5374C175.74 35.0208 175.39 35.4458 174.923 35.8124C174.456 36.1791 173.881 36.4708 173.198 36.6874C172.515 36.9041 171.74 37.0124 170.873 37.0124C169.723 37.0124 168.631 36.8624 167.598 36.5624C166.581 36.2624 165.74 35.8458 165.073 35.3124L166.473 32.9124C167.09 33.3291 167.748 33.6708 168.448 33.9374C169.148 34.2041 169.931 34.3374 170.798 34.3374ZM158.012 37.0124C157.029 37.0124 156.137 36.8708 155.337 36.5874C154.554 36.3041 153.879 35.8958 153.312 35.3624C152.762 34.8291 152.329 34.1708 152.012 33.3874C151.712 32.5874 151.562 31.6874 151.562 30.6874V29.0624C151.562 28.0458 151.712 27.1458 152.012 26.3624C152.329 25.5791 152.762 24.9208 153.312 24.3874C153.879 23.8541 154.554 23.4458 155.337 23.1624C156.137 22.8791 157.029 22.7374 158.012 22.7374C158.995 22.7374 159.862 22.8791 160.662 23.1624C161.462 23.4458 162.137 23.8541 162.687 24.3874C163.254 24.9208 163.687 25.5791 163.987 26.3624C164.304 27.1458 164.462 28.0458 164.462 29.0624V30.6874C164.462 31.6874 164.304 32.5874 163.987 33.3874C163.687 34.1708 163.254 34.8291 162.687 35.3624C162.137 35.8958 161.462 36.3041 160.662 36.5874C159.862 36.8708 158.979 37.0124 158.012 37.0124ZM158.012 34.2624C158.479 34.2624 158.912 34.1958 159.312 34.0624C159.712 33.9291 160.054 33.7208 160.337 33.4374C160.637 33.1541 160.87 32.7791 161.037 32.3124C161.204 31.8458 161.287 31.2874 161.287 30.6374V29.1124C161.287 27.7958 160.987 26.8624 160.387 26.3124C159.804 25.7624 159.012 25.4874 158.012 25.4874C157.012 25.4874 156.212 25.7624 155.612 26.3124C155.029 26.8624 154.737 27.7958 154.737 29.1124V30.6374C154.737 31.2874 154.82 31.8458 154.987 32.3124C155.154 32.7791 155.379 33.1541 155.662 33.4374C155.962 33.7208 156.312 33.9291 156.712 34.0624C157.112 34.1958 157.545 34.2624 158.012 34.2624ZM144.054 37.0124C143.07 37.0124 142.179 36.8708 141.379 36.5874C140.595 36.3041 139.92 35.8958 139.354 35.3624C138.804 34.8291 138.37 34.1708 138.054 33.3874C137.754 32.5874 137.604 31.6874 137.604 30.6874V29.0624C137.604 28.0458 137.754 27.1458 138.054 26.3624C138.37 25.5791 138.804 24.9208 139.354 24.3874C139.92 23.8541 140.595 23.4458 141.379 23.1624C142.179 22.8791 143.07 22.7374 144.054 22.7374C145.037 22.7374 145.904 22.8791 146.704 23.1624C147.504 23.4458 148.179 23.8541 148.729 24.3874C149.295 24.9208 149.729 25.5791 150.029 26.3624C150.345 27.1458 150.504 28.0458 150.504 29.0624V30.6874C150.504 31.6874 150.345 32.5874 150.029 33.3874C149.729 34.1708 149.295 34.8291 148.729 35.3624C148.179 35.8958 147.504 36.3041 146.704 36.5874C145.904 36.8708 145.02 37.0124 144.054 37.0124ZM144.054 34.2624C144.52 34.2624 144.954 34.1958 145.354 34.0624C145.754 33.9291 146.095 33.7208 146.379 33.4374C146.679 33.1541 146.912 32.7791 147.079 32.3124C147.245 31.8458 147.329 31.2874 147.329 30.6374V29.1124C147.329 27.7958 147.029 26.8624 146.429 26.3124C145.845 25.7624 145.054 25.4874 144.054 25.4874C143.054 25.4874 142.254 25.7624 141.654 26.3124C141.07 26.8624 140.779 27.7958 140.779 29.1124V30.6374C140.779 31.2874 140.862 31.8458 141.029 32.3124C141.195 32.7791 141.42 33.1541 141.704 33.4374C142.004 33.7208 142.354 33.9291 142.754 34.0624C143.154 34.1958 143.587 34.2624 144.054 34.2624ZM126.376 21.4374V26.1374H128.726C129.342 26.1374 129.892 26.1208 130.376 26.0874C130.876 26.0541 131.284 25.9624 131.601 25.8124C131.934 25.6624 132.184 25.4374 132.351 25.1374C132.534 24.8208 132.626 24.3791 132.626 23.8124V23.3624C132.626 22.5958 132.326 22.0874 131.726 21.8374C131.142 21.5708 130.176 21.4374 128.826 21.4374H126.376ZM126.376 34.1624H129.276C129.976 34.1624 130.584 34.1374 131.101 34.0874C131.634 34.0208 132.067 33.9041 132.401 33.7374C132.751 33.5541 133.009 33.3041 133.176 32.9874C133.342 32.6708 133.426 32.2458 133.426 31.7124V31.1624C133.426 30.6958 133.342 30.3124 133.176 30.0124C133.026 29.6958 132.767 29.4458 132.401 29.2624C132.034 29.0624 131.551 28.9291 130.951 28.8624C130.367 28.7791 129.651 28.7374 128.801 28.7374H126.376V34.1624ZM123.201 18.7874H130.201C133.984 18.7874 135.876 20.2541 135.876 23.1874V23.7124C135.876 24.1124 135.826 24.5041 135.726 24.8874C135.642 25.2541 135.484 25.6041 135.251 25.9374C135.034 26.2541 134.742 26.5374 134.376 26.7874C134.009 27.0208 133.559 27.2041 133.026 27.3374C134.126 27.5041 135.009 27.9208 135.676 28.5874C136.359 29.2374 136.701 30.1874 136.701 31.4374V32.0624C136.701 33.5458 136.234 34.7124 135.301 35.5624C134.367 36.3958 132.926 36.8124 130.976 36.8124H123.201V18.7874ZM106.367 30.4124C106.367 31.5791 106.601 32.4874 107.067 33.1374C107.551 33.7708 108.251 34.0874 109.167 34.0874C109.684 34.0874 110.142 34.0041 110.542 33.8374C110.959 33.6541 111.301 33.4124 111.567 33.1124C111.851 32.7958 112.067 32.4374 112.217 32.0374C112.367 31.6208 112.442 31.1791 112.442 30.7124V28.1624C112.442 27.8458 112.376 27.5291 112.242 27.2124C112.126 26.8791 111.934 26.5874 111.667 26.3374C111.417 26.0708 111.092 25.8541 110.692 25.6874C110.309 25.5208 109.842 25.4374 109.292 25.4374C108.292 25.4374 107.551 25.7624 107.067 26.4124C106.601 27.0624 106.367 27.9624 106.367 29.1124V30.4124ZM112.442 34.9624H112.392C112.026 35.6291 111.501 36.0958 110.817 36.3624C110.134 36.6291 109.376 36.7624 108.542 36.7624C106.776 36.7624 105.451 36.2541 104.567 35.2374C103.701 34.2041 103.267 32.7541 103.267 30.8874V28.7124C103.267 27.7958 103.392 26.9708 103.642 26.2374C103.909 25.4874 104.284 24.8541 104.767 24.3374C105.251 23.8208 105.826 23.4291 106.492 23.1624C107.176 22.8791 107.934 22.7374 108.767 22.7374C109.301 22.7374 109.776 22.7874 110.192 22.8874C110.609 22.9874 110.967 23.1124 111.267 23.2624C111.584 23.4124 111.842 23.5791 112.042 23.7624C112.242 23.9291 112.392 24.0874 112.492 24.2374H112.517V23.0374H115.542V36.6874C115.542 38.6041 115.017 40.0291 113.967 40.9624C112.917 41.9124 111.259 42.3874 108.992 42.3874C108.126 42.3874 107.259 42.2458 106.392 41.9624C105.542 41.6791 104.834 41.3208 104.267 40.8874L105.692 38.4374C105.826 38.5541 106.017 38.6791 106.267 38.8124C106.517 38.9624 106.792 39.0958 107.092 39.2124C107.392 39.3291 107.709 39.4208 108.042 39.4874C108.376 39.5708 108.709 39.6124 109.042 39.6124C110.159 39.6124 111.001 39.3708 111.567 38.8874C112.151 38.4208 112.442 37.6791 112.442 36.6624V34.9624ZM96.8147 22.7374C97.4313 22.7374 98.023 22.8291 98.5896 23.0124C99.173 23.1958 99.6897 23.4958 100.14 23.9124C100.59 24.3124 100.948 24.8374 101.215 25.4874C101.481 26.1374 101.615 26.9208 101.615 27.8374V36.8124H98.4647V28.5124C98.4647 26.4958 97.5896 25.4874 95.8396 25.4874C95.5896 25.4874 95.2897 25.5291 94.9397 25.6124C94.6063 25.6791 94.2813 25.8291 93.9646 26.0624C93.6646 26.2791 93.4063 26.5958 93.1896 27.0124C92.973 27.4291 92.8647 27.9791 92.8647 28.6624V36.8124H89.7147V23.0374H92.6897V24.6124H92.7397C93.223 23.9124 93.8147 23.4291 94.5147 23.1624C95.2313 22.8791 95.998 22.7374 96.8147 22.7374ZM83.9091 17.6124H87.2091V21.0124H83.9091V17.6124ZM83.9841 23.0374H87.1341V36.8124H83.9841V23.0374ZM78.2508 17.9124H81.4008V36.8124H78.2508V17.9124ZM72.5896 17.9124H75.7397V36.8124H72.5896V17.9124ZM70.5147 35.5374C69.848 35.9874 69.0646 36.3458 68.1646 36.6124C67.2646 36.8791 66.1646 37.0124 64.8647 37.0124C64.0646 37.0124 63.2896 36.9041 62.5396 36.6874C61.7896 36.4874 61.1146 36.1458 60.5146 35.6624C59.9313 35.1624 59.4563 34.5041 59.0896 33.6874C58.7396 32.8541 58.5646 31.8208 58.5646 30.5874V29.1624C58.5646 28.0458 58.723 27.0874 59.0396 26.2874C59.373 25.4708 59.823 24.8041 60.3897 24.2874C60.9563 23.7541 61.6147 23.3624 62.3647 23.1124C63.1313 22.8624 63.9563 22.7374 64.8397 22.7374C65.723 22.7374 66.5063 22.8624 67.2397 23.1124C67.9897 23.3624 68.6313 23.7458 69.1646 24.2624C69.698 24.7624 70.1146 25.3958 70.4146 26.1624C70.7146 26.9124 70.8646 27.7874 70.8646 28.7874V31.0624H61.6397C61.6397 32.1624 61.9313 32.9958 62.5146 33.5624C63.098 34.1124 63.9396 34.3874 65.0396 34.3874C65.8563 34.3874 66.5813 34.3041 67.2146 34.1374C67.848 33.9541 68.5147 33.6624 69.2147 33.2624L70.5147 35.5374ZM67.8396 28.6874V28.0874C67.8396 27.7208 67.7813 27.3708 67.6647 27.0374C67.5647 26.7041 67.3897 26.4124 67.1397 26.1624C66.8897 25.9124 66.573 25.7124 66.1897 25.5624C65.8063 25.4124 65.3396 25.3374 64.7896 25.3374C63.7396 25.3374 62.948 25.6124 62.4146 26.1624C61.898 26.7124 61.6397 27.3791 61.6397 28.1624V28.6874H67.8396ZM50.8646 34.2124C52.0146 34.2124 52.848 34.0124 53.3646 33.6124C53.8813 33.1958 54.1396 32.6791 54.1396 32.0624V31.7874C54.1396 31.0541 53.8646 30.5124 53.3146 30.1624C52.7813 29.7958 51.998 29.4958 50.9646 29.2624C50.2146 29.0958 49.4563 28.9208 48.6897 28.7374C47.9397 28.5541 47.2563 28.2791 46.6396 27.9124C46.0396 27.5458 45.548 27.0541 45.1647 26.4374C44.7813 25.8041 44.5896 24.9624 44.5896 23.9124V23.5874C44.5896 23.0374 44.698 22.4708 44.9146 21.8874C45.1313 21.2874 45.4897 20.7374 45.9897 20.2374C46.4897 19.7374 47.148 19.3291 47.9647 19.0124C48.798 18.6791 49.823 18.5124 51.0396 18.5124C52.0396 18.5124 52.998 18.6208 53.9146 18.8374C54.8313 19.0374 55.748 19.4291 56.6646 20.0124L55.1647 22.4874C54.4313 22.0208 53.748 21.7208 53.1146 21.5874C52.4813 21.4374 51.8063 21.3624 51.0897 21.3624C50.523 21.3624 50.0313 21.4291 49.6146 21.5624C49.198 21.6958 48.848 21.8708 48.5646 22.0874C48.298 22.3041 48.098 22.5374 47.9647 22.7874C47.8313 23.0374 47.7647 23.2874 47.7647 23.5374V23.8374C47.7647 24.2708 47.8647 24.6208 48.0647 24.8874C48.2813 25.1541 48.5647 25.3791 48.9146 25.5624C49.2647 25.7291 49.673 25.8708 50.1396 25.9874C50.623 26.0874 51.1313 26.1958 51.6646 26.3124C52.7313 26.5458 53.623 26.8374 54.3397 27.1874C55.073 27.5208 55.6563 27.9041 56.0897 28.3374C56.5397 28.7708 56.8563 29.2541 57.0397 29.7874C57.2397 30.3041 57.3397 30.8708 57.3397 31.4874V31.8124C57.3397 32.8124 57.1563 33.6541 56.7896 34.3374C56.4396 35.0041 55.9563 35.5458 55.3396 35.9624C54.723 36.3624 54.0146 36.6458 53.2146 36.8124C52.4146 36.9958 51.5813 37.0874 50.7146 37.0874C50.0646 37.0874 49.423 37.0291 48.7896 36.9124C48.173 36.8124 47.5897 36.6708 47.0397 36.4874C46.4897 36.3041 45.973 36.0874 45.4896 35.8374C45.023 35.5708 44.6146 35.2958 44.2646 35.0124L45.8146 32.4624C46.3646 32.9291 47.073 33.3374 47.9396 33.6874C48.8063 34.0374 49.7813 34.2124 50.8646 34.2124Z" fill="#1B1F27"/>
</svg>
