<svg width="40" height="40" viewBox="0 0 40 40" fill="none" xmlns="http://www.w3.org/2000/svg">
<path d="M32.8171 4.58755C35.1156 6.88914 35.1124 10.6161 32.8108 12.9145L24.7441 20.9685C22.4425 23.2669 18.7156 23.2637 16.4171 20.9622C14.1187 18.6606 14.1219 14.9336 16.4235 12.6352L24.4902 4.5812C26.7917 2.28279 30.5187 2.28596 32.8171 4.58755Z" fill="#3ADDE9"/>
<path d="M34.6221 19.3097C36.9205 21.6082 36.9205 25.3383 34.6221 27.6367L26.6602 35.5986C24.3618 37.8971 20.6316 37.8971 18.3332 35.5986C16.0348 33.3002 16.0348 29.5701 18.3332 27.2717L26.2951 19.3097C28.5935 17.0113 32.3237 17.0113 34.6221 19.3097Z" fill="#00B1BD"/>
<path d="M15.5021 28.2774C16.9261 25.673 15.9693 22.4072 13.3649 20.9832C10.7605 19.5591 7.49482 20.5159 6.07073 23.1203C4.64664 25.7247 5.60346 28.9904 8.20785 30.4145C10.8122 31.8386 14.078 30.8817 15.5021 28.2774Z" fill="#6466FA"/>
</svg>
