<svg width="40" height="40" viewBox="0 0 40 40" fill="none" xmlns="http://www.w3.org/2000/svg">
<path d="M32.8178 4.58535C35.1162 6.88694 35.113 10.6139 32.8114 12.9123L24.7447 20.9663C22.4431 23.2647 18.7162 23.2615 16.4178 20.96C14.1193 18.6584 14.1225 14.9314 16.4241 12.633L24.4908 4.57901C26.7924 2.28059 30.5193 2.28377 32.8178 4.58535Z" fill="#1B1F27"/>
<path d="M34.621 19.3124C36.9194 21.6108 36.9194 25.341 34.621 27.6394L26.6591 35.6013C24.3607 37.8997 20.6305 37.8997 18.3321 35.6013C16.0337 33.3029 16.0337 29.5728 18.3321 27.2743L26.294 19.3124C28.5924 17.014 32.3226 17.014 34.621 19.3124Z" fill="#1B1F27"/>
<path d="M15.5021 28.2803C16.9261 25.6759 15.9693 22.4102 13.3649 20.9861C10.7605 19.562 7.49482 20.5188 6.07073 23.1232C4.64664 25.7276 5.60346 28.9933 8.20785 30.4174C10.8122 31.8415 14.078 30.8847 15.5021 28.2803Z" fill="#1B1F27"/>
</svg>
