<svg width="100%" height="100%" viewBox="0 0 64 64" fill="none" xmlns="http://www.w3.org/2000/svg">
<path d="M42.4 26.8L28.9745 39.005C28.4786 39.4558 27.7214 39.4558 27.2255 39.005L21.6 33.8909M58 32C58 46.3594 46.3594 58 32 58C17.6406 58 6 46.3594 6 32C6 17.6406 17.6406 6 32 6C46.3594 6 58 17.6406 58 32Z" stroke="#02975B" stroke-width="4" stroke-linecap="square"/>
<path d="M58 32C58 46.3594 46.3594 58 32 58C17.6406 58 6 46.3594 6 32C6 17.6406 17.6406 6 32 6C46.3594 6 58 17.6406 58 32Z" stroke="#43D69B" stroke-width="4" stroke-linecap="square"/>
</svg>
