<svg width="20" height="20" viewBox="0 0 20 20" fill="none" xmlns="http://www.w3.org/2000/svg">
<path d="M14.1667 7.63679L14.1035 6.78493C14.0456 6.00456 13.3712 5.39995 12.5587 5.39995H10.9033M5 15.8385H4.04878C3.15 15.8385 2.43998 15.1043 2.50402 14.2411L3.05712 6.78493C3.11501 6.00456 3.78938 5.39995 4.60188 5.39995H6.25725M6.25725 5.39995V3.90872C6.25725 2.67334 7.29732 1.67188 8.5803 1.67188C9.86328 1.67188 10.9033 2.67334 10.9033 3.90872V5.39995M6.25725 5.39995H10.9033M9.16667 17.5052H15.8333C16.7538 17.5052 17.5 16.759 17.5 15.8385V11.6719C17.5 10.7514 16.7538 10.0052 15.8333 10.0052H9.16667C8.24619 10.0052 7.5 10.7514 7.5 11.6719V15.8385C7.5 16.759 8.24619 17.5052 9.16667 17.5052Z" stroke="#6A7381" stroke-width="1.5" stroke-linecap="round"/>
<path d="M14.1615 12.5C14.1615 13.4205 13.4153 14.1667 12.4948 14.1667C11.5743 14.1667 10.8281 13.4205 10.8281 12.5" stroke="#00B1BD" stroke-width="1.5" stroke-linecap="round"/>
</svg>
