<svg width="20" height="20" viewBox="0 0 20 20" fill="none" xmlns="http://www.w3.org/2000/svg">
<path d="M11.9422 16.8058C12.3254 16.5509 12.8429 16.6554 13.0978 17.0385C13.3526 17.4217 13.249 17.9392 12.8659 18.1941C10.9161 19.4913 8.36054 19.4913 6.41077 18.1941C6.02773 17.9392 5.92407 17.4217 6.17884 17.0385C6.43374 16.6554 6.95126 16.5509 7.33444 16.8058C8.72498 17.7309 10.5516 17.7309 11.9422 16.8058ZM14.6383 8.33329C14.6383 5.57187 12.3997 3.33329 9.63831 3.33329C6.87696 3.33337 4.63831 5.57192 4.63831 8.33329V10.4817C4.63827 11.7759 4.30356 13.0449 3.6707 14.1666H15.6067C14.9738 13.0448 14.6384 11.776 14.6383 10.4817V8.33329ZM16.305 10.4817C16.305 11.6333 16.646 12.7593 17.2848 13.7174L17.4004 13.8899C17.9539 14.7206 17.3578 15.8333 16.3595 15.8333H2.91712C1.91875 15.8333 1.32329 14.7206 1.87708 13.8899L1.99183 13.7174C2.6306 12.7593 2.97159 11.6333 2.97165 10.4817V8.33329C2.97165 4.65144 5.95648 1.66671 9.63831 1.66663C13.3202 1.66663 16.305 4.65139 16.305 8.33329V10.4817Z" fill="#9AA3AF"/>
</svg>
