<svg width="20" height="20" viewBox="0 0 20 20" fill="none" xmlns="http://www.w3.org/2000/svg">
<path d="M14.9995 5C16.8404 5 18.3333 6.49221 18.3335 8.33301V11.667C18.3333 13.5078 16.8404 15 14.9995 15H4.99951C3.15882 14.9998 1.66668 13.5077 1.6665 11.667V8.33301C1.66668 6.49232 3.15882 5.00018 4.99951 5H14.9995ZM6.6665 7.5C5.28579 7.5 4.1665 8.61929 4.1665 10C4.1665 11.3807 5.28579 12.5 6.6665 12.5H13.3335C14.7141 12.4998 15.8335 11.3806 15.8335 10C15.8335 8.6194 14.7141 7.50018 13.3335 7.5H6.6665Z" fill="#9AA3AF"/>
</svg>
