<svg width="24" height="24" viewBox="0 0 24 24" fill="none" xmlns="http://www.w3.org/2000/svg">
<path d="M3 9.4C3 7.15979 3 6.03968 3.43597 5.18404C3.81947 4.43139 4.43139 3.81947 5.18404 3.43597C6.03968 3 7.15979 3 9.4 3H14.6C16.8402 3 17.9603 3 18.816 3.43597C19.5686 3.81947 20.1805 4.43139 20.564 5.18404C21 6.03968 21 7.15979 21 9.4V14.6C21 16.8402 21 17.9603 20.564 18.816C20.1805 19.5686 19.5686 20.1805 18.816 20.564C17.9603 21 16.8402 21 14.6 21H9.4C7.15979 21 6.03968 21 5.18404 20.564C4.43139 20.1805 3.81947 19.5686 3.43597 18.816C3 17.9603 3 16.8402 3 14.6V9.4Z" fill="#F4F5F7"/>
<path d="M10.8363 14.6942L10.1637 13.9543V13.9543L10.8363 14.6942ZM16.6727 10.7399C17.0813 10.3684 17.1114 9.73598 16.7399 9.32733C16.3684 8.91867 15.736 8.88855 15.3273 9.26006L16 10L16.6727 10.7399ZM10.1637 14.6942L10.8363 13.9543V13.9543L10.1637 14.6942ZM8.67267 11.9873C8.26402 11.6158 7.63157 11.6459 7.26006 12.0546C6.88855 12.4633 6.91867 13.0957 7.32733 13.4672L8 12.7273L8.67267 11.9873ZM5.18404 20.564L5.63803 19.673L5.18404 20.564ZM3.43597 18.816L4.32698 18.362L3.43597 18.816ZM20.564 18.816L19.673 18.362L20.564 18.816ZM18.816 20.564L18.362 19.673L18.816 20.564ZM18.816 3.43597L18.362 4.32698L18.816 3.43597ZM20.564 5.18404L19.673 5.63803L20.564 5.18404ZM5.18404 3.43597L5.63803 4.32698L5.18404 3.43597ZM3.43597 5.18404L4.32698 5.63803L3.43597 5.18404ZM10.8363 14.6942L11.509 15.4342L16.6727 10.7399L16 10L15.3273 9.26006L10.1637 13.9543L10.8363 14.6942ZM10.1637 14.6942L10.8363 13.9543L8.67267 11.9873L8 12.7273L7.32733 13.4672L9.49099 15.4342L10.1637 14.6942ZM10.8363 14.6942L10.1637 13.9543C10.3544 13.7809 10.6456 13.7809 10.8363 13.9543L10.1637 14.6942L9.49099 15.4342C10.0631 15.9543 10.9369 15.9543 11.509 15.4342L10.8363 14.6942ZM9.4 3V4H14.6V3V2H9.4V3ZM21 9.4H20V14.6H21H22V9.4H21ZM14.6 21V20H9.4V21V22H14.6V21ZM3 14.6H4V9.4H3H2V14.6H3ZM9.4 21V20C8.26339 20 7.47108 19.9992 6.85424 19.9488C6.24907 19.8994 5.90138 19.8072 5.63803 19.673L5.18404 20.564L4.73005 21.455C5.32234 21.7568 5.96253 21.8826 6.69138 21.9422C7.40855 22.0008 8.2964 22 9.4 22V21ZM3 14.6H2C2 15.7036 1.99922 16.5914 2.05782 17.3086C2.11737 18.0375 2.24318 18.6777 2.54497 19.27L3.43597 18.816L4.32698 18.362C4.19279 18.0986 4.10062 17.7509 4.05118 17.1458C4.00078 16.5289 4 15.7366 4 14.6H3ZM5.18404 20.564L5.63803 19.673C5.07354 19.3854 4.6146 18.9265 4.32698 18.362L3.43597 18.816L2.54497 19.27C3.02433 20.2108 3.78924 20.9757 4.73005 21.455L5.18404 20.564ZM21 14.6H20C20 15.7366 19.9992 16.5289 19.9488 17.1458C19.8994 17.7509 19.8072 18.0986 19.673 18.362L20.564 18.816L21.455 19.27C21.7568 18.6777 21.8826 18.0375 21.9422 17.3086C22.0008 16.5914 22 15.7036 22 14.6H21ZM14.6 21V22C15.7036 22 16.5914 22.0008 17.3086 21.9422C18.0375 21.8826 18.6777 21.7568 19.27 21.455L18.816 20.564L18.362 19.673C18.0986 19.8072 17.7509 19.8994 17.1458 19.9488C16.5289 19.9992 15.7366 20 14.6 20V21ZM20.564 18.816L19.673 18.362C19.3854 18.9265 18.9265 19.3854 18.362 19.673L18.816 20.564L19.27 21.455C20.2108 20.9757 20.9757 20.2108 21.455 19.27L20.564 18.816ZM14.6 3V4C15.7366 4 16.5289 4.00078 17.1458 4.05118C17.7509 4.10062 18.0986 4.19279 18.362 4.32698L18.816 3.43597L19.27 2.54497C18.6777 2.24318 18.0375 2.11737 17.3086 2.05782C16.5914 1.99922 15.7036 2 14.6 2V3ZM21 9.4H22C22 8.2964 22.0008 7.40855 21.9422 6.69138C21.8826 5.96253 21.7568 5.32234 21.455 4.73005L20.564 5.18404L19.673 5.63803C19.8072 5.90138 19.8994 6.24907 19.9488 6.85424C19.9992 7.47108 20 8.26339 20 9.4H21ZM18.816 3.43597L18.362 4.32698C18.9265 4.6146 19.3854 5.07354 19.673 5.63803L20.564 5.18404L21.455 4.73005C20.9757 3.78924 20.2108 3.02433 19.27 2.54497L18.816 3.43597ZM9.4 3V2C8.2964 2 7.40855 1.99922 6.69138 2.05782C5.96253 2.11737 5.32234 2.24318 4.73005 2.54497L5.18404 3.43597L5.63803 4.32698C5.90138 4.19279 6.24907 4.10062 6.85424 4.05118C7.47108 4.00078 8.26339 4 9.4 4V3ZM3 9.4H4C4 8.26339 4.00078 7.47108 4.05118 6.85424C4.10062 6.24907 4.19279 5.90138 4.32698 5.63803L3.43597 5.18404L2.54497 4.73005C2.24318 5.32234 2.11737 5.96253 2.05782 6.69138C1.99922 7.40855 2 8.2964 2 9.4H3ZM5.18404 3.43597L4.73005 2.54497C3.78924 3.02433 3.02433 3.78924 2.54497 4.73005L3.43597 5.18404L4.32698 5.63803C4.6146 5.07354 5.07354 4.6146 5.63803 4.32698L5.18404 3.43597Z" fill="#EAECF1"/>
</svg>
