<svg width="20" height="20" viewBox="0 0 20 20" fill="none" xmlns="http://www.w3.org/2000/svg">
<path d="M1 7.4C1 5.15979 1 4.03968 1.43597 3.18404C1.81947 2.43139 2.43139 1.81947 3.18404 1.43597C4.03968 1 5.15979 1 7.4 1H12.6C14.8402 1 15.9603 1 16.816 1.43597C17.5686 1.81947 18.1805 2.43139 18.564 3.18404C19 4.03968 19 5.15979 19 7.4V12.6C19 14.8402 19 15.9603 18.564 16.816C18.1805 17.5686 17.5686 18.1805 16.816 18.564C15.9603 19 14.8402 19 12.6 19H7.4C5.15979 19 4.03968 19 3.18404 18.564C2.43139 18.1805 1.81947 17.5686 1.43597 16.816C1 15.9603 1 14.8402 1 12.6V7.4Z" fill="white"/>
<path d="M8.83634 12.6942L8.16366 11.9543V11.9543L8.83634 12.6942ZM14.6727 8.73994C15.0813 8.36843 15.1114 7.73598 14.7399 7.32733C14.3684 6.91867 13.736 6.88855 13.3273 7.26006L14 8L14.6727 8.73994ZM8.16366 12.6942L8.83634 11.9543V11.9543L8.16366 12.6942ZM6.67267 9.98733C6.26402 9.61583 5.63157 9.64594 5.26006 10.0546C4.88855 10.4633 4.91867 11.0957 5.32733 11.4672L6 10.7273L6.67267 9.98733ZM3.18404 18.564L3.63803 17.673L3.18404 18.564ZM1.43597 16.816L2.32698 16.362L1.43597 16.816ZM18.564 16.816L17.673 16.362L18.564 16.816ZM16.816 18.564L16.362 17.673L16.816 18.564ZM16.816 1.43597L16.362 2.32698L16.816 1.43597ZM18.564 3.18404L17.673 3.63803L18.564 3.18404ZM3.18404 1.43597L3.63803 2.32698L3.18404 1.43597ZM1.43597 3.18404L2.32698 3.63803L1.43597 3.18404ZM8.83634 12.6942L9.50901 13.4342L14.6727 8.73994L14 8L13.3273 7.26006L8.16366 11.9543L8.83634 12.6942ZM8.16366 12.6942L8.83634 11.9543L6.67267 9.98733L6 10.7273L5.32733 11.4672L7.49099 13.4342L8.16366 12.6942ZM8.83634 12.6942L8.16366 11.9543C8.35437 11.7809 8.64563 11.7809 8.83634 11.9543L8.16366 12.6942L7.49099 13.4342C8.06312 13.9543 8.93688 13.9543 9.50901 13.4342L8.83634 12.6942ZM7.4 1V2H12.6V1V0H7.4V1ZM19 7.4H18V12.6H19H20V7.4H19ZM12.6 19V18H7.4V19V20H12.6V19ZM1 12.6H2V7.4H1H0V12.6H1ZM7.4 19V18C6.26339 18 5.47108 17.9992 4.85424 17.9488C4.24907 17.8994 3.90138 17.8072 3.63803 17.673L3.18404 18.564L2.73005 19.455C3.32234 19.7568 3.96253 19.8826 4.69138 19.9422C5.40855 20.0008 6.2964 20 7.4 20V19ZM1 12.6H0C0 13.7036 -0.000777721 14.5914 0.0578178 15.3086C0.117367 16.0375 0.24318 16.6777 0.544967 17.27L1.43597 16.816L2.32698 16.362C2.19279 16.0986 2.10062 15.7509 2.05118 15.1458C2.00078 14.5289 2 13.7366 2 12.6H1ZM3.18404 18.564L3.63803 17.673C3.07354 17.3854 2.6146 16.9265 2.32698 16.362L1.43597 16.816L0.544967 17.27C1.02433 18.2108 1.78924 18.9757 2.73005 19.455L3.18404 18.564ZM19 12.6H18C18 13.7366 17.9992 14.5289 17.9488 15.1458C17.8994 15.7509 17.8072 16.0986 17.673 16.362L18.564 16.816L19.455 17.27C19.7568 16.6777 19.8826 16.0375 19.9422 15.3086C20.0008 14.5914 20 13.7036 20 12.6H19ZM12.6 19V20C13.7036 20 14.5914 20.0008 15.3086 19.9422C16.0375 19.8826 16.6777 19.7568 17.27 19.455L16.816 18.564L16.362 17.673C16.0986 17.8072 15.7509 17.8994 15.1458 17.9488C14.5289 17.9992 13.7366 18 12.6 18V19ZM18.564 16.816L17.673 16.362C17.3854 16.9265 16.9265 17.3854 16.362 17.673L16.816 18.564L17.27 19.455C18.2108 18.9757 18.9757 18.2108 19.455 17.27L18.564 16.816ZM12.6 1V2C13.7366 2 14.5289 2.00078 15.1458 2.05118C15.7509 2.10062 16.0986 2.19279 16.362 2.32698L16.816 1.43597L17.27 0.544967C16.6777 0.24318 16.0375 0.117367 15.3086 0.0578178C14.5914 -0.000777721 13.7036 0 12.6 0V1ZM19 7.4H20C20 6.2964 20.0008 5.40855 19.9422 4.69138C19.8826 3.96253 19.7568 3.32234 19.455 2.73005L18.564 3.18404L17.673 3.63803C17.8072 3.90138 17.8994 4.24907 17.9488 4.85424C17.9992 5.47108 18 6.26339 18 7.4H19ZM16.816 1.43597L16.362 2.32698C16.9265 2.6146 17.3854 3.07354 17.673 3.63803L18.564 3.18404L19.455 2.73005C18.9757 1.78924 18.2108 1.02433 17.27 0.544967L16.816 1.43597ZM7.4 1V0C6.2964 0 5.40855 -0.000777721 4.69138 0.0578178C3.96253 0.117367 3.32234 0.24318 2.73005 0.544967L3.18404 1.43597L3.63803 2.32698C3.90138 2.19279 4.24907 2.10062 4.85424 2.05118C5.47108 2.00078 6.26339 2 7.4 2V1ZM1 7.4H2C2 6.26339 2.00078 5.47108 2.05118 4.85424C2.10062 4.24907 2.19279 3.90138 2.32698 3.63803L1.43597 3.18404L0.544967 2.73005C0.24318 3.32234 0.117367 3.96253 0.0578178 4.69138C-0.000777721 5.40855 0 6.2964 0 7.4H1ZM3.18404 1.43597L2.73005 0.544967C1.78924 1.02433 1.02433 1.78924 0.544967 2.73005L1.43597 3.18404L2.32698 3.63803C2.6146 3.07354 3.07354 2.6146 3.63803 2.32698L3.18404 1.43597Z" fill="#EAECF1"/>
</svg>
