<svg width="24" height="29" viewBox="0 0 24 29" fill="none" xmlns="http://www.w3.org/2000/svg">
<path d="M12.1719 0C12.2057 0.000464695 12.2397 0.00120997 12.2734 0.00195312C12.6451 0.0101207 13.0125 0.0354687 13.375 0.0761719C13.4004 0.079053 13.4258 0.0819221 13.4512 0.0849609C13.8167 0.128329 14.1766 0.190647 14.5312 0.265625C14.5612 0.272026 14.5912 0.278533 14.6211 0.285156C14.7952 0.32334 14.9675 0.365593 15.1387 0.411133C15.15 0.414184 15.1615 0.416838 15.1729 0.419922C20.2604 1.78979 24 6.37013 24 11.8125C24 11.849 23.9984 11.8855 23.998 11.9219C23.9978 11.9491 23.9985 11.9767 23.998 12.0039C23.9977 12.027 23.9956 12.0501 23.9951 12.0732C23.9936 12.1427 23.992 12.2121 23.9893 12.2812C23.9864 12.353 23.9826 12.4246 23.9785 12.4961C23.976 12.5394 23.9737 12.5827 23.9707 12.626C23.9652 12.706 23.9583 12.7857 23.9512 12.8652C23.9467 12.9154 23.9426 12.9656 23.9375 13.0156C23.9308 13.0806 23.9228 13.1453 23.915 13.21C23.9085 13.2644 23.9028 13.3188 23.8955 13.373C23.8861 13.443 23.8749 13.5125 23.8643 13.582C23.8557 13.6378 23.8472 13.6935 23.8379 13.749C23.8283 13.8062 23.818 13.8631 23.8076 13.9199C23.7964 13.9812 23.7856 14.0425 23.7734 14.1035C23.7635 14.1532 23.7527 14.2025 23.7422 14.252C23.7026 14.4374 23.6596 14.6215 23.6113 14.8037C23.5289 15.1147 23.4332 15.4203 23.3262 15.7207C23.3126 15.7587 23.3001 15.7971 23.2861 15.835C23.1257 16.271 22.9399 16.695 22.7305 17.1055C22.7047 17.1561 22.6769 17.2057 22.6504 17.2559C22.5109 17.5198 22.3628 17.7785 22.2041 18.0303C22.1743 18.0775 22.1437 18.1241 22.1133 18.1709C22.0731 18.2328 22.0326 18.2944 21.9912 18.3555C21.9763 18.3775 21.9604 18.3989 21.9453 18.4209C21.8964 18.492 21.8473 18.5628 21.7969 18.6328C21.7743 18.6642 21.7514 18.6954 21.7285 18.7266C21.6769 18.7968 21.6244 18.8665 21.5713 18.9355C21.5574 18.9536 21.5433 18.9713 21.5293 18.9893C21.4762 19.0575 21.4227 19.1254 21.3682 19.1924C21.3426 19.2238 21.3169 19.255 21.291 19.2861C21.2415 19.3457 21.1922 19.4053 21.1416 19.4639C21.1101 19.5003 21.0779 19.5362 21.0459 19.5723C21.004 19.6195 20.9616 19.6663 20.9189 19.7129C20.886 19.7489 20.8527 19.7847 20.8193 19.8203C20.7628 19.8806 20.7052 19.9399 20.6475 19.999C20.627 20.0199 20.6065 20.0408 20.5859 20.0615C20.532 20.116 20.4779 20.1702 20.4229 20.2236C20.3865 20.2589 20.3503 20.2943 20.3135 20.3291C20.2576 20.382 20.2005 20.4335 20.1436 20.4854C20.1204 20.5064 20.0976 20.5279 20.0742 20.5488C20.0112 20.6053 19.9471 20.6606 19.8828 20.7158C19.8548 20.7399 19.8271 20.7643 19.7988 20.7881C19.7405 20.8373 19.6814 20.8855 19.6221 20.9336C19.5872 20.9619 19.5528 20.9907 19.5176 21.0186C19.4583 21.0655 19.3981 21.1113 19.3379 21.1572C19.3065 21.1811 19.2758 21.2059 19.2441 21.2295C19.1803 21.2772 19.1156 21.3237 19.0508 21.3701C19.0193 21.3927 18.9878 21.4152 18.9561 21.4375C18.9431 21.4466 18.9309 21.4568 18.918 21.4658C15.4308 23.8913 14 25.499 13 27.999L12.9844 28.0537C12.8478 28.5256 12.3988 29 12 29C11.6012 29 11.1522 28.5256 11.0156 28.0537L11 27.999C10 25.499 8.56922 23.8913 5.08203 21.4658C5.06883 21.4566 5.05613 21.4467 5.04297 21.4375C5.01124 21.4152 4.97974 21.3927 4.94824 21.3701C4.89932 21.3351 4.85012 21.3004 4.80176 21.2646L4.73145 21.2119C4.7077 21.1941 4.68474 21.1752 4.66113 21.1572C4.60094 21.1113 4.54072 21.0655 4.48145 21.0186C4.44625 20.9907 4.41182 20.9619 4.37695 20.9336C4.31766 20.8855 4.25853 20.8373 4.2002 20.7881C4.17195 20.7643 4.14423 20.7399 4.11621 20.7158C4.05196 20.6606 3.98784 20.6053 3.9248 20.5488C3.90147 20.5279 3.87864 20.5064 3.85547 20.4854C3.79856 20.4335 3.74143 20.382 3.68555 20.3291C3.64875 20.2943 3.61251 20.2589 3.57617 20.2236C3.52116 20.1702 3.46705 20.116 3.41309 20.0615C3.3925 20.0408 3.37199 20.0199 3.35156 19.999C3.29379 19.9399 3.23621 19.8806 3.17969 19.8203C3.14629 19.7847 3.11304 19.7489 3.08008 19.7129C3.03745 19.6663 2.995 19.6195 2.95312 19.5723C2.93402 19.5507 2.91446 19.5295 2.89551 19.5078L2.79395 19.3906C2.76473 19.3563 2.73683 19.3208 2.70801 19.2861C2.68214 19.255 2.65641 19.2238 2.63086 19.1924C2.5763 19.1254 2.52282 19.0575 2.46973 18.9893C2.45577 18.9713 2.44159 18.9536 2.42773 18.9355C2.37458 18.8665 2.32214 18.7968 2.27051 18.7266C2.24761 18.6954 2.22474 18.6642 2.20215 18.6328C2.15177 18.5628 2.10257 18.492 2.05371 18.4209C2.03863 18.3989 2.02275 18.3775 2.00781 18.3555C1.96646 18.2944 1.92596 18.2328 1.88574 18.1709C1.85533 18.1241 1.82468 18.0775 1.79492 18.0303C1.63624 17.7785 1.48814 17.5198 1.34863 17.2559C1.32217 17.2058 1.29528 17.1559 1.26953 17.1055C1.06013 16.695 0.874317 16.271 0.713867 15.835C0.6999 15.797 0.686433 15.7588 0.672852 15.7207C0.565872 15.4203 0.470127 15.1146 0.387695 14.8037C0.339395 14.6215 0.296409 14.4374 0.256836 14.252C0.249409 14.2171 0.241489 14.1824 0.234375 14.1475L0.21582 14.0547C0.20708 14.0099 0.199632 13.9649 0.191406 13.9199C0.181008 13.8631 0.170701 13.8062 0.161133 13.749C0.151828 13.6935 0.143281 13.6378 0.134766 13.582C0.12416 13.5125 0.112884 13.443 0.103516 13.373C0.0962467 13.3188 0.090504 13.2644 0.0839844 13.21C0.0762494 13.1453 0.0681921 13.0806 0.0615234 13.0156C0.0563817 12.9656 0.0523573 12.9154 0.0478516 12.8652C0.0407252 12.7857 0.033835 12.706 0.0283203 12.626C0.0253322 12.5828 0.0230222 12.5394 0.0205078 12.4961C0.0163777 12.4246 0.0125983 12.353 0.00976562 12.2812C0.00702055 12.2121 0.00543727 12.1427 0.00390625 12.0732C0.00340271 12.0501 0.0023216 12.027 0.00195312 12.0039C0.00151246 11.9767 0.00122693 11.9491 0.000976562 11.9219C0.000639848 11.8855 1.08262e-06 11.849 0 11.8125C2.3788e-07 6.37045 3.73906 1.79009 8.82617 0.419922C8.83752 0.416837 8.84899 0.414185 8.86035 0.411133C9.03147 0.365581 9.20387 0.323353 9.37793 0.285156C9.40784 0.27853 9.43778 0.272029 9.46777 0.265625C9.82243 0.190619 10.1823 0.128358 10.5479 0.0849609C10.5735 0.0818816 10.5993 0.0790894 10.625 0.0761719C10.9872 0.0355044 11.3543 0.0101427 11.7256 0.00195312C11.7597 0.0012001 11.794 0.000469175 11.8281 0H12.1719Z" fill="#667BFA"/>
<path d="M12 18.4219L10.25 16.6719H7.91667C7.59583 16.6719 7.32118 16.5576 7.09271 16.3292C6.86424 16.1007 6.75 15.826 6.75 15.5052V7.33854C6.75 7.01771 6.86424 6.74306 7.09271 6.51458C7.32118 6.28611 7.59583 6.17188 7.91667 6.17188H16.0833C16.4042 6.17188 16.6788 6.28611 16.9073 6.51458C17.1358 6.74306 17.25 7.01771 17.25 7.33854V15.5052C17.25 15.826 17.1358 16.1007 16.9073 16.3292C16.6788 16.5576 16.4042 16.6719 16.0833 16.6719H13.75L12 18.4219ZM13.4438 11.4073C13.8424 11.0087 14.0417 10.5274 14.0417 9.96354C14.0417 9.39965 13.8424 8.9184 13.4438 8.51979C13.0451 8.12118 12.5639 7.92188 12 7.92188C11.4361 7.92188 10.9549 8.12118 10.5563 8.51979C10.1576 8.9184 9.95833 9.39965 9.95833 9.96354C9.95833 10.5274 10.1576 11.0087 10.5563 11.4073C10.9549 11.8059 11.4361 12.0052 12 12.0052C12.5639 12.0052 13.0451 11.8059 13.4438 11.4073ZM7.91667 15.5052H16.0833V14.8344C15.5583 14.3191 14.9483 13.9132 14.2531 13.6167C13.558 13.3201 12.8069 13.1719 12 13.1719C11.1931 13.1719 10.442 13.3201 9.74688 13.6167C9.05174 13.9132 8.44167 14.3191 7.91667 14.8344V15.5052Z" fill="white"/>
</svg>
