<svg width="100%" height="100%" viewBox="0 0 58 58" fill="none" xmlns="http://www.w3.org/2000/svg">
<circle cx="29" cy="29" r="29" fill="var(--path-color-2)"/>
<path d="M35 32C34.9999 32.6903 34.4403 33.25 33.75 33.25L27 33.25C26.3097 33.25 25.7501 32.6903 25.75 32L25.75 22.25C25.75 21.5596 26.3096 21 27 21L33.75 21C34.4404 21 35 21.5596 35 22.25L35 32ZM20 27.875L20 35C20 37.2091 21.7909 39 24 39L31.125 39C31.6772 39 32.1249 38.5522 32.125 38C32.125 37.4477 31.6773 37 31.125 37L24 37C22.8954 37 22 36.1046 22 35L22 27.875C22 27.3227 21.5523 26.875 21 26.875C20.4477 26.875 20 27.3227 20 27.875ZM37 22.25C37 20.4551 35.5449 19 33.75 19L27 19C25.2051 19 23.75 20.4551 23.75 22.25L23.75 32C23.7501 33.7949 25.2051 35.25 27 35.25L33.75 35.25C35.5449 35.25 36.9999 33.7949 37 32L37 22.25Z" fill="var(--path-color-1)"/>
</svg>
