<svg width="58" height="58" viewBox="0 0 58 58" fill="none" xmlns="http://www.w3.org/2000/svg">
<circle cx="29" cy="29" r="29" fill="var(--path-color-2)"/>
<g clip-path="url(#clip0_3305_22943)">
<path d="M28.9951 17.8438C35.6192 17.8438 41 22.1102 41 27.3691C40.9997 32.6277 35.6286 36.8885 29.0049 36.8887C28.2794 36.8887 27.5625 36.839 26.873 36.7393C26.1746 37.2289 22.1824 40.0538 21.8037 40.1084C21.8001 40.1097 21.6447 40.1657 21.5156 40.0898C21.3849 40.0128 21.4072 39.8086 21.4072 39.8086L22.624 35.4336C19.2444 33.7426 17 30.7644 17 27.3643C17 22.1055 22.3712 17.8439 28.9951 17.8438ZM20.5869 24.5166C20.2175 24.5167 19.9111 24.8201 19.9111 25.1963C19.9111 25.5725 20.213 25.8759 20.5869 25.876H21.6689V30.0156C21.6691 30.3817 21.9779 30.679 22.3594 30.6807C22.7372 30.6799 23.0516 30.3778 23.0518 30.0156V25.876H24.1338C24.5031 25.8758 24.8096 25.5724 24.8096 25.1963C24.8096 24.8201 24.5076 24.5168 24.1338 24.5166H20.5869ZM26.459 24.5205C26.0084 24.5296 25.6523 24.8745 25.5352 25.21L23.8809 29.5938C23.6692 30.2507 23.8538 30.4912 24.043 30.582C24.1827 30.641 24.3321 30.6729 24.4854 30.6729C24.7735 30.6727 24.994 30.5546 25.0615 30.3643L25.4043 29.458H27.5127L27.8555 30.3643C27.9231 30.5547 28.1442 30.6729 28.4326 30.6729C28.5857 30.6728 28.7389 30.6455 28.874 30.582C29.0633 30.5004 29.2479 30.251 29.0361 29.5938L27.3828 25.21C27.2702 24.8746 26.9094 24.5116 26.459 24.5205ZM33.9932 24.5166C33.6146 24.5166 33.2988 24.8295 33.2988 25.2148V29.9746C33.2988 30.9005 34.6865 30.8656 34.6865 29.9609V28.4424L34.9258 28.2021L36.5479 30.3643C36.7656 30.6513 37.2124 30.7273 37.5166 30.501C37.8251 30.2847 37.8811 29.825 37.6523 29.5303L35.9482 27.2637L37.5352 25.6768C37.7744 25.4316 37.7146 25.0412 37.4854 24.8105C37.2413 24.5652 36.8383 24.5466 36.625 24.7607L34.6865 26.7109V25.2148C34.6865 24.8341 34.3716 24.5167 33.9932 24.5166ZM30.1943 24.5117C29.8023 24.5117 29.4863 24.8246 29.4863 25.21V29.9473C29.4863 30.2963 29.7889 30.582 30.1494 30.582L32.3711 30.5684C32.7359 30.5682 33.0332 30.2826 33.0332 29.9336C33.0331 29.5847 32.7314 29.299 32.3711 29.2988H30.9014V25.21C30.9014 24.8292 30.5863 24.5118 30.1943 24.5117ZM27.1484 28.2246H25.7695L26.459 26.248L27.1484 28.2246Z" fill="var(--path-color-1)"/>
</g>
<defs>
<clipPath id="clip0_3305_22943">
<rect width="24" height="24" fill="white" transform="translate(17 17)"/>
</clipPath>
</defs>
</svg>
