<svg width="58" height="58" viewBox="0 0 58 58" fill="none" xmlns="http://www.w3.org/2000/svg">
<circle cx="29" cy="29" r="29" fill="var(--path-color-2)"/>
<g clip-path="url(#clip0_3305_22952)">
<path d="M40 17V41H38.5459V17H40ZM21.8008 18.709V25.3818C23.0427 24.3694 24.5905 23.7599 26.2754 23.7598V23.7529C30.3695 23.7529 33.6904 27.3128 33.6904 31.709C33.6904 36.1052 30.3696 39.665 26.2754 39.665C24.5904 39.665 23.0427 39.0545 21.8008 38.042V39.2881H18V18.709H21.8008ZM25.8018 27.2061C23.4426 27.2061 21.5322 29.2253 21.5322 31.7158C21.5324 34.2062 23.4427 36.2246 25.8018 36.2246C28.1606 36.2244 30.0701 34.2061 30.0703 31.7158C30.0703 29.2254 28.1608 27.2062 25.8018 27.2061Z" fill="var(--path-color-1)"/>
</g>
<defs>
<clipPath id="clip0_3305_22952">
<rect width="22" height="24" fill="white" transform="translate(18 17)"/>
</clipPath>
</defs>
</svg>
