<svg width="100%" height="100%" viewBox="0 0 58 58" fill="none" xmlns="http://www.w3.org/2000/svg">
<circle cx="29" cy="29" r="29" fill="var(--path-color-2)"/>
<path d="M39.167 18V40H37.834V18H39.167ZM22.4844 19.5684V25.6855C23.6228 24.7574 25.0414 24.1982 26.5859 24.1982V24.1924C30.3387 24.1925 33.3818 27.4555 33.3818 31.4854C33.3817 35.5151 30.3386 38.7782 26.5859 38.7783C25.0415 38.7783 23.6227 38.219 22.4844 37.291V38.4326H19V19.5684H22.4844ZM26.1514 27.3574C23.9889 27.3574 22.2383 29.2082 22.2383 31.4912C22.2384 33.7741 23.989 35.625 26.1514 35.625C28.3136 35.6248 30.0643 33.774 30.0645 31.4912C30.0645 29.2083 28.3136 27.3576 26.1514 27.3574Z" fill="var(--path-color-1)"/>
</svg>
