<svg width="100%" height="100%" viewBox="0 0 24 24" fill="none" xmlns="http://www.w3.org/2000/svg">
<path d="M15.293 7.29297C15.6835 6.90244 16.3165 6.90244 16.707 7.29297L20 10.5859C20.7809 11.367 20.7809 12.633 20 13.4141L16.707 16.707C16.3165 17.0976 15.6835 17.0976 15.293 16.707C14.9024 16.3165 14.9024 15.6835 15.293 15.293L17.5859 13H9C6.79086 13 5 11.2091 5 9V8C5 7.44772 5.44772 7 6 7C6.55228 7 7 7.44772 7 8V9C7 10.1046 7.89543 11 9 11H17.5859L15.293 8.70703C14.9024 8.31651 14.9024 7.68349 15.293 7.29297Z" fill="currentColor"/>
</svg>
