<svg width="100%" height="100%" viewBox="0 0 24 24" fill="none" xmlns="http://www.w3.org/2000/svg">
<path d="M15.9198 7.09372L16.0204 7.10056C16.5143 7.15698 16.899 7.57274 16.9062 8.08005L16.9999 14.7627C17.0075 15.3148 16.5657 15.7686 16.0136 15.7763C15.4617 15.7839 15.0079 15.3429 14.9999 14.791L14.9384 10.4746L8.70696 16.707C8.31643 17.0975 7.68342 17.0975 7.29289 16.707C6.90237 16.3165 6.90237 15.6835 7.29289 15.2929L13.5243 9.06052L9.20891 8.99997C8.65703 8.99195 8.21601 8.53819 8.22356 7.9863C8.23133 7.43418 8.68514 6.99237 9.23723 6.99997L15.9198 7.09372Z" fill="currentColor"/>
</svg>
