<svg width="100%" height="100%" viewBox="0 0 24 24" fill="none" xmlns="http://www.w3.org/2000/svg">
<path d="M14.7628 6.99997C15.3149 6.99237 15.7687 7.43418 15.7765 7.9863C15.784 8.53819 15.343 8.99195 14.7911 8.99997L10.4747 9.06052L16.7071 15.2929C17.0977 15.6835 17.0977 16.3165 16.7071 16.707C16.3166 17.0975 15.6836 17.0975 15.2931 16.707L9.06064 10.4746L9.0001 14.791C8.99208 15.3429 8.53832 15.7839 7.98642 15.7763C7.4343 15.7686 6.99249 15.3148 7.0001 14.7627L7.09385 8.08005L7.10068 7.97947C7.15711 7.48562 7.57286 7.10087 8.08017 7.09372L14.7628 6.99997Z" fill="currentColor"/>
</svg>
