<svg width="24" height="24" viewBox="0 0 24 24" fill="none" xmlns="http://www.w3.org/2000/svg">
<path d="M10 22.0012C14.2503 22.0012 17.7265 18.6866 17.9846 14.5012C18.0016 14.2256 17.7761 14.0012 17.5 14.0012H10.5C10.2239 14.0012 10 13.7773 10 13.5012V6.50115C10 6.22501 9.77553 5.99953 9.49991 6.01653C5.31459 6.27467 2 9.75083 2 14.0012C2 18.4194 5.58172 22.0012 10 22.0012Z" stroke="#6A7381" stroke-width="2"/>
<path d="M21.9846 9.50106C21.7367 5.48113 18.52 2.26447 14.5001 2.01653C14.2245 1.99953 14 2.22501 14 2.50115V9.50115C14 9.77729 14.2239 10.0012 14.5 10.0012L21.5 10.0012C21.7761 10.0012 22.0016 9.77668 21.9846 9.50106Z" stroke="#6A7381" stroke-width="2"/>
</svg>
