<svg width="24" height="24" viewBox="0 0 24 24" fill="none" xmlns="http://www.w3.org/2000/svg">
<path d="M11.5487 1.91153C11.7321 1.53991 12.262 1.53991 12.4454 1.91153L15.1135 7.31772C15.1864 7.46529 15.3272 7.56758 15.49 7.59124L21.4561 8.45817C21.8662 8.51776 22.03 9.02174 21.7332 9.31101L17.4161 13.5191C17.2983 13.634 17.2445 13.7995 17.2723 13.9617L18.2914 19.9037C18.3615 20.3121 17.9328 20.6236 17.566 20.4308L12.2297 17.6254C12.0841 17.5488 11.9101 17.5488 11.7644 17.6254L6.42816 20.4308C6.06135 20.6236 5.63263 20.3121 5.70269 19.9037L6.72182 13.9617C6.74963 13.7995 6.69586 13.634 6.57802 13.5191L2.26092 9.31101C1.96416 9.02174 2.12791 8.51776 2.53802 8.45817L8.50411 7.59124C8.66696 7.56758 8.80775 7.46529 8.88058 7.31772L11.5487 1.91153Z" stroke="#6A7381" stroke-width="2"/>
</svg>
