<svg width="100%" height="100%" viewBox="0 0 72 75" fill="none" xmlns="http://www.w3.org/2000/svg">
<g filter="url(#filter0_f_4628_4943)">
<mask id="mask0_4628_4943" style="mask-type:alpha" maskUnits="userSpaceOnUse" x="11" y="32" width="47" height="31">
<rect x="11.6667" y="32.0832" width="46.2565" height="30.625" rx="15.3125" fill="#54B0F8"/>
</mask>
<g mask="url(#mask0_4628_4943)">
<g filter="url(#filter1_f_4628_4943)">
<path d="M14.4548 42.9361C14.8749 38.7812 17.9669 35.392 22.0658 34.5933C23.3131 34.3503 24.5965 34.3608 25.8396 34.6242L28.0611 35.0948C30.6901 35.6518 33.4027 35.69 36.0464 35.2071L41.0812 34.2876C41.3088 34.246 41.5398 34.2251 41.7712 34.2251H43.3011C46.1144 34.2251 47.5501 37.6022 45.5981 39.628C45.0944 40.1508 44.4273 40.4861 43.7072 40.5786L34.3476 41.78C31.2727 42.1747 28.9696 44.7922 28.9696 47.8924C28.9696 48.7651 28.7843 49.6278 28.4258 50.4235L27.5189 52.4367C26.6995 54.2558 25.0858 55.5946 23.1466 56.064L19.3514 56.9828C17.2172 57.4995 15.1622 55.8826 15.1622 53.6868C15.1622 53.4201 15.1308 53.1544 15.0685 52.8951L14.4612 50.3655C14.1084 48.8961 14.0059 47.3776 14.1578 45.8741L14.4548 42.9361Z" fill="#37388B"/>
</g>
<g filter="url(#filter2_f_4628_4943)">
<path d="M57.3965 56.7821C56.9765 60.937 53.8845 64.3262 49.7856 65.1249C48.5383 65.3679 47.2549 65.3574 46.0118 65.094L43.7903 64.6234C41.1613 64.0664 38.4487 64.0282 35.805 64.5111L30.7702 65.4306C30.5426 65.4722 30.3116 65.4931 30.0802 65.4931H28.5502C25.737 65.4931 24.3013 62.116 26.2533 60.0902C26.757 59.5674 27.4241 59.2321 28.1441 59.1396L37.5038 57.9382C40.5787 57.5435 42.8818 54.926 42.8818 51.8258C42.8818 50.9531 43.0671 50.0904 43.4256 49.2947L44.3325 47.2815C45.1519 45.4624 46.7656 44.1236 48.7048 43.6542L52.5 42.7354C54.6342 42.2187 56.6891 43.8356 56.6891 46.0314C56.6891 46.2981 56.7206 46.5638 56.7829 46.8231L57.3902 49.3527C57.743 50.8221 57.8455 52.3406 57.6935 53.8441L57.3965 56.7821Z" fill="#4748B1"/>
</g>
<g filter="url(#filter3_f_4628_4943)">
<path d="M30.2506 75.2932C27.372 76.9637 23.2272 77.2699 19.8671 76.0602C18.2637 75.483 16.959 74.6006 16.1213 73.527L15.4282 72.6389C14.1763 71.0344 12.2457 69.7063 9.87198 68.8167L5.60465 67.2175C5.23072 67.0773 4.88705 66.9045 4.5829 66.7036C1.90738 64.9362 3.23939 61.9077 6.93115 61.3645L7.19337 61.3259C8.51438 61.1315 9.89751 61.3047 11.0192 61.8049L15.4798 63.794C19.6451 65.6515 25.2174 65.2916 28.7674 62.9358C29.4854 62.4594 30.3041 62.0545 31.1977 61.7338L35.6165 60.1481C37.31 59.5403 39.337 59.4978 41.0838 60.0334L42.8773 60.5833C45.8473 61.4939 46.5423 64.0834 44.2288 65.6187C44.0535 65.735 43.8924 65.8602 43.7468 65.9933L40.8646 68.6292C39.8619 69.5462 38.7068 70.3857 37.421 71.1319L30.2506 75.2932Z" fill="#8385FC"/>
</g>
<g filter="url(#filter4_f_4628_4943)">
<path d="M-9.15477 38.653C-8.73476 34.4981 -5.64276 31.1088 -1.5438 30.3102C-0.296535 30.0672 0.986877 30.0777 2.23 30.3411L4.45145 30.8117C7.08052 31.3687 9.79308 31.4068 12.4368 30.924L17.4716 30.0044C17.6992 29.9629 17.9301 29.942 18.1615 29.942H19.6915C22.5048 29.942 23.9405 33.319 21.9885 35.3449C21.4847 35.8677 20.8177 36.203 20.0976 36.2954L10.738 37.4968C7.66304 37.8915 5.36 40.5091 5.36 43.6093C5.36 44.4819 5.17464 45.3447 4.81621 46.1404L3.90932 48.1536C3.08984 49.9727 1.47616 51.3114 -0.463025 51.7809L-4.25824 52.6997C-6.39238 53.2163 -8.44737 51.5995 -8.44737 49.4037C-8.44737 49.137 -8.47882 48.8713 -8.54108 48.612L-9.14841 46.0824C-9.50121 44.6129 -9.60377 43.0945 -9.45177 41.591L-9.15477 38.653Z" fill="#9AA3AF"/>
</g>
<g filter="url(#filter5_f_4628_4943)">
<path d="M64.6017 23.2722C66.8291 23.4817 68.666 24.932 69.3432 27.0156C69.8652 28.622 69.6343 30.4182 68.7115 31.9304L68.5508 32.1938C67.5545 33.8262 67.2832 35.7593 67.8047 37.5086L68.6669 40.4003C68.8007 40.8491 68.842 41.3251 68.7885 41.8011C68.4968 44.3961 65.6376 46.018 63.3507 44.8858L61.3918 43.9158C60.0443 43.2487 59.109 41.9978 58.8441 40.5086L58.5312 38.7494C57.8458 34.8956 54.6398 32.1109 50.6627 31.915L48.39 31.803C47.6073 31.7644 46.8351 31.6496 46.0844 31.4602L39.9594 29.9147C38.8591 29.637 37.9696 28.8833 37.5295 27.8557C36.3971 25.2114 38.623 22.1551 41.5752 22.3005L42.1088 22.3268L47.9416 22.0042C49.2735 21.9305 50.603 21.9556 51.9188 22.0794L64.6017 23.2722Z" fill="#FFEDB8"/>
</g>
</g>
</g>
<g filter="url(#filter6_ii_4628_4943)">
<rect x="3.23535" width="65.625" height="60.0373" rx="30.0186" fill="#6466FA"/>
</g>
<mask id="mask1_4628_4943" style="mask-type:alpha" maskUnits="userSpaceOnUse" x="3" y="0" width="66" height="61">
<rect x="3.23535" width="65.625" height="60.0373" rx="30.0186" fill="#54B0F8"/>
</mask>
<g mask="url(#mask1_4628_4943)">
<g filter="url(#filter7_f_4628_4943)" style="mix-blend-mode:darken">
<path d="M7.52358 16.7885C7.92806 11.2597 11.7845 6.59113 17.1375 5.14997C19.4508 4.52718 21.891 4.55378 24.1902 5.22688L26.4991 5.90283C30.1973 6.98549 34.1178 7.05917 37.8541 6.11623L44.6705 4.39596C45.1922 4.26429 45.7283 4.19769 46.2664 4.19769H46.5624C51.7084 4.19769 54.7286 9.98574 51.7853 14.2068C50.8182 15.5937 49.3392 16.539 47.6744 16.8343L38.7346 18.42C32.402 19.5432 27.7878 25.0478 27.7878 31.4792C27.7878 32.8754 27.5673 34.2627 27.1346 35.5901L25.251 41.3678C24.393 43.9999 22.3388 46.0699 19.7134 46.9482L16.4464 48.0411C12.3909 49.3978 8.19898 46.3798 8.19898 42.1034C8.19898 41.7442 8.16806 41.3856 8.10656 41.0316L7.0554 34.9818C6.65215 32.6609 6.53515 30.2994 6.70702 27.95L7.52358 16.7885Z" fill="#5B5DE4"/>
</g>
<g filter="url(#filter8_f_4628_4943)" style="mix-blend-mode:color-dodge">
<path d="M67.785 52.9031C67.3805 58.432 63.5241 63.1005 58.1711 64.5417C55.8578 65.1645 53.4176 65.1379 51.1184 64.4648L48.8095 63.7888C45.1113 62.7062 41.1908 62.6325 37.4545 63.5754L30.6381 65.2957C30.1164 65.4274 29.5803 65.494 29.0422 65.494H28.7462C23.6002 65.494 20.5799 59.7059 23.5233 55.4848C24.4904 54.098 25.9694 53.1527 27.6342 52.8574L36.574 51.2717C42.9066 50.1485 47.5208 44.6439 47.5208 38.2124C47.5208 36.8163 47.7413 35.4289 48.174 34.1015L50.0576 28.3238C50.9156 25.6918 52.9698 23.6217 55.5952 22.7435L58.8622 21.6506C62.9177 20.2939 67.1096 23.3119 67.1096 27.5882C67.1096 27.9475 67.1405 28.3061 67.202 28.66L68.2532 34.7099C68.6564 37.0307 68.7734 39.3923 68.6016 41.7416L67.785 52.9031Z" fill="#6466FA"/>
</g>
<g filter="url(#filter9_f_4628_4943)" style="mix-blend-mode:plus-lighter">
<path d="M22.7192 94.364C18.6388 97.6361 12.762 98.2347 7.99605 95.8638C5.72004 94.7315 3.86775 93.0006 2.67867 90.8948L1.69651 89.1555C-0.0795681 86.0102 -2.81876 83.4065 -6.18634 81.6626L-12.2397 78.5278C-12.7707 78.2529 -13.2587 77.9137 -13.6906 77.5194C-17.4869 74.0543 -15.6009 68.1192 -10.3653 67.0546L-9.98794 66.9779C-8.1129 66.5966 -6.14914 66.9366 -4.55624 67.9181L1.76214 71.8115C7.67604 75.4557 15.5847 74.7518 20.6218 70.1331C21.6399 69.1995 22.8008 68.406 24.0682 67.7776L30.3408 64.6672C32.7417 63.4767 35.6161 63.3937 38.0937 64.4434L40.6333 65.5194C44.8493 67.3056 45.8382 72.3839 42.556 75.3935C42.3076 75.6213 42.0792 75.8666 41.8729 76.1273L37.7825 81.2963C36.3607 83.0931 34.7227 84.7381 32.8993 86.2003L22.7192 94.364Z" fill="#CFD0FF"/>
</g>
<g filter="url(#filter10_f_4628_4943)" style="mix-blend-mode:color-dodge">
<path d="M-25.9811 8.39101C-25.5766 2.86215 -21.7202 -1.80639 -16.3671 -3.24755C-14.0538 -3.87035 -11.6136 -3.84374 -9.31446 -3.17064L-7.00552 -2.4947C-3.30731 -1.41203 0.613192 -1.33835 4.34948 -2.28129L11.1659 -4.00156C11.6876 -4.13323 12.2236 -4.19983 12.7617 -4.19983H13.0578C18.2037 -4.19983 21.224 1.58822 18.2806 5.80931C17.3135 7.1962 15.8346 8.1415 14.1698 8.43678L5.22992 10.0224C-1.10269 11.1456 -5.71688 16.6503 -5.71688 23.0817C-5.71688 24.4778 -5.93732 25.8652 -6.37005 27.1926L-8.25361 32.9703C-9.11168 35.6024 -11.1659 37.6724 -13.7913 38.5507L-17.0583 39.6436C-21.1138 41.0002 -25.3057 37.9823 -25.3057 33.7059C-25.3057 33.3467 -25.3366 32.9881 -25.3981 32.6341L-26.4492 26.5843C-26.8525 24.2634 -26.9695 21.9019 -26.7976 19.5525L-25.9811 8.39101Z" fill="#F9FBFC"/>
</g>
<g filter="url(#filter11_f_4628_4943)" style="mix-blend-mode:color-dodge">
<path d="M75.5202 -17.643C80.3274 -17.0183 84.2204 -13.51 85.3268 -8.8054C85.9112 -6.32036 85.665 -3.70229 84.6254 -1.34843L83.9364 0.211718C82.4925 3.48098 82.1177 7.10926 82.8656 10.5758L84.1887 16.7079C84.3211 17.3214 84.3624 17.952 84.3113 18.5798C83.9078 23.5407 78.2682 26.2634 74.184 23.4691L73.3199 22.8779C71.6889 21.762 70.6145 20.0046 70.3614 18.0384L69.6585 12.5777C68.7383 5.42852 62.9215 -0.0370865 55.7107 -0.528009C54.3523 -0.620491 53.0147 -0.893732 51.7334 -1.34049L44.5819 -3.83401C42.2698 -4.6402 40.4848 -6.48756 39.7608 -8.82371L39.1888 -10.6695C37.8306 -15.0518 41.3533 -19.4759 45.9516 -19.1628C46.265 -19.1415 46.5799 -19.1428 46.8937 -19.1668L54.1003 -19.7177C56.3846 -19.8923 58.6779 -19.8319 60.9437 -19.5374L75.5202 -17.643Z" fill="#FFEDB8"/>
</g>
</g>
<g filter="url(#filter12_f_4628_4943)">
<rect x="43.7041" y="26.2509" width="4.375" height="7.65639" rx="2.1875" fill="white" class="character-eye" />
</g>
<g filter="url(#filter13_f_4628_4943)">
<rect x="43.7041" y="26.2509" width="4.375" height="7.65639" rx="2.1875" fill="white"  class="character-eye"/>
</g>
<g filter="url(#filter14_f_4628_4943)">
<rect x="43.7041" y="26.2509" width="4.375" height="7.65639" rx="2.1875" fill="white"  class="character-eye"/>
</g>
<rect x="43.7041" y="26.2509" width="4.375" height="7.65639" rx="2.1875" fill="white"  class="character-eye"/>
<g filter="url(#filter15_f_4628_4943)">
<rect x="22.6494" y="26.3736" width="4.375" height="7.65639" rx="2.1875" fill="white"  class="character-eye"/>
</g>
<g filter="url(#filter16_f_4628_4943)">
<rect x="22.6494" y="26.3736" width="4.375" height="7.65639" rx="2.1875" fill="white"  class="character-eye"/>
</g>
<g filter="url(#filter17_f_4628_4943)">
<rect x="22.6494" y="26.3736" width="4.375" height="7.65639" rx="2.1875" fill="white"  class="character-eye"/>
</g>
<rect x="22.9229" y="26.2512" width="4.375" height="7.65639" rx="2.1875" fill="white"  class="character-eye"/>
<g filter="url(#filter18_f_4628_4943)">
<path d="M30.2142 39.375C33.4359 42.5967 38.6592 42.5967 41.8809 39.375" stroke="white" stroke-width="2.91667" stroke-linecap="round" class="character-mouth" />
</g>
<g filter="url(#filter19_f_4628_4943)">
<path d="M30.2142 39.375C33.4359 42.5967 38.6592 42.5967 41.8809 39.375" stroke="white" stroke-width="2.91667" stroke-linecap="round" class="character-mouth"/>
</g>
<g filter="url(#filter20_f_4628_4943)">
<path d="M30.2142 39.375C33.4359 42.5967 38.6592 42.5967 41.8809 39.375" stroke="white" stroke-width="2.91667" stroke-linecap="round" class="character-mouth"/>
</g>
<path d="M30.2142 39.375C33.4359 42.5967 38.6592 42.5967 41.8809 39.375" stroke="white" stroke-width="2.91667" stroke-linecap="round" class="character-mouth"/>
<defs>
<filter id="filter0_f_4628_4943" x="0" y="20.4165" width="69.5898" height="53.9583" filterUnits="userSpaceOnUse" color-interpolation-filters="sRGB">
<feFlood flood-opacity="0" result="BackgroundImageFix"/>
<feBlend mode="normal" in="SourceGraphic" in2="BackgroundImageFix" result="shape"/>
<feGaussianBlur stdDeviation="5.83333" result="effect1_foregroundBlur_4628_4943"/>
</filter>
<filter id="filter1_f_4628_4943" x="-0.00438595" y="20.1311" width="60.5957" height="51.0426" filterUnits="userSpaceOnUse" color-interpolation-filters="sRGB">
<feFlood flood-opacity="0" result="BackgroundImageFix"/>
<feBlend mode="normal" in="SourceGraphic" in2="BackgroundImageFix" result="shape"/>
<feGaussianBlur stdDeviation="7.04702" result="effect1_foregroundBlur_4628_4943"/>
</filter>
<filter id="filter2_f_4628_4943" x="11.2601" y="28.5445" width="60.5957" height="51.0426" filterUnits="userSpaceOnUse" color-interpolation-filters="sRGB">
<feFlood flood-opacity="0" result="BackgroundImageFix"/>
<feBlend mode="normal" in="SourceGraphic" in2="BackgroundImageFix" result="shape"/>
<feGaussianBlur stdDeviation="7.04702" result="effect1_foregroundBlur_4628_4943"/>
</filter>
<filter id="filter3_f_4628_4943" x="-9.47474" y="47.0106" width="67.7321" height="42.4329" filterUnits="userSpaceOnUse" color-interpolation-filters="sRGB">
<feFlood flood-opacity="0" result="BackgroundImageFix"/>
<feBlend mode="normal" in="SourceGraphic" in2="BackgroundImageFix" result="shape"/>
<feGaussianBlur stdDeviation="6.32466" result="effect1_foregroundBlur_4628_4943"/>
</filter>
<filter id="filter4_f_4628_4943" x="-22.1693" y="17.2926" width="57.7062" height="48.1532" filterUnits="userSpaceOnUse" color-interpolation-filters="sRGB">
<feFlood flood-opacity="0" result="BackgroundImageFix"/>
<feBlend mode="normal" in="SourceGraphic" in2="BackgroundImageFix" result="shape"/>
<feGaussianBlur stdDeviation="6.32466" result="effect1_foregroundBlur_4628_4943"/>
</filter>
<filter id="filter5_f_4628_4943" x="24.5797" y="9.31364" width="57.6868" height="48.5878" filterUnits="userSpaceOnUse" color-interpolation-filters="sRGB">
<feFlood flood-opacity="0" result="BackgroundImageFix"/>
<feBlend mode="normal" in="SourceGraphic" in2="BackgroundImageFix" result="shape"/>
<feGaussianBlur stdDeviation="6.32466" result="effect1_foregroundBlur_4628_4943"/>
</filter>
<filter id="filter6_ii_4628_4943" x="3.23535" y="-2.45946" width="65.625" height="62.4967" filterUnits="userSpaceOnUse" color-interpolation-filters="sRGB">
<feFlood flood-opacity="0" result="BackgroundImageFix"/>
<feBlend mode="normal" in="SourceGraphic" in2="BackgroundImageFix" result="shape"/>
<feColorMatrix in="SourceAlpha" type="matrix" values="0 0 0 0 0 0 0 0 0 0 0 0 0 0 0 0 0 0 127 0" result="hardAlpha"/>
<feOffset dy="-2.45946"/>
<feGaussianBlur stdDeviation="1.41419"/>
<feComposite in2="hardAlpha" operator="arithmetic" k2="-1" k3="1"/>
<feColorMatrix type="matrix" values="0 0 0 0 0.106659 0 0 0 0 0.341393 0 0 0 0 0.986914 0 0 0 0.25 0"/>
<feBlend mode="normal" in2="shape" result="effect1_innerShadow_4628_4943"/>
<feColorMatrix in="SourceAlpha" type="matrix" values="0 0 0 0 0 0 0 0 0 0 0 0 0 0 0 0 0 0 127 0" result="hardAlpha"/>
<feOffset/>
<feGaussianBlur stdDeviation="1.8446"/>
<feComposite in2="hardAlpha" operator="arithmetic" k2="-1" k3="1"/>
<feColorMatrix type="matrix" values="0 0 0 0 1 0 0 0 0 1 0 0 0 0 1 0 0 0 1 0"/>
<feBlend mode="normal" in2="effect1_innerShadow_4628_4943" result="effect2_innerShadow_4628_4943"/>
</filter>
<filter id="filter7_f_4628_4943" x="-11.3648" y="-13.7974" width="82.3006" height="80.1618" filterUnits="userSpaceOnUse" color-interpolation-filters="sRGB">
<feFlood flood-opacity="0" result="BackgroundImageFix"/>
<feBlend mode="normal" in="SourceGraphic" in2="BackgroundImageFix" result="shape"/>
<feGaussianBlur stdDeviation="8.99754" result="effect1_foregroundBlur_4628_4943"/>
</filter>
<filter id="filter8_f_4628_4943" x="4.37281" y="3.32725" width="82.3006" height="80.1618" filterUnits="userSpaceOnUse" color-interpolation-filters="sRGB">
<feFlood flood-opacity="0" result="BackgroundImageFix"/>
<feBlend mode="normal" in="SourceGraphic" in2="BackgroundImageFix" result="shape"/>
<feGaussianBlur stdDeviation="8.99754" result="effect1_foregroundBlur_4628_4943"/>
</filter>
<filter id="filter9_f_4628_4943" x="-31.8407" y="47.5608" width="92.5027" height="65.8926" filterUnits="userSpaceOnUse" color-interpolation-filters="sRGB">
<feFlood flood-opacity="0" result="BackgroundImageFix"/>
<feBlend mode="normal" in="SourceGraphic" in2="BackgroundImageFix" result="shape"/>
<feGaussianBlur stdDeviation="8.07524" result="effect1_foregroundBlur_4628_4943"/>
</filter>
<filter id="filter10_f_4628_4943" x="-43.0249" y="-20.3503" width="78.6114" height="76.4726" filterUnits="userSpaceOnUse" color-interpolation-filters="sRGB">
<feFlood flood-opacity="0" result="BackgroundImageFix"/>
<feBlend mode="normal" in="SourceGraphic" in2="BackgroundImageFix" result="shape"/>
<feGaussianBlur stdDeviation="8.07524" result="effect1_foregroundBlur_4628_4943"/>
</filter>
<filter id="filter11_f_4628_4943" x="22.7437" y="-35.9655" width="79.0436" height="76.7069" filterUnits="userSpaceOnUse" color-interpolation-filters="sRGB">
<feFlood flood-opacity="0" result="BackgroundImageFix"/>
<feBlend mode="normal" in="SourceGraphic" in2="BackgroundImageFix" result="shape"/>
<feGaussianBlur stdDeviation="8.07524" result="effect1_foregroundBlur_4628_4943"/>
</filter>
<filter id="filter12_f_4628_4943" x="42.8843" y="25.4311" width="6.01464" height="9.29603" filterUnits="userSpaceOnUse" color-interpolation-filters="sRGB">
<feFlood flood-opacity="0" result="BackgroundImageFix"/>
<feBlend mode="normal" in="SourceGraphic" in2="BackgroundImageFix" result="shape"/>
<feGaussianBlur stdDeviation="0.409911" result="effect1_foregroundBlur_4628_4943"/>
</filter>
<filter id="filter13_f_4628_4943" x="40.5478" y="23.0946" width="10.6876" height="13.969" filterUnits="userSpaceOnUse" color-interpolation-filters="sRGB">
<feFlood flood-opacity="0" result="BackgroundImageFix"/>
<feBlend mode="normal" in="SourceGraphic" in2="BackgroundImageFix" result="shape"/>
<feGaussianBlur stdDeviation="1.57816" result="effect1_foregroundBlur_4628_4943"/>
</filter>
<filter id="filter14_f_4628_4943" x="37.7194" y="20.2662" width="16.3444" height="19.6258" filterUnits="userSpaceOnUse" color-interpolation-filters="sRGB">
<feFlood flood-opacity="0" result="BackgroundImageFix"/>
<feBlend mode="normal" in="SourceGraphic" in2="BackgroundImageFix" result="shape"/>
<feGaussianBlur stdDeviation="2.99235" result="effect1_foregroundBlur_4628_4943"/>
</filter>
<filter id="filter15_f_4628_4943" x="21.8296" y="25.5538" width="6.01464" height="9.29603" filterUnits="userSpaceOnUse" color-interpolation-filters="sRGB">
<feFlood flood-opacity="0" result="BackgroundImageFix"/>
<feBlend mode="normal" in="SourceGraphic" in2="BackgroundImageFix" result="shape"/>
<feGaussianBlur stdDeviation="0.409911" result="effect1_foregroundBlur_4628_4943"/>
</filter>
<filter id="filter16_f_4628_4943" x="19.4931" y="23.2173" width="10.6876" height="13.969" filterUnits="userSpaceOnUse" color-interpolation-filters="sRGB">
<feFlood flood-opacity="0" result="BackgroundImageFix"/>
<feBlend mode="normal" in="SourceGraphic" in2="BackgroundImageFix" result="shape"/>
<feGaussianBlur stdDeviation="1.57816" result="effect1_foregroundBlur_4628_4943"/>
</filter>
<filter id="filter17_f_4628_4943" x="16.6647" y="20.3889" width="16.3444" height="19.6258" filterUnits="userSpaceOnUse" color-interpolation-filters="sRGB">
<feFlood flood-opacity="0" result="BackgroundImageFix"/>
<feBlend mode="normal" in="SourceGraphic" in2="BackgroundImageFix" result="shape"/>
<feGaussianBlur stdDeviation="2.99235" result="effect1_foregroundBlur_4628_4943"/>
</filter>
<filter id="filter18_f_4628_4943" x="27.936" y="37.0968" width="16.223" height="6.97256" filterUnits="userSpaceOnUse" color-interpolation-filters="sRGB">
<feFlood flood-opacity="0" result="BackgroundImageFix"/>
<feBlend mode="normal" in="SourceGraphic" in2="BackgroundImageFix" result="shape"/>
<feGaussianBlur stdDeviation="0.409911" result="effect1_foregroundBlur_4628_4943"/>
</filter>
<filter id="filter19_f_4628_4943" x="25.5996" y="34.7604" width="20.896" height="11.6455" filterUnits="userSpaceOnUse" color-interpolation-filters="sRGB">
<feFlood flood-opacity="0" result="BackgroundImageFix"/>
<feBlend mode="normal" in="SourceGraphic" in2="BackgroundImageFix" result="shape"/>
<feGaussianBlur stdDeviation="1.57816" result="effect1_foregroundBlur_4628_4943"/>
</filter>
<filter id="filter20_f_4628_4943" x="22.7712" y="31.932" width="26.5527" height="17.3023" filterUnits="userSpaceOnUse" color-interpolation-filters="sRGB">
<feFlood flood-opacity="0" result="BackgroundImageFix"/>
<feBlend mode="normal" in="SourceGraphic" in2="BackgroundImageFix" result="shape"/>
<feGaussianBlur stdDeviation="2.99235" result="effect1_foregroundBlur_4628_4943"/>
</filter>
</defs>
</svg>
