<svg width="49" height="51" viewBox="0 0 49 51" fill="none" xmlns="http://www.w3.org/2000/svg">
<g filter="url(#filter0_f_3744_57920)">
<mask id="mask0_3744_57920" style="mask-type:alpha" maskUnits="userSpaceOnUse" x="8" y="22" width="32" height="21">
<rect x="8" y="22" width="31.7188" height="21" rx="10.5" fill="#54B0F8"/>
</mask>
<g mask="url(#mask0_3744_57920)">
<g filter="url(#filter1_f_3744_57920)">
<path d="M9.9119 29.442C10.1999 26.593 12.3201 24.2689 15.1309 23.7213C15.9861 23.5546 16.8662 23.5618 17.7186 23.7424L19.2419 24.0651C21.0447 24.4471 22.9047 24.4732 24.7175 24.1422L28.17 23.5116C28.3261 23.4831 28.4844 23.4688 28.6431 23.4688H29.6922C31.6213 23.4688 32.6058 25.7844 31.2673 27.1736C30.9218 27.5321 30.4645 27.762 29.9707 27.8254L23.5526 28.6492C21.4441 28.9199 19.8649 30.7148 19.8649 32.8406C19.8649 33.439 19.7378 34.0306 19.492 34.5762L18.8701 35.9567C18.3082 37.2041 17.2017 38.1221 15.872 38.444L13.2695 39.074C11.8061 39.4283 10.397 38.3196 10.397 36.8139C10.397 36.6311 10.3754 36.4489 10.3327 36.2711L9.91626 34.5365C9.67434 33.5288 9.60401 32.4876 9.70824 31.4566L9.9119 29.442Z" fill="#1A6369"/>
</g>
<g filter="url(#filter2_f_3744_57920)">
<path d="M39.3576 38.9364C39.0696 41.7855 36.9494 44.1095 34.1387 44.6572C33.2834 44.8238 32.4034 44.8166 31.5509 44.636L30.0277 44.3133C28.2249 43.9313 26.3648 43.9052 24.552 44.2363L21.0996 44.8668C20.9435 44.8953 20.7851 44.9097 20.6265 44.9097H19.5773C17.6482 44.9097 16.6637 42.594 18.0023 41.2048C18.3477 40.8463 18.8051 40.6164 19.2988 40.553L25.7169 39.7292C27.8254 39.4585 29.4047 37.6636 29.4047 35.5378C29.4047 34.9394 29.5317 34.3478 29.7775 33.8022L30.3994 32.4217C30.9613 31.1743 32.0679 30.2563 33.3976 29.9344L36 29.3044C37.4634 28.9501 38.8726 30.0588 38.8726 31.5645C38.8726 31.7473 38.8941 31.9296 38.9368 32.1074L39.3533 33.842C39.5952 34.8496 39.6655 35.8908 39.5613 36.9218L39.3576 38.9364Z" fill="#23858C"/>
</g>
<g filter="url(#filter3_f_3744_57920)">
<path d="M20.7442 51.6297C18.7703 52.7753 15.9282 52.9852 13.6241 52.1557C12.5247 51.7599 11.63 51.1548 11.0556 50.4186L10.5803 49.8096C9.72188 48.7094 8.39802 47.7987 6.77034 47.1887L3.84416 46.0921C3.58776 45.996 3.3521 45.8775 3.14354 45.7397C1.30889 44.5278 2.22227 42.4511 4.75377 42.0786L4.93358 42.0521C5.83941 41.9189 6.78784 42.0376 7.55701 42.3806L10.6157 43.7446C13.4719 45.0183 17.2929 44.7715 19.7272 43.1561C20.2196 42.8294 20.7809 42.5517 21.3937 42.3318L24.4237 41.2445C25.585 40.8278 26.975 40.7986 28.1727 41.1659L29.4026 41.5429C31.4392 42.1674 31.9157 43.943 30.3293 44.9958C30.2091 45.0755 30.0986 45.1614 29.9988 45.2527L28.0224 47.0602C27.3349 47.6889 26.5428 48.2646 25.6611 48.7763L20.7442 51.6297Z" fill="#34C7D2"/>
</g>
<g filter="url(#filter4_f_3744_57920)">
<path d="M-6.27951 26.505C-5.9915 23.656 -3.87127 21.3319 -1.06056 20.7842C-0.205291 20.6176 0.674763 20.6248 1.52719 20.8054L3.05047 21.1281C4.85326 21.5101 6.7133 21.5362 8.52612 21.2051L11.9786 20.5746C12.1347 20.5461 12.293 20.5317 12.4517 20.5317H13.5008C15.4299 20.5317 16.4144 22.8474 15.0759 24.2366C14.7304 24.5951 14.2731 24.825 13.7793 24.8884L7.36122 25.7122C5.2527 25.9829 3.67347 27.7778 3.67347 29.9036C3.67347 30.502 3.54638 31.0936 3.30059 31.6392L2.67872 33.0197C2.11679 34.2671 1.01027 35.1851 -0.319455 35.507L-2.92188 36.137C-4.3853 36.4913 -5.79443 35.3826 -5.79443 33.8769C-5.79443 33.6941 -5.816 33.5118 -5.85869 33.334L-6.27515 31.5994C-6.51707 30.5918 -6.58739 29.5506 -6.48317 28.5196L-6.27951 26.505Z" fill="#9AA3AF"/>
</g>
<g filter="url(#filter5_f_3744_57920)">
<path d="M44.2993 15.9582C45.8267 16.1018 47.0863 17.0963 47.5506 18.5251C47.9085 19.6266 47.7502 20.8583 47.1174 21.8952L47.0072 22.0758C46.3241 23.1952 46.138 24.5208 46.4957 25.7203L47.0868 27.7032C47.1786 28.0109 47.2069 28.3373 47.1702 28.6637C46.9702 30.4431 45.0096 31.5553 43.4415 30.7789L42.0982 30.1138C41.1742 29.6563 40.5329 28.7986 40.3512 27.7774L40.1367 26.5711C39.6666 23.9285 37.4683 22.019 34.7411 21.8847L33.1827 21.8079C32.646 21.7814 32.1165 21.7027 31.6017 21.5728L27.4017 20.513C26.6472 20.3226 26.0372 19.8058 25.7355 19.1012C24.959 17.288 26.4853 15.1922 28.5097 15.2919L28.8756 15.3099L32.8752 15.0887C33.7885 15.0382 34.7002 15.0554 35.6025 15.1403L44.2993 15.9582Z" fill="#FCEDB5"/>
</g>
</g>
</g>
<g filter="url(#filter6_ii_3744_57920)">
<rect x="2.21875" width="45" height="41.1684" rx="20.5842" fill="#00B1BD"/>
</g>
<mask id="mask1_3744_57920" style="mask-type:alpha" maskUnits="userSpaceOnUse" x="2" y="0" width="46" height="42">
<rect x="2.21875" width="45" height="41.1684" rx="20.5842" fill="#54B0F8"/>
</mask>
<g mask="url(#mask1_3744_57920)">
<g filter="url(#filter7_f_3744_57920)" style="mix-blend-mode:darken">
<path d="M5.15925 11.5121C5.43661 7.72092 8.081 4.51963 11.7516 3.53141C13.3379 3.10435 15.0112 3.1226 16.5878 3.58414L18.171 4.04765C20.707 4.79005 23.3953 4.84058 25.9573 4.19399L30.6314 3.01437C30.9892 2.92408 31.3567 2.87842 31.7257 2.87842H31.9287C35.4574 2.87842 37.5284 6.84737 35.5101 9.74183C34.847 10.6928 33.8328 11.341 32.6912 11.5435L26.5611 12.6308C22.2187 13.401 19.0547 17.1756 19.0547 21.5858C19.0547 22.5431 18.9035 23.4945 18.6068 24.4047L17.3152 28.3665C16.7268 30.1714 15.3182 31.5908 13.518 32.1931L11.2777 32.9425C8.49683 33.8727 5.62238 31.8033 5.62238 28.8709C5.62238 28.6246 5.60118 28.3787 5.55901 28.136L4.83821 23.9875C4.5617 22.3961 4.48147 20.7767 4.59933 19.1657L5.15925 11.5121Z" fill="#2CA6AF"/>
</g>
<g filter="url(#filter8_f_3744_57920)" style="mix-blend-mode:color-dodge">
<path d="M46.4814 36.2764C46.204 40.0677 43.5596 43.2689 39.889 44.2572C38.3027 44.6842 36.6294 44.666 35.0528 44.2044L33.4696 43.7409C30.9337 42.9985 28.2453 42.948 25.6833 43.5946L21.0092 44.7742C20.6514 44.8645 20.2839 44.9102 19.9149 44.9102H19.7119C16.1832 44.9102 14.1122 40.9412 16.1305 38.0467C16.7936 37.0957 17.8078 36.4475 18.9494 36.2451L25.0796 35.1578C29.4219 34.3876 32.5859 30.6129 32.5859 26.2028C32.5859 25.2455 32.7371 24.2941 33.0338 23.3839L34.3254 19.4221C34.9138 17.6172 36.3224 16.1978 38.1227 15.5955L40.3629 14.8461C43.1438 13.9158 46.0182 15.9853 46.0182 18.9176C46.0182 19.164 46.0394 19.4099 46.0816 19.6526L46.8024 23.8011C47.0789 25.3925 47.1592 27.0119 47.0413 28.6228L46.4814 36.2764Z" fill="#00B1BD"/>
</g>
<g filter="url(#filter9_f_3744_57920)" style="mix-blend-mode:plus-lighter">
<path d="M15.581 64.7067C12.7831 66.9505 8.75326 67.361 5.48518 65.7352C3.92449 64.9588 2.65435 63.7719 1.83898 62.3279L1.1655 61.1352C-0.0523853 58.9784 -1.93069 57.1931 -4.23989 55.9972L-8.39075 53.8477C-8.75485 53.6591 -9.0895 53.4265 -9.38567 53.1562C-11.9888 50.7801 -10.6956 46.7103 -7.10544 45.9803L-6.8467 45.9277C-5.56095 45.6663 -4.21438 45.8994 -3.1221 46.5724L1.2105 49.2422C5.26575 51.741 10.6888 51.2584 14.1428 48.0912C14.841 47.4511 15.637 46.907 16.5061 46.4761L20.8073 44.3432C22.4536 43.5269 24.4246 43.47 26.1236 44.1898L27.865 44.9276C30.756 46.1524 31.4341 49.6347 29.1835 51.6984C29.0131 51.8546 28.8565 52.0228 28.715 52.2016L25.9102 55.746C24.9352 56.9781 23.812 58.1061 22.5617 59.1088L15.581 64.7067Z" fill="#E1FAFC"/>
</g>
<g filter="url(#filter10_f_3744_57920)" style="mix-blend-mode:color-dodge">
<path d="M-17.8173 5.75384C-17.54 1.96262 -14.8956 -1.23867 -11.2249 -2.22689C-9.63864 -2.65395 -7.96537 -2.63571 -6.38879 -2.17416L-4.80552 -1.71065C-2.2696 -0.968251 0.418746 -0.917725 2.98077 -1.56431L7.65485 -2.74393C8.01262 -2.83422 8.38018 -2.87988 8.74917 -2.87988H8.95218C12.4808 -2.87988 14.5519 1.08907 12.5336 3.98353C11.8704 4.93453 10.8563 5.58274 9.71469 5.78522L3.5845 6.87252C-0.757857 7.64272 -3.92188 11.4173 -3.92188 15.8275C-3.92188 16.7848 -4.07303 17.7362 -4.36976 18.6464L-5.66134 22.6082C-6.24973 24.4131 -7.65832 25.8325 -9.4586 26.4348L-11.6988 27.1842C-14.4797 28.1144 -17.3542 26.045 -17.3542 23.1126C-17.3542 22.8663 -17.3754 22.6204 -17.4176 22.3777L-18.1384 18.2292C-18.4149 16.6378 -18.4951 15.0184 -18.3772 13.4074L-17.8173 5.75384Z" fill="#F6F7F8"/>
</g>
<g filter="url(#filter11_f_3744_57920)" style="mix-blend-mode:color-dodge">
<path d="M51.7855 -12.0981C55.0819 -11.6697 57.7514 -9.26399 58.51 -6.03799C58.9108 -4.33396 58.7419 -2.53871 58.0291 -0.924635L57.5566 0.145177C56.5665 2.38696 56.3095 4.87492 56.8224 7.25199L57.7296 11.4569C57.8204 11.8775 57.8487 12.31 57.8137 12.7405C57.537 16.1422 53.6698 18.0092 50.8693 16.0931L50.2768 15.6877C49.1583 14.9225 48.4216 13.7174 48.2481 12.3692L47.7661 8.62469C47.1351 3.72241 43.1464 -0.0254314 38.2019 -0.362064C37.2704 -0.42548 36.3532 -0.612846 35.4746 -0.919196L30.5707 -2.62903C28.9852 -3.18185 27.7612 -4.44861 27.2648 -6.05054L26.8725 -7.31621C25.9412 -10.3213 28.3568 -13.3549 31.5099 -13.1402C31.7248 -13.1256 31.9407 -13.1265 32.1559 -13.143L37.0975 -13.5207C38.664 -13.6404 40.2365 -13.599 41.7902 -13.3971L51.7855 -12.0981Z" fill="#FCEDB5"/>
</g>
</g>
<g filter="url(#filter12_f_3744_57920)">
<rect x="29.9688" y="18.0005" width="3" height="5.2501" rx="1.5" fill="white"/>
</g>
<g filter="url(#filter13_f_3744_57920)">
<rect x="29.9688" y="18.0005" width="3" height="5.2501" rx="1.5" fill="white"/>
</g>
<g filter="url(#filter14_f_3744_57920)">
<rect x="29.9688" y="18.0005" width="3" height="5.2501" rx="1.5" fill="white"/>
</g>
<rect x="29.9688" y="18.0005" width="3" height="5.2501" rx="1.5" fill="white"/>
<g filter="url(#filter15_f_3744_57920)">
<rect x="15.5312" y="18.0845" width="3" height="5.2501" rx="1.5" fill="white"/>
</g>
<g filter="url(#filter16_f_3744_57920)">
<rect x="15.5312" y="18.0845" width="3" height="5.2501" rx="1.5" fill="white"/>
</g>
<g filter="url(#filter17_f_3744_57920)">
<rect x="15.5312" y="18.0845" width="3" height="5.2501" rx="1.5" fill="white"/>
</g>
<rect x="15.7188" y="18.0005" width="3" height="5.2501" rx="1.5" fill="white"/>
<defs>
<filter id="filter0_f_3744_57920" x="0" y="14" width="47.7188" height="37" filterUnits="userSpaceOnUse" color-interpolation-filters="sRGB">
<feFlood flood-opacity="0" result="BackgroundImageFix"/>
<feBlend mode="normal" in="SourceGraphic" in2="BackgroundImageFix" result="shape"/>
<feGaussianBlur stdDeviation="4" result="effect1_foregroundBlur_3744_57920"/>
</filter>
<filter id="filter1_f_3744_57920" x="-0.0043335" y="13.8043" width="41.5516" height="35.0009" filterUnits="userSpaceOnUse" color-interpolation-filters="sRGB">
<feFlood flood-opacity="0" result="BackgroundImageFix"/>
<feBlend mode="normal" in="SourceGraphic" in2="BackgroundImageFix" result="shape"/>
<feGaussianBlur stdDeviation="4.83224" result="effect1_foregroundBlur_3744_57920"/>
</filter>
<filter id="filter2_f_3744_57920" x="7.72223" y="19.5733" width="41.5516" height="35.0009" filterUnits="userSpaceOnUse" color-interpolation-filters="sRGB">
<feFlood flood-opacity="0" result="BackgroundImageFix"/>
<feBlend mode="normal" in="SourceGraphic" in2="BackgroundImageFix" result="shape"/>
<feGaussianBlur stdDeviation="4.83224" result="effect1_foregroundBlur_3744_57920"/>
</filter>
<filter id="filter3_f_3744_57920" x="-6.49414" y="32.2358" width="46.4414" height="29.0972" filterUnits="userSpaceOnUse" color-interpolation-filters="sRGB">
<feFlood flood-opacity="0" result="BackgroundImageFix"/>
<feBlend mode="normal" in="SourceGraphic" in2="BackgroundImageFix" result="shape"/>
<feGaussianBlur stdDeviation="4.33691" result="effect1_foregroundBlur_3744_57920"/>
</filter>
<filter id="filter4_f_3744_57920" x="-15.2051" y="11.8579" width="39.5703" height="33.0195" filterUnits="userSpaceOnUse" color-interpolation-filters="sRGB">
<feFlood flood-opacity="0" result="BackgroundImageFix"/>
<feBlend mode="normal" in="SourceGraphic" in2="BackgroundImageFix" result="shape"/>
<feGaussianBlur stdDeviation="4.33691" result="effect1_foregroundBlur_3744_57920"/>
</filter>
<filter id="filter5_f_3744_57920" x="16.8574" y="6.38672" width="39.5547" height="33.3174" filterUnits="userSpaceOnUse" color-interpolation-filters="sRGB">
<feFlood flood-opacity="0" result="BackgroundImageFix"/>
<feBlend mode="normal" in="SourceGraphic" in2="BackgroundImageFix" result="shape"/>
<feGaussianBlur stdDeviation="4.33691" result="effect1_foregroundBlur_3744_57920"/>
</filter>
<filter id="filter6_ii_3744_57920" x="2.21875" y="-1.68649" width="45" height="42.8549" filterUnits="userSpaceOnUse" color-interpolation-filters="sRGB">
<feFlood flood-opacity="0" result="BackgroundImageFix"/>
<feBlend mode="normal" in="SourceGraphic" in2="BackgroundImageFix" result="shape"/>
<feColorMatrix in="SourceAlpha" type="matrix" values="0 0 0 0 0 0 0 0 0 0 0 0 0 0 0 0 0 0 127 0" result="hardAlpha"/>
<feOffset dy="-1.68649"/>
<feGaussianBlur stdDeviation="0.969732"/>
<feComposite in2="hardAlpha" operator="arithmetic" k2="-1" k3="1"/>
<feColorMatrix type="matrix" values="0 0 0 0 0.106659 0 0 0 0 0.341393 0 0 0 0 0.986914 0 0 0 0.25 0"/>
<feBlend mode="normal" in2="shape" result="effect1_innerShadow_3744_57920"/>
<feColorMatrix in="SourceAlpha" type="matrix" values="0 0 0 0 0 0 0 0 0 0 0 0 0 0 0 0 0 0 127 0" result="hardAlpha"/>
<feOffset/>
<feGaussianBlur stdDeviation="1.26487"/>
<feComposite in2="hardAlpha" operator="arithmetic" k2="-1" k3="1"/>
<feColorMatrix type="matrix" values="0 0 0 0 1 0 0 0 0 1 0 0 0 0 1 0 0 0 1 0"/>
<feBlend mode="normal" in2="effect1_innerShadow_3744_57920" result="effect2_innerShadow_3744_57920"/>
</filter>
<filter id="filter7_f_3744_57920" x="-7.79261" y="-9.46106" width="56.4329" height="54.968" filterUnits="userSpaceOnUse" color-interpolation-filters="sRGB">
<feFlood flood-opacity="0" result="BackgroundImageFix"/>
<feBlend mode="normal" in="SourceGraphic" in2="BackgroundImageFix" result="shape"/>
<feGaussianBlur stdDeviation="6.16974" result="effect1_foregroundBlur_3744_57920"/>
</filter>
<filter id="filter8_f_3744_57920" x="3.00036" y="2.28161" width="56.4329" height="54.968" filterUnits="userSpaceOnUse" color-interpolation-filters="sRGB">
<feFlood flood-opacity="0" result="BackgroundImageFix"/>
<feBlend mode="normal" in="SourceGraphic" in2="BackgroundImageFix" result="shape"/>
<feGaussianBlur stdDeviation="6.16974" result="effect1_foregroundBlur_3744_57920"/>
</filter>
<filter id="filter9_f_3744_57920" x="-21.8324" y="32.6129" width="63.4305" height="45.1839" filterUnits="userSpaceOnUse" color-interpolation-filters="sRGB">
<feFlood flood-opacity="0" result="BackgroundImageFix"/>
<feBlend mode="normal" in="SourceGraphic" in2="BackgroundImageFix" result="shape"/>
<feGaussianBlur stdDeviation="5.53731" result="effect1_foregroundBlur_3744_57920"/>
</filter>
<filter id="filter10_f_3744_57920" x="-29.5043" y="-13.9545" width="53.9031" height="52.4383" filterUnits="userSpaceOnUse" color-interpolation-filters="sRGB">
<feFlood flood-opacity="0" result="BackgroundImageFix"/>
<feBlend mode="normal" in="SourceGraphic" in2="BackgroundImageFix" result="shape"/>
<feGaussianBlur stdDeviation="5.53731" result="effect1_foregroundBlur_3744_57920"/>
</filter>
<filter id="filter11_f_3744_57920" x="15.5973" y="-24.662" width="54.2" height="52.5989" filterUnits="userSpaceOnUse" color-interpolation-filters="sRGB">
<feFlood flood-opacity="0" result="BackgroundImageFix"/>
<feBlend mode="normal" in="SourceGraphic" in2="BackgroundImageFix" result="shape"/>
<feGaussianBlur stdDeviation="5.53731" result="effect1_foregroundBlur_3744_57920"/>
</filter>
<filter id="filter12_f_3744_57920" x="29.4066" y="17.4383" width="4.12433" height="6.37433" filterUnits="userSpaceOnUse" color-interpolation-filters="sRGB">
<feFlood flood-opacity="0" result="BackgroundImageFix"/>
<feBlend mode="normal" in="SourceGraphic" in2="BackgroundImageFix" result="shape"/>
<feGaussianBlur stdDeviation="0.281082" result="effect1_foregroundBlur_3744_57920"/>
</filter>
<filter id="filter13_f_3744_57920" x="27.8044" y="15.8362" width="7.32866" height="9.57866" filterUnits="userSpaceOnUse" color-interpolation-filters="sRGB">
<feFlood flood-opacity="0" result="BackgroundImageFix"/>
<feBlend mode="normal" in="SourceGraphic" in2="BackgroundImageFix" result="shape"/>
<feGaussianBlur stdDeviation="1.08216" result="effect1_foregroundBlur_3744_57920"/>
</filter>
<filter id="filter14_f_3744_57920" x="25.865" y="13.8967" width="11.2076" height="13.4576" filterUnits="userSpaceOnUse" color-interpolation-filters="sRGB">
<feFlood flood-opacity="0" result="BackgroundImageFix"/>
<feBlend mode="normal" in="SourceGraphic" in2="BackgroundImageFix" result="shape"/>
<feGaussianBlur stdDeviation="2.0519" result="effect1_foregroundBlur_3744_57920"/>
</filter>
<filter id="filter15_f_3744_57920" x="14.9691" y="17.5223" width="4.12433" height="6.37433" filterUnits="userSpaceOnUse" color-interpolation-filters="sRGB">
<feFlood flood-opacity="0" result="BackgroundImageFix"/>
<feBlend mode="normal" in="SourceGraphic" in2="BackgroundImageFix" result="shape"/>
<feGaussianBlur stdDeviation="0.281082" result="effect1_foregroundBlur_3744_57920"/>
</filter>
<filter id="filter16_f_3744_57920" x="13.3669" y="15.9201" width="7.32866" height="9.57866" filterUnits="userSpaceOnUse" color-interpolation-filters="sRGB">
<feFlood flood-opacity="0" result="BackgroundImageFix"/>
<feBlend mode="normal" in="SourceGraphic" in2="BackgroundImageFix" result="shape"/>
<feGaussianBlur stdDeviation="1.08216" result="effect1_foregroundBlur_3744_57920"/>
</filter>
<filter id="filter17_f_3744_57920" x="11.4275" y="13.9807" width="11.2076" height="13.4576" filterUnits="userSpaceOnUse" color-interpolation-filters="sRGB">
<feFlood flood-opacity="0" result="BackgroundImageFix"/>
<feBlend mode="normal" in="SourceGraphic" in2="BackgroundImageFix" result="shape"/>
<feGaussianBlur stdDeviation="2.0519" result="effect1_foregroundBlur_3744_57920"/>
</filter>
</defs>
</svg>
