<svg width="72" height="69" viewBox="0 0 72 69" fill="none" xmlns="http://www.w3.org/2000/svg">
<g filter="url(#filter0_f_3744_57892)">
<mask id="mask0_3744_57892" style="mask-type:alpha" maskUnits="userSpaceOnUse" x="14" y="15" width="44" height="40">
<rect x="14" y="15.2954" width="43.4" height="39.7047" rx="19.8523" fill="#54B0F8"/>
</mask>
<g mask="url(#mask0_3744_57892)">
<g filter="url(#filter1_f_3744_57892)">
<path d="M16.8322 26.3985C17.0997 22.7421 19.6501 19.6546 23.1903 18.7016C24.7201 18.2897 26.3339 18.3073 27.8544 18.7524L29.3814 19.1994C31.8272 19.9154 34.4199 19.9642 36.8908 19.3406L41.3987 18.2029C41.7438 18.1158 42.0983 18.0718 42.4541 18.0718H42.6499C46.0531 18.0718 48.0505 21.8996 46.104 24.6912C45.4644 25.6084 44.4863 26.2335 43.3853 26.4288L37.4731 27.4774C33.2852 28.2202 30.2336 31.8606 30.2336 36.114C30.2336 37.0373 30.0878 37.9548 29.8017 38.8326L28.556 42.6536C27.9885 44.3943 26.63 45.7633 24.8938 46.3441L22.7332 47.0669C20.0512 47.9641 17.2789 45.9682 17.2789 43.1401C17.2789 42.9025 17.2585 42.6654 17.2178 42.4313L16.5226 38.4303C16.2559 36.8955 16.1786 35.3337 16.2922 33.78L16.8322 26.3985Z" fill="#1A6369"/>
</g>
<g filter="url(#filter2_f_3744_57892)">
<path d="M56.6912 50.2836C56.4237 53.94 53.8733 57.0275 50.3332 57.9806C48.8033 58.3925 47.1895 58.3749 45.669 57.9297L44.142 57.4827C41.6963 56.7667 39.1035 56.718 36.6326 57.3416L32.1247 58.4792C31.7797 58.5663 31.4252 58.6104 31.0693 58.6104H30.8735C27.4703 58.6104 25.4729 54.7825 27.4195 51.991C28.059 51.0738 29.0371 50.4486 30.1381 50.2533L36.0503 49.2047C40.2383 48.4619 43.2898 44.8215 43.2898 40.5682C43.2898 39.6448 43.4356 38.7273 43.7218 37.8495L44.9674 34.0285C45.5349 32.2878 46.8934 30.9188 48.6297 30.338L50.7903 29.6152C53.4723 28.718 56.2445 30.7139 56.2445 33.542C56.2445 33.7796 56.265 34.0168 56.3056 34.2508L57.0008 38.2518C57.2675 39.7867 57.3449 41.3484 57.2312 42.9021L56.6912 50.2836Z" fill="#23858C"/>
</g>
<g filter="url(#filter3_f_3744_57892)">
<path d="M31.4332 71.3186C28.7348 73.4826 24.8482 73.8785 21.6964 72.3105C20.1911 71.5617 18.9662 70.417 18.1798 69.0244L17.5303 67.8741C16.3557 65.794 14.5442 64.0721 12.3171 62.9188L8.31379 60.8456C7.96264 60.6638 7.63988 60.4395 7.35424 60.1788C4.84363 57.8872 6.0909 53.962 9.5534 53.258L9.80294 53.2073C11.043 52.9551 12.3417 53.1799 13.3951 53.8291L17.5737 56.4039C21.4847 58.8139 26.715 58.3484 30.0462 55.2939C30.7195 54.6765 31.4873 54.1518 32.3254 53.7362L36.4737 51.6791C38.0615 50.8918 39.9624 50.8369 41.601 51.5312L43.2805 52.2427C46.0686 53.424 46.7226 56.7824 44.552 58.7728C44.3877 58.9234 44.2367 59.0857 44.1003 59.2581L41.3952 62.6765C40.4548 63.8648 39.3716 64.9527 38.1657 65.9197L31.4332 71.3186Z" fill="#34C7D2"/>
</g>
<g filter="url(#filter4_f_3744_57892)">
<path d="M-5.32009 20.8458C-5.0526 17.1894 -2.50223 14.1019 1.03791 13.1488C2.56778 12.7369 4.18156 12.7545 5.70208 13.1997L7.22906 13.6467C9.67481 14.3627 12.2676 14.4114 14.7385 13.7878L19.2464 12.6502C19.5914 12.5631 19.9459 12.519 20.3018 12.519H20.4976C23.9008 12.519 25.8982 16.3469 23.9516 19.1384C23.3121 20.0556 22.334 20.6808 21.233 20.8761L15.3208 21.9247C11.1328 22.6675 8.08128 26.3079 8.08128 30.5612C8.08128 31.4845 7.9355 32.4021 7.64932 33.2799L6.40367 37.1009C5.83619 38.8416 4.47769 40.2106 2.74142 40.7914L0.580841 41.5142C-2.10118 42.4114 -4.87343 40.4155 -4.87343 37.5874C-4.87343 37.3498 -4.89388 37.1126 -4.93455 36.8786L-5.62972 32.8776C-5.8964 31.3427 -5.97377 29.781 -5.86011 28.2273L-5.32009 20.8458Z" fill="#9AA3AF"/>
</g>
<g filter="url(#filter5_f_3744_57892)">
<path d="M61.8066 3.63063C64.9858 4.0438 67.5604 6.36397 68.2921 9.47527C68.6786 11.1187 68.5157 12.8501 67.8282 14.4068L67.3726 15.4386C66.4177 17.6007 66.1698 20.0002 66.6644 22.2927L67.5394 26.3481C67.627 26.7538 67.6543 27.1709 67.6205 27.586C67.3536 30.8668 63.624 32.6674 60.923 30.8195L60.3516 30.4285C59.2729 29.6905 58.5624 28.5283 58.395 27.2279L57.9302 23.6166C57.3216 18.8886 53.4747 15.274 48.706 14.9494C47.8076 14.8882 46.9231 14.7075 46.0757 14.4121L41.3462 12.763C39.817 12.2299 38.6366 11.0081 38.1578 9.46315L37.7795 8.24249C36.8813 5.34429 39.211 2.4185 42.252 2.62554C42.4593 2.63965 42.6675 2.63877 42.875 2.62291L47.6409 2.25862C49.1517 2.14315 50.6683 2.1831 52.1667 2.37784L61.8066 3.63063Z" fill="#FCEDB5"/>
</g>
</g>
</g>
<g filter="url(#filter6_ii_3744_57892)">
<rect x="9.25781" width="56" height="51.2318" rx="25.6159" fill="#00B1BD"/>
</g>
<mask id="mask1_3744_57892" style="mask-type:alpha" maskUnits="userSpaceOnUse" x="9" y="0" width="57" height="52">
<rect x="9.25781" width="56" height="51.2318" rx="25.6159" fill="#54B0F8"/>
</mask>
<g mask="url(#mask1_3744_57892)">
<g filter="url(#filter7_f_3744_57892)" style="mix-blend-mode:darken">
<path d="M12.9176 14.3262C13.2628 9.60825 16.5536 5.62443 21.1215 4.39464C23.0955 3.86319 25.1778 3.8859 27.1398 4.46027L29.1101 5.03708C32.2659 5.96095 35.6114 6.02383 38.7997 5.21919L44.6163 3.75122C45.0615 3.63886 45.5189 3.58203 45.9781 3.58203H46.2308C50.622 3.58203 53.1993 8.52117 50.6876 12.1232C49.8623 13.3066 48.6003 14.1133 47.1797 14.3653L39.551 15.7184C34.1472 16.6768 30.2097 21.3741 30.2097 26.8623C30.2097 28.0536 30.0216 29.2375 29.6524 30.3702L28.0451 35.3005C27.3128 37.5466 25.5599 39.313 23.3196 40.0625L20.5317 40.9951C17.0711 42.1528 13.494 39.5774 13.494 35.9283C13.494 35.6217 13.4676 35.3157 13.4151 35.0137L12.5181 29.8511C12.174 27.8707 12.0742 25.8555 12.2208 23.8507L12.9176 14.3262Z" fill="#2CA6AF"/>
</g>
<g filter="url(#filter8_f_3744_57892)" style="mix-blend-mode:color-dodge">
<path d="M64.3402 45.144C63.995 49.862 60.7042 53.8458 56.1363 55.0756C54.1623 55.607 52.08 55.5843 50.118 55.0099L48.1477 54.4331C44.9919 53.5093 41.6464 53.4464 38.4581 54.251L32.6415 55.719C32.1963 55.8314 31.7389 55.8882 31.2797 55.8882H31.0271C26.6358 55.8882 24.0585 50.949 26.5702 47.3471C27.3955 46.1636 28.6575 45.3569 30.0781 45.1049L37.7068 43.7519C43.1106 42.7934 47.0481 38.0961 47.0481 32.6079C47.0481 31.4166 47.2362 30.2327 47.6055 29.1L49.2128 24.1697C49.945 21.9236 51.6979 20.1572 53.9382 19.4077L56.7261 18.4751C60.1868 17.3175 63.7638 19.8928 63.7638 23.5419C63.7638 23.8485 63.7902 24.1545 63.8427 24.4566L64.7397 29.6191C65.0838 31.5995 65.1836 33.6147 65.037 35.6195L64.3402 45.144Z" fill="#00B1BD"/>
</g>
<g filter="url(#filter9_f_3744_57892)" style="mix-blend-mode:plus-lighter">
<path d="M25.8837 80.5236C22.4019 83.3158 17.387 83.8267 13.32 81.8034C11.3778 80.8372 9.7972 79.3602 8.78251 77.5633L7.94441 76.0791C6.42882 73.3951 4.09138 71.1733 1.21771 69.6851L-3.94781 67.0101C-4.40091 66.7755 -4.81736 66.486 -5.18594 66.1496C-8.42543 63.1927 -6.81605 58.128 -2.3483 57.2196L-2.02632 57.1541C-0.426285 56.8288 1.24945 57.1189 2.60873 57.9565L8.00042 61.2788C13.0469 64.3885 19.7957 63.7879 24.094 59.8466C24.9628 59.0499 25.9534 58.3728 27.0349 57.8366L32.3876 55.1824C34.4363 54.1664 36.8891 54.0956 39.0034 54.9914L41.1705 55.9096C44.7681 57.4338 45.612 61.7673 42.8112 64.3354C42.5992 64.5298 42.4043 64.7392 42.2283 64.9616L38.7378 69.3725C37.5245 70.9058 36.1267 72.3095 34.5708 73.5572L25.8837 80.5236Z" fill="#E1FAFC"/>
</g>
<g filter="url(#filter10_f_3744_57892)" style="mix-blend-mode:color-dodge">
<path d="M-15.6722 7.1602C-15.3271 2.44224 -12.0363 -1.54158 -7.46835 -2.77137C-5.49432 -3.30283 -3.41203 -3.28012 -1.45006 -2.70575L0.520235 -2.12894C3.67604 -1.20506 7.02154 -1.14219 10.2098 -1.94683L16.0265 -3.41479C16.4717 -3.52716 16.9291 -3.58398 17.3883 -3.58398H17.6409C22.0321 -3.58398 24.6094 1.35515 22.0977 4.95715C21.2725 6.14063 20.0104 6.94728 18.5898 7.19925L10.9611 8.55234C5.55732 9.51081 1.61987 14.2081 1.61987 19.6963C1.61987 20.8876 1.43177 22.0715 1.06251 23.2042L-0.544792 28.1345C-1.27701 30.3806 -3.02992 32.147 -5.27027 32.8965L-8.05811 33.8291C-11.5188 34.9867 -15.0959 32.4114 -15.0959 28.7623C-15.0959 28.4557 -15.1223 28.1497 -15.1747 27.8476L-16.0717 22.6851C-16.4158 20.7046 -16.5157 18.6895 -16.369 16.6847L-15.6722 7.1602Z" fill="#F6F7F8"/>
</g>
<g filter="url(#filter11_f_3744_57892)" style="mix-blend-mode:color-dodge">
<path d="M70.9427 -15.0556C75.0449 -14.5224 78.3669 -11.5287 79.311 -7.5141C79.8097 -5.39353 79.5996 -3.15945 78.7125 -1.15082L78.1245 0.180503C76.8924 2.97028 76.5725 6.06641 77.2108 9.02454L78.3398 14.2573C78.4528 14.7807 78.488 15.3189 78.4444 15.8546C78.1001 20.0879 73.2877 22.4112 69.8025 20.0268L69.0651 19.5223C67.6733 18.57 66.7565 17.0704 66.5406 15.3926L65.9408 10.7328C65.1555 4.63217 60.1918 -0.0318114 54.0386 -0.450732C52.8794 -0.52965 51.738 -0.762816 50.6446 -1.14405L44.5421 -3.27185C42.569 -3.9598 41.0458 -5.53622 40.428 -7.52973L39.9399 -9.10478C38.7809 -12.8444 41.7869 -16.6196 45.7108 -16.3525C45.9783 -16.3342 46.247 -16.3354 46.5148 -16.3559L52.6644 -16.8259C54.6137 -16.9749 56.5706 -16.9233 58.5041 -16.6721L70.9427 -15.0556Z" fill="#FCEDB5"/>
</g>
</g>
<g filter="url(#filter12_f_3744_57892)">
<rect x="43.7891" y="22.4004" width="3.73333" height="6.53345" rx="1.86667" fill="white"/>
</g>
<g filter="url(#filter13_f_3744_57892)">
<rect x="43.7891" y="22.4004" width="3.73333" height="6.53345" rx="1.86667" fill="white"/>
</g>
<g filter="url(#filter14_f_3744_57892)">
<rect x="43.7891" y="22.4004" width="3.73333" height="6.53345" rx="1.86667" fill="white"/>
</g>
<rect x="43.7891" y="22.4004" width="3.73333" height="6.53345" rx="1.86667" fill="white"/>
<g filter="url(#filter15_f_3744_57892)">
<rect x="25.8242" y="22.5049" width="3.73333" height="6.53345" rx="1.86667" fill="white"/>
</g>
<g filter="url(#filter16_f_3744_57892)">
<rect x="25.8242" y="22.5049" width="3.73333" height="6.53345" rx="1.86667" fill="white"/>
</g>
<g filter="url(#filter17_f_3744_57892)">
<rect x="25.8242" y="22.5049" width="3.73333" height="6.53345" rx="1.86667" fill="white"/>
</g>
<rect x="26.0586" y="22.4004" width="3.73333" height="6.53345" rx="1.86667" fill="white"/>
<defs>
<filter id="filter0_f_3744_57892" x="0" y="1.29541" width="71.3984" height="67.7046" filterUnits="userSpaceOnUse" color-interpolation-filters="sRGB">
<feFlood flood-opacity="0" result="BackgroundImageFix"/>
<feBlend mode="normal" in="SourceGraphic" in2="BackgroundImageFix" result="shape"/>
<feGaussianBlur stdDeviation="7" result="effect1_foregroundBlur_3744_57892"/>
</filter>
<filter id="filter1_f_3744_57892" x="1.74545" y="3.57504" width="59.6185" height="58.2059" filterUnits="userSpaceOnUse" color-interpolation-filters="sRGB">
<feFlood flood-opacity="0" result="BackgroundImageFix"/>
<feBlend mode="normal" in="SourceGraphic" in2="BackgroundImageFix" result="shape"/>
<feGaussianBlur stdDeviation="7.24837" result="effect1_foregroundBlur_3744_57892"/>
</filter>
<filter id="filter2_f_3744_57892" x="12.1595" y="14.9012" width="59.6185" height="58.2059" filterUnits="userSpaceOnUse" color-interpolation-filters="sRGB">
<feFlood flood-opacity="0" result="BackgroundImageFix"/>
<feBlend mode="normal" in="SourceGraphic" in2="BackgroundImageFix" result="shape"/>
<feGaussianBlur stdDeviation="7.24837" result="effect1_foregroundBlur_3744_57892"/>
</filter>
<filter id="filter3_f_3744_57892" x="-6.97949" y="38.0361" width="65.834" height="48.2368" filterUnits="userSpaceOnUse" color-interpolation-filters="sRGB">
<feFlood flood-opacity="0" result="BackgroundImageFix"/>
<feBlend mode="normal" in="SourceGraphic" in2="BackgroundImageFix" result="shape"/>
<feGaussianBlur stdDeviation="6.50537" result="effect1_foregroundBlur_3744_57892"/>
</filter>
<filter id="filter4_f_3744_57892" x="-18.9209" y="-0.491693" width="56.6465" height="55.2339" filterUnits="userSpaceOnUse" color-interpolation-filters="sRGB">
<feFlood flood-opacity="0" result="BackgroundImageFix"/>
<feBlend mode="normal" in="SourceGraphic" in2="BackgroundImageFix" result="shape"/>
<feGaussianBlur stdDeviation="6.50537" result="effect1_foregroundBlur_3744_57892"/>
</filter>
<filter id="filter5_f_3744_57892" x="24.5752" y="-10.8164" width="56.9316" height="55.3887" filterUnits="userSpaceOnUse" color-interpolation-filters="sRGB">
<feFlood flood-opacity="0" result="BackgroundImageFix"/>
<feBlend mode="normal" in="SourceGraphic" in2="BackgroundImageFix" result="shape"/>
<feGaussianBlur stdDeviation="6.50537" result="effect1_foregroundBlur_3744_57892"/>
</filter>
<filter id="filter6_ii_3744_57892" x="9.25781" y="-2.52973" width="56" height="53.7617" filterUnits="userSpaceOnUse" color-interpolation-filters="sRGB">
<feFlood flood-opacity="0" result="BackgroundImageFix"/>
<feBlend mode="normal" in="SourceGraphic" in2="BackgroundImageFix" result="shape"/>
<feColorMatrix in="SourceAlpha" type="matrix" values="0 0 0 0 0 0 0 0 0 0 0 0 0 0 0 0 0 0 127 0" result="hardAlpha"/>
<feOffset dy="-2.52973"/>
<feGaussianBlur stdDeviation="1.4546"/>
<feComposite in2="hardAlpha" operator="arithmetic" k2="-1" k3="1"/>
<feColorMatrix type="matrix" values="0 0 0 0 0.106659 0 0 0 0 0.341393 0 0 0 0 0.986914 0 0 0 0.25 0"/>
<feBlend mode="normal" in2="shape" result="effect1_innerShadow_3744_57892"/>
<feColorMatrix in="SourceAlpha" type="matrix" values="0 0 0 0 0 0 0 0 0 0 0 0 0 0 0 0 0 0 127 0" result="hardAlpha"/>
<feOffset/>
<feGaussianBlur stdDeviation="1.8973"/>
<feComposite in2="hardAlpha" operator="arithmetic" k2="-1" k3="1"/>
<feColorMatrix type="matrix" values="0 0 0 0 1 0 0 0 0 1 0 0 0 0 1 0 0 0 1 0"/>
<feBlend mode="normal" in2="effect1_innerShadow_3744_57892" result="effect2_innerShadow_3744_57892"/>
</filter>
<filter id="filter7_f_3744_57892" x="-6.35297" y="-14.9272" width="76.5341" height="74.7118" filterUnits="userSpaceOnUse" color-interpolation-filters="sRGB">
<feFlood flood-opacity="0" result="BackgroundImageFix"/>
<feBlend mode="normal" in="SourceGraphic" in2="BackgroundImageFix" result="shape"/>
<feGaussianBlur stdDeviation="9.25461" result="effect1_foregroundBlur_3744_57892"/>
</filter>
<filter id="filter8_f_3744_57892" x="7.07672" y="-0.314398" width="76.5341" height="74.7118" filterUnits="userSpaceOnUse" color-interpolation-filters="sRGB">
<feFlood flood-opacity="0" result="BackgroundImageFix"/>
<feBlend mode="normal" in="SourceGraphic" in2="BackgroundImageFix" result="shape"/>
<feGaussianBlur stdDeviation="9.25461" result="effect1_foregroundBlur_3744_57892"/>
</filter>
<filter id="filter9_f_3744_57892" x="-23.5025" y="37.7548" width="84.5949" height="61.8889" filterUnits="userSpaceOnUse" color-interpolation-filters="sRGB">
<feFlood flood-opacity="0" result="BackgroundImageFix"/>
<feBlend mode="normal" in="SourceGraphic" in2="BackgroundImageFix" result="shape"/>
<feGaussianBlur stdDeviation="8.30596" result="effect1_foregroundBlur_3744_57892"/>
</filter>
<filter id="filter10_f_3744_57892" x="-33.0455" y="-20.1959" width="72.7395" height="70.9172" filterUnits="userSpaceOnUse" color-interpolation-filters="sRGB">
<feFlood flood-opacity="0" result="BackgroundImageFix"/>
<feBlend mode="normal" in="SourceGraphic" in2="BackgroundImageFix" result="shape"/>
<feGaussianBlur stdDeviation="8.30596" result="effect1_foregroundBlur_3744_57892"/>
</filter>
<filter id="filter11_f_3744_57892" x="23.0756" y="-33.5211" width="73.1106" height="71.1169" filterUnits="userSpaceOnUse" color-interpolation-filters="sRGB">
<feFlood flood-opacity="0" result="BackgroundImageFix"/>
<feBlend mode="normal" in="SourceGraphic" in2="BackgroundImageFix" result="shape"/>
<feGaussianBlur stdDeviation="8.30596" result="effect1_foregroundBlur_3744_57892"/>
</filter>
<filter id="filter12_f_3744_57892" x="42.9458" y="21.5571" width="5.42086" height="8.22018" filterUnits="userSpaceOnUse" color-interpolation-filters="sRGB">
<feFlood flood-opacity="0" result="BackgroundImageFix"/>
<feBlend mode="normal" in="SourceGraphic" in2="BackgroundImageFix" result="shape"/>
<feGaussianBlur stdDeviation="0.421622" result="effect1_foregroundBlur_3744_57892"/>
</filter>
<filter id="filter13_f_3744_57892" x="40.5426" y="19.1539" width="10.2274" height="13.0267" filterUnits="userSpaceOnUse" color-interpolation-filters="sRGB">
<feFlood flood-opacity="0" result="BackgroundImageFix"/>
<feBlend mode="normal" in="SourceGraphic" in2="BackgroundImageFix" result="shape"/>
<feGaussianBlur stdDeviation="1.62325" result="effect1_foregroundBlur_3744_57892"/>
</filter>
<filter id="filter14_f_3744_57892" x="37.6334" y="16.2447" width="16.0457" height="18.8451" filterUnits="userSpaceOnUse" color-interpolation-filters="sRGB">
<feFlood flood-opacity="0" result="BackgroundImageFix"/>
<feBlend mode="normal" in="SourceGraphic" in2="BackgroundImageFix" result="shape"/>
<feGaussianBlur stdDeviation="3.07784" result="effect1_foregroundBlur_3744_57892"/>
</filter>
<filter id="filter15_f_3744_57892" x="24.981" y="21.6616" width="5.42086" height="8.22018" filterUnits="userSpaceOnUse" color-interpolation-filters="sRGB">
<feFlood flood-opacity="0" result="BackgroundImageFix"/>
<feBlend mode="normal" in="SourceGraphic" in2="BackgroundImageFix" result="shape"/>
<feGaussianBlur stdDeviation="0.421622" result="effect1_foregroundBlur_3744_57892"/>
</filter>
<filter id="filter16_f_3744_57892" x="22.5777" y="19.2584" width="10.2274" height="13.0267" filterUnits="userSpaceOnUse" color-interpolation-filters="sRGB">
<feFlood flood-opacity="0" result="BackgroundImageFix"/>
<feBlend mode="normal" in="SourceGraphic" in2="BackgroundImageFix" result="shape"/>
<feGaussianBlur stdDeviation="1.62325" result="effect1_foregroundBlur_3744_57892"/>
</filter>
<filter id="filter17_f_3744_57892" x="19.6685" y="16.3492" width="16.0457" height="18.8451" filterUnits="userSpaceOnUse" color-interpolation-filters="sRGB">
<feFlood flood-opacity="0" result="BackgroundImageFix"/>
<feBlend mode="normal" in="SourceGraphic" in2="BackgroundImageFix" result="shape"/>
<feGaussianBlur stdDeviation="3.07784" result="effect1_foregroundBlur_3744_57892"/>
</filter>
</defs>
</svg>
