<svg width="48" height="48" viewBox="0 0 48 48" fill="none" xmlns="http://www.w3.org/2000/svg">
<rect width="48" height="48" rx="24" fill="white"/>
<path d="M33.4998 24.2514C33.4998 23.5764 33.4347 22.8797 33.3264 22.2266H23.9414V26.0802H29.3166C29.0999 27.3213 28.3846 28.4099 27.3226 29.1066L30.5304 31.6104C32.4161 29.8468 33.4998 27.2777 33.4998 24.2514Z" fill="#4280EF"/>
<path d="M23.9451 34.001C26.6327 34.001 28.8868 33.1084 30.534 31.5843L27.3262 29.1023C26.4376 29.7119 25.2889 30.0603 23.9451 30.0603C21.3441 30.0603 19.155 28.2967 18.3531 25.9453L15.0586 28.4927C16.7492 31.8674 20.1737 34.001 23.9451 34.001Z" fill="#34A353"/>
<path d="M18.3511 25.9167C17.9393 24.6756 17.9393 23.3258 18.3511 22.0847L15.0566 19.5156C13.6478 22.346 13.6478 25.6772 15.0566 28.4858L18.3511 25.9167Z" fill="#F6B704"/>
<path d="M23.9451 17.9629C25.3539 17.9412 26.741 18.4855 27.7597 19.4652L30.5991 16.5913C28.8001 14.893 26.4159 13.9786 23.9451 14.0004C20.1737 14.0004 16.7492 16.1341 15.0586 19.5088L18.3531 22.0779C19.155 19.7047 21.3441 17.9629 23.9451 17.9629Z" fill="#E54335"/>
</svg>
