<svg width="24" height="24" viewBox="0 0 24 24" fill="none" xmlns="http://www.w3.org/2000/svg">
<circle opacity="0.3" cx="12" cy="12" r="12" fill="#FFB22E"/>
<circle cx="12" cy="12" r="10" fill="#FFB22E"/>
<g clip-path="url(#clip0_3825_17303)">
<path d="M17.7337 11.9998C17.7336 8.83344 15.1663 6.26668 12 6.26668C8.83377 6.26682 6.26707 8.83353 6.26693 11.9998C6.26693 15.1661 8.83369 17.7333 12 17.7335C15.1664 17.7335 17.7337 15.1662 17.7337 11.9998ZM12 12.936C13.179 12.936 14.206 13.5689 14.7858 14.5056C14.9795 14.8187 14.8827 15.2298 14.5697 15.4236C14.2567 15.6171 13.8461 15.5202 13.6523 15.2074C13.2989 14.6365 12.6865 14.2693 12 14.2693C11.3136 14.2694 10.7017 14.6366 10.3483 15.2074C10.1545 15.5204 9.74336 15.6173 9.43034 15.4236C9.11733 15.2298 9.02107 14.8187 9.21484 14.5056C9.79465 13.569 10.8211 12.936 12 12.936ZM10.1439 9.41317C10.512 9.41317 10.8104 9.71173 10.8105 10.0798V10.1313C10.8105 10.4995 10.5121 10.7979 10.1439 10.7979H10.0801C9.71197 10.7978 9.41341 10.4994 9.41341 10.1313V10.0798C9.41351 9.71179 9.71203 9.41327 10.0801 9.41317H10.1439ZM13.9772 9.41317C14.3452 9.41332 14.6438 9.71182 14.6439 10.0798V10.1313C14.6439 10.4994 14.3453 10.7978 13.9772 10.7979H13.9206C13.5524 10.7979 13.2539 10.4995 13.2539 10.1313V10.0798C13.254 9.71173 13.5524 9.41317 13.9206 9.41317H13.9772ZM19.0671 11.9998C19.0671 15.9026 15.9028 19.0668 12 19.0668C8.09731 19.0667 4.93359 15.9025 4.93359 11.9998C4.93373 8.09715 8.09739 4.93349 12 4.93335C15.9027 4.93335 19.0669 8.09706 19.0671 11.9998Z" fill="white"/>
</g>
<defs>
<clipPath id="clip0_3825_17303">
<rect width="16" height="16" fill="white" transform="translate(4 4)"/>
</clipPath>
</defs>
</svg>
