<svg width="24" height="24" viewBox="0 0 24 24" fill="none" xmlns="http://www.w3.org/2000/svg">
<circle opacity="0.3" cx="12" cy="12" r="12" fill="#F6606B"/>
<circle cx="12" cy="12" r="10" fill="#F6606B"/>
<g clip-path="url(#clip0_4070_59196)">
<path d="M17.7337 11.9995C17.7336 8.8332 15.1663 6.26644 12 6.26644C8.83377 6.26658 6.26707 8.83329 6.26693 11.9995C6.26693 15.1659 8.83369 17.7331 12 17.7332C15.1664 17.7332 17.7337 15.1659 17.7337 11.9995ZM12 12.9357C13.179 12.9357 14.206 13.5686 14.7858 14.5054C14.9795 14.8184 14.8827 15.2296 14.5697 15.4233C14.2567 15.6169 13.8461 15.52 13.6523 15.2072C13.2989 14.6362 12.6865 14.269 12 14.269C11.3136 14.2691 10.7017 14.6363 10.3483 15.2072C10.1545 15.5202 9.74336 15.6171 9.43034 15.4233C9.11733 15.2295 9.02107 14.8184 9.21484 14.5054C9.79465 13.5687 10.8211 12.9358 12 12.9357ZM10.1439 9.41292C10.512 9.41292 10.8104 9.71148 10.8105 10.0796V10.131C10.8105 10.4992 10.5121 10.7977 10.1439 10.7977H10.0801C9.71197 10.7976 9.41341 10.4992 9.41341 10.131V10.0796C9.41351 9.71154 9.71203 9.41302 10.0801 9.41292H10.1439ZM13.9772 9.41292C14.3452 9.41308 14.6438 9.71158 14.6439 10.0796V10.131C14.6439 10.4991 14.3453 10.7975 13.9772 10.7977H13.9206C13.5524 10.7977 13.2539 10.4992 13.2539 10.131V10.0796C13.254 9.71148 13.5524 9.41292 13.9206 9.41292H13.9772ZM19.0671 11.9995C19.0671 15.9023 15.9028 19.0666 12 19.0666C8.09731 19.0664 4.93359 15.9022 4.93359 11.9995C4.93373 8.09691 8.09739 4.93325 12 4.93311C15.9027 4.93311 19.0669 8.09682 19.0671 11.9995Z" fill="white"/>
</g>
<defs>
<clipPath id="clip0_4070_59196">
<rect width="16" height="16" fill="white" transform="translate(4 4)"/>
</clipPath>
</defs>
</svg>
