<svg width="20" height="20" viewBox="0 0 20 20" fill="none" xmlns="http://www.w3.org/2000/svg">
<path d="M5.03156 11.7638C5.19156 11.3288 5.80656 11.3288 5.97156 11.7638L6.50156 13.1987C6.55156 13.3337 6.66156 13.4437 6.79656 13.4937L8.23156 14.0237C8.66656 14.1837 8.66656 14.7987 8.23156 14.9637L6.79656 15.4937C6.66156 15.5437 6.55156 15.6537 6.50156 15.7887L5.97156 17.2238C5.81156 17.6588 5.19656 17.6588 5.03156 17.2238L4.50156 15.7887C4.45156 15.6537 4.34156 15.5437 4.20656 15.4937L2.77156 14.9637C2.33656 14.8037 2.33656 14.1887 2.77156 14.0237L4.20656 13.4937C4.34156 13.4437 4.45156 13.3337 4.50156 13.1987L5.03156 11.7638Z" fill="#00B1BD"/>
<path d="M10.7936 3.3975C11.0336 2.7425 11.9586 2.7425 12.1986 3.3975L13.2686 6.2825C13.3436 6.4875 13.5086 6.6475 13.7136 6.7275L16.5986 7.7975C17.2536 8.0375 17.2536 8.9625 16.5986 9.2025L13.7136 10.2725C13.5086 10.3475 13.3486 10.5125 13.2686 10.7175L12.1986 13.6025C11.9586 14.2575 11.0336 14.2575 10.7936 13.6025L9.72359 10.7175C9.64859 10.5125 9.48359 10.3525 9.27859 10.2725L6.39359 9.2025C5.73859 8.9625 5.73859 8.0375 6.39359 7.7975L9.27859 6.7275C9.48359 6.6525 9.64359 6.4875 9.72359 6.2825L10.7936 3.3975Z" fill="#00B1BD"/>
</svg>
