<svg width="100%" height="100%" viewBox="0 0 24 24" fill="none" xmlns="http://www.w3.org/2000/svg">
<g clip-path="url(#clip0_4564_1925)">
<path d="M19.3297 17.0316C19.055 17.6605 18.7298 18.2394 18.3531 18.7716C17.8396 19.4971 17.4191 19.9993 17.0951 20.2782C16.5928 20.7359 16.0546 20.9704 15.4783 20.9837C15.0646 20.9837 14.5657 20.8671 13.9849 20.6304C13.4022 20.3948 12.8667 20.2782 12.3771 20.2782C11.8636 20.2782 11.3128 20.3948 10.7237 20.6304C10.1338 20.8671 9.65848 20.9904 9.29509 21.0026C8.74245 21.0259 8.1916 20.7848 7.64176 20.2782C7.29082 19.9749 6.85187 19.4549 6.32602 18.7182C5.76183 17.9316 5.29799 17.0194 4.9346 15.9794C4.54543 14.8561 4.35034 13.7684 4.35034 12.7153C4.35034 11.509 4.61338 10.4686 5.14023 9.59673C5.55429 8.89642 6.10514 8.34399 6.79457 7.93845C7.48401 7.5329 8.22894 7.32624 9.03116 7.31302C9.47011 7.31302 10.0457 7.44757 10.7611 7.71201C11.4744 7.97734 11.9324 8.11189 12.1332 8.11189C12.2833 8.11189 12.7921 7.95456 13.6547 7.6409C14.4704 7.35002 15.1588 7.22958 15.7228 7.27702C17.251 7.39924 18.3991 7.99622 19.1626 9.07175C17.7959 9.89239 17.1198 11.0418 17.1332 12.5163C17.1456 13.6648 17.566 14.6206 18.3923 15.3794C18.7668 15.7317 19.185 16.0039 19.6503 16.1972C19.5494 16.4872 19.4429 16.765 19.3297 17.0316V17.0316ZM15.8248 3.36425C15.8248 4.26446 15.4929 5.10498 14.8314 5.88295C14.0331 6.80781 13.0675 7.34224 12.0204 7.25791C12.0071 7.14992 11.9993 7.03625 11.9993 6.91681C11.9993 6.05262 12.379 5.12775 13.0532 4.37156C13.3897 3.98868 13.8178 3.67032 14.3369 3.41636C14.8549 3.16619 15.3449 3.02784 15.8057 3.00415C15.8192 3.12449 15.8248 3.24484 15.8248 3.36424V3.36425Z" fill="white"/>
</g>
<defs>
<clipPath id="clip0_4564_1925">
<rect width="18" height="18" fill="white" transform="translate(3 3)"/>
</clipPath>
</defs>
</svg>
