<svg width="100%" height="100%" viewBox="0 0 24 24" fill="none" xmlns="http://www.w3.org/2000/svg">
<path d="M14.3306 20.167C14.7904 19.8611 15.4114 19.9865 15.7173 20.4463C16.0231 20.9061 15.8988 21.5271 15.439 21.833C13.0993 23.3896 10.0326 23.3896 7.69293 21.833C7.23328 21.5271 7.10888 20.906 7.41461 20.4463C7.72049 19.9865 8.34151 19.8612 8.80133 20.167C10.47 21.2771 12.662 21.2771 14.3306 20.167ZM17.566 10C17.566 6.68629 14.8797 4 11.566 4C8.25235 4.0001 5.56598 6.68635 5.56598 10V12.5781C5.56592 14.1312 5.16427 15.6539 4.40484 17H18.7281C17.9686 15.6538 17.566 14.1313 17.566 12.5781V10ZM19.566 12.5781C19.566 13.96 19.9752 15.3112 20.7418 16.4609L20.8804 16.668C21.5447 17.6648 20.8294 19 19.6314 19H3.50055C2.3025 19 1.58794 17.6648 2.2525 16.668L2.39019 16.4609C3.15671 15.3112 3.56591 13.96 3.56598 12.5781V10C3.56598 5.58178 7.14778 2.0001 11.566 2C15.9843 2 19.566 5.58172 19.566 10V12.5781Z" fill="currentColor"/>
</svg>
