<svg width="100%" height="100%" viewBox="0 0 24 24" fill="none" xmlns="http://www.w3.org/2000/svg">
<g opacity="0.9">
<path d="M12 20C16.4183 20 20 16.4183 20 12C20 10.1461 19.368 8.44052 18.3096 7.08398C18.2787 7.12669 18.2455 7.16857 18.207 7.20703L7.09668 18.3174C8.45132 19.3703 10.1514 20 12 20ZM12 4C7.58172 4 4 7.58172 4 12C4 13.8486 4.62967 15.5487 5.68262 16.9033L16.793 5.79297C16.8314 5.7545 16.8733 5.72132 16.916 5.69043C15.5595 4.63199 13.8539 4 12 4ZM12 22C6.47715 22 2 17.5228 2 12C2 6.47715 6.47715 2 12 2C17.5228 2 22 6.47715 22 12C22 17.5228 17.5228 22 12 22Z" fill="currentColor"/>
</g>
</svg>
