<svg width="100%" height="100%" viewBox="0 0 24 24" fill="none" xmlns="http://www.w3.org/2000/svg">
<path d="M12 1C7.02907 1 3 5.03019 3 9.99997C3 14.9697 7.02907 19 12 19C16.9709 19 21 14.9697 21 9.99997C21 5.03019 16.9709 1 12 1ZM12 13.2737C10.3721 13.2737 9.05233 11.8083 9.05233 9.99997C9.05233 8.19168 10.3721 6.72618 12 6.72618C13.6279 6.72618 14.9534 8.19168 14.9534 9.99997C14.9534 11.8083 13.6337 13.2737 12 13.2737Z" fill="#6A7381"/>
<path d="M12.5 20C10.338 20 8.03772 21.0647 7 23H18C16.9622 21.0647 14.662 20 12.5 20Z" fill="#6A7381"/>
</svg>
