<svg width="100%" height="100%" viewBox="0 0 24 24" fill="none" xmlns="http://www.w3.org/2000/svg">
<path d="M19 4C19 3.44772 18.5523 3 18 3H6C5.44772 3 5 3.44772 5 4V20.3818L10.6582 17.5527C11.5028 17.1304 12.4972 17.1304 13.3418 17.5527L19 20.3818V4ZM21 21.1914C20.9997 22.3062 19.8263 23.0308 18.8291 22.5322L12.4473 19.3418C12.1657 19.201 11.8343 19.201 11.5527 19.3418L5.1709 22.5322C4.17367 23.0308 3.0003 22.3062 3 21.1914V4C3 2.34315 4.34315 1 6 1H18C19.6569 1 21 2.34315 21 4V21.1914Z" fill="currentColor"/>
<path d="M14.2932 8.29289C14.6837 7.90237 15.3167 7.90237 15.7073 8.29289C16.0978 8.68342 16.0978 9.31643 15.7073 9.70696L11.7727 13.6415C11.3646 14.0492 10.7106 14.072 10.2747 13.6943L8.34497 12.0234C7.92759 11.6617 7.88274 11.0296 8.24438 10.6122C8.60603 10.1948 9.2381 10.15 9.65551 10.5116L10.9504 11.6347L14.2932 8.29289Z" fill="currentColor"/>
</svg>
