<svg width="20" height="20" viewBox="0 0 20 20" fill="none" xmlns="http://www.w3.org/2000/svg">
<path d="M15.8333 3.33337C15.8333 2.87314 15.4602 2.50004 15 2.50004H5C4.53976 2.50004 4.16667 2.87314 4.16667 3.33337V16.9849L8.88184 14.6273C9.58565 14.2754 10.4143 14.2754 11.1182 14.6273L15.8333 16.9849V3.33337ZM17.5 17.6595C17.4998 18.5886 16.5219 19.1924 15.6909 18.7769L10.3727 16.1182C10.1381 16.0009 9.86188 16.0009 9.62728 16.1182L4.30908 18.7769C3.47806 19.1924 2.50025 18.5886 2.5 17.6595V3.33337C2.5 1.95266 3.61929 0.833374 5 0.833374H15C16.3807 0.833374 17.5 1.95266 17.5 3.33337V17.6595Z" fill="#9AA3AF"/>
<path d="M11.9104 6.91083C12.2358 6.58539 12.7633 6.58539 13.0887 6.91083C13.4142 7.23626 13.4142 7.76377 13.0887 8.08921L9.80993 11.368C9.46988 11.7077 8.92487 11.7267 8.56156 11.412L6.95349 10.0196C6.60567 9.71817 6.5683 9.19144 6.86967 8.84361C7.17104 8.49577 7.69777 8.45841 8.04561 8.75978L9.12471 9.69566L11.9104 6.91083Z" fill="#9AA3AF"/>
</svg>
