<svg width="24" height="24" viewBox="0 0 24 24" fill="none" xmlns="http://www.w3.org/2000/svg">
<path d="M3 10.002H21M8 6.00195V2.00195M16 6.00195V2.00195M9.4 22.002H14.6C16.8402 22.002 17.9603 22.002 18.816 21.566C19.5686 21.1825 20.1805 20.5706 20.564 19.8179C21 18.9623 21 17.8422 21 15.602V10.402C21 8.16174 21 7.04164 20.564 6.18599C20.1805 5.43334 19.5686 4.82142 18.816 4.43793C17.9603 4.00195 16.8402 4.00195 14.6 4.00195H9.4C7.15979 4.00195 6.03968 4.00195 5.18404 4.43793C4.43139 4.82142 3.81947 5.43334 3.43597 6.18599C3 7.04164 3 8.16174 3 10.402V15.602C3 17.8422 3 18.9623 3.43597 19.8179C3.81947 20.5706 4.43139 21.1825 5.18404 21.566C6.03968 22.002 7.15979 22.002 9.4 22.002Z" stroke="#9AA3AF" stroke-width="2" stroke-linecap="round"/>
</svg>
