<svg width="100%" height="100%" viewBox="0 0 24 24" fill="none" xmlns="http://www.w3.org/2000/svg">
<path d="M20 11H4V15.5996C4 16.736 4.00041 17.5287 4.05078 18.1455C4.10023 18.7507 4.19296 19.0989 4.32715 19.3623C4.61472 19.9265 5.07347 20.3853 5.6377 20.6729C5.90105 20.807 6.24933 20.8998 6.85449 20.9492C7.47129 20.9996 8.26396 21 9.40039 21H14.5996C15.736 21 16.5287 20.9996 17.1455 20.9492C17.7507 20.8998 18.099 20.807 18.3623 20.6729C18.9265 20.3853 19.3853 19.9265 19.6729 19.3623C19.807 19.0989 19.8998 18.7507 19.9492 18.1455C19.9996 17.5287 20 16.736 20 15.5996V11ZM14.293 12.293C14.6835 11.9024 15.3165 11.9024 15.707 12.293C16.0976 12.6835 16.0976 13.3165 15.707 13.707L12.0605 17.3535C11.4748 17.9393 10.5252 17.9393 9.93945 17.3535L8.29297 15.707C7.90245 15.3165 7.90245 14.6835 8.29297 14.293C8.68349 13.9024 9.31651 13.9024 9.70703 14.293L11 15.5859L14.293 12.293ZM15 6V5.00098C14.8716 5.00087 14.7379 5 14.5996 5H9.40039C9.26206 5 9.12844 5.00087 9 5.00098V6C9 6.55228 8.55229 7 8 7C7.44772 7 7 6.55228 7 6V5.04199C6.95046 5.0453 6.90189 5.04691 6.85449 5.05078C6.24933 5.10023 5.90105 5.19296 5.6377 5.32715C5.07347 5.61472 4.61472 6.07347 4.32715 6.6377C4.19296 6.90105 4.10023 7.24932 4.05078 7.85449C4.02425 8.17941 4.01298 8.55305 4.00684 9H19.9932C19.987 8.55305 19.9758 8.17941 19.9492 7.85449C19.8998 7.24932 19.807 6.90105 19.6729 6.6377C19.3853 6.07347 18.9265 5.61472 18.3623 5.32715C18.099 5.19296 17.7507 5.10023 17.1455 5.05078C17.0981 5.04691 17.0495 5.0453 17 5.04199V6C17 6.55228 16.5523 7 16 7C15.4477 7 15 6.55228 15 6ZM22 15.5996C22 16.7032 22.001 17.5914 21.9424 18.3086C21.8828 19.0373 21.7567 19.6773 21.4551 20.2695C20.9757 21.2103 20.2103 21.9757 19.2695 22.4551C18.6773 22.7567 18.0373 22.8828 17.3086 22.9424C16.5914 23.001 15.7032 23 14.5996 23H9.40039C8.29681 23 7.40857 23.001 6.69141 22.9424C5.9627 22.8828 5.32266 22.7567 4.73047 22.4551C3.78966 21.9757 3.02429 21.2103 2.54492 20.2695C2.24327 19.6773 2.11716 19.0373 2.05762 18.3086C1.99903 17.5914 2 16.7032 2 15.5996V10.4004C2 10.2757 2.00189 10.1534 2.00195 10.0342C2.00157 10.0228 2 10.0115 2 10C2 9.98557 2.00233 9.97131 2.00293 9.95703C2.00373 9.05557 2.00708 8.30999 2.05762 7.69141C2.11716 6.9627 2.24327 6.32266 2.54492 5.73047C3.02429 4.78966 3.78966 4.02429 4.73047 3.54492C5.32266 3.24326 5.9627 3.11715 6.69141 3.05762C6.7909 3.04949 6.89382 3.04507 7 3.03906V2C7 1.44772 7.44772 1 8 1C8.55229 1 9 1.44772 9 2V3.00098C9.13009 3.00089 9.26378 3 9.40039 3H14.5996C14.7362 3 14.8699 3.00089 15 3.00098V2C15 1.44772 15.4477 1 16 1C16.5523 1 17 1.44772 17 2V3.03906C17.1062 3.04507 17.2091 3.04949 17.3086 3.05762C18.0373 3.11715 18.6773 3.24326 19.2695 3.54492C20.2103 4.02429 20.9757 4.78966 21.4551 5.73047C21.7567 6.32266 21.8828 6.9627 21.9424 7.69141C21.9929 8.30999 21.9963 9.05557 21.9971 9.95703C21.9977 9.97131 22 9.98557 22 10C22 10.0115 21.9984 10.0228 21.998 10.0342C21.9981 10.1534 22 10.2757 22 10.4004V15.5996Z" fill="currentColor"/>
</svg>
