<svg width="24" height="24" viewBox="0 0 24 24" fill="none" xmlns="http://www.w3.org/2000/svg">
<path d="M20 11.0015H4V15.6011C4 16.7375 4.00041 17.5302 4.05078 18.147C4.10023 18.7521 4.19296 19.1004 4.32715 19.3638C4.61472 19.928 5.07347 20.3867 5.6377 20.6743C5.90105 20.8085 6.24933 20.9012 6.85449 20.9507C7.47129 21.0011 8.26396 21.0015 9.40039 21.0015H14.5996C15.736 21.0015 16.5287 21.0011 17.1455 20.9507C17.7507 20.9012 18.099 20.8085 18.3623 20.6743C18.9265 20.3867 19.3853 19.928 19.6729 19.3638C19.807 19.1004 19.8998 18.7521 19.9492 18.147C19.9996 17.5302 20 16.7375 20 15.6011V11.0015ZM15 6.00146V5.00244C14.8716 5.00233 14.7379 5.00146 14.5996 5.00146H9.40039C9.26206 5.00146 9.12844 5.00233 9 5.00244V6.00146C9 6.55375 8.55229 7.00146 8 7.00146C7.44772 7.00146 7 6.55375 7 6.00146V5.04346C6.95046 5.04676 6.90189 5.04838 6.85449 5.05225C6.24933 5.10169 5.90105 5.19443 5.6377 5.32861C5.07347 5.61619 4.61472 6.07494 4.32715 6.63916C4.19296 6.90252 4.10023 7.25079 4.05078 7.85596C4.02425 8.18087 4.01298 8.55452 4.00684 9.00146H19.9932C19.987 8.55452 19.9758 8.18087 19.9492 7.85596C19.8998 7.25079 19.807 6.90252 19.6729 6.63916C19.3853 6.07494 18.9265 5.61619 18.3623 5.32861C18.099 5.19443 17.7507 5.10169 17.1455 5.05225C17.0981 5.04838 17.0495 5.04676 17 5.04346V6.00146C17 6.55375 16.5523 7.00146 16 7.00146C15.4477 7.00146 15 6.55375 15 6.00146ZM22 15.6011C22 16.7047 22.001 17.5929 21.9424 18.3101C21.8828 19.0388 21.7567 19.6788 21.4551 20.271C20.9757 21.2118 20.2103 21.9772 19.2695 22.4565C18.6773 22.7582 18.0373 22.8843 17.3086 22.9438C16.5914 23.0024 15.7032 23.0015 14.5996 23.0015H9.40039C8.29681 23.0015 7.40857 23.0024 6.69141 22.9438C5.9627 22.8843 5.32266 22.7582 4.73047 22.4565C3.78966 21.9772 3.02429 21.2118 2.54492 20.271C2.24327 19.6788 2.11716 19.0388 2.05762 18.3101C1.99903 17.5929 2 16.7047 2 15.6011V10.4019C2 10.2772 2.00189 10.1549 2.00195 10.0356C2.00157 10.0243 2 10.0129 2 10.0015C2 9.98704 2.00233 9.97277 2.00293 9.9585C2.00373 9.05704 2.00708 8.31146 2.05762 7.69287C2.11716 6.96417 2.24327 6.32413 2.54492 5.73193C3.02429 4.79112 3.78966 4.02575 4.73047 3.54639C5.32266 3.24473 5.9627 3.11862 6.69141 3.05908C6.7909 3.05095 6.89382 3.04653 7 3.04053V2.00146C7 1.44918 7.44772 1.00146 8 1.00146C8.55229 1.00146 9 1.44918 9 2.00146V3.00244C9.13009 3.00235 9.26378 3.00146 9.40039 3.00146H14.5996C14.7362 3.00146 14.8699 3.00235 15 3.00244V2.00146C15 1.44918 15.4477 1.00146 16 1.00146C16.5523 1.00146 17 1.44918 17 2.00146V3.04053C17.1062 3.04653 17.2091 3.05095 17.3086 3.05908C18.0373 3.11862 18.6773 3.24473 19.2695 3.54639C20.2103 4.02575 20.9757 4.79112 21.4551 5.73193C21.7567 6.32413 21.8828 6.96417 21.9424 7.69287C21.9929 8.31146 21.9963 9.05704 21.9971 9.9585C21.9977 9.97277 22 9.98704 22 10.0015C22 10.0129 21.9984 10.0243 21.998 10.0356C21.9981 10.1549 22 10.2772 22 10.4019V15.6011Z" fill="#9AA3AF"/>
</svg>
