<svg width="100%" height="100%" viewBox="0 0 24 24" fill="none" xmlns="http://www.w3.org/2000/svg">
<path d="M20.4751 7.49939C20.4751 6.79595 19.905 6.22534 19.2007 6.22498H4.7998C4.0961 6.22529 3.52571 6.79569 3.52539 7.49939V8.17468H20.4751V7.49939ZM9.6001 12.3744C10.2212 12.3745 10.7249 12.8783 10.7251 13.4994C10.7251 14.1207 10.2213 14.6243 9.6001 14.6244H6.6001C5.97878 14.6244 5.4751 14.1207 5.4751 13.4994C5.47533 12.8783 5.97892 12.3744 6.6001 12.3744H9.6001ZM3.52539 16.4994C3.52541 17.2035 4.09712 17.7753 4.80127 17.7753H19.2007C19.9053 17.7751 20.4751 17.2042 20.4751 16.5009V10.4247H3.52539V16.4994ZM22.7251 16.5009C22.7251 18.4482 21.1467 20.0251 19.2007 20.0253H4.80127C2.85452 20.0252 1.27545 18.4461 1.27539 16.4994V7.49939C1.27571 5.55306 2.85346 3.97529 4.7998 3.97498H19.2007C21.1466 3.97534 22.725 5.55237 22.7251 7.49939V16.5009Z" fill="currentColor"/>
</svg>
