<svg width="24" height="24" viewBox="0 0 24 24" fill="none" xmlns="http://www.w3.org/2000/svg">
<path d="M18.2822 9.83496C18.2822 9.29153 18.2814 8.94468 18.2592 8.68164C18.238 8.43094 18.2032 8.34549 18.1843 8.30957C18.0973 8.14453 17.9568 8.00809 17.7818 7.92188C17.7406 7.90158 17.6478 7.86643 17.3853 7.8457C17.1113 7.82408 16.7506 7.82324 16.1888 7.82324H4.88985C4.32767 7.82324 3.96647 7.82406 3.69234 7.8457C3.43068 7.86637 3.33824 7.90155 3.29683 7.92188C3.12177 8.00807 2.98139 8.14453 2.89433 8.30957C2.87544 8.34539 2.83966 8.43054 2.81843 8.68164C2.79621 8.94468 2.79546 9.29154 2.79546 9.83496V16.9883C2.79546 17.5321 2.79618 17.8795 2.81843 18.1426C2.83964 18.3931 2.87544 18.4778 2.89433 18.5137C2.98139 18.6788 3.12173 18.8152 3.29683 18.9014C3.33818 18.9217 3.43045 18.9569 3.69234 18.9775C3.96647 18.9992 4.32767 19 4.88985 19H16.1888C16.7506 19 17.1113 18.9992 17.3853 18.9775C17.6478 18.9568 17.7406 18.9217 17.7818 18.9014C17.9568 18.8151 18.0973 18.6787 18.1843 18.5137C18.2032 18.4776 18.2381 18.3924 18.2592 18.1426C18.2815 17.8795 18.2822 17.5321 18.2822 16.9883V9.83496ZM21.2045 17.1768V5.88281C21.2045 5.40677 20.802 5.00025 20.2797 5H5.66888C5.10404 5 4.64615 4.55228 4.64615 4C4.64615 3.44772 5.10404 3 5.66888 3H20.2797C21.9088 3.00025 23.25 4.27996 23.25 5.88281V17.1768C23.2498 17.7289 22.792 18.1768 22.2273 18.1768C21.6625 18.1768 21.2047 17.7289 21.2045 17.1768ZM8.59124 15.2354C9.15593 15.2355 9.61397 15.6832 9.61397 16.2354C9.61394 16.7875 9.15591 17.2352 8.59124 17.2354H5.66888C5.10406 17.2354 4.64618 16.7876 4.64615 16.2354C4.64615 15.6831 5.10404 15.2354 5.66888 15.2354H8.59124ZM8.59124 12.4121C9.15593 12.4123 9.61397 12.8599 9.61397 13.4121C9.61378 13.9641 9.15581 14.4119 8.59124 14.4121H5.66888C5.10416 14.4121 4.64634 13.9642 4.64615 13.4121C4.64615 12.8598 5.10404 12.4121 5.66888 12.4121H8.59124ZM8.59124 9.58789C9.15581 9.58807 9.61378 10.0359 9.61397 10.5879C9.61397 11.1401 9.15593 11.5877 8.59124 11.5879H5.66888C5.10404 11.5879 4.64615 11.1402 4.64615 10.5879C4.64634 10.0358 5.10416 9.58789 5.66888 9.58789H8.59124ZM20.3276 16.9883C20.3276 17.4985 20.3285 17.9421 20.2977 18.3066C20.2658 18.6833 20.1955 19.0638 20.002 19.4307C19.7156 19.9739 19.2596 20.4138 18.7017 20.6885C18.3262 20.8733 17.9372 20.9401 17.5501 20.9707C17.1747 21.0003 16.7174 21 16.1888 21H4.88985C4.36102 21 3.9031 21.0004 3.52755 20.9707C3.14051 20.9401 2.75136 20.8733 2.37598 20.6885C1.81806 20.4137 1.36205 19.9739 1.0756 19.4307C0.882174 19.0638 0.811814 18.6833 0.779965 18.3066C0.749161 17.9421 0.750002 17.4985 0.750002 16.9883V9.83496C0.750002 9.3247 0.749142 8.88116 0.779965 8.5166C0.811815 8.13993 0.882161 7.75941 1.0756 7.39258C1.362 6.84953 1.81825 6.41045 2.37598 6.13574C2.75137 5.95092 3.1405 5.88311 3.52755 5.85254C3.9031 5.82289 4.36102 5.82324 4.88985 5.82324H16.1888C16.7174 5.82324 17.1747 5.8229 17.5501 5.85254C17.9372 5.8831 18.3262 5.95088 18.7017 6.13574C19.2594 6.41042 19.7156 6.84951 20.002 7.39258C20.1955 7.75941 20.2658 8.13993 20.2977 8.5166C20.3285 8.88116 20.3276 9.32469 20.3276 9.83496V16.9883Z" fill="#6A7381"/>
<path d="M11.5234 11.3418C11.5234 11.0783 11.5234 10.9465 11.5753 10.8458C11.621 10.7573 11.6938 10.6853 11.7834 10.6402C11.8853 10.5889 12.0187 10.5889 12.2853 10.5889H14.5711C14.8377 10.5889 14.9711 10.5889 15.073 10.6402C15.1626 10.6853 15.2354 10.7573 15.2811 10.8458C15.333 10.9465 15.333 11.0783 15.333 11.3418V13.6006C15.333 13.8642 15.333 13.996 15.2811 14.0966C15.2354 14.1852 15.1626 14.2572 15.073 14.3023C14.9711 14.3536 14.8377 14.3536 14.5711 14.3536H12.2853C12.0187 14.3536 11.8853 14.3536 11.7834 14.3023C11.6938 14.2572 11.621 14.1852 11.5753 14.0966C11.5234 13.996 11.5234 13.8642 11.5234 13.6006V11.3418Z" stroke="#00B1BD" stroke-width="2" stroke-linecap="round"/>
</svg>
