<svg width="24" height="24" viewBox="0 0 24 24" fill="none" xmlns="http://www.w3.org/2000/svg">
<path d="M5.80952 4H20.0952C21.1472 4 22 4.84276 22 5.88235V17.1765M5.80952 10.5882H8.66667M5.80952 13.4118H8.66667M5.80952 16.2353H8.66667M5.04762 20H16.0952C17.162 20 17.6954 20 18.1028 19.7948C18.4612 19.6144 18.7526 19.3264 18.9353 18.9722C19.1429 18.5696 19.1429 18.0425 19.1429 16.9882V9.83529C19.1429 8.78108 19.1429 8.25397 18.9353 7.85131C18.7526 7.49712 18.4612 7.20916 18.1028 7.02869C17.6954 6.82353 17.162 6.82353 16.0952 6.82353H5.04762C3.98085 6.82353 3.44747 6.82353 3.04002 7.02869C2.68161 7.20916 2.39022 7.49712 2.20761 7.85131C2 8.25397 2 8.78108 2 9.83529V16.9882C2 18.0425 2 18.5696 2.20761 18.9722C2.39022 19.3264 2.68161 19.6144 3.04002 19.7948C3.44747 20 3.98085 20 5.04762 20Z" stroke="#6A7381" stroke-width="2" stroke-linecap="round"/>
<path d="M11.5234 11.3428C11.5234 11.0792 11.5234 10.9475 11.5753 10.8468C11.621 10.7582 11.6938 10.6863 11.7834 10.6411C11.8853 10.5898 12.0187 10.5898 12.2853 10.5898H14.5711C14.8377 10.5898 14.9711 10.5898 15.073 10.6411C15.1626 10.6863 15.2354 10.7582 15.2811 10.8468C15.333 10.9475 15.333 11.0792 15.333 11.3428V13.6016C15.333 13.8652 15.333 13.9969 15.2811 14.0976C15.2354 14.1862 15.1626 14.2581 15.073 14.3033C14.9711 14.3545 14.8377 14.3546 14.5711 14.3546H12.2853C12.0187 14.3546 11.8853 14.3545 11.7834 14.3033C11.6938 14.2581 11.621 14.1862 11.5753 14.0976C11.5234 13.9969 11.5234 13.8652 11.5234 13.6016V11.3428Z" stroke="#00B1BD" stroke-width="2" stroke-linecap="round"/>
</svg>
