<svg width="100%" height="100%" viewBox="0 0 24 24" fill="none" xmlns="http://www.w3.org/2000/svg">
<path d="M20.375 12C20.375 7.65076 16.8492 4.125 12.5 4.125C8.15076 4.125 4.625 7.65076 4.625 12C4.625 16.3492 8.15076 19.875 12.5 19.875C16.8492 19.875 20.375 16.3492 20.375 12ZM11.375 8.42139C11.375 7.80007 11.8787 7.29639 12.5 7.29639C13.1213 7.29639 13.625 7.80007 13.625 8.42139V12.3135L16.231 13.1821C16.8204 13.3786 17.1394 14.0165 16.9429 14.606C16.7464 15.1954 16.1085 15.5143 15.519 15.3179L12.144 14.1929C11.6847 14.0397 11.375 13.6092 11.375 13.125V8.42139ZM22.625 12C22.625 17.5919 18.0919 22.125 12.5 22.125C6.90812 22.125 2.375 17.5919 2.375 12C2.375 6.40812 6.90812 1.875 12.5 1.875C18.0919 1.875 22.625 6.40812 22.625 12Z" fill="currentColor"/>
</svg>
