<svg width="100%" height="100%" viewBox="0 0 24 24" fill="none" xmlns="http://www.w3.org/2000/svg">
<path d="M16.1997 20.4747C16.8209 20.4747 17.3245 20.9785 17.3247 21.5997C17.3247 22.2211 16.821 22.7247 16.1997 22.7247H10.1997C9.57852 22.7246 9.07471 22.221 9.07471 21.5997C9.07487 20.9786 9.57862 20.4749 10.1997 20.4747H16.1997ZM11.3994 16.8756C12.0207 16.8756 12.5244 17.3793 12.5244 18.0006C12.5241 18.6217 12.0205 19.1256 11.3994 19.1256H5.39941C4.77856 19.1253 4.27473 18.6215 4.27441 18.0006C4.27441 17.3795 4.77836 16.8759 5.39941 16.8756H11.3994ZM19.8003 16.8756C20.4215 16.8758 20.9253 17.3794 20.9253 18.0006C20.925 18.6216 20.4213 19.1255 19.8003 19.1256H16.1997C15.5787 19.1255 15.075 18.6216 15.0747 18.0006C15.0747 17.3794 15.5785 16.8758 16.1997 16.8756H19.8003ZM19.875 8.40002C19.875 5.70764 17.6924 3.52502 15 3.52502C13.24 3.52502 11.6969 4.45735 10.8384 5.85999C10.5369 6.35228 9.91136 6.53644 9.39111 6.28625C8.91115 6.0553 8.37238 5.92448 7.80029 5.92444C5.77074 5.92444 4.12516 7.57022 4.125 9.59973C4.125 11.6294 5.77065 13.275 7.80029 13.275H15C17.6924 13.275 19.875 11.0924 19.875 8.40002ZM22.125 8.40002C22.125 12.3351 18.935 15.525 15 15.525H7.80029C4.52801 15.525 1.875 12.872 1.875 9.59973C1.87516 6.32758 4.5281 3.67444 7.80029 3.67444C8.37746 3.67447 8.93679 3.75702 9.46582 3.91174C10.771 2.30446 12.765 1.27502 15 1.27502C18.935 1.27502 22.125 4.465 22.125 8.40002Z" fill="currentColor"/>
</svg>
