<svg width="100%" height="100%" viewBox="0 0 24 24" fill="none" xmlns="http://www.w3.org/2000/svg">
<path d="M15.7158 15.2234C16.2681 15.2234 16.7158 15.6711 16.7158 16.2234C16.7158 16.7757 16.2681 17.2234 15.7158 17.2234H8.49609C7.94381 17.2234 7.49609 16.7757 7.49609 16.2234C7.49609 15.6711 7.94381 15.2234 8.49609 15.2234H15.7158Z" fill="#9AA3AF"/>
<path d="M15.7158 11.0369C16.2681 11.0369 16.7158 11.4846 16.7158 12.0369C16.7158 12.5891 16.2681 13.0369 15.7158 13.0369H8.49609C7.94381 13.0369 7.49609 12.5891 7.49609 12.0369C7.49609 11.4846 7.94381 11.0369 8.49609 11.0369H15.7158Z" fill="#9AA3AF"/>
<path d="M11.252 6.86011C11.8042 6.86011 12.252 7.30782 12.252 7.86011C12.252 8.41239 11.8042 8.86011 11.252 8.86011H8.49707C7.94479 8.86011 7.49707 8.41239 7.49707 7.86011C7.49707 7.30782 7.94479 6.86011 8.49707 6.86011H11.252Z" fill="#9AA3AF"/>
<path d="M19.416 7.35718C19.416 6.17208 19.0526 5.28725 18.4883 4.70483C17.9278 4.12642 17.0764 3.7498 15.9092 3.74976H15.5801C15.3702 3.74987 15.0698 3.75055 14.71 3.75073C13.9901 3.75111 13.0297 3.75121 12.0693 3.75171C10.2061 3.75268 8.34078 3.75263 8.22559 3.75269L8.22656 3.75366C7.07098 3.76078 6.22688 4.13888 5.6709 4.71655C5.11129 5.29808 4.75098 6.17862 4.75098 7.35718V16.5525C4.75098 17.7377 5.11465 18.6225 5.67871 19.2048C6.23896 19.783 7.08975 20.1599 8.25684 20.1599H8.58691C8.79679 20.1598 9.09646 20.1591 9.45605 20.1589C10.1759 20.1587 11.1364 20.1583 12.0967 20.158C13.9552 20.1572 15.8157 20.157 15.9395 20.157L16.1523 20.1511C17.1991 20.1017 17.9735 19.7358 18.4951 19.1941C19.0551 18.6122 19.416 17.731 19.416 16.5525V7.35718ZM21.416 16.5525C21.416 18.144 20.9215 19.5574 19.9365 20.5808C18.9479 21.608 17.5567 22.1471 15.9521 22.157H14.7393C14.0178 22.1573 13.0569 22.1576 12.0967 22.158C11.1365 22.1583 10.1768 22.1587 9.45703 22.1589C9.09712 22.1591 8.79683 22.1598 8.58691 22.1599H8.25684C6.64031 22.1599 5.23792 21.6255 4.24121 20.5964C3.24827 19.5713 2.75098 18.1512 2.75098 16.5525V7.35718C2.75098 5.76608 3.24497 4.35302 4.22949 3.32983C5.21801 2.30276 6.60945 1.76354 8.21387 1.75366H8.55371C8.76473 1.75355 9.06538 1.75287 9.42578 1.75269C10.1472 1.75231 11.108 1.75221 12.0684 1.75171C13.0287 1.75121 13.9891 1.75111 14.709 1.75073C15.0686 1.75055 15.3683 1.74987 15.5781 1.74976H15.9092C17.5257 1.7498 18.9279 2.28432 19.9248 3.31323C20.918 4.33832 21.416 5.75828 21.416 7.35718V16.5525Z" fill="#9AA3AF"/>
</svg>
