<svg width="24" height="24" viewBox="0 0 24 24" fill="none" xmlns="http://www.w3.org/2000/svg">
<path d="M6 17.7998V17C6 16.4477 6.44772 16 7 16C7.55228 16 8 16.4477 8 17V17.7998C8 18.3764 8.00126 18.7489 8.02441 19.0322C8.04661 19.3038 8.08419 19.4047 8.10938 19.4541C8.20522 19.6421 8.35793 19.7948 8.5459 19.8906C8.59534 19.9158 8.69619 19.9534 8.96777 19.9756C9.25111 19.9987 9.62364 20 10.2002 20H17.7998C18.3764 20 18.7489 19.9987 19.0322 19.9756C19.3038 19.9534 19.4047 19.9158 19.4541 19.8906C19.6421 19.7948 19.7948 19.6421 19.8906 19.4541C19.9158 19.4047 19.9534 19.3038 19.9756 19.0322C19.9987 18.7489 20 18.3764 20 17.7998V6.2002C20 5.62365 19.9987 5.25112 19.9756 4.96778C19.9534 4.69619 19.9158 4.59534 19.8906 4.5459C19.7948 4.35793 19.6421 4.20522 19.4541 4.10938C19.4047 4.08419 19.3038 4.04662 19.0322 4.02442C18.7489 4.00127 18.3764 4 17.7998 4H10.2002C9.62364 4 9.25111 4.00127 8.96777 4.02442C8.69619 4.04662 8.59534 4.08419 8.5459 4.10938C8.35793 4.20522 8.20521 4.35793 8.10938 4.5459C8.08419 4.59534 8.04661 4.69619 8.02441 4.96778C8.00126 5.25112 8 5.62365 8 6.2002V7C8 7.55229 7.55228 8 7 8C6.44772 8 6 7.55229 6 7V6.2002C6 5.65665 5.99893 5.18836 6.03027 4.80469C6.06258 4.40943 6.1344 4.016 6.32715 3.6377C6.61472 3.07348 7.07347 2.61473 7.6377 2.32715C8.01599 2.1344 8.40943 2.06259 8.80469 2.03028C9.18836 1.99893 9.65664 2 10.2002 2H17.7998C18.3434 2 18.8116 1.99893 19.1953 2.03028C19.5906 2.06259 19.984 2.1344 20.3623 2.32715C20.9265 2.61473 21.3853 3.07348 21.6729 3.6377C21.8656 4.016 21.9374 4.40943 21.9697 4.80469C22.0011 5.18836 22 5.65665 22 6.2002V17.7998C22 18.3434 22.0011 18.8116 21.9697 19.1953C21.9374 19.5906 21.8656 19.984 21.6729 20.3623C21.3853 20.9265 20.9265 21.3853 20.3623 21.6729C19.984 21.8656 19.5906 21.9374 19.1953 21.9697C18.8116 22.0011 18.3434 22 17.7998 22H10.2002C9.65664 22 9.18836 22.0011 8.80469 21.9697C8.40943 21.9374 8.01599 21.8656 7.6377 21.6729C7.07347 21.3853 6.61472 20.9265 6.32715 20.3623C6.1344 19.984 6.06258 19.5906 6.03027 19.1953C5.99893 18.8116 6 18.3434 6 17.7998ZM11.4453 8.16797C11.9048 7.86162 12.5257 7.98579 12.832 8.44532L14.6475 11.168C14.9832 11.6717 14.9832 12.3283 14.6475 12.832L12.832 15.5547C12.5257 16.0142 11.9048 16.1384 11.4453 15.832C10.9858 15.5257 10.8616 14.9048 11.168 14.4453L12.1318 13H2C1.44772 13 1 12.5523 1 12C1 11.4477 1.44772 11 2 11H12.1318L11.168 9.55469C10.8616 9.09516 10.9858 8.47433 11.4453 8.16797Z" fill="currentColor"/>
</svg>
