<svg width="24" height="24" viewBox="0 0 24 24" fill="none" xmlns="http://www.w3.org/2000/svg">
<g clip-path="url(#clip0_4181_184414)">
<path d="M18 12.2002C18 11.6236 17.9987 11.2511 17.9756 10.9678C17.9534 10.6962 17.9158 10.5953 17.8906 10.5459C17.7948 10.3579 17.6421 10.2052 17.4541 10.1094C17.4047 10.0842 17.3038 10.0466 17.0322 10.0244C16.7489 10.0013 16.3764 10 15.7998 10H8.2002C7.62365 10 7.25112 10.0013 6.96778 10.0244C6.69619 10.0466 6.59534 10.0842 6.5459 10.1094C6.35793 10.2052 6.20522 10.3579 6.10938 10.5459C6.08419 10.5953 6.04662 10.6962 6.02442 10.9678C6.00127 11.2511 6 11.6236 6 12.2002V17.7998C6 18.3764 6.00127 18.7489 6.02442 19.0322C6.04662 19.3038 6.08419 19.4047 6.10938 19.4541C6.20522 19.6421 6.35793 19.7948 6.5459 19.8906C6.59534 19.9158 6.69619 19.9534 6.96778 19.9756C7.25112 19.9987 7.62365 20 8.2002 20H15.7998C16.3764 20 16.7489 19.9987 17.0322 19.9756C17.3038 19.9534 17.4047 19.9158 17.4541 19.8906C17.6421 19.7948 17.7948 19.6421 17.8906 19.4541C17.9158 19.4047 17.9534 19.3038 17.9756 19.0322C17.9987 18.7489 18 18.3764 18 17.7998V12.2002ZM15 7C15 5.34315 13.6569 4 12 4C10.3432 4 9 5.34315 9 7V8H15V7ZM17 8.01855C17.0672 8.02211 17.1326 8.02515 17.1953 8.03027C17.5906 8.06258 17.984 8.1344 18.3623 8.32715C18.9265 8.61472 19.3853 9.07347 19.6729 9.6377C19.8656 10.016 19.9374 10.4094 19.9697 10.8047C20.0011 11.1884 20 11.6566 20 12.2002V17.7998C20 18.3434 20.0011 18.8116 19.9697 19.1953C19.9374 19.5906 19.8656 19.984 19.6729 20.3623C19.3853 20.9265 18.9265 21.3853 18.3623 21.6729C17.984 21.8656 17.5906 21.9374 17.1953 21.9697C16.8116 22.0011 16.3434 22 15.7998 22H8.2002C7.65665 22 7.18836 22.0011 6.80469 21.9697C6.40943 21.9374 6.016 21.8656 5.6377 21.6729C5.07348 21.3853 4.61473 20.9265 4.32715 20.3623C4.1344 19.984 4.06259 19.5906 4.03028 19.1953C3.99893 18.8116 4 18.3434 4 17.7998V12.2002C4 11.6566 3.99893 11.1884 4.03028 10.8047C4.06259 10.4094 4.1344 10.016 4.32715 9.6377C4.61473 9.07347 5.07348 8.61472 5.6377 8.32715C6.016 8.1344 6.40943 8.06258 6.80469 8.03027C6.86745 8.02515 6.93279 8.02211 7 8.01855V7C7 4.23858 9.23858 2 12 2C14.7614 2 17 4.23858 17 7V8.01855Z" fill="currentColor"/>
<path d="M11 14.5V13C11 12.4477 11.4477 12 12 12C12.5523 12 13 12.4477 13 13V14.5C13 15.0523 12.5523 15.5 12 15.5C11.4477 15.5 11 15.0523 11 14.5Z" fill="currentColor"/>
</g>
<defs>
<clipPath id="clip0_4181_184414">
<rect width="24" height="24" fill="white"/>
</clipPath>
</defs>
</svg>
