<svg width="20" height="20" viewBox="0 0 20 20" fill="none" xmlns="http://www.w3.org/2000/svg">
<path d="M4.99981 14.8331V14.1666C4.99981 13.7064 5.37291 13.3333 5.83315 13.3333C6.29325 13.3334 6.66648 13.7065 6.66648 14.1666V14.8331C6.66648 15.3136 6.66672 15.624 6.68601 15.8602C6.70451 16.0865 6.73582 16.1705 6.75681 16.2117C6.83671 16.3685 6.9646 16.4956 7.1214 16.5755C7.16261 16.5965 7.24661 16.6278 7.47296 16.6463C7.70899 16.6656 8.01904 16.6666 8.49916 16.6666H14.833C15.3134 16.6666 15.6239 16.6656 15.86 16.6463C16.0861 16.6278 16.1704 16.5965 16.2116 16.5755C16.3681 16.4956 16.4955 16.3683 16.5753 16.2117C16.5963 16.1705 16.6276 16.0865 16.6461 15.8602C16.6654 15.624 16.6665 15.3136 16.6665 14.8331V5.16679C16.6665 4.68633 16.6654 4.37589 16.6461 4.13977C16.6276 3.91343 16.5963 3.82941 16.5753 3.78821C16.4955 3.63159 16.3681 3.50433 16.2116 3.42444C16.1704 3.40346 16.0861 3.37214 15.86 3.35364C15.6239 3.33435 15.3134 3.3333 14.833 3.3333H8.49916C8.01904 3.3333 7.70899 3.33437 7.47296 3.35364C7.24661 3.37213 7.16261 3.40345 7.1214 3.42444C6.96459 3.50434 6.83671 3.63141 6.75681 3.78821C6.73582 3.82942 6.70451 3.91344 6.68601 4.13977C6.66672 4.37589 6.66648 4.68633 6.66648 5.16679V5.8333C6.66648 6.29344 6.29325 6.66648 5.83315 6.66663C5.37291 6.66663 4.99981 6.29353 4.99981 5.8333V5.16679C4.99981 4.71383 4.99892 4.3236 5.02504 4.00387C5.05197 3.6745 5.111 3.34662 5.27162 3.03138C5.5113 2.56102 5.8942 2.17893 6.36456 1.93925C6.67988 1.77859 7.0076 1.71877 7.33705 1.69186C7.65668 1.66575 8.04639 1.66663 8.49916 1.66663H14.833C15.2857 1.66663 15.6755 1.66576 15.9951 1.69186C16.3245 1.71877 16.6523 1.77865 16.9676 1.93925C17.4379 2.17891 17.8208 2.56105 18.0605 3.03138C18.2211 3.34661 18.2802 3.6745 18.3071 4.00387C18.3332 4.3236 18.3331 4.71383 18.3331 5.16679V14.8331C18.3331 15.2861 18.3332 15.6763 18.3071 15.9961C18.2802 16.3254 18.2211 16.6533 18.0605 16.9686C17.8208 17.4389 17.4379 17.821 16.9676 18.0607C16.6523 18.2213 16.3245 18.2812 15.9951 18.3081C15.6755 18.3342 15.2857 18.3333 14.833 18.3333H8.49916C8.04639 18.3333 7.65668 18.3342 7.33705 18.3081C7.0076 18.2812 6.67988 18.2213 6.36456 18.0607C5.8942 17.821 5.5113 17.4389 5.27162 16.9686C5.111 16.6533 5.05197 16.3254 5.02504 15.9961C4.99892 15.6763 4.99981 15.2861 4.99981 14.8331ZM2.63979 7.03772C2.89511 6.65489 3.41249 6.55134 3.79539 6.8066C4.17812 7.06191 4.28165 7.57934 4.02651 7.9622L3.22328 9.16663H11.6665C12.1266 9.16678 12.4998 9.53982 12.4998 9.99996C12.4998 10.4601 12.1266 10.8331 11.6665 10.8333H3.22328L4.02651 12.0377C4.28165 12.4206 4.17812 12.938 3.79539 13.1933C3.41249 13.4486 2.89511 13.345 2.63979 12.9622L1.12693 10.6933C0.847013 10.2734 0.847013 9.72648 1.12693 9.3066L2.63979 7.03772Z" fill="#9AA3AF"/>
</svg>
