<svg width="100%" height="100%" viewBox="0 0 24 24" fill="none" xmlns="http://www.w3.org/2000/svg">
<path d="M20.6006 11.9996C20.6004 7.25016 16.7495 3.40002 12 3.40002C7.25066 3.40024 3.4006 7.25029 3.40039 11.9996C3.40039 16.7492 7.25053 20.6 12 20.6002C16.7496 20.6002 20.6006 16.7493 20.6006 11.9996ZM15.3281 14.2848C15.8804 14.2848 16.3281 14.7325 16.3281 15.2848C16.328 15.837 15.8804 16.2848 15.3281 16.2848H8.67188C8.11982 16.2846 7.67196 15.8369 7.67188 15.2848C7.67188 14.7326 8.11977 14.285 8.67188 14.2848H15.3281ZM9.21582 8.11975C9.76801 8.11975 10.2157 8.56759 10.2158 9.11975V9.1969C10.2158 9.74918 9.7681 10.1969 9.21582 10.1969H9.12012C8.56796 10.1968 8.12012 9.74909 8.12012 9.1969V9.11975C8.12026 8.56768 8.56805 8.1199 9.12012 8.11975H9.21582ZM14.9658 8.11975C15.5178 8.11998 15.9657 8.56773 15.9658 9.11975V9.1969C15.9658 9.74904 15.5179 10.1967 14.9658 10.1969H14.8809C14.3286 10.1969 13.8809 9.74918 13.8809 9.1969V9.11975C13.881 8.56759 14.3287 8.11975 14.8809 8.11975H14.9658ZM22.6006 11.9996C22.6006 17.8539 17.8542 22.6002 12 22.6002C6.14596 22.6 1.40039 17.8537 1.40039 11.9996C1.4006 6.14572 6.14609 1.40024 12 1.40002C17.8541 1.40002 22.6004 6.14559 22.6006 11.9996Z" fill="currentColor"/>
</svg>
