<svg width="100%" height="100%" viewBox="0 0 24 24" fill="none" xmlns="http://www.w3.org/2000/svg">
<path d="M20.6006 11.9996C20.6004 7.25016 16.7495 3.40002 12 3.40002C7.25066 3.40024 3.4006 7.25029 3.40039 11.9996C3.40039 16.7492 7.25053 20.6 12 20.6002C16.7497 20.6002 20.6006 16.7493 20.6006 11.9996ZM14.4785 14.3932C14.7692 13.9236 15.3849 13.7784 15.8545 14.069C16.3241 14.3597 16.4694 14.9763 16.1787 15.4459C15.3089 16.8508 13.7684 17.8004 12 17.8004C10.2318 17.8003 8.692 16.8507 7.82227 15.4459C7.53158 14.9763 7.67689 14.3597 8.14648 14.069C8.61604 13.7785 9.23184 13.9237 9.52246 14.3932C10.0525 15.2494 10.9704 15.8003 12 15.8004C13.0297 15.8004 13.9484 15.2496 14.4785 14.3932ZM9.21582 8.11975C9.76801 8.11975 10.2157 8.56759 10.2158 9.11975V9.1969C10.2158 9.74918 9.7681 10.1969 9.21582 10.1969H9.12012C8.56796 10.1968 8.12012 9.74909 8.12012 9.1969V9.11975C8.12026 8.56768 8.56805 8.1199 9.12012 8.11975H9.21582ZM14.9658 8.11975C15.5178 8.11998 15.9657 8.56773 15.9658 9.11975V9.1969C15.9658 9.74904 15.5179 10.1967 14.9658 10.1969H14.8809C14.3286 10.1969 13.8809 9.74918 13.8809 9.1969V9.11975C13.881 8.56759 14.3287 8.11975 14.8809 8.11975H14.9658ZM22.6006 11.9996C22.6006 17.8539 17.8542 22.6002 12 22.6002C6.14596 22.6 1.40039 17.8537 1.40039 11.9996C1.4006 6.14573 6.14609 1.40024 12 1.40002C17.8541 1.40002 22.6004 6.1456 22.6006 11.9996Z" fill="currentColor"/>
</svg>
