<svg width="100%" height="100%" viewBox="0 0 24 24" fill="none" xmlns="http://www.w3.org/2000/svg">
<path d="M20.6006 11.9996C20.6004 7.25016 16.7495 3.40002 12 3.40002C7.25066 3.40024 3.4006 7.25029 3.40039 11.9996C3.40039 16.7492 7.25053 20.6 12 20.6002C16.7496 20.6002 20.6006 16.7493 20.6006 11.9996ZM14.4785 14.2731C14.7692 13.8035 15.3849 13.6583 15.8545 13.9489C16.3241 14.2395 16.4694 14.8562 16.1787 15.3258C15.3089 16.7308 13.7684 17.6803 12 17.6803C10.2317 17.6802 8.69201 16.7306 7.82227 15.3258C7.53164 14.8563 7.67615 14.2396 8.14551 13.9489C8.61511 13.6582 9.23178 13.8035 9.52246 14.2731C10.0525 15.1293 10.9704 15.6802 12 15.6803C13.0298 15.6803 13.9484 15.1295 14.4785 14.2731ZM14.9658 7.99963C15.5178 7.99986 15.9656 8.44767 15.9658 8.99963V9.07678C15.9658 9.62893 15.5179 10.0766 14.9658 10.0768H14.8809C14.3286 10.0768 13.8809 9.62907 13.8809 9.07678V8.99963C13.8811 8.44753 14.3287 7.99963 14.8809 7.99963H14.9658ZM9.79883 7.99963C10.351 7.99963 10.7986 8.44753 10.7988 8.99963C10.7988 9.55192 10.3511 9.99963 9.79883 9.99963H7.80078C7.2485 9.99963 6.80078 9.55192 6.80078 8.99963C6.80099 8.44753 7.24863 7.99963 7.80078 7.99963H9.79883ZM22.6006 11.9996C22.6006 17.8539 17.8542 22.6002 12 22.6002C6.14596 22.6 1.40039 17.8537 1.40039 11.9996C1.4006 6.14572 6.14609 1.40024 12 1.40002C17.8541 1.40002 22.6004 6.14559 22.6006 11.9996Z" fill="currentColor"/>
</svg>
