<svg width="24" height="24" viewBox="0 0 24 24" fill="none" xmlns="http://www.w3.org/2000/svg">
<path d="M2 12C2 6.47715 6.47715 2 12 2C15.7025 2 18.9335 4.01283 20.6611 6.99902C20.8676 7.3559 21.0529 7.72715 21.2148 8.11035C21.4297 8.61897 21.1921 9.20583 20.6836 9.4209C20.175 9.63578 19.5881 9.3981 19.373 8.88965C19.2437 8.58349 19.0958 8.28644 18.9307 8.00098C17.5459 5.60716 14.9599 4 12 4C7.58172 4 4 7.58172 4 12C4 13.0303 4.19391 14.0132 4.54688 14.915C4.74847 15.4302 4.85191 16.0278 4.74805 16.6445L4.21875 19.7803L7.35547 19.252C7.97224 19.1481 8.56979 19.2515 9.08496 19.4531C9.31076 19.5415 9.54211 19.6196 9.77734 19.6875C10.3079 19.8407 10.614 20.3952 10.4609 20.9258C10.3077 21.4563 9.75321 21.7625 9.22266 21.6094C8.92809 21.5244 8.63914 21.4261 8.35645 21.3154C8.10796 21.2182 7.87937 21.1923 7.6875 21.2246L3.8584 21.8691C2.84162 22.0401 1.95987 21.1584 2.13086 20.1416L2.77539 16.3125C2.8077 16.1206 2.78183 15.892 2.68457 15.6436C2.24217 14.5133 2 13.2837 2 12ZM12 13C12.5523 13 13 13.4477 13 14C13 14.5523 12.5523 15 12 15H8C7.44772 15 7 14.5523 7 14C7 13.4477 7.44772 13 8 13H12ZM16 9C16.5523 9 17 9.44772 17 10C17 10.5523 16.5523 11 16 11H8C7.44772 11 7 10.5523 7 10C7 9.44772 7.44772 9 8 9H16Z" fill="#9AA3AF"/>
<path d="M19.0477 11.2324C19.6731 10.9225 20.4077 10.9226 21.0331 11.2324C21.3075 11.3684 21.5476 11.5843 21.7684 11.8017L22.1981 12.2314C22.4156 12.4523 22.6315 12.6924 22.7675 12.9668C23.0773 13.5922 23.0773 14.3268 22.7675 14.9521C22.6315 15.2263 22.4154 15.4658 22.1981 15.6865L17.371 20.5137C17.2669 20.6177 17.1503 20.7376 17.0135 20.8408C16.9032 20.9241 16.7849 20.9971 16.661 21.0586C16.5073 21.1349 16.3477 21.1858 16.2079 21.2324L14.8192 21.6953C14.5365 21.7895 14.2591 21.8832 14.0282 21.9375C13.812 21.9883 13.4462 22.0561 13.0614 21.9189C12.604 21.7558 12.244 21.3958 12.0809 20.9385C11.9437 20.5537 12.0116 20.1878 12.0624 19.9717C12.1167 19.7408 12.2103 19.4633 12.3046 19.1806L12.7675 17.792C12.814 17.6522 12.865 17.4926 12.9413 17.3388C13.0028 17.215 13.0758 17.0967 13.1591 16.9863C13.2623 16.8496 13.3822 16.7329 13.4862 16.6289L18.3134 11.8017C18.5341 11.5844 18.7735 11.3684 19.0477 11.2324ZM20.1454 13.0244C20.0796 12.9918 20.0022 12.9919 19.9364 13.0244C19.9595 13.0129 19.9482 13.0119 19.8729 13.0791C19.792 13.1513 19.6889 13.2544 19.5126 13.4306L14.9003 18.0429C14.8355 18.1078 14.8008 18.1429 14.7753 18.1699C14.7643 18.1815 14.7583 18.1884 14.7557 18.1914C14.747 18.203 14.7388 18.2154 14.7323 18.2285C14.7307 18.2323 14.7278 18.2404 14.7225 18.2549C14.7098 18.2899 14.6941 18.3373 14.6649 18.4248L14.2089 19.79L15.5751 19.3349C15.6625 19.3058 15.71 19.2901 15.745 19.2773C15.7594 19.2721 15.7676 19.2691 15.7714 19.2676C15.7844 19.2611 15.7968 19.2529 15.8085 19.2441C15.8115 19.2415 15.8184 19.2355 15.83 19.2246C15.857 19.199 15.8921 19.1644 15.9569 19.0996L20.5692 14.4873C20.7455 14.311 20.8486 14.2078 20.9208 14.1269C20.9879 14.0517 20.9869 14.0404 20.9755 14.0635C21.008 13.9976 21.0081 13.9203 20.9755 13.8545C20.9871 13.8779 20.9883 13.8667 20.9208 13.791C20.8485 13.7101 20.7456 13.607 20.5692 13.4306C20.3928 13.2543 20.2898 13.1513 20.2089 13.0791C20.1332 13.0115 20.122 13.0128 20.1454 13.0244Z" fill="#9AA3AF"/>
</svg>
