<svg width="100%" height="100%" viewBox="0 0 24 24" fill="none" xmlns="http://www.w3.org/2000/svg">
<path d="M20.1924 14.8932C20.5829 14.5027 21.2169 14.5027 21.6074 14.8932C21.9975 15.2837 21.9978 15.9169 21.6074 16.3073L16.8066 21.1071C16.6191 21.2945 16.3647 21.4 16.0996 21.4C15.8345 21.3999 15.58 21.2945 15.3926 21.1071L13.1934 18.9069C12.8028 18.5163 12.8028 17.8833 13.1934 17.4928C13.5839 17.1026 14.217 17.1024 14.6074 17.4928L16.0996 18.985L20.1924 14.8932ZM10.9004 13.4C11.4525 13.4002 11.9004 13.8479 11.9004 14.4C11.9004 14.9522 11.4525 15.3998 10.9004 15.4H7.2998C6.7476 15.3999 6.29981 14.9522 6.2998 14.4C6.2998 13.8478 6.7476 13.4001 7.2998 13.4H10.9004ZM17.7002 11.4V4.80042C17.7002 4.02722 17.073 3.40002 16.2998 3.40002H5.5C4.72681 3.40002 4.09961 4.02722 4.09961 4.80042V19.1998C4.0996 19.973 4.7268 20.6002 5.5 20.6002H10.2998C10.852 20.6003 11.2998 21.048 11.2998 21.6002C11.2997 22.1523 10.8519 22.6001 10.2998 22.6002H5.5C3.62223 22.6002 2.0996 21.0776 2.09961 19.1998V4.80042C2.09962 2.92266 3.62224 1.40002 5.5 1.40002H16.2998C18.1776 1.40002 19.7002 2.92265 19.7002 4.80042V11.4C19.7002 11.9522 19.2524 12.3999 18.7002 12.4C18.1479 12.4 17.7002 11.9523 17.7002 11.4ZM14.5 9.80042C15.0523 9.80042 15.5 10.2481 15.5 10.8004C15.4998 11.3525 15.0521 11.8004 14.5 11.8004H7.2998C6.74773 11.8003 6.30002 11.3525 6.2998 10.8004C6.2998 10.2482 6.7476 9.80051 7.2998 9.80042H14.5ZM14.5 6.19983C15.0522 6.19984 15.4999 6.64764 15.5 7.19983C15.5 7.75211 15.0523 8.19982 14.5 8.19983H7.2998C6.7476 8.19973 6.2998 7.75205 6.2998 7.19983C6.29991 6.64769 6.74767 6.19993 7.2998 6.19983H14.5Z" fill="currentColor"/>
</svg>
