<svg width="27" height="27" viewBox="0 0 27 27" fill="none" xmlns="http://www.w3.org/2000/svg">
<path d="M8 11C8 9.89543 7.10457 9 6 9C4.89543 9 4 9.89543 4 11C4 12.1046 4.89543 13 6 13V15C3.79086 15 2 13.2091 2 11C2 8.79086 3.79086 7 6 7C8.20914 7 10 8.79086 10 11C10 13.2091 8.20914 15 6 15V13C7.10457 13 8 12.1046 8 11Z" fill="#9AA3AF"/>
<path d="M20 19C20 17.8954 19.1046 17 18 17C16.8954 17 16 17.8954 16 19C16 20.1046 16.8954 21 18 21V23C15.7909 23 14 21.2091 14 19C14 16.7909 15.7909 15 18 15C20.2091 15 22 16.7909 22 19C22 21.2091 20.2091 23 18 23V21C19.1046 21 20 20.1046 20 19Z" fill="#9AA3AF"/>
<path d="M21 10C21.5523 10 22 10.4477 22 11C22 11.5523 21.5523 12 21 12H9C8.44772 12 8 11.5523 8 11C8 10.4477 8.44772 10 9 10H21Z" fill="#9AA3AF"/>
<path d="M15 18C15.5523 18 16 18.4477 16 19C16 19.5523 15.5523 20 15 20H3C2.44772 20 2 19.5523 2 19C2 18.4477 2.44772 18 3 18H15Z" fill="#9AA3AF"/>
<circle cx="24" cy="3" r="3" fill="#00B1BD"/>
</svg>
