<svg width="17" height="10" viewBox="0 0 17 10" fill="none" xmlns="http://www.w3.org/2000/svg">
<path d="M13.333 0C15.1738 0 16.6668 1.49221 16.667 3.33301V6.66699C16.6668 8.50779 15.1738 10 13.333 10H3.33301C1.49232 9.99982 0.000175795 8.50768 0 6.66699V3.33301C0.000175795 1.49232 1.49232 0.000175994 3.33301 0H13.333ZM5 2.5C3.61929 2.5 2.5 3.61929 2.5 5C2.5 6.38071 3.61929 7.5 5 7.5H11.667C13.0476 7.49982 14.167 6.3806 14.167 5C14.167 3.6194 13.0476 2.50018 11.667 2.5H5Z" fill="#9AA3AF"/>
</svg>
