<svg width="24" height="24" viewBox="0 0 24 24" fill="none" xmlns="http://www.w3.org/2000/svg">
<path d="M21.5 12.2514C21.5 11.5764 21.435 10.8797 21.3266 10.2266H11.9417V14.0802H17.3169C17.1001 15.3213 16.3849 16.4099 15.3228 17.1066L18.5306 19.6104C20.4163 17.8468 21.5 15.2777 21.5 12.2514Z" fill="#4280EF"/>
<path d="M11.9441 22.001C14.6317 22.001 16.8858 21.1084 18.5331 19.5843L15.3253 17.1023C14.4366 17.7119 13.2879 18.0603 11.9441 18.0603C9.34316 18.0603 7.15406 16.2967 6.35211 13.9453L3.05762 16.4927C4.74821 19.8674 8.17275 22.001 11.9441 22.001Z" fill="#34A353"/>
<path d="M6.35111 13.9167C5.9393 12.6756 5.9393 11.3258 6.35111 10.0847L3.05662 7.51562C1.64779 10.346 1.64779 13.6772 3.05662 16.4858L6.35111 13.9167Z" fill="#F6B704"/>
<path d="M11.9441 5.96292C13.3529 5.94115 14.7401 6.48546 15.7587 7.46521L18.5981 4.59127C16.7991 2.89304 14.4149 1.97861 11.9441 2.00038C8.17275 2.00038 4.74821 4.13406 3.05762 7.50875L6.35211 10.0779C7.15406 7.7047 9.34316 5.96292 11.9441 5.96292Z" fill="#E54335"/>
</svg>
