<svg width="20" height="20" viewBox="0 0 20 20" fill="none" xmlns="http://www.w3.org/2000/svg">
<path d="M15.001 5C16.8418 5 18.3348 6.49221 18.335 8.33301V11.667C18.3348 13.5078 16.8418 15 15.001 15H5.00098C3.16029 14.9998 1.66814 13.5077 1.66797 11.667V8.33301C1.66814 6.49232 3.16029 5.00018 5.00098 5H15.001ZM6.66797 7.5C5.28726 7.5 4.16797 8.61929 4.16797 10C4.16797 11.3807 5.28726 12.5 6.66797 12.5C8.04868 12.5 9.16797 11.3807 9.16797 10C9.16797 8.61929 8.04868 7.5 6.66797 7.5ZM13.335 7.5C11.9542 7.5 10.835 8.61929 10.835 10C10.835 11.3807 11.9542 12.5 13.335 12.5C14.7155 12.4998 15.835 11.3806 15.835 10C15.835 8.6194 14.7155 7.50018 13.335 7.5Z" fill="#9AA3AF"/>
</svg>
