<svg width="100%" height="100%" viewBox="0 0 24 24" fill="none" xmlns="http://www.w3.org/2000/svg">
<path d="M21 12C21 7.02944 16.9706 3 12 3C7.02944 3 3 7.02944 3 12C3 16.9706 7.02944 21 12 21C16.9706 21 21 16.9706 21 12ZM11 16.0098V11.0098C11 10.4575 11.4477 10.0098 12 10.0098C12.5523 10.0098 13 10.4575 13 11.0098V16.0098C13 16.5621 12.5523 17.0098 12 17.0098C11.4477 17.0098 11 16.5621 11 16.0098ZM11 8.00977V8C11 7.44772 11.4477 7 12 7C12.5523 7 13 7.44772 13 8V8.00977C13 8.56205 12.5523 9.00977 12 9.00977C11.4477 9.00977 11 8.56205 11 8.00977ZM23 12C23 18.0751 18.0751 23 12 23C5.92487 23 1 18.0751 1 12C1 5.92487 5.92487 1 12 1C18.0751 1 23 5.92487 23 12Z" fill="currentColor"/>
</svg>
