<svg width="100%" height="100%" viewBox="0 0 24 24" fill="none" xmlns="http://www.w3.org/2000/svg">
<path d="M8.33317 12.0067C8.32961 9.98201 9.96835 8.33721 11.9927 8.33369C14.0174 8.32973 15.6625 9.96775 15.6665 11.9929C15.6704 14.018 14.0317 15.6624 12.0066 15.6664C9.98223 15.6702 8.33708 14.0319 8.33317 12.0067ZM6.35197 12.0107C6.35803 15.1303 8.89168 17.6537 12.0105 17.6476C15.1297 17.6415 17.6545 15.1086 17.6484 11.989C17.6424 8.87041 15.1084 6.34561 11.9888 6.35171C8.8699 6.35777 6.34591 8.89177 6.35197 12.0107ZM16.54 6.12002C16.5415 6.84851 17.1337 7.43839 17.8623 7.43697C18.5911 7.43551 19.181 6.84353 19.1799 6.11504C19.1785 5.38654 18.5861 4.79632 17.8573 4.79779C17.1285 4.7992 16.5386 5.39153 16.54 6.12002ZM7.57262 20.9614C6.50021 20.9148 5.91785 20.7365 5.52976 20.5872C5.01581 20.3884 4.64907 20.1499 4.26308 19.7668C3.87782 19.3822 3.63866 19.0165 3.43799 18.5037C3.28726 18.1155 3.10584 17.5339 3.05557 16.4615C3.00104 15.3021 2.98858 14.9542 2.98325 12.0171C2.97754 9.0807 2.98824 8.73282 3.03886 7.57237C3.08479 6.50068 3.2641 5.91755 3.41307 5.5298C3.61193 5.01516 3.84968 4.64911 4.23352 4.26317C4.61805 3.87718 4.98371 3.63875 5.49693 3.43808C5.88472 3.28657 6.46635 3.10658 7.53842 3.05566C8.69849 3.00075 9.04598 2.98901 11.9824 2.9833C14.9194 2.97758 15.2673 2.98794 16.4278 3.0389C17.4994 3.08557 18.0825 3.26307 18.4699 3.41312C18.9842 3.61198 19.3509 3.84903 19.7366 4.23356C20.1222 4.61813 20.3613 4.98307 20.562 5.4974C20.7134 5.88408 20.8935 6.46644 20.9441 7.53816C20.9993 8.69824 21.0118 9.04611 21.0171 11.9825C21.0228 14.9196 21.0121 15.2675 20.9612 16.4273C20.9145 17.4997 20.7366 18.0824 20.587 18.4709C20.3881 18.9845 20.1504 19.3512 19.7661 19.7372C19.382 20.1217 19.0163 20.3616 18.5027 20.5623C18.1156 20.7134 17.5333 20.8937 16.462 20.9447C15.3019 20.9992 14.9544 21.0117 12.0169 21.017C9.08053 21.0228 8.73308 21.0117 7.57262 20.9614ZM7.44432 1.07617C6.27389 1.13143 5.4745 1.31886 4.77591 1.59261C4.05279 1.87453 3.4398 2.25231 2.83003 2.86462C2.21948 3.47727 1.84454 4.09134 1.56477 4.81519C1.29393 5.51554 1.11037 6.31531 1.05868 7.48647C1.00738 8.65978 0.995602 9.03399 1.00132 12.021C1.00703 15.0077 1.02018 15.3826 1.07613 16.5563C1.13207 17.7264 1.31886 18.5254 1.59257 19.2243C1.87483 19.9475 2.25227 20.5602 2.86492 21.1703C3.47722 21.7805 4.09168 22.1551 4.81587 22.4352C5.51549 22.7057 6.31557 22.89 7.48639 22.9413C8.65965 22.993 9.03421 23.0044 12.0205 22.9987C15.0082 22.993 15.3828 22.9798 16.5561 22.9242C17.7265 22.8682 18.5252 22.6808 19.2244 22.4077C19.9476 22.1248 20.5606 21.748 21.1704 21.1354C21.7802 20.523 22.1551 19.9086 22.4349 19.1844C22.7058 18.4848 22.89 17.6846 22.9409 16.5146C22.9923 15.3406 23.0044 14.9656 22.9987 11.9789C22.993 8.99193 22.9795 8.61771 22.9239 7.44479C22.8683 6.27364 22.6808 5.47493 22.4074 4.77566C22.1248 4.05254 21.7478 3.44019 21.1355 2.82969C20.5232 2.21987 19.9087 1.8442 19.1845 1.56516C18.4846 1.29428 17.6848 1.10969 16.514 1.05907C15.3407 1.00704 14.9661 0.995649 11.9788 1.00132C8.99214 1.00704 8.61758 1.01984 7.44432 1.07617Z" fill="#6A7381"/>
</svg>
