<svg width="100%" height="100%" viewBox="0 0 24 24" fill="none" xmlns="http://www.w3.org/2000/svg">
<g clip-path="url(#clip0_3000_219959)">
<path d="M11.9951 0.849609C18.6192 0.849609 24 5.11611 24 10.375C23.9997 15.6336 18.6286 19.8944 12.0049 19.8945C11.2794 19.8945 10.5625 19.8449 9.87305 19.7451C9.17461 20.2347 5.18245 23.0597 4.80371 23.1143C4.80011 23.1156 4.64472 23.1716 4.51562 23.0957C4.38495 23.0186 4.40723 22.8145 4.40723 22.8145L5.62402 18.4395C2.24441 16.7485 4.17911e-05 13.7702 0 10.3701C0 5.11132 5.37118 0.849771 11.9951 0.849609ZM3.58594 7.52246C3.2165 7.52254 2.91016 7.82592 2.91016 8.20215C2.91016 8.57838 3.21199 8.88176 3.58594 8.88184H4.66797V13.0215C4.66808 13.3876 4.97688 13.6849 5.3584 13.6865C5.73624 13.6858 6.05067 13.3836 6.05078 13.0215V8.88184H7.13281C7.50216 8.88164 7.80859 8.57831 7.80859 8.20215C7.80859 7.82598 7.50666 7.52265 7.13281 7.52246H3.58594ZM9.45801 7.52637C9.0074 7.53543 8.65135 7.88035 8.53418 8.21582L6.87988 12.5996C6.66822 13.2566 6.85284 13.4971 7.04199 13.5879C7.18168 13.6468 7.33116 13.6787 7.48438 13.6787C7.77256 13.6786 7.99299 13.5604 8.06055 13.3701L8.40332 12.4639H10.5117L10.8545 13.3701C10.9221 13.5605 11.1432 13.6787 11.4316 13.6787C11.5848 13.6787 11.7379 13.6513 11.873 13.5879C12.0623 13.5062 12.2469 13.2569 12.0352 12.5996L10.3818 8.21582C10.2692 7.88043 9.90846 7.5175 9.45801 7.52637ZM16.9922 7.52246C16.6137 7.52246 16.2979 7.83535 16.2979 8.2207V12.9805C16.2979 13.9063 17.6855 13.8714 17.6855 12.9668V11.4482L17.9248 11.208L19.5469 13.3701C19.7646 13.6571 20.2115 13.7332 20.5156 13.5068C20.8241 13.2905 20.8801 12.8309 20.6514 12.5361L18.9473 10.2695L20.5342 8.68262C20.7734 8.43748 20.7137 8.0471 20.4844 7.81641C20.2403 7.57105 19.8374 7.55244 19.624 7.7666L17.6855 9.7168V8.2207C17.6855 7.83994 17.3706 7.52256 16.9922 7.52246ZM13.1934 7.51758C12.8013 7.51758 12.4854 7.83047 12.4854 8.21582V12.9531C12.4854 13.3022 12.7879 13.5879 13.1484 13.5879L15.3701 13.5742C15.735 13.574 16.0322 13.2884 16.0322 12.9395C16.0321 12.5906 15.7304 12.3049 15.3701 12.3047H13.9004V8.21582C13.9004 7.83502 13.5854 7.51761 13.1934 7.51758ZM10.1475 11.2305H8.76855L9.45801 9.25391L10.1475 11.2305Z" fill="currentColor"/>
</g>
<defs>
<clipPath id="clip0_3000_219959">
<rect width="24" height="24" fill="white"/>
</clipPath>
</defs>
</svg>
