<svg width="24" height="24" viewBox="0 0 24 24" fill="none" xmlns="http://www.w3.org/2000/svg">
<g clip-path="url(#clip0_3929_7965)">
<path d="M11.9951 0.851562C18.6192 0.851562 24 5.11806 24 10.377C23.9997 15.6355 18.6286 19.8963 12.0049 19.8965C11.2794 19.8965 10.5625 19.8468 9.87305 19.7471C9.17461 20.2367 5.18245 23.0616 4.80371 23.1162C4.80012 23.1175 4.64472 23.1735 4.51562 23.0977C4.38495 23.0206 4.40723 22.8164 4.40723 22.8164L5.62402 18.4414C2.24441 16.7504 4.16547e-05 13.7722 0 10.3721C0 5.11328 5.37118 0.851724 11.9951 0.851562ZM3.58594 7.52441C3.2165 7.5245 2.91016 7.82787 2.91016 8.2041C2.91016 8.58033 3.21199 8.88371 3.58594 8.88379H4.66797V13.0234C4.66808 13.3896 4.97688 13.6869 5.3584 13.6885C5.73624 13.6877 6.05067 13.3856 6.05078 13.0234V8.88379H7.13281C7.50216 8.8836 7.80859 8.58026 7.80859 8.2041C7.80859 7.82794 7.50666 7.5246 7.13281 7.52441H3.58594ZM9.45801 7.52832C9.0074 7.53739 8.65135 7.8823 8.53418 8.21777L6.87988 12.6016C6.66822 13.2585 6.85284 13.4991 7.04199 13.5898C7.18168 13.6488 7.33116 13.6807 7.48438 13.6807C7.77256 13.6805 7.99299 13.5624 8.06055 13.3721L8.40332 12.4658H10.5117L10.8545 13.3721C10.9221 13.5625 11.1432 13.6807 11.4316 13.6807C11.5848 13.6806 11.7379 13.6533 11.873 13.5898C12.0623 13.5082 12.2469 13.2588 12.0352 12.6016L10.3818 8.21777C10.2692 7.88238 9.90846 7.51945 9.45801 7.52832ZM16.9922 7.52441C16.6137 7.52441 16.2979 7.83731 16.2979 8.22266V12.9824C16.2979 13.9083 17.6855 13.8734 17.6855 12.9688V11.4502L17.9248 11.21L19.5469 13.3721C19.7646 13.6591 20.2115 13.7351 20.5156 13.5088C20.8241 13.2925 20.8801 12.8328 20.6514 12.5381L18.9473 10.2715L20.5342 8.68457C20.7734 8.43944 20.7137 8.04905 20.4844 7.81836C20.2403 7.57301 19.8374 7.55439 19.624 7.76855L17.6855 9.71875V8.22266C17.6855 7.8419 17.3706 7.52451 16.9922 7.52441ZM13.1934 7.51953C12.8013 7.51953 12.4854 7.83242 12.4854 8.21777V12.9551C12.4854 13.3042 12.7879 13.5898 13.1484 13.5898L15.3701 13.5762C15.735 13.576 16.0322 13.2904 16.0322 12.9414C16.0321 12.5925 15.7304 12.3068 15.3701 12.3066H13.9004V8.21777C13.9004 7.83698 13.5854 7.51957 13.1934 7.51953ZM10.1475 11.2324H8.76855L9.45801 9.25586L10.1475 11.2324Z" fill="currentColor"/>
</g>
<defs>
<clipPath id="clip0_3929_7965">
<rect width="24" height="24" fill="white"/>
</clipPath>
</defs>
</svg>
