<svg width="100%" height="100%" viewBox="0 0 24 24" fill="none" xmlns="http://www.w3.org/2000/svg">
<path d="M12.9441 8.11994V6.52151C12.944 5.57629 12.5521 4.66166 11.8414 3.98088C11.7809 3.92292 11.694 3.89258 11.5977 3.90236C11.5013 3.91228 11.4281 3.95794 11.3867 4.01955L7.13047 10.3617C6.97842 10.5883 6.89967 10.8485 6.89961 11.1106V18.6879C6.89961 19.4314 7.54075 20.1 8.41367 20.1H17.9352C18.6748 20.1 19.2717 19.6097 19.4152 18.9821L21.0934 11.6344C21.1084 11.5684 21.0938 11.5027 21.043 11.4422C20.991 11.3804 20.9054 11.3321 20.7922 11.3321H16.257C14.4642 11.3318 12.9441 9.92976 12.9441 8.11994ZM2.09961 20.0004V11.0004C2.09961 10.5034 2.50255 10.1004 2.99961 10.1004C3.49667 10.1004 3.89961 10.5034 3.89961 11.0004V20.0004C3.8994 20.4973 3.49654 20.9004 2.99961 20.9004C2.50268 20.9004 2.09982 20.4973 2.09961 20.0004ZM14.7441 8.11994C14.7441 8.86332 15.3844 9.53178 16.257 9.53205H20.7922C22.0905 9.53205 23.153 10.7031 22.8488 12.0352L21.1707 19.3828C20.8292 20.8776 19.4638 21.9 17.9352 21.9H8.41367C6.62057 21.9 5.09961 20.4979 5.09961 18.6879V11.1106C5.09967 10.4863 5.28677 9.87768 5.63516 9.35861L9.89258 3.01643C10.6159 1.93899 12.1582 1.79207 13.0859 2.6801C14.1423 3.6919 14.744 5.07314 14.7441 6.52151V8.11994Z" fill="currentColor"/>
</svg>
