<svg width="100%" height="100%" viewBox="0 0 24 24" fill="none" xmlns="http://www.w3.org/2000/svg">
<path d="M7 14C7 11.2386 9.23858 9 12 9C12.5523 9 13 9.44772 13 10C13 10.5523 12.5523 11 12 11C10.3431 11 9 12.3431 9 14C9 15.6569 10.3431 17 12 17H18C19.6569 17 21 15.6569 21 14C21 12.6036 20.045 11.4279 18.751 11.0947C18.2162 10.9571 17.8938 10.4117 18.0312 9.87695C18.1689 9.3422 18.7143 9.01977 19.249 9.15723C21.4053 9.71222 23 11.6688 23 14C23 16.7614 20.7614 19 18 19H12C9.23858 19 7 16.7614 7 14ZM15 10C15 8.34315 13.6569 7 12 7H6C4.34315 7 3 8.34315 3 10C3 11.3964 3.95503 12.5721 5.24902 12.9053C5.78379 13.0429 6.10624 13.5883 5.96875 14.123C5.83111 14.6578 5.28573 14.9802 4.75098 14.8428C2.59466 14.2878 1 12.3312 1 10C1 7.23858 3.23858 5 6 5H12C14.7614 5 17 7.23858 17 10C17 12.7614 14.7614 15 12 15C11.4477 15 11 14.5523 11 14C11 13.4477 11.4477 13 12 13C13.6569 13 15 11.6569 15 10Z" fill="currentColor"/>
</svg>
