<svg width="20" height="20" viewBox="0 0 20 20" fill="none" xmlns="http://www.w3.org/2000/svg">
<path d="M16.75 6.66667C16.75 7.08088 17.0858 7.41667 17.5 7.41667C17.9142 7.41667 18.25 7.08088 18.25 6.66667H17.5H16.75ZM13.3333 1.75C12.9191 1.75 12.5833 2.08579 12.5833 2.5C12.5833 2.91421 12.9191 3.25 13.3333 3.25V2.5V1.75ZM9.46967 9.46967C9.17678 9.76256 9.17678 10.2374 9.46967 10.5303C9.76256 10.8232 10.2374 10.8232 10.5303 10.5303L10 10L9.46967 9.46967ZM17.4546 2.7275L16.7863 3.06799L16.7863 3.068L17.4546 2.7275ZM17.2725 2.54541L16.932 3.21367V3.21367L17.2725 2.54541ZM10 4.91667C10.4142 4.91667 10.75 4.58088 10.75 4.16667C10.75 3.75245 10.4142 3.41667 10 3.41667V4.16667V4.91667ZM16.5833 10C16.5833 9.58579 16.2475 9.25 15.8333 9.25C15.4191 9.25 15.0833 9.58579 15.0833 10H15.8333H16.5833ZM4.32003 17.1367L4.66052 16.4684H4.66052L4.32003 17.1367ZM2.86331 15.68L2.19506 16.0205L2.86331 15.68ZM14.0133 17.1367L13.6728 16.4684V16.4684L14.0133 17.1367ZM15.47 15.68L14.8018 15.3395V15.3395L15.47 15.68ZM2.86331 5.9867L2.19506 5.64621H2.19506L2.86331 5.9867ZM4.32003 4.52998L3.97954 3.86172V3.86172L4.32003 4.52998ZM17.5 6.66667H18.25V3.16667H17.5H16.75V6.66667H17.5ZM16.8333 2.5V1.75H13.3333V2.5V3.25H16.8333V2.5ZM17.378 2.62204L16.8476 2.09171L9.46967 9.46967L10 10L10.5303 10.5303L17.9083 3.15237L17.378 2.62204ZM17.5 3.16667H18.25C18.25 3.06236 18.2506 2.93903 18.2418 2.83193C18.2324 2.71607 18.2084 2.55493 18.1228 2.38701L17.4546 2.7275L16.7863 3.068C16.7462 2.98921 16.7449 2.93098 16.7468 2.95407C16.7477 2.96517 16.7488 2.98585 16.7494 3.02392C16.75 3.06197 16.75 3.10662 16.75 3.16667H17.5ZM16.8333 2.5V3.25C16.8934 3.25 16.938 3.25002 16.9761 3.25062C17.0141 3.25122 17.0348 3.25228 17.0459 3.25319C17.069 3.25507 17.0108 3.25381 16.932 3.21367L17.2725 2.54541L17.613 1.87716C17.4451 1.7916 17.2839 1.76763 17.1681 1.75817C17.061 1.74942 16.9376 1.75 16.8333 1.75V2.5ZM17.4546 2.7275L18.1228 2.38702C18.0669 2.27725 17.9943 2.17774 17.9083 2.09171L17.378 2.62204L16.8476 3.15237C16.8231 3.12779 16.8023 3.09935 16.7863 3.06799L17.4546 2.7275ZM17.378 2.62204L17.9083 2.09171C17.8223 2.00568 17.7227 1.93308 17.613 1.87716L17.2725 2.54541L16.932 3.21367C16.9006 3.19769 16.8722 3.17694 16.8476 3.15237L17.378 2.62204ZM10.5 17.5V16.75H7.83333V17.5V18.25H10.5V17.5ZM2.5 12.1667H3.25V9.5H2.5H1.75V12.1667H2.5ZM7.83333 4.16667V4.91667H10V4.16667V3.41667H7.83333V4.16667ZM15.8333 10H15.0833V12.1667H15.8333H16.5833V10H15.8333ZM7.83333 17.5V16.75C6.88754 16.75 6.2233 16.7494 5.70508 16.7071C5.19562 16.6655 4.89369 16.5872 4.66052 16.4684L4.32003 17.1367L3.97954 17.8049C4.45941 18.0494 4.98071 18.1529 5.58293 18.2021C6.1764 18.2506 6.91229 18.25 7.83333 18.25V17.5ZM2.5 12.1667H1.75C1.75 13.0877 1.74942 13.8236 1.7979 14.4171C1.84711 15.0193 1.95055 15.5406 2.19506 16.0205L2.86331 15.68L3.53157 15.3395C3.41276 15.1063 3.33455 14.8044 3.29292 14.2949C3.25058 13.7767 3.25 13.1125 3.25 12.1667H2.5ZM4.32003 17.1367L4.66052 16.4684C4.17444 16.2208 3.77924 15.8256 3.53157 15.3395L2.86331 15.68L2.19506 16.0205C2.58654 16.7888 3.21121 17.4135 3.97954 17.8049L4.32003 17.1367ZM10.5 17.5V18.25C11.421 18.25 12.1569 18.2506 12.7504 18.2021C13.3526 18.1529 13.8739 18.0494 14.3538 17.8049L14.0133 17.1367L13.6728 16.4684C13.4396 16.5872 13.1377 16.6655 12.6283 16.7071C12.11 16.7494 11.4458 16.75 10.5 16.75V17.5ZM15.8333 12.1667H15.0833C15.0833 13.1125 15.0827 13.7767 15.0404 14.2949C14.9988 14.8044 14.9206 15.1063 14.8018 15.3395L15.47 15.68L16.1383 16.0205C16.3828 15.5406 16.4862 15.0193 16.5354 14.4171C16.5839 13.8236 16.5833 13.0877 16.5833 12.1667H15.8333ZM14.0133 17.1367L14.3538 17.8049C15.1221 17.4135 15.7468 16.7888 16.1383 16.0205L15.47 15.68L14.8018 15.3395C14.5541 15.8256 14.1589 16.2208 13.6728 16.4684L14.0133 17.1367ZM2.5 9.5H3.25C3.25 8.5542 3.25058 7.88996 3.29292 7.37175C3.33455 6.86229 3.41276 6.56036 3.53157 6.32719L2.86331 5.9867L2.19506 5.64621C1.95055 6.12608 1.84711 6.64738 1.7979 7.2496C1.74942 7.84306 1.75 8.57895 1.75 9.5H2.5ZM7.83333 4.16667V3.41667C6.91229 3.41667 6.1764 3.41608 5.58293 3.46457C4.98071 3.51377 4.45941 3.61722 3.97954 3.86172L4.32003 4.52998L4.66052 5.19823C4.89369 5.07943 5.19562 5.00121 5.70508 4.95959C6.2233 4.91725 6.88754 4.91667 7.83333 4.91667V4.16667ZM2.86331 5.9867L3.53157 6.32719C3.77924 5.84111 4.17444 5.44591 4.66052 5.19823L4.32003 4.52998L3.97954 3.86172C3.21121 4.25321 2.58654 4.87788 2.19506 5.64621L2.86331 5.9867Z" fill="#9AA3AF"/>
</svg>
