<svg width="100%" height="100%" viewBox="0 0 24 24" fill="none" xmlns="http://www.w3.org/2000/svg">
<path d="M14.4759 17.3143C14.8662 16.9238 14.8664 16.2906 14.4759 15.9001C14.0854 15.51 13.4521 15.5099 13.0617 15.9001L10.8278 18.134C10.1871 18.7746 9.33832 19.1257 8.38057 19.1187C7.44794 19.1118 6.56426 18.7471 5.90984 18.0718C5.9026 18.0644 5.8952 18.057 5.88774 18.0497C5.21232 17.3952 4.84705 16.5112 4.8402 15.5783C4.83353 14.66 5.20301 13.7806 5.85252 13.1311L8.08571 10.8979C8.47623 10.5073 8.47623 9.87418 8.08571 9.48365C7.69518 9.09313 7.06202 9.09313 6.67149 9.48365L4.43831 11.7168C3.41961 12.7355 2.82963 14.1262 2.84041 15.5935C2.85115 17.0462 3.42436 18.4465 4.49631 19.4853C5.53295 20.5429 6.92377 21.1085 8.36606 21.1191C9.84772 21.13 11.2145 20.5756 12.242 19.5482L14.4759 17.3143ZM19.5624 12.2831C20.581 11.2644 21.1711 9.87364 21.1603 8.40642C21.1495 6.9588 20.5802 5.56334 19.5154 4.52562L19.3172 4.3371C18.3056 3.4212 16.9949 2.91838 15.6346 2.90839C14.1832 2.89774 12.7878 3.44891 11.758 4.47866L9.52478 6.71185C9.13434 7.10229 9.1345 7.73552 9.52478 8.12606C9.91531 8.51659 10.5485 8.51659 10.939 8.12606L13.1722 5.89288C13.8106 5.25454 14.6856 4.90146 15.6194 4.90817C16.554 4.91504 17.4436 5.2823 18.1012 5.93983C18.1049 5.94347 18.1086 5.9473 18.1123 5.95088C18.7877 6.60544 19.1536 7.48876 19.1605 8.42161C19.1672 9.33991 18.7977 10.2193 18.1482 10.8689L15.915 13.102C15.5245 13.4926 15.5245 14.1257 15.915 14.5163C16.3055 14.9068 16.9387 14.9068 17.3292 14.5163L19.5624 12.2831ZM16.0206 9.33381C16.4112 8.94328 16.4112 8.31012 16.0206 7.91959C15.6301 7.52924 14.9969 7.52913 14.6064 7.91959L7.90617 14.6198C7.5157 15.0103 7.51582 15.6435 7.90617 16.0341C8.29669 16.4246 8.92986 16.4246 9.32038 16.0341L16.0206 9.33381Z" fill="currentColor"/>
</svg>
