<svg width="100%" height="100%" viewBox="0 0 24 24" fill="none" xmlns="http://www.w3.org/2000/svg">
<path d="M15.8125 11.0219C16.3648 11.0219 16.8125 11.4696 16.8125 12.0219C16.8125 12.5741 16.3648 13.0218 15.8125 13.0219H3.77148C3.2192 13.0219 2.77148 12.5741 2.77148 12.0219C2.77148 11.4696 3.2192 11.0219 3.77148 11.0219H15.8125Z" fill="currentColor"/>
<path d="M12.1762 8.39982C12.5659 8.0085 13.1999 8.00718 13.5912 8.39689L16.519 11.3129C16.7074 11.5006 16.8129 11.756 16.8129 12.0219C16.8129 12.2878 16.7074 12.5432 16.519 12.7309L13.5912 15.6469C13.1999 16.0366 12.5659 16.0353 12.1762 15.644C11.7865 15.2526 11.7878 14.6186 12.1791 14.2289L14.3949 12.0219L12.1791 9.81486C11.7878 9.42514 11.7865 8.79115 12.1762 8.39982Z" fill="currentColor"/>
<path d="M19.749 17.5874V6.44678C19.7489 4.96926 18.5517 3.77215 17.0742 3.77197H12.1895C10.7059 3.7722 9.5051 4.97336 9.50488 6.45557V7.38916C9.50478 7.94136 9.05711 8.38916 8.50488 8.38916C7.95266 8.38916 7.50498 7.94136 7.50488 7.38916V6.45557C7.5051 3.86843 9.60168 1.7722 12.1895 1.77197H17.0742C19.6563 1.77215 21.7489 3.86469 21.749 6.44678V17.5874C21.7488 20.1745 19.6506 22.272 17.0635 22.272H12.1787C9.59722 22.2719 7.50499 20.1779 7.50488 17.5972V16.6548C7.50498 16.1026 7.95266 15.6548 8.50488 15.6548C9.0571 15.6548 9.50478 16.1026 9.50488 16.6548V17.5972C9.50499 19.0741 10.7025 20.2719 12.1787 20.272H17.0635C18.546 20.272 19.7488 19.0699 19.749 17.5874Z" fill="currentColor"/>
</svg>
