<svg width="24" height="24" viewBox="0 0 24 24" fill="none" xmlns="http://www.w3.org/2000/svg">
<path fill-rule="evenodd" clip-rule="evenodd" d="M6.16419 4.34766C5.63436 4.34764 5.18313 4.34763 4.81272 4.3779C4.42356 4.40969 4.04497 4.47933 3.68303 4.66374C3.13737 4.94177 2.69372 5.38542 2.41569 5.93109C2.23128 6.29302 2.16165 6.67161 2.12985 7.06077C2.09959 7.43119 2.0996 7.88234 2.09961 8.41217V15.5831C2.0996 16.1129 2.09959 16.5641 2.12985 16.9345C2.16165 17.3237 2.23128 17.7023 2.41569 18.0642C2.69372 18.6099 3.13737 19.0535 3.68303 19.3316C4.04497 19.516 4.42356 19.5856 4.81272 19.6174C5.18315 19.6477 5.63432 19.6477 6.16419 19.6477H17.835C18.3648 19.6477 18.816 19.6477 19.1864 19.6174C19.5756 19.5856 19.9542 19.516 20.3161 19.3316C20.8618 19.0535 21.3054 18.6099 21.5835 18.0642C21.7679 17.7023 21.8375 17.3237 21.8693 16.9345C21.8996 16.5641 21.8995 16.113 21.8995 15.5831V8.41225C21.8995 7.88241 21.8996 7.43119 21.8693 7.06077C21.8375 6.67161 21.7679 6.29302 21.5835 5.93109C21.3054 5.38542 20.8618 4.94177 20.3161 4.66374C19.9542 4.47933 19.5756 4.40969 19.1864 4.3779C18.816 4.34763 18.3649 4.34764 17.835 4.34766H6.16419ZM4.65968 6.2028C4.79121 6.16006 4.98504 6.14896 5.7996 6.14896H18.1996C19.0141 6.14896 19.2079 6.16006 19.3395 6.2028C19.6743 6.31161 19.9369 6.57416 20.0457 6.90904C20.077 7.00548 20.0914 7.13543 20.0968 7.51903L13.28 12.0662C12.5797 12.5333 12.4138 12.6279 12.2606 12.6647C12.0921 12.7051 11.9165 12.7051 11.748 12.6648C11.5948 12.6281 11.4288 12.5336 10.7283 12.0668L3.90237 7.51875C3.90779 7.13536 3.92212 7.00546 3.95344 6.90904C4.06225 6.57416 4.3248 6.31161 4.65968 6.2028ZM3.89961 9.68006V15.949C3.89961 16.7635 3.91071 16.9574 3.95344 17.0889C4.06225 17.4238 4.3248 17.6863 4.65968 17.7951C4.79121 17.8379 4.98504 17.849 5.7996 17.849H18.1996C19.0141 17.849 19.2079 17.8379 19.3395 17.7951C19.6743 17.6863 19.9369 17.4238 20.0457 17.0889C20.0884 16.9574 20.0995 16.7635 20.0995 15.949V9.68109L14.1723 13.6349C13.6374 13.9927 13.1875 14.2936 12.6806 14.4152C12.2363 14.5218 11.7732 14.5219 11.3289 14.4155C10.822 14.2942 10.3719 13.9935 9.83676 13.6361L3.89961 9.68006Z" fill="currentColor"/>
</svg>
