<svg width="20" height="20" viewBox="0 0 20 20" fill="none" xmlns="http://www.w3.org/2000/svg">
<path d="M2.49967 18.3334V15.083C2.49985 14.5771 2.91001 14.1669 3.41602 14.1667H6.66634C7.12658 14.1667 7.49967 14.5398 7.49967 15C7.49967 15.4603 7.12658 15.8334 6.66634 15.8334H5.28613C8.23158 18.2193 12.5634 18.0434 15.3032 15.3036C16.7679 13.839 17.4997 11.9207 17.4997 10C17.4997 9.5398 17.8728 9.16671 18.333 9.16671C18.7932 9.16671 19.1663 9.5398 19.1663 10C19.1663 12.3447 18.2713 14.6922 16.4816 16.482C13.1103 19.8533 7.76744 20.0481 4.16634 17.0695V18.3334C4.16634 18.7936 3.79325 19.1667 3.33301 19.1667C2.87277 19.1667 2.49967 18.7936 2.49967 18.3334ZM12.7723 7.71651C13.1128 7.40696 13.6403 7.43213 13.9499 7.77266C14.2594 8.11321 14.2343 8.64066 13.8937 8.95024L9.59033 12.8622C9.11364 13.2953 8.38571 13.2953 7.90902 12.8622L6.10563 11.2224C5.76538 10.9128 5.74012 10.3861 6.04948 10.0456C6.35907 9.70507 6.8865 9.67987 7.22705 9.98946L8.74967 11.3737L12.7723 7.71651ZM17.4997 4.91703C17.4995 5.42304 17.0893 5.8332 16.5833 5.83337H13.333C12.8728 5.83337 12.4997 5.46028 12.4997 5.00004C12.4997 4.5398 12.8728 4.16671 13.333 4.16671H14.7132C11.7678 1.78074 7.43593 1.95669 4.69613 4.69649C3.2315 6.16112 2.49967 8.07933 2.49967 10C2.49967 10.4603 2.12658 10.8334 1.66634 10.8334C1.2061 10.8334 0.833008 10.4603 0.833008 10C0.833008 7.65538 1.728 5.30785 3.51774 3.51811C6.88891 0.146941 12.2319 -0.0484793 15.833 2.92973V1.66671C15.833 1.20647 16.2061 0.833374 16.6663 0.833374C17.1266 0.833374 17.4997 1.20647 17.4997 1.66671V4.91703Z" fill="#9AA3AF"/>
</svg>
