<svg width="100%" height="100%" viewBox="0 0 24 24" fill="none" xmlns="http://www.w3.org/2000/svg">
<path d="M3 22V18.0996C3.00021 17.4924 3.4924 17.0002 4.09961 17H8C8.55228 17 9 17.4477 9 18C9 18.5523 8.55228 19 8 19H6.34375C9.87829 21.8632 15.0765 21.652 18.3643 18.3643C20.1218 16.6067 21 14.3048 21 12C21 11.4477 21.4477 11 22 11C22.5523 11 23 11.4477 23 12C23 14.8136 21.926 17.6306 19.7783 19.7783C15.7328 23.8239 9.32131 24.0577 5 20.4834V22C5 22.5523 4.55228 23 4 23C3.44772 23 3 22.5523 3 22ZM15.3271 9.25977C15.7358 8.88831 16.3687 8.91851 16.7402 9.32715C17.1117 9.73581 17.0815 10.3687 16.6729 10.7402L11.5088 15.4346C10.9368 15.9543 10.0632 15.9543 9.49121 15.4346L7.32715 13.4668C6.91885 13.0953 6.88854 12.4632 7.25977 12.0547C7.63127 11.646 8.26419 11.6158 8.67285 11.9873L10.5 13.6484L15.3271 9.25977ZM21 5.90039C20.9998 6.5076 20.5076 6.99979 19.9004 7H16C15.4477 7 15 6.55228 15 6C15 5.44772 15.4477 5 16 5H17.6562C14.1217 2.13684 8.9235 2.34798 5.63574 5.63574C3.87819 7.3933 3 9.69515 3 12C3 12.5523 2.55228 13 2 13C1.44772 13 1 12.5523 1 12C1 9.1864 2.07399 6.36937 4.22168 4.22168C8.26708 0.17628 14.6787 -0.058224 19 3.51562V2C19 1.44772 19.4477 1 20 1C20.5523 1 21 1.44772 21 2V5.90039Z" fill="currentColor"/>
</svg>
