<svg width="100%" height="100%" viewBox="0 0 24 24" fill="none" xmlns="http://www.w3.org/2000/svg">
<path d="M20.0984 12C20.0984 7.52639 16.4714 3.89998 11.9984 3.89998C7.52563 3.90015 3.89961 7.5265 3.89961 12C3.89961 16.4735 7.52563 20.0998 11.9984 20.1C13.4401 20.1 14.7921 19.7237 15.9629 19.0652L16.1187 18.9961C16.28 18.9423 16.4543 18.9356 16.6215 18.9773L19.9191 19.8011L19.3426 15.7629C19.3187 15.596 19.3424 15.426 19.4105 15.2718C19.8523 14.2725 20.0984 13.166 20.0984 12ZM6.59961 12.0843V12C6.59961 11.5029 7.00255 11.1 7.49961 11.1C7.99647 11.1002 8.39961 11.5031 8.39961 12V12.0843C8.39961 12.5813 7.99647 12.9841 7.49961 12.9844C7.00255 12.9844 6.59961 12.5814 6.59961 12.0843ZM11.0984 12.0843V12C11.0984 11.503 11.5015 11.1001 11.9984 11.1C12.4955 11.1 12.8984 11.5029 12.8984 12V12.0843C12.8984 12.5814 12.4955 12.9844 11.9984 12.9844C11.5015 12.9842 11.0984 12.5813 11.0984 12.0843ZM15.5984 12.0843V12C15.5984 11.5029 16.0014 11.1 16.4984 11.1C16.9954 11.1 17.3984 11.503 17.3984 12V12.0843C17.3984 12.5814 16.9954 12.9843 16.4984 12.9844C16.0014 12.9844 15.5984 12.5814 15.5984 12.0843ZM21.8984 12C21.8984 13.3261 21.6334 14.5919 21.159 15.75L21.8902 20.8722C21.9325 21.1688 21.8244 21.4673 21.602 21.6679C21.3795 21.8683 21.0721 21.9444 20.7816 21.8718L16.5219 20.8066C15.1652 21.5048 13.6268 21.9 11.9984 21.9C6.53136 21.8998 2.09961 17.4674 2.09961 12C2.09961 6.53254 6.53136 2.10015 11.9984 2.09998C17.4657 2.09998 21.8984 6.53244 21.8984 12Z" fill="currentColor"/>
</svg>
