<svg width="100%" height="100%" viewBox="0 0 24 24" fill="none" xmlns="http://www.w3.org/2000/svg">
<path d="M20.0244 12C20.0244 7.56791 16.4321 3.97559 12 3.97559C7.56791 3.97559 3.97559 7.56791 3.97559 12C3.97559 13.0334 4.16936 14.0192 4.52344 14.9238C4.7238 15.4357 4.82565 16.029 4.72266 16.6406L4.18799 19.8105L7.35938 19.2773C7.97096 19.1743 8.56426 19.2762 9.07617 19.4766C9.98081 19.8306 10.9666 20.0244 12 20.0244C16.4321 20.0244 20.0244 16.4321 20.0244 12ZM21.9756 12C21.9756 17.509 17.509 21.9756 12 21.9756C10.7195 21.9756 9.49319 21.7328 8.36572 21.2915C8.11391 21.1929 7.88028 21.1675 7.68311 21.2007L3.854 21.8452C2.85444 22.0131 1.98694 21.1456 2.15479 20.146L2.79932 16.3169C2.83252 16.1197 2.80705 15.8861 2.7085 15.6343C2.2672 14.5068 2.02441 13.2805 2.02441 12C2.02441 6.49096 6.49096 2.02441 12 2.02441C17.509 2.02441 21.9756 6.49096 21.9756 12Z" fill="currentColor"/>
<path d="M15.3106 9.31011C15.6913 8.92992 16.3084 8.92975 16.689 9.31011C17.0698 9.69087 17.0698 10.3092 16.689 10.69L12.0425 15.3365C11.4666 15.9121 10.5325 15.9121 9.95659 15.3365L7.30962 12.6895C6.92926 12.3089 6.92943 11.6918 7.30962 11.3111C7.69038 10.9303 8.30874 10.9303 8.6895 11.3111L10.9996 13.6211L15.3106 9.31011Z" fill="#00B1BD"/>
</svg>
