<svg width="100%" height="100%" viewBox="0 0 24 24" fill="none" xmlns="http://www.w3.org/2000/svg">
<g clip-path="url(#clip0_3640_9652)">
<path d="M11 22.5V20.4004C11 19.8481 11.4477 19.4004 12 19.4004C12.5523 19.4004 13 19.8481 13 20.4004V22.5C13 23.0523 12.5523 23.5 12 23.5C11.4477 23.5 11 23.0523 11 22.5ZM5.35352 17.2324C5.74406 16.8422 6.37716 16.842 6.76758 17.2324C7.158 17.6228 7.15779 18.2559 6.76758 18.6465L5.28223 20.1318C4.89169 20.5223 4.25865 20.5223 3.86816 20.1318C3.47768 19.7413 3.47775 19.1083 3.86816 18.7178L5.35352 17.2324ZM17.2324 17.2324C17.6228 16.842 18.2559 16.8422 18.6465 17.2324L20.1318 18.7178C20.5222 19.1083 20.5223 19.7414 20.1318 20.1318C19.7414 20.5223 19.1083 20.5222 18.7178 20.1318L17.2324 18.6465C16.8422 18.2559 16.842 17.6228 17.2324 17.2324ZM15.2002 12C15.2002 10.2327 13.7673 8.79982 12 8.7998C10.2327 8.7998 8.79983 10.2327 8.7998 12C8.7998 13.7673 10.2327 15.2002 12 15.2002C13.7673 15.2002 15.2002 13.7673 15.2002 12ZM3.59961 11C4.15185 11 4.59953 11.4478 4.59961 12C4.59961 12.5523 4.15189 13 3.59961 13H1.5C0.947715 13 0.5 12.5523 0.5 12C0.500074 11.4478 0.947761 11 1.5 11H3.59961ZM22.5 11C23.0523 11 23.5 11.4477 23.5 12C23.5 12.5523 23.0523 13 22.5 13H20.4004C19.8481 13 19.4004 12.5523 19.4004 12C19.4004 11.4477 19.8481 11 20.4004 11H22.5ZM3.86816 3.86816C4.25864 3.4778 4.89172 3.47785 5.28223 3.86816L6.76758 5.35352C7.15782 5.74403 7.15792 6.37713 6.76758 6.76758C6.37714 7.15802 5.74406 7.15786 5.35352 6.76758L3.86816 5.28223C3.47782 4.89169 3.4777 4.25863 3.86816 3.86816ZM18.7178 3.86816C19.1083 3.47783 19.7414 3.47771 20.1318 3.86816C20.5223 4.25862 20.5222 4.89169 20.1318 5.28223L18.6465 6.76758C18.2559 7.15787 17.6229 7.15803 17.2324 6.76758C16.842 6.37713 16.8421 5.74406 17.2324 5.35352L18.7178 3.86816ZM11 3.59961V1.5C11 0.947715 11.4477 0.5 12 0.5C12.5523 0.500019 13 0.947727 13 1.5V3.59961C13 4.15188 12.5523 4.59959 12 4.59961C11.4477 4.59961 11 4.15189 11 3.59961ZM17.2002 12C17.2002 14.8719 14.8719 17.2002 12 17.2002C9.12811 17.2002 6.7998 14.8719 6.7998 12C6.79983 9.12813 9.12813 6.7998 12 6.7998C14.8719 6.79982 17.2002 9.12814 17.2002 12Z" fill="currentColor"/>
</g>
<defs>
<clipPath id="clip0_3640_9652">
<rect width="24" height="24" fill="white"/>
</clipPath>
</defs>
</svg>
