<svg width="100%" height="100%" viewBox="0 0 24 24" fill="none" xmlns="http://www.w3.org/2000/svg">
<path d="M22.167 1V23H20.834V1H22.167ZM5.48438 2.56836V8.68555C6.62279 7.75742 8.04139 7.19824 9.58594 7.19824V7.19238C13.3387 7.19248 16.3818 10.4555 16.3818 14.4854C16.3817 18.5151 13.3386 21.7782 9.58594 21.7783C8.04151 21.7783 6.62274 21.219 5.48438 20.291V21.4326H2V2.56836H5.48438ZM9.15137 10.3574C6.98891 10.3574 5.23828 12.2082 5.23828 14.4912C5.23844 16.7741 6.98901 18.625 9.15137 18.625C11.3136 18.6248 13.0643 16.774 13.0645 14.4912C13.0645 12.2083 11.3136 10.3576 9.15137 10.3574Z" fill="#6A7381"/>
</svg>
