<svg width="24" height="24" viewBox="0 0 24 24" fill="none" xmlns="http://www.w3.org/2000/svg">
<path d="M12 22C14 22 20 14.4183 20 10C20 5.58172 16.4183 2 12 2C7.58172 2 4 5.58172 4 10C4 14.4183 10 22 12 22Z" fill="#00B1BD"/>
<path d="M14.2899 7.29595C14.6789 6.90403 15.312 6.9013 15.704 7.29009C16.0959 7.67905 16.0987 8.31213 15.7099 8.70416L11.8495 12.5938C11.312 13.1352 10.4378 13.1352 9.9003 12.5938L8.28995 10.9717C7.90096 10.5797 7.90381 9.94669 8.29581 9.55767C8.6878 9.1687 9.32085 9.17062 9.70987 9.56256L10.8749 10.7364L14.2899 7.29595Z" fill="white"/>
</svg>
