<svg width="100%" height="100%" viewBox="0 0 24 24" fill="none" xmlns="http://www.w3.org/2000/svg">
<path d="M12.0005 14.6514C16.7533 14.6515 20.1225 16.2452 21.7271 18.9214C22.0465 19.4543 21.8732 20.1459 21.3403 20.4653C20.8076 20.7843 20.1173 20.6111 19.7979 20.0786C18.7516 18.3336 16.3111 16.9015 12.0005 16.9014C7.68973 16.9014 5.24941 18.3335 4.20313 20.0786C3.88367 20.6115 3.19206 20.7847 2.65919 20.4653C2.12633 20.1459 1.95307 19.4543 2.27247 18.9214C3.87704 16.245 7.24736 14.6514 12.0005 14.6514ZM14.4746 8.10059C14.4746 6.73382 13.3672 5.62523 12.0005 5.625C10.6336 5.625 9.52491 6.73368 9.52491 8.10059C9.52523 9.46722 10.6338 10.5747 12.0005 10.5747C13.367 10.5745 14.4743 9.46708 14.4746 8.10059ZM16.7246 8.10059C16.7243 10.7097 14.6097 12.8245 12.0005 12.8247C9.39115 12.8247 7.27523 10.7099 7.27491 8.10059C7.27491 5.49104 9.39095 3.375 12.0005 3.375C14.6098 3.37523 16.7246 5.49118 16.7246 8.10059Z" fill="#9AA3AF"/>
</svg>
