<svg width="100%" height="100%" viewBox="0 0 24 24" fill="none" xmlns="http://www.w3.org/2000/svg">
<path d="M21.1008 6.50977C21.1008 7.11165 20.6128 7.59942 20.011 7.59961H16.5002C15.9481 7.5994 15.5002 7.15176 15.5002 6.59961C15.5004 6.04763 15.9482 5.59982 16.5002 5.59961H17.6994C14.5655 3.24373 10.0957 3.49046 7.24339 6.34277C4.11919 9.46697 4.11919 14.533 7.24339 17.6572C10.3676 20.7814 15.4336 20.7814 18.5578 17.6572C18.9484 17.2667 19.5814 17.2667 19.9719 17.6572C20.3621 18.0478 20.3623 18.6809 19.9719 19.0713C16.0667 22.9765 9.73457 22.9765 5.82932 19.0713C1.92408 15.166 1.92408 8.83395 5.82932 4.92871C9.45638 1.30165 15.1756 1.04495 19.1008 4.15527V3C19.1008 2.44772 19.5485 2 20.1008 2C20.653 2.00011 21.1008 2.44778 21.1008 3V6.50977Z" fill="currentColor"/>
</svg>
