<svg width="16" height="16" viewBox="0 0 16 16" fill="none" xmlns="http://www.w3.org/2000/svg">
<path d="M3.33333 8C3.33333 5.40318 5.36966 3.33333 7.83854 3.33333C9.36214 3.33339 10.7157 4.11899 11.5339 5.33333H10.7474C10.3792 5.33338 10.0807 5.63184 10.0807 6C10.0807 6.36816 10.3792 6.66662 10.7474 6.66667H13.3333C13.7015 6.66667 14 6.36819 14 6V3.33333C14 2.96514 13.7015 2.66667 13.3333 2.66667C12.9651 2.66667 12.6667 2.96514 12.6667 3.33333V4.62695C11.6199 3.04764 9.85278 2.00005 7.83854 2C4.5949 2 2 4.70578 2 8C2 11.2942 4.5949 14 7.83854 14C10.4401 13.9999 12.6274 12.2557 13.388 9.86914C13.4998 9.51835 13.3059 9.14305 12.9551 9.03125C12.6043 8.91945 12.229 9.11339 12.1172 9.46419C11.5206 11.336 9.82054 12.6666 7.83854 12.6667C5.36966 12.6667 3.33333 10.5968 3.33333 8Z" fill="currentColor"/>
</svg>
