<svg width="20" height="20" viewBox="0 0 20 20" fill="none" xmlns="http://www.w3.org/2000/svg">
<path d="M9.16675 12.6669C9.16675 12.1865 9.1657 11.876 9.14641 11.6399C9.12791 11.4136 9.0966 11.3295 9.07561 11.2883C8.99574 11.1317 8.86848 11.0044 8.71184 10.9246C8.67064 10.9036 8.5866 10.8723 8.36027 10.8538C8.12416 10.8345 7.81372 10.8334 7.33326 10.8334H5.16691C4.68645 10.8334 4.37601 10.8345 4.1399 10.8538C3.91357 10.8723 3.82953 10.9036 3.78833 10.9246C3.63169 11.0044 3.50443 11.1317 3.42456 11.2883C3.40357 11.3295 3.37226 11.4136 3.35376 11.6399C3.33447 11.876 3.33342 12.1865 3.33342 12.6669V14.8333C3.33342 15.3137 3.33447 15.6242 3.35376 15.8603C3.37226 16.0866 3.40357 16.1706 3.42456 16.2118C3.50443 16.3685 3.63169 16.4957 3.78833 16.5756C3.82953 16.5966 3.91357 16.6279 4.1399 16.6464C4.37601 16.6657 4.68645 16.6668 5.16691 16.6668H7.33326C7.81372 16.6668 8.12416 16.6657 8.36027 16.6464C8.5866 16.6279 8.67064 16.5966 8.71184 16.5756C8.86848 16.4957 8.99574 16.3685 9.07561 16.2118C9.0966 16.1706 9.12791 16.0866 9.14641 15.8603C9.1657 15.6242 9.16675 15.3137 9.16675 14.8333V12.6669ZM13.3334 10.1189V7.84514L10.5893 10.5893H10.5877C10.7274 10.8869 10.7829 11.1944 10.8082 11.504C10.8343 11.8237 10.8334 12.214 10.8334 12.6669V13.3334C11.3003 13.3334 12.644 13.3332 13.9137 13.3106C14.5495 13.2993 15.1588 13.2825 15.6275 13.2577C15.8631 13.2453 16.0524 13.2319 16.1874 13.217C16.2219 13.2133 16.2499 13.208 16.2721 13.2048C16.4004 13.1249 16.5065 13.014 16.5756 12.8785C16.5966 12.8373 16.6279 12.7533 16.6464 12.5269C16.6657 12.2908 16.6668 11.9804 16.6668 11.4999V5.16691C16.6668 4.68645 16.6657 4.37601 16.6464 4.1399C16.6279 3.91357 16.5966 3.82953 16.5756 3.78833C16.4957 3.63169 16.3685 3.50443 16.2118 3.42456C16.1706 3.40357 16.0866 3.37226 15.8603 3.35376C15.6242 3.33447 15.3137 3.33342 14.8333 3.33342H8.50025C8.01979 3.33342 7.70934 3.33447 7.47323 3.35376C7.24691 3.37226 7.16287 3.40357 7.12167 3.42456C6.98626 3.49361 6.8744 3.59904 6.79452 3.7273C6.79136 3.74961 6.78696 3.7779 6.78313 3.81275C6.76828 3.9478 6.75488 4.13708 6.74244 4.37264C6.71767 4.84134 6.70084 5.45068 6.68954 6.08651C6.66698 7.35619 6.66675 8.69989 6.66675 9.16675H7.33326C7.78622 9.16675 8.17645 9.16586 8.49618 9.19198C8.80543 9.21726 9.11272 9.27227 9.41008 9.41171L12.155 6.66675H9.88127C9.42103 6.66675 9.04794 6.29366 9.04794 5.83342C9.04794 5.37318 9.42103 5.00009 9.88127 5.00009H13.6614C14.4006 5.00009 15.0001 5.59961 15.0001 6.33879V10.1189C15.0001 10.5791 14.627 10.9522 14.1668 10.9522C13.7065 10.9522 13.3334 10.5791 13.3334 10.1189ZM18.3334 11.4999C18.3334 11.9529 18.3343 12.3431 18.3082 12.6628C18.2813 12.9922 18.2214 13.3201 18.0608 13.6353C17.8212 14.1055 17.4389 14.4878 16.9687 14.7275C16.8317 14.7973 16.69 14.8248 16.6326 14.8357C16.5502 14.8514 16.4595 14.8633 16.3697 14.8731C16.1886 14.893 15.9632 14.9089 15.7154 14.922C15.2173 14.9483 14.5849 14.9659 13.943 14.9773C12.6568 15.0002 11.3 15.0001 10.8334 15.0001L10.8318 14.9993C10.8316 15.3821 10.8311 15.7162 10.8082 15.9962C10.7813 16.3256 10.7214 16.6534 10.5608 16.9687C10.3211 17.4389 9.93886 17.8212 9.46867 18.0608C9.15343 18.2214 8.82556 18.2813 8.49618 18.3082C8.17645 18.3343 7.78622 18.3334 7.33326 18.3334H5.16691C4.71395 18.3334 4.32372 18.3343 4.00399 18.3082C3.67461 18.2813 3.34675 18.2214 3.0315 18.0608C2.56131 17.8212 2.17902 17.4389 1.93938 16.9687C1.77875 16.6534 1.71891 16.3256 1.69198 15.9962C1.66586 15.6765 1.66675 15.2862 1.66675 14.8333V12.6669C1.66675 12.214 1.66586 11.8237 1.69198 11.504C1.71891 11.1746 1.77875 10.8467 1.93938 10.5315C2.17902 10.0613 2.56131 9.67902 3.0315 9.43938C3.34675 9.27875 3.67461 9.21891 4.00399 9.19198C4.28381 9.16912 4.61756 9.1678 5.00009 9.16757V9.16675C5.00009 8.70019 5.00002 7.34337 5.02287 6.05721C5.03428 5.41529 5.05189 4.7829 5.07821 4.28475C5.0913 4.03696 5.10712 3.81154 5.12704 3.63046C5.13691 3.54065 5.14882 3.45 5.16447 3.3676C5.17539 3.31014 5.20291 3.16848 5.27271 3.0315L5.36874 2.85979C5.60889 2.46814 5.95326 2.14915 6.36483 1.93938C6.68008 1.77875 7.00794 1.71891 7.33732 1.69198C7.65705 1.66586 8.04729 1.66675 8.50025 1.66675H14.8333C15.2862 1.66675 15.6765 1.66586 15.9962 1.69198C16.3256 1.71891 16.6534 1.77875 16.9687 1.93938C17.4389 2.17902 17.8212 2.56131 18.0608 3.0315C18.2214 3.34675 18.2813 3.67461 18.3082 4.00399C18.3343 4.32372 18.3334 4.71395 18.3334 5.16691V11.4999Z" fill="#9AA3AF"/>
</svg>
