<svg width="24" height="24" viewBox="0 0 24 24" fill="none" xmlns="http://www.w3.org/2000/svg">
<path d="M18.2793 11.4399C18.2792 7.66239 15.217 4.6001 11.4395 4.6001C7.66195 4.60018 4.59969 7.66244 4.59961 11.4399C4.59961 15.2175 7.6619 18.2797 11.4395 18.2798C15.2171 18.2798 18.2793 15.2176 18.2793 11.4399ZM20.2793 11.4399C20.2793 13.5439 19.5427 15.4748 18.3154 16.9927L21.0947 19.6812C21.4917 20.0652 21.5022 20.6983 21.1182 21.0952C20.7342 21.4922 20.101 21.5027 19.7041 21.1187L16.8896 18.396C15.3876 19.5745 13.4967 20.2798 11.4395 20.2798C6.55733 20.2797 2.59961 16.3221 2.59961 11.4399C2.59969 6.55787 6.55738 2.60018 11.4395 2.6001C16.3216 2.6001 20.2792 6.55782 20.2793 11.4399Z" fill="#6A7381"/>
<path d="M14 10.8044C13.9998 9.36868 12.8362 8.20483 11.4004 8.20483C10.8481 8.20483 10.4004 7.75712 10.4004 7.20483C10.4004 6.65255 10.8481 6.20483 11.4004 6.20483C13.9408 6.20483 15.9998 8.26411 16 10.8044C16 11.3567 15.5523 11.8044 15 11.8044C14.4479 11.8042 14 11.3566 14 10.8044Z" fill="#00B1BD"/>
</svg>
