<svg width="100%" height="100%" viewBox="0 0 24 24" fill="none" xmlns="http://www.w3.org/2000/svg">
<path d="M4.99976 18.1848L7.27714 15.4626C8.85073 16.7639 10.504 17.5872 12.5025 17.5872C14.0761 17.5872 15.0256 16.9631 15.0256 15.9406V15.8941C15.0256 14.9181 14.428 14.4201 11.4999 13.6699C7.9743 12.7735 5.70356 11.7975 5.70356 8.32497V8.27186C5.70356 5.09812 8.25317 3 11.8253 3C14.3749 3 16.546 3.79675 18.3255 5.22427L16.3269 8.12578C14.7799 7.05017 13.2528 6.39948 11.7788 6.39948C10.3048 6.39948 9.52797 7.07672 9.52797 7.9266V7.97971C9.52797 9.12837 10.2783 9.50682 13.2993 10.277C16.8515 11.1999 18.8434 12.4747 18.8434 15.5223V15.5754C18.8434 19.048 16.1941 21 12.4228 21C9.77364 21 7.09787 20.0771 4.99976 18.1981L4.99976 18.1848Z" fill="currentColor"/>
</svg>
