<svg width="100%" height="100%" viewBox="0 0 24 24" fill="none" xmlns="http://www.w3.org/2000/svg">
<path d="M15.0887 8.24998C14.9435 6.85886 13.8427 6.04838 12.0645 6.04838C10.2258 6.04838 9.19757 6.89515 9.18547 8.05644C9.17337 9.32659 10.4798 9.89514 11.9919 10.2338L13.5645 10.6209C16.5645 11.3105 18.8024 12.8346 18.8145 15.75C18.8024 18.9556 16.3104 21.012 12.0403 20.9999C7.80644 21.012 5.10887 19.0524 5 15.2903H8.53225C8.65321 17.0564 10.0564 17.9516 11.9919 17.9516C13.9032 17.9516 15.1371 17.0564 15.1371 15.75C15.1371 14.5524 14.0484 13.9959 12.1371 13.5242L10.2258 13.0645C7.27419 12.3387 5.45968 10.8629 5.45968 8.29837C5.44758 5.11693 8.25402 3 12.0887 3C15.9717 3 18.5242 5.15322 18.5725 8.24998H15.0887Z" fill="currentColor"/>
</svg>
