<svg width="100%" height="100%" viewBox="0 0 24 24" fill="none" xmlns="http://www.w3.org/2000/svg">
<path d="M13 3.51465C13 3.23043 12.7696 3.00003 12.4854 3H11.5146C11.2304 3.00001 11 3.23042 11 3.51465C11 5.75502 8.29114 6.87703 6.70703 5.29297C6.50602 5.09196 6.18048 5.09198 5.97949 5.29297L5.29297 5.97949C5.09219 6.18054 5.09203 6.50608 5.29297 6.70703C6.8772 8.29126 5.75505 11 3.51465 11C3.23044 11.0001 3.00007 11.2305 3 11.5146V12.4854C3.00003 12.7696 3.23043 13 3.51465 13C5.75497 13 6.87715 15.7088 5.29297 17.293C5.09201 17.4939 5.09204 17.8195 5.29297 18.0205L5.97949 18.707C6.1805 18.9079 6.50607 18.908 6.70703 18.707C8.29125 17.1228 11 18.245 11 20.4854C11.0001 20.7696 11.2305 21 11.5146 21H12.4854C12.7695 20.9999 12.9999 20.7696 13 20.4854C13 18.245 15.7087 17.1228 17.293 18.707C17.4939 18.9079 17.8195 18.9078 18.0205 18.707L18.707 18.0205C18.908 17.8195 18.908 17.494 18.707 17.293C17.1229 15.7088 18.245 13 20.4854 13C20.7696 13 21 12.7696 21 12.4854V11.5146C21 11.2304 20.7696 11 20.4854 11C18.2449 11 17.1229 8.29121 18.707 6.70703C18.908 6.50606 18.9079 6.18052 18.707 5.97949L18.0205 5.29297C17.8195 5.09205 17.494 5.09198 17.293 5.29297C15.7088 6.87707 13 5.75504 13 3.51465ZM15 12C15 10.3431 13.6569 9 12 9C10.3431 9 9 10.3431 9 12C9 13.6569 10.3431 15 12 15C13.6569 15 15 13.6569 15 12ZM17 12C17 14.7614 14.7614 17 12 17C9.23858 17 7 14.7614 7 12C7 9.23858 9.23858 7 12 7C14.7614 7 17 9.23858 17 12ZM15 3.51465C15 3.97314 15.5546 4.20315 15.8789 3.87891C16.8609 2.89688 18.4525 2.89692 19.4346 3.87891L20.1211 4.56445C21.1032 5.54653 21.1032 7.13903 20.1211 8.12109C19.7968 8.44538 20.0268 9 20.4854 9C21.8741 9.00005 23 10.1259 23 11.5146V12.4854C23 13.8741 21.8742 15 20.4854 15C20.0269 15 19.7969 15.5547 20.1211 15.8789C21.1031 16.8609 21.1031 18.4525 20.1211 19.4346L19.4355 20.1211C18.4535 21.1031 16.861 21.1031 15.8789 20.1211C15.5547 19.7969 15 20.0267 15 20.4854C14.9999 21.8741 13.8741 22.9999 12.4854 23H11.5146C10.1259 23 9.00006 21.8741 9 20.4854C9 20.0267 8.44531 19.7969 8.12109 20.1211C7.13908 21.1031 5.54749 21.103 4.56543 20.1211L3.87891 19.4346C2.89693 18.4525 2.8969 16.8609 3.87891 15.8789C4.20312 15.5547 3.97321 15 3.51465 15C2.12587 15 1.00003 13.8741 1 12.4854V11.5146C1.00007 10.1259 2.12588 9.00007 3.51465 9C3.97327 9 4.20318 8.44537 3.87891 8.12109C2.89684 7.13902 2.89683 5.54653 3.87891 4.56445L4.56543 3.87891C5.54749 2.89685 7.13906 2.89687 8.12109 3.87891C8.44536 4.20312 9 3.97309 9 3.51465C9.00001 2.12585 10.1259 1.00001 11.5146 1H12.4854C13.8741 1.00003 15 2.12586 15 3.51465Z" fill="currentColor"/>
</svg>
