<svg width="100%" height="100%" viewBox="0 0 24 24" fill="none" xmlns="http://www.w3.org/2000/svg">
<path d="M21.1 18C21.1 16.8403 20.1596 15.9002 19 15.9C17.8402 15.9 16.9 16.8402 16.9 18C16.9 19.1598 17.8402 20.1 19 20.1C20.1596 20.0998 21.1 19.1596 21.1 18ZM7.09961 12C7.09961 10.8402 6.15941 9.89998 4.99961 9.89998C3.83981 9.89998 2.89961 10.8402 2.89961 12C2.89961 13.1598 3.83981 14.1 4.99961 14.1C6.15941 14.1 7.09961 13.1598 7.09961 12ZM21.1 5.99998C21.1 4.84031 20.1596 3.90019 19 3.89998C17.8402 3.89998 16.9 4.84018 16.9 5.99998C16.9 7.15977 17.8402 8.09998 19 8.09998C20.1596 8.09976 21.1 7.15964 21.1 5.99998ZM22.9 5.99998C22.9 8.15376 21.1537 9.89976 19 9.89998C17.716 9.89998 16.5806 9.27656 15.8699 8.31912L8.84102 11.332C8.87851 11.5491 8.89961 11.7721 8.89961 12C8.89961 12.2274 8.87838 12.45 8.84102 12.6668L15.8699 15.6797C16.5806 14.7226 17.7164 14.1 19 14.1C21.1537 14.1002 22.9 15.8462 22.9 18C22.9 20.1538 21.1537 21.8998 19 21.9C16.8461 21.9 15.1 20.1539 15.1 18C15.1 17.7722 15.1199 17.5491 15.1574 17.332L8.12852 14.3203C7.41781 15.2771 6.28307 15.9 4.99961 15.9C2.8457 15.9 1.09961 14.1539 1.09961 12C1.09961 9.84606 2.8457 8.09998 4.99961 8.09998C6.28273 8.09998 7.41777 8.72211 8.12852 9.67849L15.1574 6.66677C15.1201 6.45004 15.1 6.22737 15.1 5.99998C15.1 3.84606 16.8461 2.09998 19 2.09998C21.1537 2.10019 22.9 3.8462 22.9 5.99998Z" fill="currentColor"/>
</svg>
