<svg width="24" height="24" viewBox="0 0 24 24" fill="none" xmlns="http://www.w3.org/2000/svg">
<path d="M19.9999 14.0015C19.9999 13.4492 19.5522 13.0015 18.9999 13.0015H10.9999C10.4476 13.0015 9.99993 13.4492 9.99993 14.0015V19.0015C9.99993 19.5537 10.4476 20.0015 10.9999 20.0015H18.9999C19.5522 20.0015 19.9999 19.5538 19.9999 19.0015V14.0015ZM12.0839 4.68604C12.0839 3.79117 11.3191 3.00146 10.2958 3.00146C9.27279 3.0017 8.50872 3.79131 8.50872 4.68604V5.4751H12.0839V4.68604ZM21.9999 19.0015C21.9999 20.6583 20.6568 22.0015 18.9999 22.0015H10.9999C9.34308 22.0015 7.99993 20.6583 7.99993 19.0015V14.0015C7.99993 12.3446 9.34308 11.0015 10.9999 11.0015H18.9999C20.6568 11.0015 21.9999 12.3446 21.9999 14.0015V19.0015ZM14.0839 5.4751H15.0702C16.5367 5.4751 17.8112 6.57308 17.9218 8.06299L17.997 9.08545C18.0378 9.63612 17.6248 10.1158 17.0742 10.1567C16.5234 10.1976 16.0437 9.78368 16.0029 9.23291L15.9267 8.21143C15.8983 7.82852 15.5537 7.4751 15.0702 7.4751H5.52239C5.03891 7.4751 4.69435 7.82852 4.66595 8.21143L4.00189 17.1587C3.97111 17.5754 4.32135 18.0014 4.85833 18.0015H5.99993C6.55222 18.0015 6.99993 18.4492 6.99993 19.0015C6.99993 19.5538 6.55222 20.0015 5.99993 20.0015H4.85833C3.23848 20.0014 1.88499 18.6651 2.00775 17.0103L2.67083 8.06299C2.78143 6.57308 4.05591 5.4751 5.52239 5.4751H6.50872V4.68604C6.50872 2.61615 8.24015 1.00171 10.2958 1.00146C12.3517 1.00146 14.0839 2.616 14.0839 4.68604V5.4751Z" fill="#6A7381"/>
<path d="M12.0977 15C12.0977 14.5029 12.501 14.0996 12.998 14.0996C13.4951 14.0996 13.8984 14.5029 13.8984 15C13.8984 15.6075 14.3905 16.0996 14.998 16.0996C15.6056 16.0996 16.0977 15.6075 16.0977 15C16.0977 14.5029 16.501 14.0996 16.998 14.0996C17.4951 14.0996 17.8984 14.5029 17.8984 15C17.8984 16.6016 16.5997 17.9004 14.998 17.9004C13.3964 17.9004 12.0977 16.6016 12.0977 15Z" fill="#00B1BD"/>
</svg>
