<svg width="24" height="24" viewBox="0 0 24 24" fill="none" xmlns="http://www.w3.org/2000/svg">
<path d="M15.8584 2C17.5302 2.00004 19.0913 2.8356 20.0186 4.22656L21.6631 6.69336C22.6126 8.11763 22.2845 10.0364 20.9151 11.0635C19.1881 12.3585 16.7716 12.1864 15.2452 10.6602L14.9307 10.3457C13.1644 11.5401 10.8326 11.5404 9.06644 10.3457L8.75297 10.6602C7.22654 12.1864 4.80998 12.3585 3.08305 11.0635C1.71364 10.0364 1.38549 8.11763 2.335 6.69336L3.97953 4.22656C4.90684 2.8356 6.46796 2.00004 8.13969 2H15.8584ZM8.13969 4C7.13667 4.00004 6.19997 4.50137 5.64359 5.33594L3.99906 7.80273C3.63835 8.3438 3.76301 9.07272 4.28324 9.46289C5.21394 10.1609 6.51622 10.0686 7.33891 9.24609L7.99906 8.58594V8C7.99906 7.44772 8.44678 7 8.99906 7C9.55135 7 9.99906 7.44772 9.99906 8V8.55078C11.1704 9.47159 12.8277 9.47159 13.9991 8.55078V8C13.9991 7.44772 14.4468 7 14.9991 7C15.5513 7 15.9991 7.44772 15.9991 8V8.58594L16.6592 9.24609C17.4819 10.0686 18.7842 10.1609 19.7149 9.46289C20.2351 9.07272 20.3598 8.3438 19.9991 7.80273L18.3545 5.33594C17.7982 4.50137 16.8615 4.00004 15.8584 4H8.13969Z" fill="#9AA3AF"/>
<path d="M3 14.5996V11C3 10.4477 3.44772 10 4 10C4.55229 10 5 10.4477 5 11V14.5996C5 15.736 5.00041 16.5287 5.05078 17.1455C5.10023 17.7507 5.19296 18.0989 5.32715 18.3623C5.61472 18.9265 6.07347 19.3853 6.6377 19.6729C6.90105 19.807 7.24933 19.8998 7.85449 19.9492C8.47129 19.9996 9.26396 20 10.4004 20H13.5996C14.736 20 15.5287 19.9996 16.1455 19.9492C16.7507 19.8998 17.0989 19.807 17.3623 19.6729C17.9265 19.3853 18.3853 18.9265 18.6729 18.3623C18.807 18.0989 18.8998 17.7507 18.9492 17.1455C18.9996 16.5287 19 15.736 19 14.5996V11C19 10.4477 19.4477 10 20 10C20.5523 10 21 10.4477 21 11V14.5996C21 15.7032 21.001 16.5914 20.9424 17.3086C20.8828 18.0373 20.7567 18.6773 20.4551 19.2695C19.9757 20.2103 19.2103 20.9757 18.2695 21.4551C17.6773 21.7567 17.0373 21.8828 16.3086 21.9424C15.5914 22.001 14.7032 22 13.5996 22H10.4004C9.29681 22 8.40857 22.001 7.69141 21.9424C6.9627 21.8828 6.32266 21.7567 5.73047 21.4551C4.78966 20.9757 4.02429 20.2103 3.54492 19.2695C3.24327 18.6773 3.11716 18.0373 3.05762 17.3086C2.99903 16.5914 3 15.7032 3 14.5996Z" fill="#9AA3AF"/>
<path d="M14 21V16H10V21C10 21.5523 9.55228 22 9 22C8.44772 22 8 21.5523 8 21V16C8 14.8954 8.89543 14 10 14H14C15.1046 14 16 14.8954 16 16V21C16 21.5523 15.5523 22 15 22C14.4477 22 14 21.5523 14 21Z" fill="#9AA3AF"/>
</svg>
