<svg width="40" height="20" viewBox="0 0 40 20" fill="none" xmlns="http://www.w3.org/2000/svg">
<g clip-path="url(#clip0_4127_4944)">
<path d="M38.2 20H20V0H38.2C39.2 0 40 0.8 40 1.8V18.2C40 19.2 39.2 20 38.2 20Z" fill="#7346F3"/>
<path d="M35.2996 8.7002H31.2996V4.7002H28.5996V8.7002H24.5996V11.4002H35.2996V8.7002ZM28.6996 11.7002V15.3002H31.3996V13.5002C31.3996 12.2002 30.0996 11.7002 28.6996 11.7002Z" fill="white"/>
<path d="M1.8 0H20V20H1.8C0.8 20 0 19.2 0 18.2V1.8C0 0.8 0.8 0 1.8 0Z" fill="#03C75A"/>
<path fill-rule="evenodd" clip-rule="evenodd" d="M11.9008 10.3001L8.30078 5.1001H5.30078V14.9001H8.50078V9.7001L12.1008 14.9001H15.1008V5.1001H11.9008V10.3001Z" fill="white"/>
</g>
<defs>
<clipPath id="clip0_4127_4944">
<rect width="40" height="20" fill="white"/>
</clipPath>
</defs>
</svg>
