<svg width="100%" height="100%" viewBox="0 0 24 24" fill="none" xmlns="http://www.w3.org/2000/svg">
<path d="M10.6544 2.16561C11.2534 1.14448 12.7458 1.14452 13.3449 2.16561L13.4015 2.27108L15.9738 7.483L21.7257 8.31893C23.0078 8.50524 23.5197 10.0816 22.5919 10.9859L18.4288 15.0426L19.4122 20.7711C19.6312 22.0479 18.2914 23.0221 17.1447 22.4195L11.9992 19.7144L6.85463 22.4195C5.70797 23.0219 4.36807 22.0479 4.58705 20.7711L5.56947 15.0426L1.40736 10.9859C0.479629 10.0816 0.991498 8.50527 2.27357 8.31893L8.02455 7.483L10.5978 2.27108L10.6544 2.16561ZM9.71791 8.57479C9.49022 9.03614 9.0493 9.35531 8.54018 9.42929L3.43666 10.1705L7.13002 13.7711C7.49823 14.1301 7.66604 14.647 7.57924 15.1539L6.70717 20.2369L11.2726 17.8375L11.4464 17.7584C11.8026 17.6236 12.1966 17.6236 12.5529 17.7584L12.7267 17.8375L17.2912 20.2369L16.4201 15.1539C16.3333 14.6471 16.5011 14.1301 16.8693 13.7711L20.5617 10.1705L15.4591 9.42929C14.9501 9.35532 14.5101 9.03597 14.2824 8.57479L11.9992 3.95077L9.71791 8.57479Z" fill="currentColor"/>
</svg>
