<svg width="100%" height="100%" viewBox="0 0 25 25" fill="none" xmlns="http://www.w3.org/2000/svg">
<path d="M11.0229 23.1709V22.4106C11.0231 21.7895 11.5268 21.2857 12.1479 21.2856C12.7692 21.2856 13.2728 21.7894 13.2729 22.4106V23.1709C13.2729 23.7922 12.7693 24.2959 12.1479 24.2959C11.5267 24.2958 11.0229 23.7922 11.0229 23.1709ZM4.09424 18.6094C4.53358 18.17 5.24718 18.17 5.68652 18.6094C6.12545 19.0486 6.12535 19.7609 5.68652 20.2002L5.14893 20.7378C4.70959 21.1771 3.99598 21.1771 3.55664 20.7378C3.11788 20.2985 3.11781 19.5862 3.55664 19.147L4.09424 18.6094ZM18.6108 18.6094C19.0502 18.1704 19.7624 18.1702 20.2017 18.6094L20.7393 19.147C21.1782 19.5862 21.1781 20.2985 20.7393 20.7378C20.2999 21.1771 19.5863 21.1771 19.147 20.7378L18.6108 20.2002C18.1715 19.7609 18.1715 19.0487 18.6108 18.6094ZM17.0903 12.1069C17.0903 9.36947 14.8708 7.14996 12.1333 7.1499C9.3958 7.1499 7.17627 9.36943 7.17627 12.1069C7.17652 14.8442 9.39596 17.0625 12.1333 17.0625C14.8706 17.0624 17.0901 14.8442 17.0903 12.1069ZM1.88525 11.0229C2.50652 11.023 3.0102 11.5267 3.01025 12.1479C3.01025 12.7693 2.50655 13.2729 1.88525 13.2729H1.125C0.50368 13.2729 0 12.7693 0 12.1479C5.29544e-05 11.5267 0.503712 11.0229 1.125 11.0229H1.88525ZM23.1709 11.0229C23.7922 11.0229 24.2958 11.5267 24.2959 12.1479C24.2959 12.7693 23.7922 13.2729 23.1709 13.2729H22.4106C21.7894 13.2728 21.2856 12.7692 21.2856 12.1479C21.2857 11.5268 21.7895 11.0231 22.4106 11.0229H23.1709ZM3.55664 3.55811C3.99598 3.11877 4.70959 3.11877 5.14893 3.55811L5.68652 4.0957C6.12541 4.53495 6.12538 5.24726 5.68652 5.68652C5.24718 6.12586 4.53358 6.12586 4.09424 5.68652L3.55664 5.14893C3.11788 4.70967 3.11781 3.99732 3.55664 3.55811ZM19.147 3.55811C19.5863 3.11877 20.2999 3.11876 20.7393 3.55811C21.1782 3.99733 21.1781 4.70964 20.7393 5.14893L20.2017 5.68652C19.7624 6.12577 19.0502 6.1256 18.6108 5.68652C18.1715 5.24718 18.1715 4.53504 18.6108 4.0957L19.147 3.55811ZM11.0229 1.88525V1.125C11.0229 0.503712 11.5267 5.29544e-05 12.1479 0C12.7693 0 13.2729 0.50368 13.2729 1.125V1.88525C13.2729 2.50655 12.7693 3.01025 12.1479 3.01025C11.5267 3.0102 11.023 2.50652 11.0229 1.88525ZM19.3403 12.1069C19.3401 16.0868 16.1132 19.3124 12.1333 19.3125C8.15331 19.3125 4.92652 16.0869 4.92627 12.1069C4.92627 8.12679 8.15316 4.8999 12.1333 4.8999C16.1134 4.89996 19.3403 8.12683 19.3403 12.1069Z" fill="currentColor"/>
</svg>
