<svg width="20" height="20" viewBox="0 0 20 20" fill="none" xmlns="http://www.w3.org/2000/svg">
<path d="M3.33301 11.6667H2.58301H3.33301ZM5.91634 18.3334C5.91634 18.7476 6.25213 19.0834 6.66634 19.0834C7.08055 19.0834 7.41634 18.7476 7.41634 18.3334H6.66634H5.91634ZM7.41634 15.8334C7.41634 15.4191 7.08055 15.0834 6.66634 15.0834C6.25213 15.0834 5.91634 15.4191 5.91634 15.8334H6.66634H7.41634ZM9.24967 18.3334C9.24967 18.7476 9.58546 19.0834 9.99967 19.0834C10.4139 19.0834 10.7497 18.7476 10.7497 18.3334H9.99967H9.24967ZM10.7497 15.8334C10.7497 15.4191 10.4139 15.0834 9.99967 15.0834C9.58546 15.0834 9.24967 15.4191 9.24967 15.8334H9.99967H10.7497ZM12.583 18.3334C12.583 18.7476 12.9188 19.0834 13.333 19.0834C13.7472 19.0834 14.083 18.7476 14.083 18.3334H13.333H12.583ZM14.083 15.8334C14.083 15.4191 13.7472 15.0834 13.333 15.0834C12.9188 15.0834 12.583 15.4191 12.583 15.8334H13.333H14.083ZM9.24967 7.50002C9.24967 7.91423 9.58546 8.25002 9.99967 8.25002C10.4139 8.25002 10.7497 7.91423 10.7497 7.50002H9.99967H9.24967ZM10.7497 1.66669C10.7497 1.25247 10.4139 0.916687 9.99967 0.916687C9.58546 0.916687 9.24967 1.25247 9.24967 1.66669H9.99967H10.7497ZM4.99967 7.50002V8.25002H14.9997V7.50002V6.75002H4.99967V7.50002ZM16.6663 9.16669H15.9163V11.6667H16.6663H17.4163V9.16669H16.6663ZM16.6663 11.6667V10.9167H3.33301V11.6667V12.4167H16.6663V11.6667ZM3.33301 11.6667H4.08301V9.16669H3.33301H2.58301V11.6667H3.33301ZM16.6663 11.6667H15.9163V16.6667H16.6663H17.4163V11.6667H16.6663ZM14.9997 18.3334V17.5834H4.99967V18.3334V19.0834H14.9997V18.3334ZM3.33301 16.6667H4.08301V11.6667H3.33301H2.58301V16.6667H3.33301ZM6.66634 18.3334H7.41634V15.8334H6.66634H5.91634V18.3334H6.66634ZM9.99967 18.3334H10.7497V15.8334H9.99967H9.24967V18.3334H9.99967ZM13.333 18.3334H14.083V15.8334H13.333H12.583V18.3334H13.333ZM9.99967 7.50002H10.7497V1.66669H9.99967H9.24967V7.50002H9.99967ZM16.6663 16.6667H15.9163C15.9163 17.1729 15.5059 17.5834 14.9997 17.5834V18.3334V19.0834C16.3344 19.0834 17.4163 18.0014 17.4163 16.6667H16.6663ZM4.99967 18.3334V17.5834C4.49341 17.5834 4.08301 17.1729 4.08301 16.6667H3.33301H2.58301C2.58301 18.0014 3.66499 19.0834 4.99967 19.0834V18.3334ZM4.99967 7.50002V6.75002C3.66499 6.75002 2.58301 7.832 2.58301 9.16669H3.33301H4.08301C4.08301 8.66043 4.49341 8.25002 4.99967 8.25002V7.50002ZM14.9997 7.50002V8.25002C15.5059 8.25002 15.9163 8.66043 15.9163 9.16669H16.6663H17.4163C17.4163 7.832 16.3344 6.75002 14.9997 6.75002V7.50002Z" fill="#9AA3AF"/>
</svg>
