<svg width="100%" height="100%" viewBox="0 0 24 24" fill="none" xmlns="http://www.w3.org/2000/svg">
<path d="M10.0747 18.4006V13.5256H2.40039C1.77927 13.5256 1.27571 13.0217 1.27539 12.4006C1.27539 6.47738 6.07772 1.67505 12.001 1.67505C17.924 1.67537 22.7251 6.47758 22.7251 12.4006C22.7248 13.0217 22.2212 13.5256 21.6001 13.5256H12.3247V18.4006C12.325 19.3254 13.0756 20.075 14.0005 20.075C14.9253 20.0749 15.6745 19.3254 15.6748 18.4006V18.0007C15.6748 17.3796 16.1788 16.876 16.7998 16.8757C17.4211 16.8757 17.9248 17.3794 17.9248 18.0007V18.4006C17.9245 20.5681 16.168 22.3249 14.0005 22.325C11.833 22.325 10.075 20.5681 10.0747 18.4006ZM14.2671 4.23267C15.9492 7.11394 16.4974 9.41103 16.9023 11.2756H20.3989C19.9493 7.88442 17.4965 5.12699 14.2671 4.23267ZM11.9263 4.71167C10.8502 6.1891 10.2734 7.47099 9.92529 8.60522C9.70374 9.32726 9.56747 10.006 9.45215 10.6707C9.41794 10.8678 9.38499 11.0707 9.35107 11.2756H14.5967C14.1863 9.45755 13.5965 7.3635 11.9263 4.71167ZM9.47266 4.30737C6.37231 5.27474 4.04058 7.97626 3.60303 11.2756H7.07031C7.12179 10.9719 7.17304 10.6474 7.23584 10.2854C7.35799 9.5815 7.51323 8.79726 7.7749 7.94458C8.11785 6.82714 8.63483 5.62103 9.47266 4.30737Z" fill="currentColor"/>
</svg>
