<svg width="24" height="24" viewBox="0 0 24 24" fill="none" xmlns="http://www.w3.org/2000/svg">
<path d="M2 16.2003V16.0001C2 15.4478 2.44772 15.0001 3 15.0001C3.55229 15.0001 4 15.4478 4 16.0001V16.2003C4 17.0567 4.00034 17.6389 4.03711 18.089C4.07293 18.5274 4.13809 18.7519 4.21778 18.9083C4.40952 19.2845 4.71556 19.5906 5.0918 19.7823C5.2482 19.862 5.47272 19.9262 5.91113 19.962C6.36118 19.9988 6.94337 20.0001 7.79981 20.0001H16.2002C17.0566 20.0001 17.6388 19.9988 18.0889 19.962C18.5273 19.9262 18.7518 19.862 18.9082 19.7823C19.2844 19.5906 19.5905 19.2845 19.7822 18.9083C19.8619 18.7519 19.9271 18.5274 19.9629 18.089C19.9997 17.6389 20 17.0567 20 16.2003V16.0001C20 15.4478 20.4477 15.0001 21 15.0001C21.5523 15.0001 22 15.4478 22 16.0001V16.2003C22 17.0237 22.001 17.7017 21.9561 18.252C21.9101 18.8139 21.8115 19.3304 21.5645 19.8155C21.181 20.568 20.5688 21.1801 19.8164 21.5636C19.3311 21.8108 18.814 21.9102 18.252 21.9561C17.7016 22.0011 17.0237 22.0001 16.2002 22.0001H7.79981C6.97632 22.0001 6.29843 22.0011 5.74805 21.9561C5.18599 21.9102 4.6689 21.8108 4.1836 21.5636C3.43118 21.1801 2.81896 20.568 2.43555 19.8155C2.18847 19.3304 2.08987 18.8139 2.04395 18.252C1.99898 17.7017 2 17.0237 2 16.2003ZM11 16.0001V5.41416L8.70703 7.70712C8.31653 8.09755 7.68348 8.09755 7.29297 7.70712C6.90247 7.31663 6.90252 6.68359 7.29297 6.29306L10.5859 3.00009C11.367 2.21905 12.633 2.21904 13.4141 3.00009L16.707 6.29306C17.0975 6.68359 17.0975 7.31663 16.707 7.70712C16.3165 8.09755 15.6835 8.09755 15.293 7.70712L13 5.41416V16.0001C12.9999 16.5523 12.5522 17.0001 12 17.0001C11.4478 17.0001 11.0001 16.5523 11 16.0001Z" fill="#9AA3AF"/>
</svg>
