<svg width="100%" height="100%" viewBox="0 0 24 24" fill="none" xmlns="http://www.w3.org/2000/svg">
<path d="M19 16.7784C19 16.7777 19.0002 16.7751 18.999 16.7696C18.9977 16.7637 18.9943 16.7494 18.9844 16.7267C18.964 16.6801 18.9154 16.5933 18.8076 16.4737C18.5827 16.2242 18.1697 15.9099 17.5146 15.6026C16.2067 14.989 14.259 14.5557 12 14.5557C9.74096 14.5557 7.79328 14.989 6.48535 15.6026C5.83034 15.9099 5.41735 16.2242 5.19238 16.4737C5.08461 16.5933 5.03596 16.6801 5.01562 16.7267C5.00573 16.7494 5.00227 16.7637 5.00098 16.7696C4.9998 16.7751 5 16.7777 5 16.7784C5.00008 17.0055 5.07654 17.4714 6.07227 17.9904C7.13468 18.5441 9.01908 19.0002 12 19.0002V21.0002C5.92319 21.0002 3.17363 19.2263 3.00781 16.9952L3 16.7784C3 14.4465 7.02944 12.5557 12 12.5557C16.9706 12.5557 21 14.4465 21 16.7784L20.9922 16.9952C20.8264 19.2263 18.0768 21.0002 12 21.0002V19.0002C14.9809 19.0002 16.8653 18.5441 17.9277 17.9904C18.9235 17.4714 18.9999 17.0055 19 16.7784Z" fill="currentColor"/>
<path d="M14 7C14 5.89543 13.1046 5 12 5C10.8954 5 10 5.89543 10 7C10 8.10457 10.8954 9 12 9V11C9.79086 11 8 9.20914 8 7C8 4.79086 9.79086 3 12 3C14.2091 3 16 4.79086 16 7C16 9.20914 14.2091 11 12 11V9C13.1046 9 14 8.10457 14 7Z" fill="currentColor"/>
</svg>
