<svg width="100%" height="100%" viewBox="0 0 24 24" fill="none" xmlns="http://www.w3.org/2000/svg">
<path d="M19 16.7783C19 16.7776 19.0002 16.775 18.999 16.7695C18.9977 16.7635 18.9943 16.7493 18.9844 16.7265C18.964 16.6799 18.9154 16.5932 18.8076 16.4736C18.5827 16.2241 18.1697 15.9098 17.5146 15.6025C16.2067 14.9889 14.259 14.5556 12 14.5556C9.74096 14.5556 7.79328 14.9889 6.48535 15.6025C5.83034 15.9098 5.41735 16.2241 5.19238 16.4736C5.08461 16.5932 5.03596 16.6799 5.01562 16.7265C5.00573 16.7493 5.00227 16.7635 5.00098 16.7695C4.9998 16.775 5 16.7776 5 16.7783C5.00008 17.0053 5.07654 17.4712 6.07227 17.9903C7.13468 18.544 9.01908 19 12 19V21.0001C5.92319 21.0001 3.17363 19.2261 3.00781 16.9951L3 16.7783C3 14.4463 7.02944 12.5555 12 12.5555C16.9706 12.5555 21 14.4463 21 16.7783L20.9922 16.9951C20.8264 19.2261 18.0768 21.0001 12 21.0001V19C14.9809 19 16.8653 18.544 17.9277 17.9903C18.9235 17.4712 18.9999 17.0053 19 16.7783Z" fill="#9AA3AF"/>
<path d="M14 7C14 5.89543 13.1046 5 12 5C10.8954 5 10 5.89543 10 7C10 8.10457 10.8954 9 12 9V11C9.79086 11 8 9.20914 8 7C8 4.79086 9.79086 3 12 3C14.2091 3 16 4.79086 16 7C16 9.20914 14.2091 11 12 11V9C13.1046 9 14 8.10457 14 7Z" fill="#9AA3AF"/>
</svg>
