<svg width="20" height="20" viewBox="0 0 20 20" fill="none" xmlns="http://www.w3.org/2000/svg">
<path d="M15.8333 13.982C15.8333 13.9814 15.8335 13.9792 15.8325 13.9747C15.8314 13.9697 15.8286 13.9578 15.8203 13.9388C15.8034 13.9 15.7628 13.8277 15.673 13.7281C15.4855 13.5201 15.1414 13.2582 14.5955 13.0021C13.5056 12.4908 11.8825 12.1297 10 12.1297C8.11747 12.1297 6.4944 12.4908 5.40446 13.0021C4.85862 13.2582 4.51446 13.5201 4.32699 13.7281C4.23718 13.8277 4.19663 13.9 4.17969 13.9388C4.17144 13.9578 4.16856 13.9697 4.16748 13.9747C4.1665 13.9792 4.16667 13.9814 4.16667 13.982C4.16674 14.1712 4.23045 14.5594 5.06022 14.9919C5.94557 15.4534 7.5159 15.8334 10 15.8334V17.5001C4.93599 17.5001 2.64469 16.0218 2.50651 14.1627L2.5 13.982C2.5 12.0387 5.85786 10.463 10 10.463C14.1421 10.463 17.5 12.0387 17.5 13.982L17.4935 14.1627C17.3553 16.0218 15.064 17.5001 10 17.5001V15.8334C12.4841 15.8334 14.0544 15.4534 14.9398 14.9919C15.7695 14.5594 15.8333 14.1712 15.8333 13.982Z" fill="#9AA3AF"/>
<path d="M11.667 5.83333C11.667 4.91286 10.9208 4.16667 10.0003 4.16667C9.07985 4.16667 8.33366 4.91286 8.33366 5.83333C8.33366 6.75381 9.07985 7.5 10.0003 7.5V9.16667C8.15938 9.16667 6.66699 7.67428 6.66699 5.83333C6.66699 3.99238 8.15938 2.5 10.0003 2.5C11.8413 2.5 13.3337 3.99238 13.3337 5.83333C13.3337 7.67428 11.8413 9.16667 10.0003 9.16667V7.5C10.9208 7.5 11.667 6.75381 11.667 5.83333Z" fill="#9AA3AF"/>
</svg>
