<svg width="24" height="24" viewBox="0 0 24 24" fill="none" xmlns="http://www.w3.org/2000/svg">
<path d="M15.375 10.375C15.375 8.51104 13.864 7 12 7C10.1361 7.00007 8.625 8.51108 8.625 10.375C8.625 12.2389 10.1361 13.7499 12 13.75C13.864 13.75 15.375 12.239 15.375 10.375ZM12 15.75C9.07277 15.75 6.87191 17.2099 6.21191 18.8906C7.77677 20.2065 9.79544 21 12 21C14.2045 21 16.2223 20.2054 17.7871 18.8896C17.1265 17.2094 14.9266 15.75 12 15.75ZM23 12C23 18.0751 18.0751 23 12 23C5.92487 23 1 18.0751 1 12C1 5.92487 5.92487 1 12 1C18.0751 1 23 5.92487 23 12ZM17.375 10.375C17.375 11.9779 16.6724 13.4156 15.5596 14.4004C17.1463 15.0118 18.4672 16.0281 19.2471 17.335C20.348 15.8419 21 13.9974 21 12C21 7.02944 16.9706 3 12 3C7.02944 3 3 7.02944 3 12C3 13.9974 3.65197 15.8419 4.75293 17.335C5.53263 16.0283 6.85313 15.0119 8.43945 14.4004C7.327 13.4156 6.625 11.9775 6.625 10.375C6.625 7.40651 9.03153 5.00007 12 5C14.9685 5 17.375 7.40647 17.375 10.375Z" fill="#9AA3AF"/>
</svg>
