<svg width="24" height="24" viewBox="0 0 24 24" fill="none" xmlns="http://www.w3.org/2000/svg">
<path d="M4.48186 21.5046L4.93585 20.6136H4.93585L4.48186 21.5046ZM2.49542 19.5181L3.38643 19.0641H3.38643L2.49542 19.5181ZM19.5181 2.49542L19.0641 3.38643V3.38643L19.5181 2.49542ZM21.5046 4.48186L20.6136 4.93585V4.93585L21.5046 4.48186ZM4.48186 2.49542L4.93585 3.38643L4.48186 2.49542ZM2.49542 4.48186L3.38643 4.93585L2.49542 4.48186ZM21 11.0909C21 11.6432 21.4477 12.0909 22 12.0909C22.5523 12.0909 23 11.6432 23 11.0909H22H21ZM11.0909 23C11.6432 23 12.0909 22.5523 12.0909 22C12.0909 21.4477 11.6432 21 11.0909 21V22V23ZM2 7.36364C1.44772 7.36364 1 7.81135 1 8.36364C1 8.91592 1.44772 9.36364 2 9.36364V8.36364V7.36364ZM22 9.36364C22.5523 9.36364 23 8.91592 23 8.36364C23 7.81135 22.5523 7.36364 22 7.36364V8.36364V9.36364ZM6.63636 5.63636C6.63636 5.08408 6.18865 4.63636 5.63636 4.63636C5.08408 4.63636 4.63636 5.08408 4.63636 5.63636H5.63636H6.63636ZM9.36364 5.63636C9.36364 5.08408 8.91592 4.63636 8.36364 4.63636C7.81135 4.63636 7.36364 5.08408 7.36364 5.63636H8.36364H9.36364ZM12.0909 5.63636C12.0909 5.08408 11.6432 4.63636 11.0909 4.63636C10.5386 4.63636 10.0909 5.08408 10.0909 5.63636H11.0909H12.0909ZM4.63636 5.64545C4.63636 6.19774 5.08408 6.64545 5.63636 6.64545C6.18865 6.64545 6.63636 6.19774 6.63636 5.64545H5.63636H4.63636ZM7.36364 5.64545C7.36364 6.19774 7.81135 6.64545 8.36364 6.64545C8.91592 6.64545 9.36364 6.19774 9.36364 5.64545H8.36364H7.36364ZM10.0909 5.64545C10.0909 6.19774 10.5386 6.64545 11.0909 6.64545C11.6432 6.64545 12.0909 6.19774 12.0909 5.64545H11.0909H10.0909ZM9.27273 2V3H14.7273V2V1H9.27273V2ZM2 14.7273H3V9.27273H2H1V14.7273H2ZM9.27273 22V21C7.98338 21 7.07651 20.9992 6.36871 20.9414C5.67259 20.8845 5.25755 20.7775 4.93585 20.6136L4.48186 21.5046L4.02787 22.3956C4.6785 22.7271 5.38605 22.8678 6.20585 22.9348C7.01398 23.0008 8.01638 23 9.27273 23V22ZM2 14.7273H1C1 15.9836 0.999222 16.986 1.06525 17.7942C1.13223 18.614 1.27291 19.3215 1.60442 19.9721L2.49542 19.5181L3.38643 19.0641C3.22252 18.7425 3.11548 18.3274 3.05861 17.6313C3.00078 16.9235 3 16.0166 3 14.7273H2ZM4.48186 21.5046L4.93585 20.6136C4.26873 20.2737 3.72635 19.7313 3.38643 19.0641L2.49542 19.5181L1.60442 19.9721C2.13608 21.0156 2.98443 21.8639 4.02787 22.3956L4.48186 21.5046ZM14.7273 2V3C16.0166 3 16.9235 3.00078 17.6313 3.05861C18.3274 3.11548 18.7425 3.22252 19.0641 3.38643L19.5181 2.49542L19.9721 1.60442C19.3215 1.27291 18.614 1.13223 17.7942 1.06525C16.986 0.999222 15.9836 1 14.7273 1V2ZM22 9.27273H23C23 8.01638 23.0008 7.01398 22.9348 6.20585C22.8678 5.38605 22.7271 4.6785 22.3956 4.02787L21.5046 4.48186L20.6136 4.93585C20.7775 5.25755 20.8845 5.67259 20.9414 6.36871C20.9992 7.07651 21 7.98338 21 9.27273H22ZM19.5181 2.49542L19.0641 3.38643C19.7313 3.72635 20.2737 4.26873 20.6136 4.93585L21.5046 4.48186L22.3956 4.02787C21.8639 2.98443 21.0156 2.13608 19.9721 1.60442L19.5181 2.49542ZM9.27273 2V1C8.01638 1 7.01398 0.999222 6.20585 1.06525C5.38604 1.13223 4.6785 1.27291 4.02787 1.60442L4.48186 2.49542L4.93585 3.38643C5.25755 3.22252 5.67259 3.11548 6.36871 3.05861C7.07651 3.00078 7.98338 3 9.27273 3V2ZM2 9.27273H3C3 7.98338 3.00078 7.07651 3.05861 6.36871C3.11548 5.67259 3.22252 5.25755 3.38643 4.93585L2.49542 4.48186L1.60442 4.02787C1.27291 4.6785 1.13223 5.38604 1.06525 6.20585C0.999222 7.01398 1 8.01638 1 9.27273H2ZM4.48186 2.49542L4.02787 1.60442C2.98443 2.13608 2.13608 2.98443 1.60442 4.02787L2.49542 4.48186L3.38643 4.93585C3.72635 4.26873 4.26873 3.72635 4.93585 3.38643L4.48186 2.49542ZM22 9.27273H21V11.0909H22H23V9.27273H22ZM11.0909 22V21H9.27273V22V23H11.0909V22ZM2 8.36364V9.36364H22V8.36364V7.36364H2V8.36364ZM22 17H21C21 19.2091 19.2091 21 17 21V22V23C20.3137 23 23 20.3137 23 17H22ZM17 22V21C14.7909 21 13 19.2091 13 17H12H11C11 20.3137 13.6863 23 17 23V22ZM12 17H13C13 14.7909 14.7909 13 17 13V12V11C13.6863 11 11 13.6863 11 17H12ZM17 12V13C19.2091 13 21 14.7909 21 17H22H23C23 13.6863 20.3137 11 17 11V12ZM5.63636 5.63636H4.63636V5.64545H5.63636H6.63636V5.63636H5.63636ZM8.36364 5.63636H7.36364V5.64545H8.36364H9.36364V5.63636H8.36364ZM11.0909 5.63636H10.0909V5.64545H11.0909H12.0909V5.63636H11.0909Z" fill="#6A7381"/>
<path d="M19.5455 16L16.6213 18.6518C16.5104 18.7524 16.3305 18.7524 16.2196 18.6518L15 17.5458" stroke="#00B1BD" stroke-width="2" stroke-linecap="round"/>
</svg>
