<svg width="100%" height="100%" viewBox="0 0 24 24" fill="none" xmlns="http://www.w3.org/2000/svg">
<path d="M16.4863 10.2354C16.4863 8.51372 15.7889 6.95566 14.6582 5.82617C13.5275 4.69671 11.9677 4.00005 10.2432 4C10.0777 4 10.0007 4.04546 9.96582 4.07324C9.9259 4.10507 9.88124 4.1622 9.85547 4.26172C9.80115 4.47162 9.85297 4.814 10.1406 5.10156L11.1846 6.14453C12.4459 7.4045 12.4459 9.44804 11.1846 10.708L10.7148 11.1768C9.45408 12.4361 7.41018 12.4361 6.14941 11.1768L5.10547 10.1348C4.81752 9.8472 4.47427 9.79504 4.2627 9.84961C4.16239 9.87551 4.10504 9.92017 4.07324 9.95996C4.04559 9.99459 4 10.071 4 10.2354C4.00012 11.9568 4.69748 13.5142 5.82812 14.6436C6.95888 15.773 8.51864 16.4697 10.2432 16.4697C10.5447 16.4697 10.8407 16.4482 11.1299 16.4072C12.1768 16.2587 13.4267 16.4543 14.3223 17.3486L16.6172 19.6406C17.0971 20.1197 17.8757 20.1199 18.3555 19.6406L19.6406 18.3564C20.1241 17.8735 20.1194 17.0892 19.6299 16.6123L17.3848 14.4268C16.4553 13.5216 16.2566 12.2367 16.417 11.167C16.4625 10.8636 16.4863 10.5525 16.4863 10.2354ZM18.4863 10.2354C18.4863 10.6523 18.4547 11.0625 18.3945 11.4639C18.2955 12.1246 18.4555 12.6767 18.7803 12.9932L21.0244 15.1797C22.3131 16.4347 22.3264 18.5002 21.0537 19.7715L19.7686 21.0557C18.5078 22.3149 16.4639 22.315 15.2031 21.0557L12.9092 18.7637C12.5956 18.4505 12.057 18.2961 11.4111 18.3877C11.0292 18.4419 10.639 18.4697 10.2432 18.4697C7.96773 18.4697 5.9057 17.5474 4.41504 16.0586C2.92443 14.5696 2.00012 12.5093 2 10.2354C2 9.01209 2.77443 8.16827 3.7627 7.91309C4.69482 7.67247 5.75734 7.95838 6.51953 8.71973L7.56348 9.76172C8.04337 10.241 8.82188 10.2411 9.30176 9.76172L9.77148 9.29297C10.2506 8.81427 10.2506 8.0383 9.77148 7.55957L8.72754 6.5166C7.96533 5.75514 7.67861 4.69318 7.91992 3.76074C8.17584 2.77207 9.02068 2 10.2432 2C12.5186 2.00005 14.5807 2.92227 16.0713 4.41113C17.562 5.90017 18.4863 7.96125 18.4863 10.2354Z" fill="currentColor"/>
</svg>
