<svg width="20" height="20" viewBox="0 0 20 20" fill="none" xmlns="http://www.w3.org/2000/svg">
<path d="M13.7389 8.52942C13.7389 7.09472 13.1578 5.79634 12.2155 4.8551C11.2732 3.91389 9.9734 3.33333 8.5363 3.33329C8.39843 3.33329 8.33422 3.37117 8.30518 3.39433C8.27191 3.42085 8.23469 3.46846 8.21322 3.55139C8.16795 3.72631 8.21113 4.01163 8.45085 4.25126L9.3208 5.1204C10.372 6.17038 10.3719 7.87332 9.3208 8.9233L8.92936 9.31392C7.87873 10.3634 6.17547 10.3634 5.12484 9.31392L4.25488 8.4456C4.01493 8.20596 3.72889 8.16249 3.55257 8.20797C3.46899 8.22955 3.42119 8.26677 3.39469 8.29993C3.37165 8.32879 3.33366 8.39242 3.33366 8.52942C3.33376 9.96397 3.91489 11.2618 4.8571 12.2029C5.79939 13.1441 7.09919 13.7247 8.5363 13.7247C8.78761 13.7247 9.03426 13.7068 9.27523 13.6726C10.1477 13.5489 11.1893 13.7119 11.9355 14.4572L13.848 16.3671C14.2479 16.7664 14.8967 16.7665 15.2965 16.3671L16.3675 15.297C16.7704 14.8945 16.7665 14.241 16.3586 13.8435L14.4876 12.0223C13.7131 11.2679 13.5475 10.1972 13.6812 9.30579C13.719 9.05297 13.7389 8.79374 13.7389 8.52942ZM15.4056 8.52942C15.4056 8.87685 15.3792 9.21874 15.3291 9.55318C15.2465 10.1038 15.3799 10.5639 15.6506 10.8276L17.5207 12.6497C18.5946 13.6956 18.6057 15.4168 17.5451 16.4762L16.4741 17.5463C15.4235 18.5957 13.7202 18.5958 12.6696 17.5463L10.758 15.6364C10.4966 15.3754 10.0478 15.2467 9.5096 15.323C9.1913 15.3682 8.86619 15.3914 8.5363 15.3914C6.6401 15.3914 4.92174 14.6228 3.67952 13.3821C2.43735 12.1413 1.66709 10.4244 1.66699 8.52942C1.66699 7.51003 2.31235 6.80685 3.13591 6.5942C3.91268 6.39368 4.79811 6.63194 5.43327 7.2664L6.30322 8.13472C6.70314 8.53416 7.35189 8.53418 7.75179 8.13472L8.14323 7.7441C8.54252 7.34519 8.54247 6.69854 8.14323 6.2996L7.27327 5.43046C6.6381 4.79591 6.39917 3.91095 6.60026 3.13391C6.81353 2.31002 7.51756 1.66663 8.5363 1.66663C10.4325 1.66667 12.1509 2.43518 13.3931 3.6759C14.6353 4.91677 15.4056 6.63434 15.4056 8.52942Z" fill="#9AA3AF"/>
</svg>
