<svg width="100%" height="100%" viewBox="0 0 24 24" fill="none" xmlns="http://www.w3.org/2000/svg">
<g clip-path="url(#clip0_4532_695)">
<path fill-rule="evenodd" clip-rule="evenodd" d="M23.7555 7.20168C23.7555 7.20168 23.5212 5.54737 22.8001 4.821C21.8864 3.86561 20.8632 3.85942 20.3955 3.80407C17.0395 3.55957 11.9991 3.55957 11.9991 3.55957H11.9902C11.9902 3.55957 6.95205 3.55957 3.59426 3.80407C3.12476 3.86118 2.10296 3.8652 1.18965 4.821C0.46815 5.54737 0.238725 7.20168 0.238725 7.20168C0.238725 7.20168 0 9.14298 0 11.0883V12.9074C0 14.8487 0.238725 16.794 0.238725 16.794C0.238725 16.794 0.473025 18.4483 1.18965 19.176C2.10296 20.1314 3.30326 20.1004 3.83921 20.2023C5.7606 20.3856 12.0009 20.441 12.0009 20.441C12.0009 20.441 17.0457 20.4321 20.4017 20.1921C20.8712 20.1367 21.8925 20.1309 22.8063 19.1751C23.5278 18.4487 23.7617 16.7926 23.7617 16.7926C23.7617 16.7926 24.0005 14.8514 24.0005 12.906V11.087C23.9956 9.14565 23.7568 7.20037 23.7568 7.20037L23.7555 7.20168ZM9.513 15.1144V8.36925L15.9965 11.7531L9.513 15.1144Z" fill="#6A7381"/>
</g>
<defs>
<clipPath id="clip0_4532_695">
<rect width="24" height="24" fill="white"/>
</clipPath>
</defs>
</svg>
