<svg width="16" height="16" viewBox="0 0 16 16" fill="none" xmlns="http://www.w3.org/2000/svg">
<path d="M13.9993 8.00008C13.9993 4.68637 11.3131 2.00008 7.99935 2.00008C4.68564 2.00008 1.99935 4.68637 1.99935 8.00008C1.99935 11.3138 4.68564 14.0001 7.99935 14.0001C11.3131 14.0001 13.9993 11.3138 13.9993 8.00008ZM7.33268 10.6733V10.6667C7.33268 10.2986 7.63116 10.0001 7.99935 10.0001C8.36754 10.0001 8.66602 10.2986 8.66602 10.6667V10.6733C8.66602 11.0414 8.36754 11.3399 7.99935 11.3399C7.63116 11.3399 7.33268 11.0414 7.33268 10.6733ZM7.33268 8.66675V5.33341C7.33268 4.96523 7.63116 4.66675 7.99935 4.66675C8.36754 4.66675 8.66602 4.96523 8.66602 5.33341V8.66675C8.66602 9.03494 8.36754 9.33341 7.99935 9.33341C7.63116 9.33341 7.33268 9.03494 7.33268 8.66675ZM15.3327 8.00008C15.3327 12.0502 12.0494 15.3334 7.99935 15.3334C3.94926 15.3334 0.666016 12.0502 0.666016 8.00008C0.666016 3.94999 3.94926 0.666748 7.99935 0.666748C12.0494 0.666748 15.3327 3.94999 15.3327 8.00008Z" fill="currentColor"/>
</svg>
