<svg width="48" height="48" viewBox="0 0 48 48" fill="none" xmlns="http://www.w3.org/2000/svg">
<rect width="48" height="48" rx="24" fill="black"/>
<rect width="48" height="48" rx="24" fill="black" fill-opacity="0.2"/>
<g clip-path="url(#clip0_3369_8365)">
<path d="M30.9206 28.756C30.6612 29.3499 30.3541 29.8966 29.9983 30.3993C29.5133 31.0845 29.1162 31.5588 28.8102 31.8222C28.3358 32.2545 27.8275 32.4759 27.2832 32.4885C26.8925 32.4885 26.4212 32.3783 25.8727 32.1548C25.3224 31.9324 24.8167 31.8222 24.3542 31.8222C23.8693 31.8222 23.3491 31.9324 22.7928 32.1548C22.2356 32.3783 21.7867 32.4948 21.4435 32.5064C20.9215 32.5284 20.4013 32.3007 19.882 31.8222C19.5506 31.5357 19.136 31.0446 18.6394 30.3489C18.1065 29.6059 17.6684 28.7444 17.3252 27.7622C16.9577 26.7013 16.7734 25.674 16.7734 24.6795C16.7734 23.5402 17.0219 22.5576 17.5194 21.7341C17.9105 21.0727 18.4308 20.551 19.0819 20.168C19.733 19.785 20.4366 19.5898 21.1942 19.5773C21.6088 19.5773 22.1524 19.7044 22.828 19.9541C23.5017 20.2047 23.9343 20.3318 24.1239 20.3318C24.2657 20.3318 24.7462 20.1832 25.5609 19.887C26.3312 19.6122 26.9814 19.4985 27.514 19.5433C28.9574 19.6587 30.0417 20.2225 30.7628 21.2383C29.472 22.0134 28.8335 23.0989 28.8462 24.4915C28.8578 25.5762 29.2549 26.4789 30.0353 27.1956C30.389 27.5282 30.784 27.7853 31.2234 27.9679C31.1281 28.2418 31.0275 28.5041 30.9206 28.756V28.756ZM27.6104 15.8479C27.6104 16.6981 27.297 17.4919 26.6722 18.2267C25.9183 19.1002 25.0063 19.6049 24.0174 19.5253C24.0048 19.4233 23.9975 19.3159 23.9975 19.2031C23.9975 18.3869 24.356 17.5134 24.9928 16.7993C25.3106 16.4376 25.7149 16.137 26.2052 15.8971C26.6944 15.6609 27.1572 15.5302 27.5924 15.5078C27.6051 15.6215 27.6104 15.7351 27.6104 15.8479V15.8479Z" fill="white"/>
</g>
<defs>
<clipPath id="clip0_3369_8365">
<rect width="17" height="17" fill="white" transform="translate(15.5 15.5)"/>
</clipPath>
</defs>
</svg>
