<svg width="16" height="16" viewBox="0 0 16 16" fill="none" xmlns="http://www.w3.org/2000/svg">
<path d="M13.6494 4.99951C13.6494 4.53055 13.2694 4.15015 12.7998 4.1499H3.19922C2.73008 4.15011 2.34982 4.53038 2.34961 4.99951V5.44971H13.6494V4.99951ZM6.39941 8.24951C6.81348 8.24957 7.14926 8.58547 7.14941 8.99951C7.14941 9.41369 6.81358 9.74945 6.39941 9.74951H4.39941C3.9852 9.74951 3.64941 9.41372 3.64941 8.99951C3.64957 8.58543 3.9853 8.24951 4.39941 8.24951H6.39941ZM2.34961 10.9995C2.34962 11.4689 2.73077 11.8501 3.2002 11.8501H12.7998C13.2696 11.85 13.6494 11.4694 13.6494 11.0005V6.94971H2.34961V10.9995ZM15.1494 11.0005C15.1494 12.2987 14.0971 13.35 12.7998 13.3501H3.2002C1.90236 13.3501 0.849646 12.2973 0.849609 10.9995V4.99951C0.849819 3.70196 1.90166 2.65011 3.19922 2.6499H12.7998C14.0971 2.65015 15.1494 3.7015 15.1494 4.99951V11.0005Z" fill="currentColor"/>
</svg>
