<svg width="24" height="24" viewBox="0 0 24 24" fill="none" xmlns="http://www.w3.org/2000/svg">
<path d="M9.40039 4H14.5996C15.736 4 16.5287 4.00041 17.1455 4.05078C17.7507 4.10023 18.0989 4.19296 18.3623 4.32715C18.9265 4.61472 19.3853 5.07347 19.6729 5.6377C19.807 5.90105 19.8998 6.24932 19.9492 6.85449C19.9996 7.47129 20 8.26396 20 9.40039V14.5996C20 15.736 19.9996 16.5287 19.9492 17.1455C19.8998 17.7507 19.807 18.0989 19.6729 18.3623C19.3853 18.9265 18.9265 19.3853 18.3623 19.6729C18.0989 19.807 17.7507 19.8998 17.1455 19.9492C16.5287 19.9996 15.736 20 14.5996 20H9.40039C8.26396 20 7.47129 19.9996 6.85449 19.9492C6.24932 19.8998 5.90105 19.807 5.6377 19.6729C5.07347 19.3853 4.61472 18.9265 4.32715 18.3623C4.19296 18.0989 4.10023 17.7507 4.05078 17.1455C4.00041 16.5287 4 15.736 4 14.5996V9.40039C4 8.26396 4.00041 7.47129 4.05078 6.85449C4.10023 6.24932 4.19296 5.90105 4.32715 5.6377C4.61472 5.07347 5.07347 4.61472 5.6377 4.32715C5.90105 4.19296 6.24932 4.10023 6.85449 4.05078C7.47129 4.00041 8.26396 4 9.40039 4Z" fill="white" stroke="#EAECF1" stroke-width="2" stroke-linecap="round"/>
<path d="M10.8363 14.6942L10.1637 13.9543V13.9543L10.8363 14.6942ZM16.6727 10.7399C17.0813 10.3684 17.1114 9.73598 16.7399 9.32733C16.3684 8.91867 15.736 8.88855 15.3273 9.26006L16 10L16.6727 10.7399ZM10.1637 14.6942L10.8363 13.9543V13.9543L10.1637 14.6942ZM8.67267 11.9873C8.26402 11.6158 7.63157 11.6459 7.26006 12.0546C6.88855 12.4633 6.91867 13.0957 7.32733 13.4672L8 12.7273L8.67267 11.9873ZM10.8363 14.6942L11.509 15.4342L16.6727 10.7399L16 10L15.3273 9.26006L10.1637 13.9543L10.8363 14.6942ZM10.1637 14.6942L10.8363 13.9543L8.67267 11.9873L8 12.7273L7.32733 13.4672L9.49099 15.4342L10.1637 14.6942ZM10.8363 14.6942L10.1637 13.9543C10.3544 13.7809 10.6456 13.7809 10.8363 13.9543L10.1637 14.6942L9.49099 15.4342C10.0631 15.9543 10.9369 15.9543 11.509 15.4342L10.8363 14.6942Z" fill="#EAECF1"/>
</svg>
