<svg width="16" height="16" viewBox="0 0 16 16" fill="none" xmlns="http://www.w3.org/2000/svg">
<path d="M11.5288 3.52876C11.7891 3.26841 12.2111 3.26841 12.4715 3.52876C12.7318 3.78911 12.7318 4.21112 12.4715 4.47147L8.94282 8.00011L12.4715 11.5288C12.7318 11.7891 12.7318 12.2111 12.4715 12.4715C12.2111 12.7318 11.7891 12.7318 11.5288 12.4715L8.00011 8.94282L4.47147 12.4715C4.21112 12.7318 3.78911 12.7318 3.52876 12.4715C3.26841 12.2111 3.26841 11.7891 3.52876 11.5288L7.0574 8.00011L3.52876 4.47147C3.26841 4.21112 3.26841 3.78911 3.52876 3.52876C3.78911 3.26841 4.21112 3.26841 4.47147 3.52876L8.00011 7.0574L11.5288 3.52876Z" fill="#9AA3AF"/>
</svg>
