<svg width="16" height="16" viewBox="0 0 16 16" fill="none" xmlns="http://www.w3.org/2000/svg">
<path d="M11.5288 3.52827C11.7891 3.26792 12.2111 3.26792 12.4715 3.52827C12.7318 3.78862 12.7318 4.21063 12.4715 4.47098L8.94282 7.99962L12.4715 11.5283C12.7318 11.7886 12.7318 12.2106 12.4715 12.471C12.2111 12.7313 11.7891 12.7313 11.5288 12.471L8.00011 8.94233L4.47147 12.471C4.21112 12.7313 3.78911 12.7313 3.52876 12.471C3.26841 12.2106 3.26841 11.7886 3.52876 11.5283L7.0574 7.99962L3.52876 4.47098C3.26841 4.21063 3.26841 3.78862 3.52876 3.52827C3.78911 3.26792 4.21112 3.26793 4.47147 3.52827L8.00011 7.05692L11.5288 3.52827Z" fill="#9AA3AF"/>
</svg>
