<svg width="20" height="20" viewBox="0 0 20 20" fill="none" xmlns="http://www.w3.org/2000/svg">
<rect width="20" height="20" rx="10" fill="#454F5B"/>
<path d="M12.7438 6.07709C13.0692 5.75165 13.5967 5.75165 13.9221 6.07709C14.2476 6.40252 14.2476 6.93003 13.9221 7.25547L11.178 9.99961L13.9221 12.7438C14.2476 13.0692 14.2476 13.5967 13.9221 13.9221C13.5967 14.2476 13.0692 14.2476 12.7438 13.9221L9.99961 11.178L7.25547 13.9221C6.93003 14.2476 6.40252 14.2476 6.07709 13.9221C5.75165 13.5967 5.75165 13.0692 6.07709 12.7438L8.82123 9.99961L6.07709 7.25547C5.75165 6.93003 5.75165 6.40252 6.07709 6.07709C6.40252 5.75165 6.93003 5.75165 7.25547 6.07709L9.99961 8.82123L12.7438 6.07709Z" fill="#9AA3AF"/>
</svg>
