<svg width="20" height="20" viewBox="0 0 20 20" fill="none" xmlns="http://www.w3.org/2000/svg">
<rect width="20" height="20" rx="10" fill="#EAECF1"/>
<path d="M12.7447 6.07806C13.0702 5.75263 13.5977 5.75263 13.9231 6.07806C14.2486 6.4035 14.2486 6.93101 13.9231 7.25645L11.179 10.0006L13.9231 12.7447C14.2485 13.0702 14.2485 13.5977 13.9231 13.9231C13.5977 14.2486 13.0702 14.2486 12.7447 13.9231L10.0006 11.179L7.25645 13.9231C6.93101 14.2486 6.4035 14.2486 6.07806 13.9231C5.75263 13.5977 5.75263 13.0702 6.07806 12.7447L8.8222 10.0006L6.07806 7.25645C5.75263 6.93101 5.75263 6.4035 6.07806 6.07806C6.4035 5.75263 6.93101 5.75263 7.25645 6.07806L10.0006 8.8222L12.7447 6.07806Z" fill="#6A7381"/>
</svg>
