<svg width="20" height="20" viewBox="0 0 20 20" fill="none" xmlns="http://www.w3.org/2000/svg">
<rect width="20" height="20" rx="10" fill="#EAECF1"/>
<path d="M12.7447 6.07745C13.0702 5.75201 13.5977 5.75202 13.9231 6.07745C14.2486 6.40289 14.2486 6.9304 13.9231 7.25584L11.179 9.99998L13.9231 12.7441C14.2485 13.0696 14.2485 13.5971 13.9231 13.9225C13.5977 14.2479 13.0702 14.2479 12.7447 13.9225L10.0006 11.1784L7.25645 13.9225C6.93101 14.2479 6.4035 14.2479 6.07806 13.9225C5.75263 13.5971 5.75263 13.0696 6.07806 12.7441L8.8222 9.99998L6.07806 7.25584C5.75263 6.9304 5.75263 6.40289 6.07806 6.07745C6.4035 5.75202 6.93101 5.75202 7.25645 6.07745L10.0006 8.82159L12.7447 6.07745Z" fill="#9AA3AF"/>
</svg>
