<svg width="20" height="20" viewBox="0 0 20 20" fill="none" xmlns="http://www.w3.org/2000/svg">
<rect width="20" height="20" rx="10" fill="#262F38"/>
<path d="M12.7447 6.07757C13.0702 5.75214 13.5977 5.75214 13.9231 6.07757C14.2486 6.40301 14.2486 6.93052 13.9231 7.25596L11.179 10.0001L13.9231 12.7442C14.2485 13.0697 14.2485 13.5972 13.9231 13.9226C13.5977 14.2481 13.0702 14.2481 12.7447 13.9226L10.0006 11.1785L7.25645 13.9226C6.93101 14.2481 6.4035 14.2481 6.07806 13.9226C5.75263 13.5972 5.75263 13.0697 6.07806 12.7442L8.8222 10.0001L6.07806 7.25596C5.75263 6.93052 5.75263 6.40301 6.07806 6.07757C6.4035 5.75214 6.93101 5.75214 7.25645 6.07757L10.0006 8.82171L12.7447 6.07757Z" fill="#9AA3AF"/>
</svg>
