<svg width="16" height="16" viewBox="0 0 16 16" fill="none" xmlns="http://www.w3.org/2000/svg">
<path d="M10.4759 10.1489C10.8441 10.1489 11.1426 10.4474 11.1426 10.8156C11.1426 11.1838 10.8441 11.4823 10.4759 11.4823H5.66276C5.29457 11.4823 4.99609 11.1838 4.99609 10.8156C4.99609 10.4474 5.29457 10.1489 5.66276 10.1489H10.4759Z" fill="currentColor"/>
<path d="M10.4759 7.35791C10.8441 7.35791 11.1426 7.65639 11.1426 8.02458C11.1426 8.39277 10.8441 8.69124 10.4759 8.69124H5.66276C5.29457 8.69124 4.99609 8.39277 4.99609 8.02458C4.99609 7.65639 5.29457 7.35791 5.66276 7.35791H10.4759Z" fill="currentColor"/>
<path d="M7.49935 4.57324C7.86754 4.57324 8.16602 4.87172 8.16602 5.23991C8.16602 5.6081 7.86754 5.90658 7.49935 5.90658H5.66276C5.29457 5.90658 4.99609 5.6081 4.99609 5.23991C4.99609 4.87172 5.29457 4.57324 5.66276 4.57324H7.49935Z" fill="currentColor"/>
<path d="M12.944 4.90478C12.944 4.11472 12.7017 3.52483 12.3255 3.13656C11.9518 2.75094 11.3843 2.49987 10.6061 2.49984H10.3867C10.2468 2.49991 10.0466 2.50036 9.80664 2.50049C9.3267 2.50074 8.68647 2.50081 8.04622 2.50114C6.8041 2.50179 5.56052 2.50175 5.48372 2.50179L5.48438 2.50244C4.71399 2.50719 4.15125 2.75925 3.7806 3.14437C3.40753 3.53205 3.16732 4.11908 3.16732 4.90478V11.035C3.16732 11.8252 3.40977 12.415 3.78581 12.8032C4.1593 13.1887 4.7265 13.4399 5.50456 13.4399H5.72461C5.86452 13.4399 6.06431 13.4394 6.30404 13.4393C6.78392 13.4391 7.42425 13.4389 8.06445 13.4386C9.30345 13.4382 10.5438 13.438 10.6263 13.438L10.7682 13.4341C11.4661 13.4011 11.9823 13.1572 12.3301 12.7961C12.7034 12.4082 12.944 11.8207 12.944 11.035V4.90478ZM14.2773 11.035C14.2773 12.096 13.9477 13.0383 13.291 13.7205C12.6319 14.4053 11.7044 14.7647 10.6348 14.7713H9.82617C9.34522 14.7715 8.7046 14.7717 8.06445 14.772C7.42434 14.7722 6.78451 14.7724 6.30469 14.7726C6.06475 14.7727 5.86455 14.7732 5.72461 14.7733H5.50456C4.42687 14.7733 3.49195 14.417 2.82747 13.731C2.16552 13.0475 1.83398 12.1008 1.83398 11.035V4.90478C1.83398 3.84405 2.16332 2.90201 2.81966 2.21989C3.47867 1.53517 4.4063 1.1757 5.47591 1.16911H5.70247C5.84315 1.16904 6.04359 1.16858 6.28385 1.16846C6.76478 1.16821 7.40534 1.16814 8.04557 1.16781C8.68582 1.16747 9.32605 1.1674 9.80599 1.16715C10.0457 1.16703 10.2455 1.16658 10.3854 1.1665H10.6061C11.6838 1.16653 12.6186 1.52288 13.2832 2.20882C13.9453 2.89221 14.2773 3.83885 14.2773 4.90478V11.035Z" fill="currentColor"/>
</svg>
