<svg width="100%" height="100%" viewBox="0 0 200 200" fill="none" xmlns="http://www.w3.org/2000/svg">
<circle cx="90" cy="90" r="74.5" fill="var(--path-color-3)"/>
<path d="M160 91.0039C160 52.8963 129.108 22.0039 91 22.0039C52.8924 22.0039 22 52.8963 22 91.0039C22 129.112 52.8923 160.004 91 160.004C129.108 160.004 160 129.112 160 91.0039ZM172 91.0039C172 135.739 135.735 172.004 91 172.004C46.2649 172.004 10 135.739 10 91.0039C10 46.2688 46.2649 10.0039 91 10.0039C135.735 10.0039 172 46.2688 172 91.0039Z" fill="var(--path-color-1)"/>
<path d="M113.135 118.791C114.676 120.373 117.208 120.407 118.791 118.865C120.373 117.324 120.406 114.792 118.865 113.209C110.912 105.047 100.968 100 89.9998 100C79.032 100 69.0871 105.047 61.1345 113.209C59.5932 114.792 59.6266 117.324 61.2087 118.865C62.791 120.407 65.3234 120.373 66.865 118.791C73.6522 111.826 81.6335 108 89.9998 108C98.366 108 106.347 111.826 113.135 118.791Z" fill="var(--path-color-2)" class="shake-animation"/>
<path d="M124 74C124 78.4183 120.418 82 116 82C111.582 82 108 78.4183 108 74C108 69.5817 111.582 66 116 66C120.418 66 124 69.5817 124 74Z" fill="var(--path-color-2)" class="shake-animation" />
<path d="M74 74C74 78.4183 70.4183 82 66 82C61.5817 82 58 78.4183 58 74C58 69.5817 61.5817 66 66 66C70.4183 66 74 69.5817 74 74Z" fill="var(--path-color-2)" class="shake-animation"/>
<path d="M141.591 141.585C143.934 139.242 147.733 139.242 150.076 141.585L187.576 179.085C189.919 181.429 189.919 185.227 187.576 187.57C185.233 189.913 181.434 189.913 179.091 187.57L141.591 150.07C139.248 147.727 139.248 143.929 141.591 141.585Z" fill="var(--path-color-1)"/>
</svg>
