<svg width="100%" height="100%" viewBox="0 0 24 24" fill="none" xmlns="http://www.w3.org/2000/svg">
<path d="M20.6006 12C20.6004 7.25053 16.7495 3.40039 12 3.40039C7.25066 3.4006 3.4006 7.25066 3.40039 12C3.40039 16.7495 7.25053 20.6004 12 20.6006C16.7496 20.6006 20.6006 16.7496 20.6006 12ZM12 13.4043C13.7685 13.4043 15.309 14.3537 16.1787 15.7588C16.4693 16.2284 16.3241 16.8451 15.8545 17.1357C15.385 17.4261 14.7692 17.2807 14.4785 16.8115C13.9484 15.9551 13.0298 15.4043 12 15.4043C10.9704 15.4044 10.0525 15.9552 9.52246 16.8115C9.23173 17.281 8.61505 17.4264 8.14551 17.1357C7.67599 16.845 7.5316 16.2284 7.82227 15.7588C8.69197 14.3538 10.2316 13.4044 12 13.4043ZM9.21582 8.12012C9.76801 8.12012 10.2157 8.56796 10.2158 9.12012V9.19727C10.2158 9.74955 9.7681 10.1973 9.21582 10.1973H9.12012C8.56796 10.1971 8.12012 9.74946 8.12012 9.19727V9.12012C8.12026 8.56805 8.56805 8.12026 9.12012 8.12012H9.21582ZM14.9658 8.12012C15.5178 8.12034 15.9657 8.5681 15.9658 9.12012V9.19727C15.9658 9.74941 15.5179 10.197 14.9658 10.1973H14.8809C14.3286 10.1973 13.8809 9.74955 13.8809 9.19727V9.12012C13.881 8.56796 14.3287 8.12012 14.8809 8.12012H14.9658ZM22.6006 12C22.6006 17.8542 17.8542 22.6006 12 22.6006C6.14596 22.6004 1.40039 17.8541 1.40039 12C1.4006 6.14609 6.14609 1.4006 12 1.40039C17.8541 1.40039 22.6004 6.14596 22.6006 12Z" fill="currentColor"/>
</svg>
