<svg width="100%" height="100%" viewBox="0 0 24 24" fill="none" xmlns="http://www.w3.org/2000/svg">
<path d="M20.6006 12C20.6004 7.25053 16.7495 3.40039 12 3.40039C7.25066 3.4006 3.4006 7.25066 3.40039 12C3.40039 16.7495 7.25053 20.6004 12 20.6006C16.7497 20.6006 20.6006 16.7497 20.6006 12ZM14.4785 14.3936C14.7692 13.924 15.3849 13.7788 15.8545 14.0693C16.3241 14.36 16.4694 14.9767 16.1787 15.4463C15.3089 16.8512 13.7684 17.8008 12 17.8008C10.2318 17.8006 8.692 16.8511 7.82227 15.4463C7.53158 14.9767 7.67689 14.36 8.14648 14.0693C8.61604 13.7789 9.23184 13.9241 9.52246 14.3936C10.0525 15.2498 10.9704 15.8006 12 15.8008C13.0297 15.8008 13.9484 15.2499 14.4785 14.3936ZM9.21582 8.12012C9.76801 8.12012 10.2157 8.56796 10.2158 9.12012V9.19727C10.2158 9.74955 9.7681 10.1973 9.21582 10.1973H9.12012C8.56796 10.1971 8.12012 9.74946 8.12012 9.19727V9.12012C8.12026 8.56805 8.56805 8.12026 9.12012 8.12012H9.21582ZM14.9658 8.12012C15.5178 8.12034 15.9657 8.5681 15.9658 9.12012V9.19727C15.9658 9.74941 15.5179 10.197 14.9658 10.1973H14.8809C14.3286 10.1973 13.8809 9.74955 13.8809 9.19727V9.12012C13.881 8.56796 14.3287 8.12012 14.8809 8.12012H14.9658ZM22.6006 12C22.6006 17.8542 17.8542 22.6006 12 22.6006C6.14596 22.6004 1.40039 17.8541 1.40039 12C1.4006 6.14609 6.14609 1.4006 12 1.40039C17.8541 1.40039 22.6004 6.14596 22.6006 12Z" fill="currentColor"/>
</svg>
