<svg width="48" height="48" viewBox="0 0 48 48" fill="none" xmlns="http://www.w3.org/2000/svg">
<rect width="48" height="48" rx="24" fill="#FEE500"/>
<g clip-path="url(#clip0_3369_8353)">
<path d="M23.9962 14.7031C18.4762 14.7031 14 18.2544 14 22.6368C14 25.4703 15.8701 27.9524 18.6864 29.3615L17.6725 33.0073C17.6725 33.0073 17.6538 33.1773 17.7627 33.2415C17.8716 33.3057 18.003 33.2566 18.003 33.2566C18.3184 33.2113 21.6455 30.8576 22.2276 30.4496C22.8021 30.5327 23.3992 30.5743 24.0038 30.5743C29.5238 30.5743 34 27.023 34 22.6406C34 18.2582 29.5163 14.7031 23.9962 14.7031Z" fill="black"/>
<path d="M23.9962 14.7031C18.4762 14.7031 14 18.2544 14 22.6368C14 25.4703 15.8701 27.9524 18.6864 29.3615L17.6725 33.0073C17.6725 33.0073 17.6538 33.1773 17.7627 33.2415C17.8716 33.3057 18.003 33.2566 18.003 33.2566C18.3184 33.2113 21.6455 30.8576 22.2276 30.4496C22.8021 30.5327 23.3992 30.5743 24.0038 30.5743C29.5238 30.5743 34 27.023 34 22.6406C34 18.2582 29.5163 14.7031 23.9962 14.7031Z" fill="black" fill-opacity="0.2"/>
<path d="M18.4686 25.3996C18.1494 25.3996 17.8903 25.1502 17.8903 24.8442V21.395H16.9891C16.6774 21.395 16.4258 21.1419 16.4258 20.8283C16.4258 20.5147 16.6811 20.2616 16.9891 20.2616H19.9444C20.256 20.2616 20.5076 20.5147 20.5076 20.8283C20.5076 21.1419 20.2523 21.395 19.9444 21.395H19.0431V24.8442C19.0431 25.1465 18.7803 25.3996 18.4648 25.3996H18.4686ZM23.5268 25.392C23.2865 25.392 23.1025 25.2938 23.0461 25.1351L22.7607 24.3795H21.0033L20.7179 25.1351C20.6616 25.2938 20.4776 25.392 20.2373 25.392C20.1096 25.392 19.9857 25.3656 19.8693 25.3165C19.7115 25.2409 19.5576 25.0407 19.7341 24.4929L21.1122 20.8396C21.2099 20.56 21.5065 20.2729 21.882 20.2654C22.2575 20.2578 22.558 20.56 22.6518 20.8396L24.03 24.4929C24.2065 25.0407 24.0525 25.2485 23.8948 25.3165C23.7821 25.3694 23.6545 25.392 23.5268 25.392ZM22.4566 23.3519L21.882 21.7048L21.3075 23.3519H22.4566ZM24.9575 25.3165C24.6571 25.3165 24.4055 25.0785 24.4055 24.7876V20.8396C24.4055 20.5185 24.6684 20.2578 24.9951 20.2578C25.3218 20.2578 25.5846 20.5223 25.5846 20.8396V24.2473H26.8088C27.1092 24.2473 27.3608 24.4853 27.3608 24.7762C27.3608 25.0671 27.113 25.3051 26.8088 25.3051L24.9575 25.3165ZM27.5824 24.8102V20.8434C27.5824 20.5223 27.8452 20.2616 28.1607 20.2616C28.4761 20.2616 28.739 20.526 28.739 20.8434V22.0901L30.3537 20.4656C30.5314 20.2868 30.8674 20.3025 31.0709 20.5072C31.262 20.6994 31.3117 21.0245 31.1122 21.2287L29.7904 22.551L31.2099 24.44C31.4006 24.6856 31.3543 25.0682 31.0972 25.2485C30.8437 25.4374 30.4713 25.3744 30.2898 25.1351L28.938 23.3331L28.739 23.5333V24.7989C28.739 25.5528 27.5824 25.5818 27.5824 24.8102Z" fill="#FEE500"/>
</g>
<defs>
<clipPath id="clip0_3369_8353">
<rect width="20" height="20" fill="white" transform="translate(14 14)"/>
</clipPath>
</defs>
</svg>
