<svg width="129" height="26" viewBox="0 0 129 26" fill="none" xmlns="http://www.w3.org/2000/svg">
<g clip-path="url(#clip0_1255_144419)">
<path d="M91.791 25.9839H84.1053L86.4383 0.517173H94.007L94.111 1.71968C95.6382 0.743672 97.317 -0.0120103 99.2558 0.0868255C102.091 0.230961 104.45 1.90087 105.663 4.40472C108.064 9.36092 106.508 15.5896 102.005 18.9253C99.063 21.1039 95.3587 21.1903 92.4625 18.9212L91.791 25.988V25.9839ZM98.5062 11.4406C99.1604 10.1887 98.8312 8.8235 97.8867 8.06988C96.8643 7.25242 95.4042 7.21742 94.254 7.96281C93.459 8.47758 92.8654 9.37739 92.7571 10.129C92.6228 11.0679 92.9196 12.0048 93.6756 12.6101C95.2483 13.8682 97.5856 13.2093 98.5084 11.4427L98.5062 11.4406Z" fill="black"/>
<path d="M113.997 26.0033L106.32 25.9889L108.655 0.511899L116.246 0.507781L116.315 1.77206C119.9 -0.929457 124.681 -0.31791 127.177 3.234C130.61 8.1202 129.018 15.7161 123.875 19.1651C120.988 21.1006 117.442 21.1068 114.673 18.916L113.995 26.0012L113.997 26.0033ZM120.515 11.7998C121.362 10.6158 121.178 9.16621 120.364 8.31375C119.404 7.30892 117.907 7.18126 116.675 7.8484C114.981 8.76675 114.316 10.8814 115.605 12.3495C116.272 13.1093 117.32 13.3956 118.338 13.2185C119.071 13.0908 119.974 12.5596 120.515 11.7998Z" fill="black"/>
<path d="M83.243 19.8334L75.774 19.8478L75.5032 18.9541C73.5601 20.2802 71.2769 20.972 68.8356 20.344C66.9098 19.8498 65.0599 18.4394 64.0353 16.3926C61.7174 11.7597 62.8937 6.0293 66.7755 2.43621C69.6457 -0.220007 73.8287 -0.837731 77.1105 1.69082L77.4029 0.467726L85.0042 0.52538L83.2409 19.8313L83.243 19.8334ZM76.4715 11.5476C77.1712 10.3287 76.8852 8.98408 76.0556 8.20575C75.0873 7.29975 73.6532 7.20504 72.4813 7.84129C70.731 8.79053 70.0941 11.0061 71.5109 12.4495C72.2214 13.1743 73.2763 13.3905 74.3139 13.1702C75.0634 13.0116 75.9906 12.3836 76.4715 11.5456V11.5476Z" fill="black"/>
<path d="M52.1095 7.47274C50.773 7.54069 49.9715 8.45698 49.8675 9.59771L48.9274 19.8066H40.7109L42.4612 0.634532L49.0292 0.607764L49.1678 1.61671C50.708 0.449215 52.3608 0.113585 54.1674 0.0147491C57.9388 -0.1891 61.2206 1.72584 61.8943 5.40336C62.1781 6.96208 62.1976 8.60935 62.1023 10.2381L61.2119 19.7943L52.9998 19.786L53.9465 9.37121C53.979 8.35814 53.3074 7.53245 52.1095 7.46862V7.47274Z" fill="black"/>
<path d="M22.0325 19.8306C18.9175 20.0056 15.9693 19.948 12.8196 19.9377L9.18257 13.0253L8.48288 19.9418H0L0.257779 16.9746L1.70481 0.831456L10.2115 0.804688L9.71329 7.30932L14.8884 0.856164L23.8002 0.870578L16.2184 10.0067L22.0304 19.8306H22.0325Z" fill="#0520E1"/>
<path d="M36.963 18.8681C32.754 21.4131 26.7969 20.5154 22.2891 19.2758L22.8544 13.1006C24.204 13.7225 31.6969 15.9422 31.8334 14.1899C31.9179 13.1253 29.0216 13.3765 26.0409 11.859C23.8899 10.7636 22.757 8.77656 22.9476 6.47862C23.3527 1.63567 27.9927 0.0542957 32.5179 0.062532C35.165 0.0666501 37.6085 0.233436 40.2556 0.865573L39.6621 6.93368C37.0128 6.07916 34.8726 5.60557 32.3229 5.49644C31.9287 5.5891 31.4131 5.87326 31.3655 6.18418C31.1424 7.62141 38.3623 7.00575 39.9047 11.2186C40.9575 14.0952 39.7206 17.2003 36.9608 18.8681H36.963Z" fill="black"/>
</g>
<defs>
<clipPath id="clip0_1255_144419">
<rect width="129" height="26" fill="white"/>
</clipPath>
</defs>
</svg>
