<svg width="35" height="35" viewBox="0 0 35 35" fill="none" xmlns="http://www.w3.org/2000/svg">
<path d="M28.716 4.01215C30.7271 6.02604 30.7243 9.28715 28.7104 11.2983L21.6521 18.3455C19.6382 20.3566 16.3771 20.3538 14.366 18.3399C12.3549 16.326 12.3576 13.0649 14.3715 11.0538L21.4299 4.0066C23.4438 1.99549 26.7049 1.99827 28.716 4.01215Z" fill="#38414F"/>
<path d="M30.2924 16.8984C32.3035 18.9095 32.3035 22.1734 30.2924 24.1845L23.3257 31.1512C21.3146 33.1623 18.0507 33.1623 16.0396 31.1512C14.0285 29.1401 14.0285 25.8762 16.0396 23.8651L23.0063 16.8984C25.0174 14.8873 28.2813 14.8873 30.2924 16.8984Z" fill="#38414F"/>
<path d="M13.5653 24.7453C14.8114 22.4664 13.9741 19.6089 11.6953 18.3629C9.41645 17.1168 6.55894 17.954 5.31287 20.2328C4.06679 22.5117 4.90401 25.3692 7.18285 26.6153C9.46169 27.8613 12.3192 27.0241 13.5653 24.7453Z" fill="#38414F"/>
</svg>
