<svg width="35" height="35" viewBox="0 0 35 35" fill="none" xmlns="http://www.w3.org/2000/svg">
<path d="M28.716 4.01215C30.7271 6.02604 30.7243 9.28715 28.7104 11.2983L21.6521 18.3455C19.6382 20.3566 16.3771 20.3538 14.366 18.3399C12.3549 16.326 12.3576 13.0649 14.3715 11.0538L21.4299 4.0066C23.4438 1.99549 26.7049 1.99827 28.716 4.01215Z" fill="#D1D6DD"/>
<path d="M30.2924 16.899C32.3035 18.9101 32.3035 22.174 30.2924 24.1851L23.3257 31.1517C21.3146 33.1628 18.0507 33.1628 16.0396 31.1517C14.0285 29.1406 14.0285 25.8767 16.0396 23.8656L23.0063 16.899C25.0174 14.8878 28.2813 14.8878 30.2924 16.899Z" fill="#D1D6DD"/>
<path d="M13.5633 24.7456C14.8094 22.4668 13.9722 19.6093 11.6933 18.3632C9.4145 17.1171 6.55699 17.9543 5.31091 20.2332C4.06483 22.512 4.90205 25.3695 7.18089 26.6156C9.45973 27.8617 12.3172 27.0245 13.5633 24.7456Z" fill="#D1D6DD"/>
</svg>
