<svg width="16" height="16" viewBox="0 0 16 16" fill="none" xmlns="http://www.w3.org/2000/svg">
<path d="M10.5417 7.3479C10.9099 7.34791 11.2083 7.64638 11.2083 8.01457C11.2083 8.38275 10.9099 8.68123 10.5417 8.68123H2.51432C2.14613 8.68123 1.84766 8.38276 1.84766 8.01457C1.84766 7.64638 2.14613 7.3479 2.51432 7.3479H10.5417Z" fill="currentColor"/>
<path d="M8.11811 5.5998C8.37793 5.33892 8.80059 5.33804 9.06147 5.59785L11.0133 7.54186C11.1389 7.66696 11.2093 7.83723 11.2093 8.01451C11.2093 8.1918 11.1389 8.36207 11.0133 8.48717L9.06147 10.4312C8.80059 10.691 8.37792 10.6901 8.11811 10.4292C7.8583 10.1683 7.85919 9.74568 8.12007 9.48587L9.59728 8.01451L8.12007 6.54316C7.85919 6.28335 7.85831 5.86068 8.11811 5.5998Z" fill="currentColor"/>
<path d="M13.1667 11.725V4.29793C13.1666 3.31292 12.3685 2.51485 11.3835 2.51473H8.12695C7.13791 2.51488 6.33739 3.31565 6.33724 4.30379V4.92619C6.33717 5.29432 6.03872 5.59285 5.67057 5.59285C5.30242 5.59285 5.00397 5.29432 5.00391 4.92619V4.30379C5.00405 2.57904 6.40177 1.18155 8.12695 1.1814H11.3835C13.1048 1.18152 14.4999 2.57654 14.5 4.29793V11.725C14.4998 13.4497 13.1011 14.8481 11.3763 14.8481H8.11979C6.3988 14.848 5.00398 13.452 5.00391 11.7315V11.1033C5.00397 10.7351 5.30242 10.4366 5.67057 10.4366C6.03872 10.4366 6.33717 10.7351 6.33724 11.1033V11.7315C6.33731 12.7161 7.13565 13.5147 8.11979 13.5147H11.3763C12.3647 13.5147 13.1665 12.7134 13.1667 11.725Z" fill="currentColor"/>
</svg>
