<svg width="58" height="58" viewBox="0 0 58 58" fill="none" xmlns="http://www.w3.org/2000/svg">
<path d="M46.8825 6.55085C50.1659 9.83884 50.1614 15.1631 46.8734 18.4465L35.3496 29.9522C32.0616 33.2357 26.7373 33.2311 23.4539 29.9431C20.1704 26.6552 20.175 21.3309 23.463 18.0475L34.9868 6.54178C38.2748 3.25834 43.599 3.26287 46.8825 6.55085Z" fill="#D1D6DD"/>
<path d="M49.459 27.5895C52.7424 30.873 52.7424 36.2018 49.459 39.4852L38.0848 50.8594C34.8014 54.1428 29.4726 54.1428 26.1891 50.8594C22.9057 47.5759 22.9057 42.2471 26.1891 38.9637L37.5633 27.5895C40.8467 24.3061 46.1755 24.3061 49.459 27.5895Z" fill="#D1D6DD"/>
<path d="M22.1452 40.4001C24.1796 36.6796 22.8128 32.0143 19.0922 29.9798C15.3717 27.9454 10.7063 29.3123 8.67191 33.0329C6.6375 36.7534 8.00439 41.4187 11.7249 43.4532C15.4455 45.4876 20.1108 44.1207 22.1452 40.4001Z" fill="#D1D6DD"/>
</svg>
