<svg width="16" height="16" viewBox="0 0 16 16" fill="none" xmlns="http://www.w3.org/2000/svg">
<path d="M8.00033 9.76758C11.1689 9.76764 13.415 10.8301 14.4847 12.6143C14.6977 12.9695 14.5822 13.4306 14.2269 13.6436C13.8717 13.8562 13.4115 13.7407 13.1986 13.3857C12.5011 12.2224 10.8741 11.2676 8.00033 11.2676C5.12648 11.2676 3.49961 12.2224 2.80209 13.3857C2.58911 13.741 2.12804 13.8565 1.77279 13.6436C1.41755 13.4306 1.30204 12.9695 1.51498 12.6143C2.5847 10.83 4.83157 9.76758 8.00033 9.76758ZM9.64974 5.40039C9.64974 4.48921 8.91147 3.75015 8.00033 3.75C7.08906 3.75 6.34994 4.48912 6.34994 5.40039C6.35015 6.31148 7.08919 7.0498 8.00033 7.0498C8.91134 7.04965 9.64953 6.31139 9.64974 5.40039ZM11.1497 5.40039C11.1495 7.13981 9.73977 8.54965 8.00033 8.5498C6.26076 8.5498 4.85015 7.13991 4.84994 5.40039C4.84994 3.66069 6.26063 2.25 8.00033 2.25C9.7399 2.25015 11.1497 3.66079 11.1497 5.40039Z" fill="currentColor"/>
</svg>
