<svg width="16" height="16" viewBox="0 0 16 16" fill="none" xmlns="http://www.w3.org/2000/svg">
<g clip-path="url(#clip0_3771_6056)">
<path d="M13.7337 7.99976C13.7336 4.83344 11.1663 2.26668 8 2.26668C4.83377 2.26682 2.26707 4.83353 2.26693 7.99976C2.26693 11.1661 4.83369 13.7333 8 13.7335C11.1664 13.7335 13.7337 11.1662 13.7337 7.99976ZM9.65234 9.59546C9.84611 9.28243 10.2566 9.18562 10.5697 9.37931C10.8827 9.5731 10.9796 9.98422 10.7858 10.2973C10.2059 11.2339 9.17894 11.8669 8 11.8669C6.8212 11.8669 5.79467 11.2338 5.21484 10.2973C5.02106 9.98422 5.11792 9.5731 5.43099 9.37931C5.74403 9.18569 6.15456 9.28246 6.34831 9.59546C6.70169 10.1663 7.31363 10.5335 8 10.5336C8.6865 10.5336 9.29892 10.1664 9.65234 9.59546ZM6.14388 5.41317C6.51201 5.41317 6.81045 5.71173 6.81055 6.07983V6.13127C6.81055 6.49946 6.51207 6.79793 6.14388 6.79793H6.08008C5.71197 6.79783 5.41341 6.4994 5.41341 6.13127V6.07983C5.41351 5.71179 5.71203 5.41327 6.08008 5.41317H6.14388ZM9.97721 5.41317C10.3452 5.41332 10.6438 5.71182 10.6439 6.07983V6.13127C10.6439 6.49936 10.3453 6.79778 9.97721 6.79793H9.92057C9.55238 6.79793 9.25391 6.49946 9.25391 6.13127V6.07983C9.25401 5.71173 9.55244 5.41317 9.92057 5.41317H9.97721ZM15.0671 7.99976C15.0671 11.9026 11.9028 15.0668 8 15.0668C4.09731 15.0667 0.933594 11.9025 0.933594 7.99976C0.933734 4.09715 4.09739 0.93349 8 0.93335C11.9027 0.93335 15.0669 4.09706 15.0671 7.99976Z" fill="currentColor"/>
</g>
<defs>
<clipPath id="clip0_3771_6056">
<rect width="16" height="16" fill="white"/>
</clipPath>
</defs>
</svg>
