<svg width="100%" height="100%" viewBox="0 0 32 32" fill="none" xmlns="http://www.w3.org/2000/svg">
<path d="M15.6248 15.6249H16.3748M15.6248 16.3749H16.3748M8.62476 15.6249H9.37476M8.62476 16.3749H9.37476M22.6248 15.6249H23.3748M22.6248 16.3749H23.3748M17 16C17 16.5523 16.5523 17 16 17C15.4477 17 15 16.5523 15 16C15 15.4477 15.4477 15 16 15C16.5523 15 17 15.4477 17 16ZM10 16C10 16.5523 9.55229 17 9 17C8.44772 17 8 16.5523 8 16C8 15.4477 8.44772 15 9 15C9.55229 15 10 15.4477 10 16ZM24 16C24 16.5523 23.5523 17 23 17C22.4477 17 22 16.5523 22 16C22 15.4477 22.4477 15 23 15C23.5523 15 24 15.4477 24 16Z" stroke="#9AA3AF" stroke-width="2" stroke-linecap="round"/>
</svg>
