<svg width="32" height="32" viewBox="0 0 32 32" fill="none" xmlns="http://www.w3.org/2000/svg">
<rect width="32" height="32" rx="16" fill="#454F5B"/>
<path d="M14.9648 18.0977H17.4844L18.5586 19.4844C19.2324 18.6934 19.6133 17.502 19.6133 15.9297C19.6133 12.9023 18.1875 11.2617 16 11.2617C13.8125 11.2617 12.3672 12.9023 12.3672 15.9297C12.3672 18.957 13.8125 20.5977 16 20.5977C16.2832 20.5977 16.5566 20.5684 16.8203 20.5195L14.9648 18.0977ZM22.6016 15.9297C22.6016 18.4492 21.7422 20.3926 20.3555 21.6133L22.3672 24.1719H19.6133L18.4805 22.7461C17.7188 23.0488 16.8789 23.1953 16 23.1953C12.2305 23.1953 9.37891 20.5195 9.37891 15.9297C9.37891 11.3203 12.2305 8.66406 16 8.66406C19.7305 8.66406 22.6016 11.3203 22.6016 15.9297Z" fill="white"/>
</svg>
