<svg width="100%" height="100%" viewBox="0 0 32 32" fill="none" xmlns="http://www.w3.org/2000/svg">
<path d="M20 11.2857L12 14.7143M12 17.2857L20 20.7143M12 16C12 17.6569 10.6569 19 9 19C7.34315 19 6 17.6569 6 16C6 14.3431 7.34315 13 9 13C10.6569 13 12 14.3431 12 16ZM26 10C26 11.6569 24.6569 13 23 13C21.3431 13 20 11.6569 20 10C20 8.34315 21.3431 7 23 7C24.6569 7 26 8.34315 26 10ZM26 22C26 23.6569 24.6569 25 23 25C21.3431 25 20 23.6569 20 22C20 20.3431 21.3431 19 23 19C24.6569 19 26 20.3431 26 22Z" stroke="currentColor" stroke-width="2" stroke-linecap="round"/>
</svg>
