<svg width="80" height="80" viewBox="0 0 80 80" fill="none" xmlns="http://www.w3.org/2000/svg">
<path d="M49.1216 10H16.5588C12.5975 10 9.38281 13.2147 9.38281 17.176V37.0967C9.38281 41.058 12.5975 44.2727 16.5588 44.2727H31.6746C34.4105 46.8091 39.8025 52.2011 39.8025 52.2011L39.4662 44.2727H49.1216C53.0829 44.2727 56.2976 41.058 56.2976 37.0967V17.176C56.2976 13.2147 53.0829 10 49.1216 10Z" fill="#34C7D2"/>
<g filter="url(#filter0_d_4523_5420)">
<path d="M64.1919 26.1191H31.6291C27.6678 26.1191 24.4531 29.3338 24.4531 33.2951V53.2158C24.4531 57.1772 27.6678 60.3918 31.6291 60.3918H46.7449C49.4808 62.9282 54.8728 68.3202 54.8728 68.3202L54.5365 60.3918H64.1919C68.1532 60.3918 71.3679 57.1772 71.3679 53.2158V33.2951C71.3679 29.3338 68.1532 26.1191 64.1919 26.1191Z" fill="#00B1BD" fill-opacity="0.3" shape-rendering="crispEdges"/>
</g>
<g filter="url(#filter1_d_4523_5420)">
<path d="M37.4087 46.4727C38.7088 46.4727 39.7627 45.4187 39.7627 44.1187C39.7627 42.8186 38.7088 41.7646 37.4087 41.7646C36.1086 41.7646 35.0547 42.8186 35.0547 44.1187C35.0547 45.4187 36.1086 46.4727 37.4087 46.4727Z" fill="#FFDE07" fill-opacity="0.4" shape-rendering="crispEdges"/>
</g>
<g filter="url(#filter2_d_4523_5420)">
<path d="M48.5454 46.4727C49.8455 46.4727 50.8994 45.4187 50.8994 44.1187C50.8994 42.8186 49.8455 41.7646 48.5454 41.7646C47.2453 41.7646 46.1914 42.8186 46.1914 44.1187C46.1914 45.4187 47.2453 46.4727 48.5454 46.4727Z" fill="#FFDE07" fill-opacity="0.4" shape-rendering="crispEdges"/>
</g>
<g filter="url(#filter3_d_4523_5420)">
<path d="M59.6899 46.4727C60.99 46.4727 62.044 45.4187 62.044 44.1187C62.044 42.8186 60.99 41.7646 59.6899 41.7646C58.3899 41.7646 57.3359 42.8186 57.3359 44.1187C57.3359 45.4187 58.3899 46.4727 59.6899 46.4727Z" fill="#FFDE07" fill-opacity="0.4" shape-rendering="crispEdges"/>
</g>
<defs>
<filter id="filter0_d_4523_5420" x="20.4531" y="26.1191" width="54.9141" height="50.2012" filterUnits="userSpaceOnUse" color-interpolation-filters="sRGB">
<feFlood flood-opacity="0" result="BackgroundImageFix"/>
<feColorMatrix in="SourceAlpha" type="matrix" values="0 0 0 0 0 0 0 0 0 0 0 0 0 0 0 0 0 0 127 0" result="hardAlpha"/>
<feOffset dy="4"/>
<feGaussianBlur stdDeviation="2"/>
<feComposite in2="hardAlpha" operator="out"/>
<feColorMatrix type="matrix" values="0 0 0 0 0 0 0 0 0 0 0 0 0 0 0 0 0 0 0.05 0"/>
<feBlend mode="normal" in2="BackgroundImageFix" result="effect1_dropShadow_4523_5420"/>
<feBlend mode="normal" in="BackgroundImageFix" in2="effect1_dropShadow_4523_5420" result="BackgroundImageFix"/>
<feBlend mode="normal" in="SourceGraphic" in2="BackgroundImageFix" result="shape"/>
</filter>
<filter id="filter1_d_4523_5420" x="31.0547" y="41.7646" width="12.709" height="12.708" filterUnits="userSpaceOnUse" color-interpolation-filters="sRGB">
<feFlood flood-opacity="0" result="BackgroundImageFix"/>
<feColorMatrix in="SourceAlpha" type="matrix" values="0 0 0 0 0 0 0 0 0 0 0 0 0 0 0 0 0 0 127 0" result="hardAlpha"/>
<feOffset dy="4"/>
<feGaussianBlur stdDeviation="2"/>
<feComposite in2="hardAlpha" operator="out"/>
<feColorMatrix type="matrix" values="0 0 0 0 0 0 0 0 0 0 0 0 0 0 0 0 0 0 0.1 0"/>
<feBlend mode="normal" in2="BackgroundImageFix" result="effect1_dropShadow_4523_5420"/>
<feBlend mode="normal" in="BackgroundImageFix" in2="effect1_dropShadow_4523_5420" result="BackgroundImageFix"/>
<feBlend mode="normal" in="SourceGraphic" in2="BackgroundImageFix" result="shape"/>
</filter>
<filter id="filter2_d_4523_5420" x="42.1914" y="41.7646" width="12.707" height="12.708" filterUnits="userSpaceOnUse" color-interpolation-filters="sRGB">
<feFlood flood-opacity="0" result="BackgroundImageFix"/>
<feColorMatrix in="SourceAlpha" type="matrix" values="0 0 0 0 0 0 0 0 0 0 0 0 0 0 0 0 0 0 127 0" result="hardAlpha"/>
<feOffset dy="4"/>
<feGaussianBlur stdDeviation="2"/>
<feComposite in2="hardAlpha" operator="out"/>
<feColorMatrix type="matrix" values="0 0 0 0 0 0 0 0 0 0 0 0 0 0 0 0 0 0 0.1 0"/>
<feBlend mode="normal" in2="BackgroundImageFix" result="effect1_dropShadow_4523_5420"/>
<feBlend mode="normal" in="BackgroundImageFix" in2="effect1_dropShadow_4523_5420" result="BackgroundImageFix"/>
<feBlend mode="normal" in="SourceGraphic" in2="BackgroundImageFix" result="shape"/>
</filter>
<filter id="filter3_d_4523_5420" x="53.3359" y="41.7646" width="12.709" height="12.708" filterUnits="userSpaceOnUse" color-interpolation-filters="sRGB">
<feFlood flood-opacity="0" result="BackgroundImageFix"/>
<feColorMatrix in="SourceAlpha" type="matrix" values="0 0 0 0 0 0 0 0 0 0 0 0 0 0 0 0 0 0 127 0" result="hardAlpha"/>
<feOffset dy="4"/>
<feGaussianBlur stdDeviation="2"/>
<feComposite in2="hardAlpha" operator="out"/>
<feColorMatrix type="matrix" values="0 0 0 0 0 0 0 0 0 0 0 0 0 0 0 0 0 0 0.1 0"/>
<feBlend mode="normal" in2="BackgroundImageFix" result="effect1_dropShadow_4523_5420"/>
<feBlend mode="normal" in="BackgroundImageFix" in2="effect1_dropShadow_4523_5420" result="BackgroundImageFix"/>
<feBlend mode="normal" in="SourceGraphic" in2="BackgroundImageFix" result="shape"/>
</filter>
</defs>
</svg>
