<svg width="100%" height="100%" viewBox="0 0 80 80" fill="none" xmlns="http://www.w3.org/2000/svg">
<g clip-path="url(#clip0_4531_10697)">
<path d="M52.2143 18.168H16.0009C11.0202 18.168 6.98242 22.251 6.98242 27.2877V54.0159C6.98242 59.0525 11.0202 63.1355 16.0009 63.1355H52.2143C57.1951 63.1355 61.2328 59.0525 61.2328 54.0159V27.2877C61.2328 22.251 57.1951 18.168 52.2143 18.168Z" fill="#00B1BD"/>
<path d="M61.2328 27.2877C61.2328 22.2518 57.1942 18.168 52.2143 18.168H16.0009C11.021 18.168 6.98242 22.2518 6.98242 27.2877V34.7963H61.2328V27.2877Z" fill="#34C7D2"/>
<g filter="url(#filter0_d_4531_10697)">
<path d="M22.7471 25.9923C21.3322 25.9923 20.168 24.8207 20.168 23.3843V15.4137C20.168 13.9829 21.3266 12.8057 22.7471 12.8057C24.162 12.8057 25.3262 13.9773 25.3262 15.4137V23.3843C25.3262 24.815 24.1675 25.9923 22.7471 25.9923Z" fill="#00B1BD" fill-opacity="0.3" shape-rendering="crispEdges"/>
</g>
<g filter="url(#filter1_d_4531_10697)">
<path d="M46.0869 25.9923C44.672 25.9923 43.5078 24.8207 43.5078 23.3843V15.4137C43.5078 13.9829 44.6665 12.8057 46.0869 12.8057C47.5018 12.8057 48.666 13.9773 48.666 15.4137V23.3843C48.666 24.815 47.5074 25.9923 46.0869 25.9923Z" fill="#00B1BD" fill-opacity="0.3" shape-rendering="crispEdges"/>
</g>
<g filter="url(#filter2_d_4531_10697)">
<path d="M71.2065 63.4198C78.019 56.5309 78.019 45.3617 71.2065 38.4728C64.394 31.5839 53.3488 31.5839 46.5363 38.4728C39.7238 45.3617 39.7238 56.5309 46.5363 63.4198C53.3488 70.3087 64.394 70.3087 71.2065 63.4198Z" fill="#00B1BD" fill-opacity="0.3" shape-rendering="crispEdges"/>
</g>
<g opacity="0.8" filter="url(#filter3_d_4531_10697)">
<path d="M64.6724 45.3803C64.9761 45.075 65.4684 45.075 65.7722 45.3803C66.0759 45.6856 66.0759 46.1804 65.7722 46.4857L57.4915 54.808C57.0359 55.2658 56.2974 55.2658 55.8418 54.808L52.2278 51.1758C51.9241 50.8706 51.9241 50.3757 52.2278 50.0705C52.5316 49.7652 53.0239 49.7652 53.3276 50.0705L56.6666 53.4263L64.6724 45.3803Z" fill="#FFDE07" fill-opacity="0.4" shape-rendering="crispEdges"/>
<path d="M64.6724 45.3803C64.9761 45.075 65.4684 45.075 65.7722 45.3803C66.0759 45.6856 66.0759 46.1804 65.7722 46.4857L57.4915 54.808C57.0359 55.2658 56.2974 55.2658 55.8418 54.808L52.2278 51.1758C51.9241 50.8706 51.9241 50.3757 52.2278 50.0705C52.5316 49.7652 53.0239 49.7652 53.3276 50.0705L56.6666 53.4263L64.6724 45.3803Z" stroke="#FFDE07" stroke-opacity="0.4" stroke-width="2" stroke-linecap="round" shape-rendering="crispEdges"/>
</g>
</g>
<defs>
<filter id="filter0_d_4531_10697" x="16.168" y="12.8057" width="13.1582" height="21.1865" filterUnits="userSpaceOnUse" color-interpolation-filters="sRGB">
<feFlood flood-opacity="0" result="BackgroundImageFix"/>
<feColorMatrix in="SourceAlpha" type="matrix" values="0 0 0 0 0 0 0 0 0 0 0 0 0 0 0 0 0 0 127 0" result="hardAlpha"/>
<feOffset dy="4"/>
<feGaussianBlur stdDeviation="2"/>
<feComposite in2="hardAlpha" operator="out"/>
<feColorMatrix type="matrix" values="0 0 0 0 0 0 0 0 0 0 0 0 0 0 0 0 0 0 0.05 0"/>
<feBlend mode="normal" in2="BackgroundImageFix" result="effect1_dropShadow_4531_10697"/>
<feBlend mode="normal" in="BackgroundImageFix" in2="effect1_dropShadow_4531_10697" result="BackgroundImageFix"/>
<feBlend mode="normal" in="SourceGraphic" in2="BackgroundImageFix" result="shape"/>
</filter>
<filter id="filter1_d_4531_10697" x="39.5078" y="12.8057" width="13.1582" height="21.1865" filterUnits="userSpaceOnUse" color-interpolation-filters="sRGB">
<feFlood flood-opacity="0" result="BackgroundImageFix"/>
<feColorMatrix in="SourceAlpha" type="matrix" values="0 0 0 0 0 0 0 0 0 0 0 0 0 0 0 0 0 0 127 0" result="hardAlpha"/>
<feOffset dy="4"/>
<feGaussianBlur stdDeviation="2"/>
<feComposite in2="hardAlpha" operator="out"/>
<feColorMatrix type="matrix" values="0 0 0 0 0 0 0 0 0 0 0 0 0 0 0 0 0 0 0.05 0"/>
<feBlend mode="normal" in2="BackgroundImageFix" result="effect1_dropShadow_4531_10697"/>
<feBlend mode="normal" in="BackgroundImageFix" in2="effect1_dropShadow_4531_10697" result="BackgroundImageFix"/>
<feBlend mode="normal" in="SourceGraphic" in2="BackgroundImageFix" result="shape"/>
</filter>
<filter id="filter2_d_4531_10697" x="37.4277" y="33.3057" width="42.8887" height="43.2812" filterUnits="userSpaceOnUse" color-interpolation-filters="sRGB">
<feFlood flood-opacity="0" result="BackgroundImageFix"/>
<feColorMatrix in="SourceAlpha" type="matrix" values="0 0 0 0 0 0 0 0 0 0 0 0 0 0 0 0 0 0 127 0" result="hardAlpha"/>
<feOffset dy="4"/>
<feGaussianBlur stdDeviation="2"/>
<feComposite in2="hardAlpha" operator="out"/>
<feColorMatrix type="matrix" values="0 0 0 0 0 0 0 0 0 0 0 0 0 0 0 0 0 0 0.05 0"/>
<feBlend mode="normal" in2="BackgroundImageFix" result="effect1_dropShadow_4531_10697"/>
<feBlend mode="normal" in="BackgroundImageFix" in2="effect1_dropShadow_4531_10697" result="BackgroundImageFix"/>
<feBlend mode="normal" in="SourceGraphic" in2="BackgroundImageFix" result="shape"/>
</filter>
<filter id="filter3_d_4531_10697" x="47" y="44.1514" width="24" height="20" filterUnits="userSpaceOnUse" color-interpolation-filters="sRGB">
<feFlood flood-opacity="0" result="BackgroundImageFix"/>
<feColorMatrix in="SourceAlpha" type="matrix" values="0 0 0 0 0 0 0 0 0 0 0 0 0 0 0 0 0 0 127 0" result="hardAlpha"/>
<feOffset dy="4"/>
<feGaussianBlur stdDeviation="2"/>
<feComposite in2="hardAlpha" operator="out"/>
<feColorMatrix type="matrix" values="0 0 0 0 0 0 0 0 0 0 0 0 0 0 0 0 0 0 0.1 0"/>
<feBlend mode="normal" in2="BackgroundImageFix" result="effect1_dropShadow_4531_10697"/>
<feBlend mode="normal" in="BackgroundImageFix" in2="effect1_dropShadow_4531_10697" result="BackgroundImageFix"/>
<feBlend mode="normal" in="SourceGraphic" in2="BackgroundImageFix" result="shape"/>
</filter>
<clipPath id="clip0_4531_10697">
<rect width="80" height="80" fill="white"/>
</clipPath>
</defs>
</svg>
