<svg width="80" height="80" viewBox="0 0 80 80" fill="none" xmlns="http://www.w3.org/2000/svg">
<path d="M38.6896 19.2328L36.719 13.7973C36.1774 11.7679 34.1611 10.3389 31.8381 10.3389H11.8773C9.10407 10.3389 6.85938 12.3552 6.85938 14.8413V47.7417C6.85938 50.2278 9.10407 52.2441 11.8773 52.2441H62.7547C65.528 52.2441 67.7727 50.2278 67.7727 47.7417V23.7352C67.7727 21.2491 65.528 19.2328 62.7547 19.2328H38.6961H38.6896Z" fill="#34C7D2"/>
<g filter="url(#filter0_d_4523_5392)">
<path d="M68.9992 31.585H16.3795C14.0044 31.585 12.0859 33.4577 12.0859 35.7611V62.3907C12.0859 65.0856 14.3306 67.2716 17.1039 67.2716H67.9813C70.7545 67.2716 72.9992 65.0856 72.9992 62.3907V36.3615C72.9992 34.0058 71.2831 32.0417 69.0058 31.585H68.9992Z" fill="#00B1BD" fill-opacity="0.3" shape-rendering="crispEdges"/>
</g>
<g filter="url(#filter1_d_4523_5392)">
<path d="M47.354 60.4727C48.6541 60.4727 49.708 59.4187 49.708 58.1187C49.708 56.8186 48.6541 55.7646 47.354 55.7646C46.0539 55.7646 45 56.8186 45 58.1187C45 59.4187 46.0539 60.4727 47.354 60.4727Z" fill="#FFDE07" fill-opacity="0.4" shape-rendering="crispEdges"/>
</g>
<g filter="url(#filter2_d_4523_5392)">
<path d="M56.061 60.4727C57.3611 60.4727 58.415 59.4187 58.415 58.1187C58.415 56.8186 57.3611 55.7646 56.061 55.7646C54.7609 55.7646 53.707 56.8186 53.707 58.1187C53.707 59.4187 54.7609 60.4727 56.061 60.4727Z" fill="#FFDE07" fill-opacity="0.4" shape-rendering="crispEdges"/>
</g>
<g filter="url(#filter3_d_4523_5392)">
<path d="M64.77 60.4727C66.0701 60.4727 67.124 59.4187 67.124 58.1187C67.124 56.8186 66.0701 55.7646 64.77 55.7646C63.4699 55.7646 62.416 56.8186 62.416 58.1187C62.416 59.4187 63.4699 60.4727 64.77 60.4727Z" fill="#FFDE07" fill-opacity="0.4" shape-rendering="crispEdges"/>
</g>
<defs>
<filter id="filter0_d_4523_5392" x="8.08594" y="31.585" width="68.9141" height="43.6865" filterUnits="userSpaceOnUse" color-interpolation-filters="sRGB">
<feFlood flood-opacity="0" result="BackgroundImageFix"/>
<feColorMatrix in="SourceAlpha" type="matrix" values="0 0 0 0 0 0 0 0 0 0 0 0 0 0 0 0 0 0 127 0" result="hardAlpha"/>
<feOffset dy="4"/>
<feGaussianBlur stdDeviation="2"/>
<feComposite in2="hardAlpha" operator="out"/>
<feColorMatrix type="matrix" values="0 0 0 0 0 0 0 0 0 0 0 0 0 0 0 0 0 0 0.05 0"/>
<feBlend mode="normal" in2="BackgroundImageFix" result="effect1_dropShadow_4523_5392"/>
<feBlend mode="normal" in="BackgroundImageFix" in2="effect1_dropShadow_4523_5392" result="BackgroundImageFix"/>
<feBlend mode="normal" in="SourceGraphic" in2="BackgroundImageFix" result="shape"/>
</filter>
<filter id="filter1_d_4523_5392" x="41" y="55.7646" width="12.709" height="12.708" filterUnits="userSpaceOnUse" color-interpolation-filters="sRGB">
<feFlood flood-opacity="0" result="BackgroundImageFix"/>
<feColorMatrix in="SourceAlpha" type="matrix" values="0 0 0 0 0 0 0 0 0 0 0 0 0 0 0 0 0 0 127 0" result="hardAlpha"/>
<feOffset dy="4"/>
<feGaussianBlur stdDeviation="2"/>
<feComposite in2="hardAlpha" operator="out"/>
<feColorMatrix type="matrix" values="0 0 0 0 0 0 0 0 0 0 0 0 0 0 0 0 0 0 0.05 0"/>
<feBlend mode="normal" in2="BackgroundImageFix" result="effect1_dropShadow_4523_5392"/>
<feBlend mode="normal" in="BackgroundImageFix" in2="effect1_dropShadow_4523_5392" result="BackgroundImageFix"/>
<feBlend mode="normal" in="SourceGraphic" in2="BackgroundImageFix" result="shape"/>
</filter>
<filter id="filter2_d_4523_5392" x="49.707" y="55.7646" width="12.707" height="12.708" filterUnits="userSpaceOnUse" color-interpolation-filters="sRGB">
<feFlood flood-opacity="0" result="BackgroundImageFix"/>
<feColorMatrix in="SourceAlpha" type="matrix" values="0 0 0 0 0 0 0 0 0 0 0 0 0 0 0 0 0 0 127 0" result="hardAlpha"/>
<feOffset dy="4"/>
<feGaussianBlur stdDeviation="2"/>
<feComposite in2="hardAlpha" operator="out"/>
<feColorMatrix type="matrix" values="0 0 0 0 0 0 0 0 0 0 0 0 0 0 0 0 0 0 0.05 0"/>
<feBlend mode="normal" in2="BackgroundImageFix" result="effect1_dropShadow_4523_5392"/>
<feBlend mode="normal" in="BackgroundImageFix" in2="effect1_dropShadow_4523_5392" result="BackgroundImageFix"/>
<feBlend mode="normal" in="SourceGraphic" in2="BackgroundImageFix" result="shape"/>
</filter>
<filter id="filter3_d_4523_5392" x="58.416" y="55.7646" width="12.709" height="12.708" filterUnits="userSpaceOnUse" color-interpolation-filters="sRGB">
<feFlood flood-opacity="0" result="BackgroundImageFix"/>
<feColorMatrix in="SourceAlpha" type="matrix" values="0 0 0 0 0 0 0 0 0 0 0 0 0 0 0 0 0 0 127 0" result="hardAlpha"/>
<feOffset dy="4"/>
<feGaussianBlur stdDeviation="2"/>
<feComposite in2="hardAlpha" operator="out"/>
<feColorMatrix type="matrix" values="0 0 0 0 0 0 0 0 0 0 0 0 0 0 0 0 0 0 0.05 0"/>
<feBlend mode="normal" in2="BackgroundImageFix" result="effect1_dropShadow_4523_5392"/>
<feBlend mode="normal" in="BackgroundImageFix" in2="effect1_dropShadow_4523_5392" result="BackgroundImageFix"/>
<feBlend mode="normal" in="SourceGraphic" in2="BackgroundImageFix" result="shape"/>
</filter>
</defs>
</svg>
