<svg width="80" height="80" viewBox="0 0 80 80" fill="none" xmlns="http://www.w3.org/2000/svg">
<g clip-path="url(#clip0_4523_5385)">
<path d="M12.2109 19.3171C18.9479 12.6528 29.892 12.6489 36.6328 19.3171L64.4212 46.8061L43.8546 67.1511C41.7276 69.2552 38.2711 69.2552 36.1441 67.1511L12.2109 43.4759C5.47401 36.8115 5.4701 25.9853 12.2109 19.3171Z" fill="#34C7D2"/>
<g filter="url(#filter0_d_4523_5385)">
<path d="M67.7891 19.3186C74.526 25.983 74.5299 36.8092 67.7891 43.4774L43.8559 67.1526C41.7289 69.2567 38.2724 69.2567 36.1454 67.1526L15.5788 46.8076L43.3672 19.3186C50.1041 12.6543 61.0482 12.6504 67.7891 19.3186Z" fill="#00B1BD" fill-opacity="0.3" shape-rendering="crispEdges"/>
</g>
<g filter="url(#filter1_d_4523_5385)">
<path d="M40.8646 39.5256L42.6015 42.9417C42.7404 43.2142 43.0084 43.4089 43.326 43.4576L47.1768 44.0221C47.9609 44.1389 48.2785 45.0829 47.7127 45.628L44.9338 48.3044C44.7055 48.5186 44.6063 48.83 44.6559 49.1317L45.301 52.8983C45.43 53.6671 44.6063 54.2511 43.9016 53.891L40.4478 52.1294C40.1699 51.9834 39.8325 51.9834 39.5546 52.1294L36.1007 53.891C35.3961 54.2511 34.5723 53.6671 34.7014 52.8983L35.3465 49.1317C35.3961 48.83 35.2968 48.5186 35.0686 48.3044L32.2896 45.628C31.7239 45.0829 32.0316 44.1389 32.8256 44.0221L36.6764 43.4576C36.9841 43.4089 37.252 43.224 37.4009 42.9417L39.1377 39.5256C39.495 38.8248 40.5074 38.8248 40.8646 39.5256Z" fill="#FFDE07" fill-opacity="0.4" shape-rendering="crispEdges"/>
</g>
</g>
<defs>
<filter id="filter0_d_4523_5385" x="11.5781" y="14.3193" width="65.2656" height="62.4111" filterUnits="userSpaceOnUse" color-interpolation-filters="sRGB">
<feFlood flood-opacity="0" result="BackgroundImageFix"/>
<feColorMatrix in="SourceAlpha" type="matrix" values="0 0 0 0 0 0 0 0 0 0 0 0 0 0 0 0 0 0 127 0" result="hardAlpha"/>
<feOffset dy="4"/>
<feGaussianBlur stdDeviation="2"/>
<feComposite in2="hardAlpha" operator="out"/>
<feColorMatrix type="matrix" values="0 0 0 0 0 0 0 0 0 0 0 0 0 0 0 0 0 0 0.05 0"/>
<feBlend mode="normal" in2="BackgroundImageFix" result="effect1_dropShadow_4523_5385"/>
<feBlend mode="normal" in="BackgroundImageFix" in2="effect1_dropShadow_4523_5385" result="BackgroundImageFix"/>
<feBlend mode="normal" in="SourceGraphic" in2="BackgroundImageFix" result="shape"/>
</filter>
<filter id="filter1_d_4523_5385" x="28" y="39" width="24" height="23" filterUnits="userSpaceOnUse" color-interpolation-filters="sRGB">
<feFlood flood-opacity="0" result="BackgroundImageFix"/>
<feColorMatrix in="SourceAlpha" type="matrix" values="0 0 0 0 0 0 0 0 0 0 0 0 0 0 0 0 0 0 127 0" result="hardAlpha"/>
<feOffset dy="4"/>
<feGaussianBlur stdDeviation="2"/>
<feComposite in2="hardAlpha" operator="out"/>
<feColorMatrix type="matrix" values="0 0 0 0 0 0 0 0 0 0 0 0 0 0 0 0 0 0 0.05 0"/>
<feBlend mode="normal" in2="BackgroundImageFix" result="effect1_dropShadow_4523_5385"/>
<feBlend mode="normal" in="BackgroundImageFix" in2="effect1_dropShadow_4523_5385" result="BackgroundImageFix"/>
<feBlend mode="normal" in="SourceGraphic" in2="BackgroundImageFix" result="shape"/>
</filter>
<clipPath id="clip0_4523_5385">
<rect width="80" height="80" fill="white"/>
</clipPath>
</defs>
</svg>
