<svg width="80" height="80" viewBox="0 0 80 80" fill="none" xmlns="http://www.w3.org/2000/svg">
<path d="M57.2442 53.061C55.3623 43.4174 48.474 35.7441 39.6154 33.2851C43.3948 31.1484 45.9474 27.0986 45.9474 22.4457C45.9474 15.573 40.3744 10 33.5017 10C26.629 10 21.0559 15.573 21.0559 22.4457C21.0559 27.0986 23.6085 31.1484 27.388 33.2851C18.5294 35.7441 11.6411 43.4174 9.75913 53.061C9.25485 55.6604 11.2772 58.0726 13.9285 58.0726H53.0697C55.721 58.0726 57.7433 55.6656 57.239 53.061H57.2442Z" fill="#34C7D2"/>
<g filter="url(#filter0_d_4531_10689)">
<path d="M69.5548 63.4585C67.6728 53.8148 60.7845 46.1415 51.9259 43.6825C55.7054 41.5459 58.258 37.496 58.258 32.8432C58.258 25.9705 52.6849 20.3975 45.8122 20.3975C38.9395 20.3975 33.3665 25.9705 33.3665 32.8432C33.3665 37.496 35.9191 41.5459 39.6985 43.6825C30.8399 46.1415 23.9516 53.8148 22.0697 63.4585C21.5654 66.0578 23.5877 68.47 26.239 68.47H65.3802C68.0316 68.47 70.0539 66.063 69.5496 63.4585H69.5548Z" fill="#00B1BD" fill-opacity="0.3" shape-rendering="crispEdges"/>
</g>
<g filter="url(#filter1_d_4531_10689)">
<path d="M47.2686 51.6626L48.4799 54.0904C48.5527 54.2359 48.693 54.3399 48.8594 54.3659L51.5419 54.7662C51.9526 54.8286 52.119 55.3329 51.8226 55.624L49.8887 57.5267C49.7692 57.6411 49.7172 57.8075 49.7432 57.9686L50.1902 60.6408C50.2578 61.0515 49.8263 61.3634 49.4572 61.171L47.0502 59.9181C46.9047 59.8402 46.7279 59.8402 46.5823 59.9181L44.1753 61.171C43.8062 61.3634 43.3747 61.0515 43.4423 60.6408L43.8894 57.9686C43.9154 57.8075 43.8634 57.6411 43.7438 57.5267L41.8099 55.624C41.5136 55.3329 41.6747 54.8286 42.0906 54.7662L44.7732 54.3659C44.9343 54.3399 45.0747 54.2411 45.1527 54.0904L46.364 51.6626C46.5511 51.2883 47.0814 51.2883 47.2686 51.6626Z" fill="#FFDE07" fill-opacity="0.4" shape-rendering="crispEdges"/>
</g>
<defs>
<filter id="filter0_d_4531_10689" x="17.9922" y="20.3975" width="55.6348" height="56.0723" filterUnits="userSpaceOnUse" color-interpolation-filters="sRGB">
<feFlood flood-opacity="0" result="BackgroundImageFix"/>
<feColorMatrix in="SourceAlpha" type="matrix" values="0 0 0 0 0 0 0 0 0 0 0 0 0 0 0 0 0 0 127 0" result="hardAlpha"/>
<feOffset dy="4"/>
<feGaussianBlur stdDeviation="2"/>
<feComposite in2="hardAlpha" operator="out"/>
<feColorMatrix type="matrix" values="0 0 0 0 0 0 0 0 0 0 0 0 0 0 0 0 0 0 0.05 0"/>
<feBlend mode="normal" in2="BackgroundImageFix" result="effect1_dropShadow_4531_10689"/>
<feBlend mode="normal" in="BackgroundImageFix" in2="effect1_dropShadow_4531_10689" result="BackgroundImageFix"/>
<feBlend mode="normal" in="SourceGraphic" in2="BackgroundImageFix" result="shape"/>
</filter>
<filter id="filter1_d_4531_10689" x="37.6582" y="51.3818" width="18.3145" height="17.8477" filterUnits="userSpaceOnUse" color-interpolation-filters="sRGB">
<feFlood flood-opacity="0" result="BackgroundImageFix"/>
<feColorMatrix in="SourceAlpha" type="matrix" values="0 0 0 0 0 0 0 0 0 0 0 0 0 0 0 0 0 0 127 0" result="hardAlpha"/>
<feOffset dy="4"/>
<feGaussianBlur stdDeviation="2"/>
<feComposite in2="hardAlpha" operator="out"/>
<feColorMatrix type="matrix" values="0 0 0 0 0 0 0 0 0 0 0 0 0 0 0 0 0 0 0.1 0"/>
<feBlend mode="normal" in2="BackgroundImageFix" result="effect1_dropShadow_4531_10689"/>
<feBlend mode="normal" in="BackgroundImageFix" in2="effect1_dropShadow_4531_10689" result="BackgroundImageFix"/>
<feBlend mode="normal" in="SourceGraphic" in2="BackgroundImageFix" result="shape"/>
</filter>
</defs>
</svg>
