<svg width="100%" height="100%" viewBox="0 0 80 80" fill="none" xmlns="http://www.w3.org/2000/svg">
<rect x="12" y="8" width="42" height="52" rx="8" fill="#34C7D2"/>
<g filter="url(#filter0_d_4523_5404)">
<rect x="26" y="18" width="42" height="52" rx="8" fill="#00B1BD" fill-opacity="0.3" shape-rendering="crispEdges"/>
</g>
<g filter="url(#filter1_d_4523_5404)">
<path d="M41.1258 34.5051C37.7029 37.0257 36.9798 41.8301 39.5108 45.2372C41.7445 48.2399 45.7619 49.1551 49.0281 47.6026L53.3429 53.4079C53.825 54.0574 54.749 54.1923 55.4038 53.7143C56.0547 53.2363 56.1953 52.313 55.7132 51.6634L51.3984 45.8582C53.8491 43.2068 54.1464 39.1133 51.9127 36.1106C49.3817 32.7035 44.5527 31.9845 41.1258 34.5051ZM48.8795 44.939C46.5132 46.6794 43.1787 46.1809 41.4271 43.8278C39.6755 41.4747 40.1777 38.1533 42.5439 36.4129C44.9102 34.6726 48.2447 35.171 49.9963 37.5242C51.7479 39.8773 51.2458 43.1987 48.8795 44.939Z" fill="#FFDE07" fill-opacity="0.4" shape-rendering="crispEdges"/>
</g>
<defs>
<filter id="filter0_d_4523_5404" x="22" y="18" width="50" height="60" filterUnits="userSpaceOnUse" color-interpolation-filters="sRGB">
<feFlood flood-opacity="0" result="BackgroundImageFix"/>
<feColorMatrix in="SourceAlpha" type="matrix" values="0 0 0 0 0 0 0 0 0 0 0 0 0 0 0 0 0 0 127 0" result="hardAlpha"/>
<feOffset dy="4"/>
<feGaussianBlur stdDeviation="2"/>
<feComposite in2="hardAlpha" operator="out"/>
<feColorMatrix type="matrix" values="0 0 0 0 0 0 0 0 0 0 0 0 0 0 0 0 0 0 0.05 0"/>
<feBlend mode="normal" in2="BackgroundImageFix" result="effect1_dropShadow_4523_5404"/>
<feBlend mode="normal" in="BackgroundImageFix" in2="effect1_dropShadow_4523_5404" result="BackgroundImageFix"/>
<feBlend mode="normal" in="SourceGraphic" in2="BackgroundImageFix" result="shape"/>
</filter>
<filter id="filter1_d_4523_5404" x="34" y="33" width="26" height="29" filterUnits="userSpaceOnUse" color-interpolation-filters="sRGB">
<feFlood flood-opacity="0" result="BackgroundImageFix"/>
<feColorMatrix in="SourceAlpha" type="matrix" values="0 0 0 0 0 0 0 0 0 0 0 0 0 0 0 0 0 0 127 0" result="hardAlpha"/>
<feOffset dy="4"/>
<feGaussianBlur stdDeviation="2"/>
<feComposite in2="hardAlpha" operator="out"/>
<feColorMatrix type="matrix" values="0 0 0 0 0 0 0 0 0 0 0 0 0 0 0 0 0 0 0.05 0"/>
<feBlend mode="normal" in2="BackgroundImageFix" result="effect1_dropShadow_4523_5404"/>
<feBlend mode="normal" in="BackgroundImageFix" in2="effect1_dropShadow_4523_5404" result="BackgroundImageFix"/>
<feBlend mode="normal" in="SourceGraphic" in2="BackgroundImageFix" result="shape"/>
</filter>
</defs>
</svg>
