<svg width="80" height="80" viewBox="0 0 80 80" fill="none" xmlns="http://www.w3.org/2000/svg">
<path d="M31.2191 74.0333L27.6125 68.2614C27.2338 67.6577 26.4705 67.4659 25.8413 67.81L19.572 71.2405C18.5057 71.8216 17.3229 70.8568 17.6376 69.6607L25.0139 41.5739C25.212 40.8122 25.9695 40.3383 26.7036 40.5188L40.1162 43.8195C40.8503 44.0001 41.2815 44.7674 41.0776 45.5291L33.7129 73.5537C33.3983 74.7555 31.8601 75.0489 31.225 74.0277L31.2191 74.0333Z" fill="#34C7D2"/>
<path d="M47.7899 74.0333L51.3965 68.2614C51.7752 67.6577 52.5385 67.4659 53.1677 67.81L59.4371 71.2405C60.5033 71.8216 61.6861 70.8568 61.3715 69.6607L53.9951 41.5739C53.797 40.8122 53.0396 40.3383 52.3054 40.5188L38.8928 43.8195C38.1587 44.0001 37.7275 44.7674 37.9314 45.5291L45.2903 73.5537C45.6049 74.7555 47.1431 75.0489 47.7782 74.0277L47.7899 74.0333Z" fill="#34C7D2"/>
<g filter="url(#filter0_d_4523_5411)">
<path d="M63.9746 37.7247C66.1978 24.6354 57.0424 12.2792 43.5254 10.1264C30.0085 7.97354 17.2486 16.8393 15.0254 29.9286C12.8022 43.0179 21.9576 55.3741 35.4746 57.527C48.9915 59.6798 61.7514 50.814 63.9746 37.7247Z" fill="#00B1BD" fill-opacity="0.3" shape-rendering="crispEdges"/>
</g>
<g filter="url(#filter1_d_4523_5411)">
<path d="M39.8646 26.5265L41.6015 29.9427C41.7404 30.2152 42.0084 30.4099 42.326 30.4585L46.1768 31.023C46.9609 31.1398 47.2785 32.0839 46.7127 32.6289L43.9338 35.3054C43.7055 35.5195 43.6063 35.831 43.6559 36.1327L44.301 39.8992C44.43 40.6681 43.6063 41.2521 42.9016 40.892L39.4478 39.1304C39.1699 38.9844 38.8325 38.9844 38.5546 39.1304L35.1007 40.892C34.3961 41.2521 33.5723 40.6681 33.7014 39.8992L34.3465 36.1327C34.3961 35.831 34.2968 35.5195 34.0686 35.3054L31.2896 32.6289C30.7239 32.0839 31.0316 31.1398 31.8256 31.023L35.6764 30.4585C35.9841 30.4099 36.252 30.225 36.4009 29.9427L38.1377 26.5265C38.495 25.8258 39.5074 25.8258 39.8646 26.5265Z" fill="#FFDE07" fill-opacity="0.4" shape-rendering="crispEdges"/>
</g>
<defs>
<filter id="filter0_d_4523_5411" x="10.6934" y="9.80469" width="57.6133" height="56.0439" filterUnits="userSpaceOnUse" color-interpolation-filters="sRGB">
<feFlood flood-opacity="0" result="BackgroundImageFix"/>
<feColorMatrix in="SourceAlpha" type="matrix" values="0 0 0 0 0 0 0 0 0 0 0 0 0 0 0 0 0 0 127 0" result="hardAlpha"/>
<feOffset dy="4"/>
<feGaussianBlur stdDeviation="2"/>
<feComposite in2="hardAlpha" operator="out"/>
<feColorMatrix type="matrix" values="0 0 0 0 0 0 0 0 0 0 0 0 0 0 0 0 0 0 0.05 0"/>
<feBlend mode="normal" in2="BackgroundImageFix" result="effect1_dropShadow_4523_5411"/>
<feBlend mode="normal" in="BackgroundImageFix" in2="effect1_dropShadow_4523_5411" result="BackgroundImageFix"/>
<feBlend mode="normal" in="SourceGraphic" in2="BackgroundImageFix" result="shape"/>
</filter>
<filter id="filter1_d_4523_5411" x="27" y="26.001" width="24" height="23" filterUnits="userSpaceOnUse" color-interpolation-filters="sRGB">
<feFlood flood-opacity="0" result="BackgroundImageFix"/>
<feColorMatrix in="SourceAlpha" type="matrix" values="0 0 0 0 0 0 0 0 0 0 0 0 0 0 0 0 0 0 127 0" result="hardAlpha"/>
<feOffset dy="4"/>
<feGaussianBlur stdDeviation="2"/>
<feComposite in2="hardAlpha" operator="out"/>
<feColorMatrix type="matrix" values="0 0 0 0 0 0 0 0 0 0 0 0 0 0 0 0 0 0 0.1 0"/>
<feBlend mode="normal" in2="BackgroundImageFix" result="effect1_dropShadow_4523_5411"/>
<feBlend mode="normal" in="BackgroundImageFix" in2="effect1_dropShadow_4523_5411" result="BackgroundImageFix"/>
<feBlend mode="normal" in="SourceGraphic" in2="BackgroundImageFix" result="shape"/>
</filter>
</defs>
</svg>
