<svg width="48" height="48" viewBox="0 0 48 48" fill="none" xmlns="http://www.w3.org/2000/svg">
<rect width="48" height="48" rx="24" fill="var(--path-color-2)"/>
<mask id="mask0_3263_2459" style="mask-type:alpha" maskUnits="userSpaceOnUse" x="0" y="0" width="48" height="48">
<rect width="48" height="48" rx="24" fill="#FB7310"/>
</mask>
<g mask="url(#mask0_3263_2459)">
<path d="M32.3339 13.9827C33.8278 15.4787 33.8258 17.9013 32.3297 19.3952L27.0864 24.6303C25.5904 26.1243 23.1678 26.1222 21.6739 24.6262C20.1799 23.1302 20.182 20.7076 21.678 19.2136L26.9213 13.9786C28.4174 12.4846 30.8399 12.4867 32.3339 13.9827Z" fill="var(--path-color-1)"/>
<path d="M33.5051 23.5502C34.9991 25.0441 34.9991 27.4687 33.5051 28.9627L28.3299 34.1379C26.8359 35.6319 24.4113 35.6319 22.9174 34.1379C21.4234 32.644 21.4234 30.2194 22.9174 28.7254L28.0926 23.5502C29.5866 22.0562 32.0112 22.0562 33.5051 23.5502Z" fill="var(--path-color-1)"/>
<path d="M21.0799 29.3807C22.0055 27.6878 21.3836 25.5651 19.6907 24.6394C17.9979 23.7138 15.8751 24.3357 14.9495 26.0286C14.0238 27.7214 14.6458 29.8441 16.3386 30.7698C18.0315 31.6955 20.1542 31.0735 21.0799 29.3807Z" fill="var(--path-color-1)"/>
</g>
</svg>
