<svg width="372" height="40" viewBox="0 0 372 40" fill="none" xmlns="http://www.w3.org/2000/svg">
<rect width="2" height="40" rx="1" fill="currentColor"/>
<rect x="10" width="2" height="40" rx="1" fill="currentColor"/>
<rect x="20" width="2" height="40" rx="1" fill="currentColor"/>
<rect x="30" width="2" height="40" rx="1" fill="currentColor"/>
<rect x="40" width="2" height="40" rx="1" fill="currentColor"/>
<rect x="50" width="2" height="40" rx="1" fill="currentColor"/>
<rect x="60" width="2" height="40" rx="1" fill="currentColor"/>
<rect x="70" width="2" height="40" rx="1" fill="currentColor"/>
<rect x="80" width="2" height="40" rx="1" fill="currentColor"/>
<rect x="90" width="2" height="40" rx="1" fill="currentColor"/>
<rect x="100" width="2" height="40" rx="1" fill="currentColor"/>
<rect x="110" width="2" height="40" rx="1" fill="currentColor"/>
<rect x="120" width="2" height="40" rx="1" fill="currentColor"/>
<rect x="130" width="2" height="40" rx="1" fill="currentColor"/>
<rect x="140" width="2" height="40" rx="1" fill="currentColor"/>
<rect x="150" width="2" height="40" rx="1" fill="currentColor"/>
<rect x="160" width="2" height="40" rx="1" fill="currentColor"/>
<rect x="170" width="2" height="40" rx="1" fill="currentColor"/>
<rect x="180" width="2" height="40" rx="1" fill="currentColor"/>
<rect x="190" width="2" height="40" rx="1" fill="currentColor"/>
<rect x="200" width="2" height="40" rx="1" fill="currentColor"/>
<rect x="210" width="2" height="40" rx="1" fill="currentColor"/>
<rect x="220" width="2" height="40" rx="1" fill="currentColor"/>
<rect x="230" width="2" height="40" rx="1" fill="currentColor"/>
<rect x="240" width="2" height="40" rx="1" fill="currentColor"/>
<rect x="250" width="2" height="40" rx="1" fill="currentColor"/>
<rect x="260" width="2" height="40" rx="1" fill="currentColor"/>
<rect x="270" width="2" height="40" rx="1" fill="currentColor"/>
<rect x="280" width="2" height="40" rx="1" fill="currentColor"/>
<rect x="290" width="2" height="40" rx="1" fill="currentColor"/>
<rect x="300" width="2" height="40" rx="1" fill="currentColor"/>
<rect x="310" width="2" height="40" rx="1" fill="currentColor"/>
<rect x="320" width="2" height="40" rx="1" fill="currentColor"/>
<rect x="330" width="2" height="40" rx="1" fill="currentColor"/>
<rect x="340" width="2" height="40" rx="1" fill="currentColor"/>
<rect x="350" width="2" height="40" rx="1" fill="currentColor"/>
<rect x="360" width="2" height="40" rx="1" fill="currentColor"/>
<rect x="370" width="2" height="40" rx="1" fill="currentColor"/>
</svg>
